<?xml version="1.0" encoding="UTF-8" standalone="no"?>
<!-- Generator: Adobe Illustrator 28.3.0, SVG Export Plug-In . SVG Version: 6.00 Build 0)  -->

<svg
   version="1.1"
   id="Full_Outline"
   x="0px"
   y="0px"
   viewBox="0 0 133642.49 25101.787"
   xml:space="preserve"
   width="133642.48"
   height="25101.787"
   xmlns:xlink="http://www.w3.org/1999/xlink"
   xmlns="http://www.w3.org/2000/svg"
   xmlns:svg="http://www.w3.org/2000/svg"><defs
   id="defs1"><linearGradient
     id="linearGradient712"><stop
       style="stop-color:#ffac11;stop-opacity:1;"
       offset="0"
       id="stop712" /><stop
       style="stop-color:#db1675;stop-opacity:1;"
       offset="0.5"
       id="stop714" /><stop
       style="stop-color:#892be1;stop-opacity:1;"
       offset="1"
       id="stop713" /></linearGradient><rect
     x="137.75255"
     y="138.14168"
     width="194.95488"
     height="43.193596"
     id="rect25" /><linearGradient
     id="linearGradient24"><stop
       style="stop-color:#892be1;stop-opacity:1;"
       offset="0"
       id="stop24" /><stop
       style="stop-color:#db1675;stop-opacity:1;"
       offset="1"
       id="stop25" /></linearGradient><linearGradient
     xlink:href="#linearGradient24"
     id="linearGradient25"
     x1="97.428589"
     y1="168.78786"
     x2="114.95543"
     y2="168.78786"
     gradientUnits="userSpaceOnUse"
     gradientTransform="matrix(0,1.2746125,1.2746125,0,-40056.252,-44425.635)" /><linearGradient
     xlink:href="#linearGradient712"
     id="linearGradient713"
     x1="137.8497"
     y1="146.60625"
     x2="273.99033"
     y2="146.60625"
     gradientUnits="userSpaceOnUse"
     gradientTransform="matrix(-1,0,0,1,-39740.974,-44458.938)" /></defs>
<style
   type="text/css"
   id="style1">
	.st0{fill:#FFF200;}
</style>

<style
   type="text/css"
   id="style1-7">
	.st0{fill:#F287B7;}
</style><g
   id="layer3"
   style="display:inline"
   transform="translate(-40199.503,-44458.938)" /><g
   id="layer1"
   style="display:inline"
   transform="translate(-40199.503,-44458.938)" /><g
   id="g714"
   transform="matrix(-1,0,0,1,-39740.974,-44458.938)"><path
     style="fill:#0a7985;fill-opacity:0.866667;stroke:none;stroke-opacity:1"
     d="m 363.89062,191.65039 c -0.12041,0.045 -0.24184,0.0837 -0.36328,0.11719 z"
     id="path712" /><path
     style="fill:#0a7985;fill-opacity:0.866667;stroke:none;stroke-opacity:1"
     d="m 365.45898,190.68359 c -0.11525,0.10393 -0.23328,0.20192 -0.35351,0.29297 z"
     id="path709" /><path
     style="fill:#0a7985;fill-opacity:0.866667;stroke:none;stroke-opacity:1"
     d="m 366.14648,189.94141 c -0.10584,0.13578 -0.21486,0.26452 -0.32812,0.38671 z"
     id="path707" /><path
     style="fill:#ffac11;fill-opacity:1;stroke:none;stroke-opacity:1"
     d="m 242.16211,189.21289 c 0.17123,0.0732 0.33457,0.15427 0.49219,0.24414 z"
     id="path706" /><path
     style="fill:#ffac11;fill-opacity:1;stroke:none;stroke-opacity:1"
     d="m 240.03516,188.80469 c -0.18554,0.012 -0.37065,0.0355 -0.55274,0.0703 l 0.27539,-0.0449 z"
     id="path705" /><path
     style="fill:#ffac11;fill-opacity:1;stroke:none;stroke-opacity:1"
     d="m 242.81641,187.73828 c -0.17486,0.0678 -0.35514,0.12838 -0.54102,0.17774 z"
     id="path704" /><path
     id="path703"
     style="fill:#892be1;fill-opacity:1;stroke:none;stroke-opacity:1"
     d="m 237.2168,186.13086 0.18164,0.22266 0.18554,0.20507 H 87.876953 c 0.660624,1.92303 1.311834,3.39711 1.695313,4.16407 0.433615,0.78051 1.030402,1.46792 1.830078,1.90234 h 68.507816 a 3.2640001,3.2640001 0 0 1 -0.0312,-0.43164 3.2640001,3.2640001 0 0 1 3.26367,-3.26367 3.2640001,3.2640001 0 0 1 3.26367,3.26367 3.2640001,3.2640001 0 0 1 -0.0312,0.43164 h 3.13477 a 3.2640001,3.2640001 0 0 1 -0.0312,-0.43164 3.2640001,3.2640001 0 0 1 3.26367,-3.26367 3.2640001,3.2640001 0 0 1 3.26367,3.26367 3.2640001,3.2640001 0 0 1 -0.0312,0.43164 h 3.13477 a 3.2640001,3.2640001 0 0 1 -0.0313,-0.43164 3.2640001,3.2640001 0 0 1 3.26368,-3.26367 3.2640001,3.2640001 0 0 1 3.26367,3.26367 3.2640001,3.2640001 0 0 1 -0.0312,0.43164 h 46.17969 l 0.14062,-0.13281 0.20703,-0.0762 0.22071,0.008 0.87695,0.20312 h 1.96875 l -0.002,0.006 -0.12305,0.29688 c 0.0438,-0.11107 0.092,-0.21996 0.14062,-0.32813 -0.003,0.007 -0.009,0.0125 -0.0117,0.0195 l 0.1289,-0.27539 0.14649,-0.28125 0.15625,-0.27148 0.16796,-0.26367 0.17579,-0.25586 0.13281,-0.17578 c -0.005,0.006 -0.007,0.0136 -0.0117,0.0195 0.0124,-0.0162 0.0246,-0.0328 0.0371,-0.0488 -0.003,0.004 -0.007,0.006 -0.01,0.01 l 0.0371,-0.0488 0.19531,-0.23438 0.20313,-0.22461 0.21094,-0.21289 h 0.002 l 0.21875,-0.20312 0.22656,-0.18946 0.0996,-0.0762 c -0.004,0.003 -0.007,0.008 -0.0117,0.0117 0.0194,-0.015 0.039,-0.0302 0.0586,-0.0449 -0.004,0.003 -0.009,0.005 -0.0137,0.008 l 0.0996,-0.0762 0.23828,-0.16406 0.24609,-0.15039 c -0.19609,0.11391 -0.38554,0.24399 -0.57031,0.38281 0.43218,-0.32457 0.89751,-0.58514 1.38476,-0.76563 -0.10279,0.0381 -0.20392,0.0781 -0.30468,0.12305 l 0.25976,-0.10937 0.0586,-0.0215 c -0.005,0.002 -0.009,0.006 -0.0137,0.008 0.0135,-0.005 0.0275,-0.009 0.041,-0.0137 -0.005,0.002 -0.0106,1e-4 -0.0156,0.002 l 0.19336,-0.0664 c -0.0598,0.019 -0.11856,0.0431 -0.17773,0.0644 0.49497,-0.17836 1.01086,-0.27732 1.53711,-0.27929 l -0.25,0.008 c 0.0873,-0.005 0.17387,-0.01 0.26172,-0.01 -0.004,4.1e-4 -0.007,0.002 -0.0117,0.002 h 0.0215 c -0.002,0 -0.003,-9.6e-4 -0.004,-0.002 0.22019,0.0122 0.43302,0.0365 0.63867,0.0703 l -0.59961,-0.0644 c 0.27568,0.0173 0.53834,0.0544 0.79101,0.10547 0.0556,0.0111 0.10958,0.0245 0.16407,0.0371 0.22883,0.0536 0.44883,0.11934 0.6582,0.19922 0.0262,0.01 0.0562,0.0189 0.082,0.0293 0.50395,0.20231 0.95361,0.47837 1.34375,0.8125 0.003,0.003 0.009,0.007 0.0117,0.01 0.39372,0.33968 0.73048,0.73876 1.00977,1.18164 l -0.0918,-0.15039 c -0.0267,-0.0395 -0.0544,-0.0785 -0.082,-0.11719 l 0.041,0.0527 0.041,0.0644 c 0.0741,0.10971 0.1441,0.22259 0.21094,0.33789 l 0.0449,0.0723 0.0527,0.10547 c -0.032,-0.0597 -0.0637,-0.11937 -0.0977,-0.17774 l -0.11914,-0.1875 c 0.28076,0.44524 0.50449,0.93381 0.67187,1.45117 h 0.004 84.27343 v -0.33789 l 0.0723,-0.36133 0.20508,-0.30664 0.30664,-0.20507 0.36133,-0.0723 h 3.02343 l 0.36133,0.0723 0.30664,0.20507 0.20508,0.30664 0.0723,0.36133 v 0.33789 h 6.80273 v -0.33789 l 0.0723,-0.36133 0.20508,-0.30664 0.30664,-0.20507 0.36132,-0.0723 h 3.02344 l 0.36133,0.0723 0.30664,0.20507 0.20508,0.30664 0.0723,0.36133 v 0.33789 h 10.72071 l 0.004,-0.043 0.16016,-0.29101 0.25781,-0.20703 0.32031,-0.0937 1.69336,-0.14844 0.33008,0.0391 0.29102,0.15821 0.20703,0.25976 0.0937,0.31836 v 0.008 h 10.38476 c 0.20399,-1.42485 0.559,-3.9204 0.86719,-6.0664 h -3.77344 c -0.10425,0.64772 -0.29054,1.22016 -0.50781,1.75586 -0.0497,0.12243 -0.0918,0.25278 -0.14648,0.36914 -0.0709,0.151 -0.15166,0.28868 -0.23047,0.42968 -0.10884,0.19538 -0.21509,0.39493 -0.33789,0.57032 -0.0102,0.0145 -0.021,0.0305 -0.0312,0.0449 -0.18522,0.25969 -0.38557,0.4963 -0.59571,0.71094 -0.0136,0.0139 -0.0273,0.0273 -0.041,0.041 -0.21014,0.21028 -0.42991,0.39966 -0.6582,0.56446 -0.0169,0.012 -0.0339,0.0234 -0.0508,0.0352 -0.22727,0.15991 -0.46237,0.29786 -0.70117,0.41211 -0.0194,0.009 -0.0392,0.0165 -0.0586,0.0254 -0.24201,0.11165 -0.4871,0.20163 -0.73438,0.26563 l 0.0234,-0.004 c -0.0174,0.005 -0.0353,0.007 -0.0527,0.0117 -0.2502,0.0627 -0.50091,0.10222 -0.75,0.11523 0.0176,-9e-4 0.0351,-0.003 0.0527,-0.004 l -0.0547,0.006 h -0.0156 c 0.004,-1.9e-4 0.008,-0.002 0.0117,-0.002 -0.005,2.3e-4 -0.009,-2.1e-4 -0.0137,0 -0.19599,0.009 -0.38838,-0.0122 -0.58008,-0.0351 -0.12924,-0.0153 -0.25667,-0.0386 -0.38281,-0.0684 -0.17915,-0.0423 -0.35849,-0.0847 -0.5293,-0.15625 -0.009,-0.004 -0.0184,-0.006 -0.0274,-0.01 -0.22278,-0.0956 -0.43595,-0.22005 -0.63867,-0.36719 -0.0167,-0.0121 -0.0342,-0.0226 -0.0508,-0.0351 -0.19592,-0.14779 -0.3801,-0.32368 -0.55078,-0.52149 -0.0171,-0.0201 -0.0357,-0.038 -0.0527,-0.0586 -0.16851,-0.20376 -0.32018,-0.43427 -0.45704,-0.68945 -0.0196,-0.0371 -0.0415,-0.0714 -0.0605,-0.10938 l -0.0488,-0.0918 -0.043,-0.10546 c -0.044,-0.0985 -0.0878,-0.19947 -0.12695,-0.30469 l -0.0293,-0.0723 -0.0371,-0.12304 c -0.0234,-0.0709 -0.0451,-0.14305 -0.0664,-0.2168 -0.0903,-0.31261 -0.15934,-0.65131 -0.20704,-1.01563 -0.009,-0.0679 -0.0181,-0.13535 -0.0254,-0.20507 l -0.0234,-0.19532 -0.008,-0.18554 c -0.006,-0.10173 -0.0109,-0.20527 -0.0137,-0.31055 l -0.008,-0.19336 0.006,-0.2168 c 4e-5,-0.003 -4e-5,-0.005 0,-0.008 v -0.0234 c -5.8e-4,-0.009 -0.002,-0.0188 -0.002,-0.0293 H 244.62109 c -0.0903,0.0889 -0.1815,0.17532 -0.27734,0.25781 l 0.24414,-0.23438 c -0.43835,0.42555 -0.94161,0.7771 -1.50586,1.03516 -0.0335,0.0152 -0.0657,0.0324 -0.0996,0.0469 -0.27049,0.11669 -0.55543,0.20869 -0.85351,0.27929 -0.15253,0.0363 -0.30535,0.0728 -0.46485,0.0957 -0.2097,0.0301 -0.42461,0.0484 -0.64648,0.0547 h -0.002 -0.002 -0.002 l -0.27539,-0.008 -0.27344,-0.0273 c 0.18041,0.0226 0.36334,0.0349 0.54883,0.0351 -0.31924,-1.5e-4 -0.63032,-0.0382 -0.9336,-0.10351 -0.0168,-0.004 -0.034,-0.006 -0.0508,-0.01 l -0.006,-0.002 c -0.2982,-0.0684 -0.58757,-0.16479 -0.86523,-0.29102 h -0.002 c -0.001,-6e-4 -0.003,-9.5e-4 -0.004,-0.002 l -0.01,-0.006 c -0.27553,-0.12663 -0.53845,-0.28266 -0.78906,-0.46094 -0.0182,-0.0129 -0.0366,-0.0259 -0.0547,-0.0391 -0.2379,-0.17403 -0.46298,-0.37183 -0.67383,-0.58789 0.0555,0.0571 0.11043,0.11564 0.16797,0.16992 l -0.20118,-0.19726 c 0.0101,0.0105 0.0231,0.0151 0.0332,0.0254 -0.14159,-0.1456 -0.27852,-0.29791 -0.40625,-0.46094 z m -3.4043,0.49609 0.33008,0.0117 1.6582,0.38086 0.30274,0.13672 0.22656,0.24219 0.11719,0.31054 -0.01,0.33204 -0.46875,2.02539 -0.13672,0.30273 -0.24219,0.22656 -0.30859,0.11719 -0.33203,-0.0117 -1.6582,-0.38281 -0.30079,-0.13477 -0.22851,-0.24218 -0.11719,-0.31055 0.0117,-0.33203 0.4668,-2.02539 0.13672,-0.30274 0.24218,-0.22656 z m 123.83984,0.0371 0.22071,0.0234 0.19336,0.10547 0.13867,0.17187 0.0625,0.21289 0.16406,1.88282 -0.0234,0.21875 -0.10547,0.19531 -0.17187,0.13867 -0.21289,0.0606 -1.12891,0.0996 -0.2207,-0.0234 -0.19336,-0.10547 -0.13867,-0.17187 -0.0625,-0.21289 -0.16406,-1.88282 0.0215,-0.2207 0.10742,-0.19336 0.17188,-0.13867 0.21289,-0.0625 z m 1.13086,1.36133 c 0.0146,0.10163 0.0307,0.20134 0.0488,0.29883 l -0.0332,-0.16016 z m 0.10742,0.57813 c 0.025,0.1091 0.0526,0.21485 0.082,0.31836 l -0.0527,-0.17383 z m -115.81835,1.12304 0.0586,0.0391 0.0703,0.0586 c -0.0427,-0.0329 -0.0849,-0.0661 -0.1289,-0.0977 z m 0.40625,0.32813 0.0801,0.0664 0.0586,0.0605 c -0.0451,-0.0435 -0.0919,-0.0851 -0.13867,-0.12695 z m 116.5664,0.82422 c 0.0112,0.0115 0.0219,0.0238 0.0332,0.0352 h -0.002 z m 4.72461,0.33007 -0.0586,0.0391 -0.0566,0.0312 c 0.0384,-0.0231 0.0772,-0.046 0.11523,-0.0703 z m -120,0.60352 0.0644,0.12695 0.0586,0.14649 c -0.0388,-0.0925 -0.0803,-0.18341 -0.12305,-0.27344 z m 118.32227,0.0508 -0.004,0.002 -0.043,0.004 c 0.0155,-0.002 0.0314,-0.003 0.0469,-0.006 z m -118.08789,0.50586 0.041,0.10352 0.0332,0.11132 c -0.0239,-0.0723 -0.0481,-0.14371 -0.0742,-0.21484 z" /><path
     style="fill:#ffac11;fill-opacity:1;stroke:none;stroke-opacity:1"
     d="m 367.54297,186.58789 c -0.064,0.39023 -0.15268,0.7578 -0.25977,1.10742 l 0.0937,-0.30664 0.14063,-0.6289 z"
     id="path701" /><path
     style="fill:#ffac11;fill-opacity:1;stroke:none;stroke-opacity:1"
     d="m 236.45117,184.86914 c 0.0845,0.18419 0.17649,0.36318 0.27539,0.53516 l -0.14453,-0.26368 z"
     id="path700" /><path
     style="fill:#ffac11;fill-opacity:1;stroke:none;stroke-opacity:1"
     d="m 361.62891,181.03711 -0.31055,0.21094 c 0.10218,-0.0747 0.20562,-0.14543 0.31055,-0.21094 z"
     id="path698" /><path
     style="fill:#ffac11;fill-opacity:1;stroke:none;stroke-opacity:1"
     d="m 364.88281,180.49805 c 0.1267,0.0384 0.25122,0.0849 0.37305,0.13867 z"
     id="path697" /><path
     style="fill:#ffac11;fill-opacity:1;stroke:none;stroke-opacity:1"
     d="m 363.26562,180.4043 -0.375,0.0801 c 0.12495,-0.0329 0.24993,-0.0595 0.375,-0.0801 z"
     id="path696" /><path
     style="fill:#ffac11;fill-opacity:1;stroke:none;stroke-opacity:1"
     d="m 364.09766,180.35938 c 0.13277,0.008 0.26458,0.0241 0.39453,0.0469 z"
     id="path695" /><path
     style="fill:#ffac11;fill-opacity:1;stroke:none;stroke-opacity:1"
     d="m 363.68359,180.35742 -0.39257,0.041 c 0.13153,-0.0208 0.26184,-0.034 0.39257,-0.041 z"
     id="path694" /><path
     style="fill:#ffac11;fill-opacity:1;stroke:none;stroke-opacity:1"
     d="m 363.05664,178.63672 0.42774,0.0977 c -0.14736,-0.0257 -0.2909,-0.058 -0.42774,-0.0977 z"
     id="path693" /><path
     style="fill:#ffac11;fill-opacity:1;stroke:none;stroke-opacity:1"
     d="m 237.28906,177.13477 -0.17578,0.25195 -0.16601,0.26367 -0.15625,0.27149 -0.14454,0.27929 c 0.18768,-0.3789 0.40357,-0.73611 0.64258,-1.0664 z"
     id="path692" /><path
     style="fill:#ffac11;fill-opacity:1;stroke:none;stroke-opacity:1"
     d="m 237.86719,176.43555 -0.20117,0.22265 -0.19336,0.23242 -0.18164,0.24219 c 0.17973,-0.24818 0.37127,-0.48097 0.57617,-0.69726 z"
     id="path691" /><path
     style="fill:#ffac11;fill-opacity:1;stroke:none;stroke-opacity:1"
     d="m 238.18945,176.12305 c -0.0374,0.0344 -0.0765,0.0681 -0.11328,0.10351 z"
     id="path690" /><path
     style="fill:#ffac11;fill-opacity:1;stroke:none;stroke-opacity:1"
     d="m 161.5625,185.44141 a 3.2640001,3.2640001 0 0 1 -1.49414,-1.76953 H 87.011719 c 0.16602,0.63283 0.332567,1.20167 0.509765,1.76953 z"
     id="path686" /><path
     style="fill:#ffac11;fill-opacity:1;stroke:none;stroke-opacity:1"
     d="m 171.16406,185.44141 a 3.2640001,3.2640001 0 0 1 -1.49414,-1.76953 h -3.45508 a 3.2640001,3.2640001 0 0 1 -1.49414,1.76953 z"
     id="path684" /><path
     style="fill:#ffac11;fill-opacity:1;stroke:none;stroke-opacity:1"
     d="m 179.07812,185.44141 v -1.76953 h -3.26171 a 3.2640001,3.2640001 0 0 1 -1.49414,1.76953 z"
     id="path682" /><path
     style="fill:#ffac11;fill-opacity:1;stroke:none;stroke-opacity:1"
     d="m 236.74023,185.42773 0.13868,0.23047 0.16406,0.24219 c -0.10722,-0.15136 -0.20776,-0.30913 -0.30274,-0.47266 z"
     id="path680" /><path
     style="fill:#ffac11;fill-opacity:1;stroke:none;stroke-opacity:1"
     d="m 234.35352,183.67188 -0.0391,0.0684 -0.21875,0.24805 -0.29687,0.14844 -0.33203,0.0215 -0.31446,-0.10547 -0.6582,-0.38085 h -46.88867 v 1.76953 h 51.14062 c -0.002,-0.004 -0.003,-0.01 -0.006,-0.0137 l -0.002,-0.004 c -0.30431,-0.52409 -0.54096,-1.10846 -0.70117,-1.73633 0.0271,0.10649 0.0543,0.21251 0.0859,0.31641 l -0.0859,-0.30469 -0.004,-0.0195 c -7.4e-4,-0.003 -0.003,-0.005 -0.004,-0.008 z"
     id="path678" /><path
     style="fill:#892be1;fill-opacity:1;stroke:none;stroke-opacity:1"
     d="m 211.78516,178.53125 v 2.87305 l -0.0723,0.36132 -0.20508,0.30665 -0.30664,0.20507 -0.36133,0.0723 h -3.02343 l -0.36133,-0.0723 -0.30664,-0.20507 -0.20508,-0.30665 -0.0723,-0.36132 v -2.87305 H 86.117188 c 0.114798,0.86066 0.204459,1.7465 0.255859,2.05469 0.1316,0.70186 0.300501,1.31742 0.457031,1.96484 h 73.052732 a 3.2640001,3.2640001 0 0 1 3.25977,-3.2207 3.2640001,3.2640001 0 0 1 3.25976,3.2207 h 3.08008 a 3.2640001,3.2640001 0 0 1 3.25977,-3.2207 3.2640001,3.2640001 0 0 1 3.25976,3.2207 h 3.07617 v -3.2207 h 6.52735 v 3.2207 h 45.66992 l -0.0137,-0.19726 0.10547,-0.31446 1.03906,-1.79883 0.21875,-0.25 0.29883,-0.14648 0.33008,-0.0234 0.31445,0.10742 1.47266,0.84961 0.25,0.21875 0.14648,0.29688 0.0234,0.33203 -0.10742,0.31445 L 235,182.55078 h 0.83789 c -7.2e-4,-0.008 7e-4,-0.0158 0,-0.0234 v -0.01 l -0.0117,-0.10156 -0.0195,-0.33594 -0.004,-0.33985 0.0117,-0.34375 c -7.1e-4,0.0133 6.4e-4,0.0258 0,0.0391 6.7e-4,-0.0137 0.001,-0.0273 0.002,-0.041 6e-4,-0.0112 10e-4,-0.0221 0.002,-0.0332 -6.3e-4,0.0107 -0.003,0.0205 -0.004,0.0312 l 0.0274,-0.3418 0.0391,-0.33984 0.0527,-0.33594 0.0664,-0.33008 c -0.0938,0.42562 -0.15548,0.86558 -0.18164,1.31641 0.0287,-0.49092 0.10066,-0.96923 0.20898,-1.42969 0.004,-0.0183 0.009,-0.0364 0.0137,-0.0547 0.11023,-0.45452 0.2566,-0.89071 0.43554,-1.30468 -0.0732,0.16946 -0.14293,0.34273 -0.20508,0.51953 -0.0721,0.20523 -0.13703,0.41483 -0.19336,0.6289 l 0.0898,-0.3164 0.10351,-0.3125 0.11329,-0.30469 0.0918,-0.21484 c 0.002,-0.005 0.004,-0.0106 0.006,-0.0156 0.003,-0.008 0.004,-0.0174 0.008,-0.0254 h -12.98828 v 2.87305 l -0.0723,0.36132 -0.20508,0.30665 -0.30664,0.20507 -0.36133,0.0723 h -3.02344 l -0.36132,-0.0723 -0.30665,-0.20507 -0.20507,-0.30665 -0.0723,-0.36132 v -2.87305 z"
     id="path673" /><path
     style="fill:#ffac11;fill-opacity:1;stroke:none;stroke-opacity:1"
     d="m 241.61719,174.69531 0.66797,0.0742 0.62109,0.14063 c -0.39767,-0.11547 -0.82726,-0.18989 -1.28906,-0.21485 z"
     id="path671" /><path
     style="fill:#ffac11;fill-opacity:1;stroke:none;stroke-opacity:1"
     d="m 362.26367,178.30078 c 0.11135,0.064 0.22675,0.12313 0.34766,0.17578 z"
     id="path670" /><path
     style="fill:#ffac11;fill-opacity:1;stroke:none;stroke-opacity:1"
     d="m 362.15625,178.23633 0.0605,0.041 0.0469,0.0234 c -0.0364,-0.021 -0.072,-0.0423 -0.10742,-0.0644 z"
     id="path669" /><path
     style="fill:#ffac11;fill-opacity:1;stroke:none;stroke-opacity:1"
     d="m 361.92773,178.07812 c 0.0741,0.055 0.14944,0.10882 0.22852,0.15821 z"
     id="path668" /><path
     style="fill:#ffac11;fill-opacity:1;stroke:none;stroke-opacity:1"
     d="m 361.81445,177.99023 0.0469,0.043 0.0664,0.0449 c -0.0384,-0.0285 -0.0762,-0.0579 -0.11328,-0.0879 z"
     id="path667" /><path
     style="fill:#ffac11;fill-opacity:1;stroke:none;stroke-opacity:1"
     d="m 361.59375,177.79688 c 0.0707,0.0676 0.14434,0.13161 0.2207,0.19335 z"
     id="path666" /><path
     style="fill:#ffac11;fill-opacity:1;stroke:none;stroke-opacity:1"
     d="m 361.48828,177.69336 0.0527,0.0586 0.0527,0.0449 c -0.0356,-0.034 -0.0713,-0.0681 -0.10547,-0.10352 z"
     id="path665" /><path
     style="fill:#ffac11;fill-opacity:1;stroke:none;stroke-opacity:1"
     d="m 361.3125,177.49609 c 0.0565,0.0676 0.11483,0.13401 0.17578,0.19727 z"
     id="path664" /><path
     style="fill:#ffac11;fill-opacity:1;stroke:none;stroke-opacity:1"
     d="m 361.19141,177.34375 0.0644,0.0898 0.0566,0.0625 c -0.0417,-0.0499 -0.0819,-0.10023 -0.12109,-0.15234 z"
     id="path663" /><path
     style="fill:#ffac11;fill-opacity:1;stroke:none;stroke-opacity:1"
     d="m 361.07422,177.17969 c 0.0378,0.0558 0.0768,0.11047 0.11719,0.16406 z"
     id="path662" /><path
     style="fill:#ffac11;fill-opacity:1;stroke:none;stroke-opacity:1"
     d="m 360.95508,176.99414 0.0508,0.0898 0.0684,0.0957 c -0.041,-0.0605 -0.0812,-0.12254 -0.11914,-0.18555 z"
     id="path661" /><path
     style="fill:#ffac11;fill-opacity:1;stroke:none;stroke-opacity:1"
     d="m 360.82617,176.76758 c 0.0406,0.0772 0.0843,0.15256 0.12891,0.22656 z"
     id="path660" /><path
     style="fill:#ffac11;fill-opacity:1;stroke:none;stroke-opacity:1"
     d="m 360.75,176.61328 0.041,0.0918 0.0351,0.0625 c -0.0266,-0.0507 -0.0513,-0.1023 -0.0762,-0.1543 z"
     id="path659" /><path
     style="fill:#ffac11;fill-opacity:1;stroke:none;stroke-opacity:1"
     d="m 360.65234,176.39453 c 0.0311,0.0742 0.0633,0.14696 0.0977,0.21875 z"
     id="path658" /><path
     style="fill:#ffac11;fill-opacity:1;stroke:none;stroke-opacity:1"
     d="m 360.58008,176.2168 0.0293,0.084 0.043,0.0937 c -0.0246,-0.0588 -0.0497,-0.11756 -0.0723,-0.17773 z"
     id="path657" /><path
     style="fill:#ffac11;fill-opacity:1;stroke:none;stroke-opacity:1"
     d="m 360.50391,175.99609 c 0.0243,0.0745 0.0489,0.14812 0.0762,0.22071 z"
     id="path656" /><path
     style="fill:#ffac11;fill-opacity:1;stroke:none;stroke-opacity:1"
     d="m 360.42188,175.7207 0.0391,0.15235 0.043,0.12304 c -0.0296,-0.0906 -0.0568,-0.18221 -0.082,-0.27539 z"
     id="path655" /><path
     style="fill:#ffac11;fill-opacity:1;stroke:none;stroke-opacity:1"
     d="m 360.37695,175.54492 c 0.0141,0.0589 0.0292,0.11775 0.0449,0.17578 z"
     id="path654" /><path
     style="fill:#ffac11;fill-opacity:1;stroke:none;stroke-opacity:1"
     d="m 360.32031,175.28906 0.0254,0.13672 0.0312,0.11914 c -0.0201,-0.0843 -0.0399,-0.16991 -0.0566,-0.25586 z"
     id="path653" /><path
     style="fill:#ffac11;fill-opacity:1;stroke:none;stroke-opacity:1"
     d="m 360.29297,175.13281 c 0.009,0.0523 0.0173,0.10446 0.0273,0.15625 z"
     id="path652" /><path
     style="fill:#ffac11;fill-opacity:1;stroke:none;stroke-opacity:1"
     d="m 360.69922,171.0625 -0.1582,0.47461 -0.12696,0.48633 -0.0996,0.49218 -0.0703,0.4961 -0.041,0.49609 -0.0117,0.49219 0.0195,0.48633 0.0508,0.47461 0.0312,0.17187 c -0.2197,-1.29758 -0.0679,-2.75933 0.40625,-4.07031 z"
     id="path651" /><path
     style="fill:#ffac11;fill-opacity:1;stroke:none;stroke-opacity:1"
     d="m 244.48633,175.69531 c -0.45539,-0.34356 -0.98087,-0.6115 -1.57813,-0.78515 l 0.57227,0.20507 0.52539,0.26368 z"
     id="path648" /><path
     style="fill:#ffac11;fill-opacity:1;stroke:none;stroke-opacity:1"
     d="m 244.91797,176.06445 c -0.13659,-0.1307 -0.27947,-0.25434 -0.43164,-0.36914 z"
     id="path647" /><path
     style="fill:#ffac11;fill-opacity:1;stroke:none;stroke-opacity:1"
     d="m 245.9375,177.41992 c -0.27141,-0.5056 -0.6111,-0.96464 -1.01953,-1.35547 l 0.38476,0.41211 0.33985,0.45313 z"
     id="path646" /><path
     style="fill:#ffac11;fill-opacity:1;stroke:none;stroke-opacity:1"
     d="m 246.39062,178.48828 c -0.12136,-0.37318 -0.27203,-0.73102 -0.45312,-1.06836 l 0.24805,0.52149 z"
     id="path645" /><path
     style="fill:#ffac11;fill-opacity:1;stroke:none;stroke-opacity:1"
     d="m 246.40234,178.53125 h 0.002 c -0.005,-0.0143 -0.009,-0.0288 -0.0137,-0.043 z"
     id="path644" /><path
     style="fill:#ffac11;fill-opacity:1;stroke:none;stroke-opacity:1"
     d="m 246.55078,179.05859 -0.14844,-0.52734 c 0.1973,0.62008 0.31096,1.28077 0.34766,1.95313 l -0.0117,-0.23633 -0.0723,-0.60157 z"
     id="path643" /><path
     style="fill:#ffac11;fill-opacity:1;stroke:none;stroke-opacity:1"
     d="m 367.08984,182.55078 -0.0332,-0.0801 -0.23242,-0.42773 -0.26367,-0.37695 -0.0781,-0.0879 c 0.23162,0.27665 0.43777,0.5985 0.60742,0.97266 z"
     id="path637" /><path
     style="fill:#ffac11;fill-opacity:1;stroke:none;stroke-opacity:1"
     d="m 367.46094,183.71484 c 0.11023,0.51492 0.17466,1.08674 0.17383,1.72657 l 0.002,-0.0762 -0.0293,-0.68164 -0.0762,-0.6289 z"
     id="path636" /><path
     style="fill:#ffac11;fill-opacity:1;stroke:none;stroke-opacity:1"
     d="m 358.69922,186.62109 c -0.002,0.1394 -0.002,0.27652 0.002,0.41016 l 0.0137,0.31055 c 0.008,0.13004 0.0183,0.25659 0.0312,0.38086 l 0.01,0.0898 c -0.043,-0.37071 -0.0623,-0.76778 -0.0566,-1.19141 z"
     id="path634" /><path
     style="fill:#ffac11;fill-opacity:1;stroke:none;stroke-opacity:1"
     d="m 246.59961,182.69141 c 0.009,-0.0467 0.0169,-0.0937 0.0254,-0.14063 h -0.002 l 0.0742,-0.4668 0.0566,-0.61328 0.0137,-0.53711 c -1.8e-4,-0.0488 -9.7e-4,-0.0978 -0.002,-0.14648 l -0.0137,-0.26172 c 0.0334,0.67247 -0.01,1.35668 -0.13086,2.02539 z"
     id="path632" /><path
     style="fill:#ffac11;fill-opacity:1;stroke:none;stroke-opacity:1"
     d="m 246.45898,183.28906 c 0.0536,-0.19723 0.10085,-0.39641 0.14063,-0.59765 z"
     id="path631" /><path
     style="fill:#ffac11;fill-opacity:1;stroke:none;stroke-opacity:1"
     d="m 246.33594,183.68359 c 0.002,-0.004 0.005,-0.008 0.006,-0.0117 h 0.004 c 0.0408,-0.12633 0.0783,-0.25426 0.11328,-0.38282 z"
     id="path630" /><path
     style="fill:#ffac11;fill-opacity:1;stroke:none;stroke-opacity:1"
     d="m 245.52148,185.44141 h -0.004 l -0.0293,0.0508 -0.32031,0.45312 c 0.1251,-0.16145 0.24274,-0.32996 0.35351,-0.5039 z"
     id="path629" /><path
     style="fill:#ffac11;fill-opacity:1;stroke:none;stroke-opacity:1"
     d="m 358.80469,185.55078 c 0.009,-0.047 0.016,-0.0942 0.0254,-0.14062 0.1275,-0.62697 0.31389,-1.19912 0.54883,-1.71485 -0.0119,0.0262 -0.0235,0.0536 -0.0352,0.0801 l -0.1875,0.46289 -0.16211,0.50195 c -0.017,0.0587 -0.0329,0.11793 -0.0488,0.17774 l -0.10156,0.42969 c 0.0308,-0.14625 0.0643,-0.28949 0.10156,-0.42969 l 0.0234,-0.0977 0.0254,-0.0801 c 0.0497,-0.17145 0.10324,-0.34 0.16211,-0.50195 0.0579,-0.15922 0.12141,-0.31296 0.1875,-0.46289 l 0.0332,-0.0801 h 0.002 v -0.002 c 0.001,-0.003 0.002,-0.007 0.004,-0.01 0.002,-0.004 0.002,-0.008 0.004,-0.0117 h -0.15234 l -0.006,0.0527 -0.15821,0.29101 -0.25976,0.20704 -0.31836,0.0937 -1.69336,0.14843 -0.33008,-0.0391 -0.29102,-0.16016 -0.20898,-0.25781 -0.0918,-0.31836 -0.002,-0.0176 H 246.3457 c -0.0218,0.0675 -0.0449,0.13442 -0.0684,0.20117 -0.13466,0.38339 -0.29563,0.75337 -0.48437,1.10547 l 0.26172,-0.54102 0.22265,-0.56445 0.0586,-0.18946 c -0.20282,0.62435 -0.47542,1.21935 -0.81836,1.75782 l 0.27344,-0.46094 c -0.0845,0.15753 -0.17434,0.31145 -0.26954,0.46094 h 113.29883 l 0.002,-0.002 z"
     id="path628" /><path
     style="fill:#ffac11;fill-opacity:1;stroke:none;stroke-opacity:1"
     d="m 244.76367,186.41797 c 0.12287,-0.12944 0.23968,-0.26763 0.35156,-0.4082 z"
     id="path624" /><path
     style="fill:#ffac11;fill-opacity:1;stroke:none;stroke-opacity:1"
     d="m 244.58789,186.58398 c 0.009,-0.009 0.0203,-0.0144 0.0293,-0.0234 h 0.004 c 0.0481,-0.0473 0.096,-0.0935 0.14258,-0.14258 z"
     id="path623" /><path
     style="fill:#ffac11;fill-opacity:1;stroke:none;stroke-opacity:1"
     d="m 241.01758,188.0957 0.64648,-0.0547 0.31836,-0.0645 c -0.30851,0.0639 -0.62807,0.10902 -0.96484,0.11914 z"
     id="path622" /><path
     style="fill:#0a7985;fill-opacity:0.866667;stroke:none;stroke-opacity:1"
     d="m 161.54297,195.03125 a 3.2640001,3.2640001 0 0 1 -1.47852,-1.76953 H 92.896484 c 1.410838,0.57389 2.974159,1.16188 4.703125,1.76953 z"
     id="path617" /><path
     style="fill:#0a7985;fill-opacity:0.866667;stroke:none;stroke-opacity:1"
     d="m 171.14258,195.03125 a 3.2640001,3.2640001 0 0 1 -1.47656,-1.76953 h -3.44727 a 3.2640001,3.2640001 0 0 1 -1.47656,1.76953 z"
     id="path615" /><path
     style="fill:#0a7985;fill-opacity:0.866667;stroke:none;stroke-opacity:1"
     d="m 180.74219,195.03125 a 3.2640001,3.2640001 0 0 1 -1.47657,-1.76953 h -3.44531 a 3.2640001,3.2640001 0 0 1 -1.47851,1.76953 z"
     id="path613" /><path
     style="fill:#0a7985;fill-opacity:0.866667;stroke:none;stroke-opacity:1"
     d="m 231.25391,195.03125 -0.0449,-0.12109 0.008,-0.22071 0.33008,-1.42773 h -46.12696 a 3.2640001,3.2640001 0 0 1 -1.47656,1.76953 z"
     id="path611" /><path
     style="fill:#0a7985;fill-opacity:0.866667;stroke:none;stroke-opacity:1"
     d="m 234.91992,193.26172 h -1.06445 l -0.004,0.0977 -0.38672,1.67187 h 1.07813 c 5.5e-4,-0.006 0.003,-0.0115 0.004,-0.0176 l 0.0176,-0.1875 0.0449,-0.32812 0.0605,-0.32422 0.0742,-0.32031 0.0859,-0.31446 z"
     id="path609" /><path
     style="fill:#0a7985;fill-opacity:0.866667;stroke:none;stroke-opacity:1"
     d="m 234.91602,193.2832 c -0.18573,0.54878 -0.3113,1.12666 -0.36719,1.72266 0.0558,-0.59565 0.18171,-1.17415 0.36719,-1.72266 z"
     id="path608" /><path
     style="fill:#0a7985;fill-opacity:0.866667;stroke:none;stroke-opacity:1"
     d="m 236.06836,191.11719 c -0.10255,0.13336 -0.20279,0.2702 -0.29688,0.41211 -0.22252,0.33564 -0.41858,0.6954 -0.58789,1.07226 0.24114,-0.53632 0.53952,-1.03551 0.88477,-1.48437 z"
     id="path606" /><path
     style="fill:#0a7985;fill-opacity:0.866667;stroke:none;stroke-opacity:1"
     d="m 237.27734,189.90039 c -0.18391,0.14167 -0.36274,0.29268 -0.5332,0.45703 -0.22674,0.21861 -0.43959,0.4566 -0.63867,0.71094 0.34866,-0.44524 0.74358,-0.8381 1.17187,-1.16797 z"
     id="path605" /><path
     style="fill:#0a7985;fill-opacity:0.866667;stroke:none;stroke-opacity:1"
     d="m 334.2793,193.26172 v 1.76953 h 6.80273 v -1.76953 z"
     id="path602" /><path
     style="fill:#ffac11;fill-opacity:1;stroke:none;stroke-opacity:1"
     d="m 245.16211,192.85352 c -0.0219,-0.0763 -0.046,-0.15144 -0.0703,-0.22657 z"
     id="path600" /><path
     style="fill:#ffac11;fill-opacity:1;stroke:none;stroke-opacity:1"
     d="m 245.25,193.18555 -0.0352,-0.15821 -0.0527,-0.17382 c 0.0315,0.10955 0.0612,0.22037 0.0879,0.33203 z"
     id="path599" /><path
     style="fill:#ffac11;fill-opacity:1;stroke:none;stroke-opacity:1"
     d="m 245.26562,193.26172 h 0.002 c -0.006,-0.0256 -0.0115,-0.0507 -0.0176,-0.0762 z"
     id="path598" /><path
     style="fill:#0a7985;fill-opacity:1;stroke:none;stroke-opacity:1"
     d="m 245.46875,195.03125 h 83.89648 v -1.76953 h -84.09765 c 0.0168,0.0737 0.0322,0.14819 0.0469,0.22266 l 0.0254,0.11523 0.0195,0.13477 c 0.0144,0.0876 0.0275,0.17522 0.0391,0.26367 l 0.0273,0.1875 0.0137,0.19336 c 0.006,0.0702 0.0114,0.14041 0.0156,0.21093 l 0.0137,0.19336 v 0.19922 c -0.002,-0.1311 -0.006,-0.26221 -0.0137,-0.39258 l -0.0156,-0.21093 c -0.0108,-0.12759 -0.0245,-0.25458 -0.041,-0.38086 l -0.0391,-0.26367 c -0.0138,-0.0838 -0.0286,-0.16707 -0.0449,-0.25 l -0.0488,-0.22266 c 0.13028,0.57173 0.19618,1.16823 0.20118,1.76953 z"
     id="path597" /><path
     style="fill:#ffac11;fill-opacity:1;stroke:none;stroke-opacity:1"
     d="m 245.46875,195.17188 c 3.4e-4,-0.0469 4.1e-4,-0.0938 0,-0.14063 z"
     id="path596" /><path
     style="fill:#ffac11;fill-opacity:1;stroke:none;stroke-opacity:1"
     d="m 245.45703,195.59961 0.0137,-0.2168 -0.002,-0.21093 c -0.001,0.14262 -0.004,0.28496 -0.0117,0.42773 z"
     id="path595" /><path
     style="fill:#ffac11;fill-opacity:1;stroke:none;stroke-opacity:1"
     d="m 245.44727,195.75586 c 0.004,-0.0521 0.007,-0.1041 0.01,-0.15625 z"
     id="path594" /><path
     style="fill:#ffac11;fill-opacity:1;stroke:none;stroke-opacity:1"
     d="m 245.43359,195.90625 h 0.004 l 0.01,-0.15039 c -0.004,0.0502 -0.009,0.10024 -0.0137,0.15039 z"
     id="path593" /><path
     style="fill:#ffac11;fill-opacity:1;stroke:none;stroke-opacity:1"
     d="m 236.81836,201.10547 0.0703,0.0586 0.23438,0.17188 0.24023,0.1582 0.14453,0.084 c -0.24071,-0.13744 -0.4707,-0.29572 -0.68945,-0.47265 z"
     id="path592" /><path
     style="fill:#ffac11;fill-opacity:1;stroke:none;stroke-opacity:1"
     d="m 235.41797,199.43555 c -0.27676,-0.48506 -0.49936,-1.01821 -0.6543,-1.58789 l 0.004,0.0137 0.0937,0.31055 0.10547,0.30468 0.11914,0.29688 0.13086,0.28711 0.14453,0.27734 z"
     id="path591" /><path
     style="fill:#db1675;fill-opacity:1;stroke:none;stroke-opacity:1"
     d="m 230.30664,199.47461 0.26563,-1.15234 0.13671,-0.30274 0.24024,-0.22851 0.31055,-0.11719 0.33203,0.0117 1.6582,0.38281 0.30078,0.13672 0.22852,0.24023 0.11718,0.31055 -0.0117,0.33203 -0.0899,0.38672 h 1.63867 c -0.003,-0.005 -0.004,-0.0103 -0.006,-0.0156 -0.53774,-0.93472 -0.86982,-2.05033 -0.91601,-3.25976 l 0.0234,0.34375 0.0371,0.33789 0.0508,0.33398 0.0664,0.32618 0.0508,0.20898 c -0.14666,-0.57093 -0.22746,-1.17559 -0.23046,-1.80469 l 0.002,0.25196 c -0.003,-0.0892 -0.004,-0.17937 -0.004,-0.26954 -0.002,-0.007 -0.004,-0.0139 -0.004,-0.0215 H 101.41016 c 3.52084,1.16561 6.93044,2.21964 9.03515,2.87109 0,0.22407 0.0321,0.46915 0.0371,0.69727 z"
     id="path589" /><path
     style="fill:#ffac11;fill-opacity:1;stroke:none;stroke-opacity:1"
     d="m 242.87305,201.08594 -0.0254,0.0215 -0.0723,0.0508 c -0.1075,0.081 -0.21831,0.15757 -0.33203,0.23047 l -0.0664,0.0469 -0.0664,0.0351 c -0.13245,0.0795 -0.26772,0.15459 -0.40821,0.22266 l 0.40821,-0.22266 c 0.0447,-0.0268 0.089,-0.054 0.13281,-0.082 l 0.33203,-0.23047 c 0.0315,-0.0237 0.0628,-0.0479 0.0937,-0.0723 h -0.002 c -0.3723,0.29319 -0.78509,0.53512 -1.23438,0.72265 l 0.20313,-0.082 c -0.13634,0.0637 -0.27816,0.11955 -0.42188,0.17188 l -0.0918,0.0371 -0.0879,0.0234 c -0.13451,0.0435 -0.27146,0.082 -0.41211,0.11524 l -0.082,0.0234 -0.0762,0.0117 c -0.17409,0.0356 -0.35201,0.0647 -0.53515,0.084 l 0.53515,-0.084 c 0.0532,-0.0109 0.10589,-0.0228 0.15821,-0.0352 l 0.41211,-0.11524 c 0.0606,-0.0196 0.12037,-0.0389 0.17968,-0.0605 l 0.16992,-0.0703 c -0.45169,0.18316 -0.93996,0.31256 -1.46679,0.36719 -0.001,1.4e-4 -0.003,-1.3e-4 -0.004,0 -0.29732,0.0183 -0.58982,0.007 -0.875,-0.0293 l 0.28906,0.0273 0.29493,0.01 0.29101,-0.008 c -0.3045,0.019 -0.60295,0.006 -0.89453,-0.0332 l 0.0156,0.004 c -0.19113,-0.0247 -0.37817,-0.0616 -0.5625,-0.10938 l 0.28124,0.0625 0.21876,0.0352 c -0.27769,-0.0399 -0.54812,-0.10321 -0.81055,-0.19141 l 0.0371,0.0137 c -0.27237,-0.0887 -0.53444,-0.20167 -0.78711,-0.33789 l 0.25586,0.12695 0.26172,0.11329 0.17187,0.0625 c -0.26121,-0.0918 -0.51533,-0.20598 -0.75781,-0.3418 -0.26273,-0.14706 -0.51337,-0.31774 -0.75,-0.51172 0.008,0.006 0.0175,0.0114 0.0254,0.0176 l -0.1543,-0.12695 -0.21484,-0.19922 -0.20703,-0.21094 -0.19727,-0.22461 -0.1875,-0.23437 -0.17578,-0.2461 -0.16602,-0.25781 -0.0977,-0.16992 c 0.004,0.007 0.007,0.0153 0.01,0.0234 0.36592,0.63605 0.82749,1.18863 1.36133,1.62696 h -3.36523 l -0.006,0.0273 -0.13672,0.30274 -0.24219,0.22851 -0.30859,0.11719 -0.33203,-0.0117 -1.65821,-0.38281 -0.30273,-0.13672 -0.13672,-0.14453 H 110.37109 c 0.23185,3.95566 1.18326,8.28863 3.02149,11.89844 h 26.18359 c 0.33679,-0.83758 0.64654,-1.71852 0.89844,-2.68165 0.31195,0.048 7.93412,1.70724 12.44141,2.68165 h 189.97265 c 0.0887,-0.4615 0.22486,-0.91868 0.28516,-1.38086 l 0.30078,-2.4004 c 3.7,0.3 11.39922,0.70004 15.19922,1 5.49996,0.3 6.99961,-4.20039 8.09961,-6.40039 0.3019,-0.6415 0.76689,-1.61633 1.2832,-2.71679 z"
     id="path587" /><path
     style="fill:#ffac11;fill-opacity:1;stroke:none;stroke-opacity:1"
     d="m 242.92578,201.04102 c -0.0187,0.0151 -0.0378,0.0301 -0.0566,0.0449 h 0.004 z"
     id="path586" /><path
     style="fill:#ffac11;fill-opacity:1;stroke:none;stroke-opacity:1"
     d="m 243.18164,200.82031 -0.25586,0.22071 c 0.0875,-0.0708 0.17279,-0.14482 0.25586,-0.22071 z"
     id="path585" /><path
     style="fill:#ffac11;fill-opacity:1;stroke:none;stroke-opacity:1"
     d="m 243.38867,200.62109 c -0.0674,0.068 -0.13639,0.1347 -0.20703,0.19922 l 0.0996,-0.0859 z"
     id="path584" /><path
     style="fill:#ffac11;fill-opacity:1;stroke:none;stroke-opacity:1"
     d="m 243.58789,200.41211 -0.19922,0.20898 c 0.0676,-0.0682 0.13482,-0.13741 0.19922,-0.20898 z"
     id="path583" /><path
     style="fill:#ffac11;fill-opacity:1;stroke:none;stroke-opacity:1"
     d="m 243.76758,200.20117 c -0.0588,0.0716 -0.11788,0.14225 -0.17969,0.21094 l 0.0879,-0.0937 z"
     id="path582" /><path
     style="fill:#ffac11;fill-opacity:1;stroke:none;stroke-opacity:1"
     d="m 243.93555,199.98828 -0.16797,0.21289 c 0.0575,-0.0699 0.11335,-0.1403 0.16797,-0.21289 z"
     id="path581" /><path
     style="fill:#ffac11;fill-opacity:1;stroke:none;stroke-opacity:1"
     d="m 244.11914,199.73242 c -0.0592,0.0871 -0.12056,0.17209 -0.18359,0.25586 l 0.0976,-0.125 z"
     id="path580" /><path
     style="fill:#ffac11;fill-opacity:1;stroke:none;stroke-opacity:1"
     d="m 244.25781,199.51953 -0.13867,0.21289 c 0.0475,-0.0698 0.0936,-0.14106 0.13867,-0.21289 z"
     id="path579" /><path
     style="fill:#db1675;fill-opacity:1;stroke:none;stroke-opacity:1"
     d="m 345.99609,195.90625 v 1.10742 l -0.0723,0.36133 -0.20508,0.30664 -0.30664,0.20508 -0.36133,0.0723 h -3.02344 l -0.36132,-0.0723 -0.30664,-0.20508 -0.20508,-0.30664 -0.0723,-0.36133 v -1.10742 h -6.80273 v 1.10742 l -0.0723,0.36133 -0.20508,0.30664 -0.30664,0.20508 -0.36133,0.0723 h -3.02343 l -0.36133,-0.0723 -0.30664,-0.20508 -0.20508,-0.30664 -0.0723,-0.36133 v -1.10742 h -83.9276 l -0.006,0.0801 -0.0332,0.24219 c 0.0136,-0.10704 0.0255,-0.21485 0.0352,-0.32227 h -0.002 c -0.11469,1.26972 -0.50318,2.5191 -1.15039,3.56836 h 0.004 c -0.009,0.0149 -0.018,0.0301 -0.0273,0.0449 l 0.0293,-0.0449 c 0.0493,-0.0799 0.0963,-0.16197 0.14258,-0.24414 l 0.1289,-0.24219 c 0.0415,-0.0807 0.0824,-0.16164 0.1211,-0.24414 l 0.14843,-0.33398 c 0.0262,-0.0634 0.0516,-0.12721 0.0762,-0.19141 l 0.11328,-0.31836 c 0.0377,-0.11206 0.0724,-0.22589 0.10547,-0.33984 l 0.0625,-0.22266 c 0.0274,-0.10511 0.0527,-0.21011 0.0762,-0.31641 l 0.0508,-0.24609 c 0.0272,-0.14244 0.0501,-0.28594 0.0703,-0.42969 l -0.0312,0.23828 -0.0391,0.19141 c -0.0158,0.0826 -0.0327,0.16413 -0.0508,0.24609 l -0.0312,0.1543 -0.0449,0.16211 c -0.0194,0.0745 -0.0411,0.14884 -0.0625,0.22266 l -0.0527,0.19336 -0.0527,0.14648 c -0.036,0.10703 -0.073,0.21332 -0.11328,0.31836 l -0.0352,0.0977 -0.041,0.0937 c -0.0467,0.11304 -0.0967,0.22382 -0.14843,0.33398 l -0.0508,0.11524 -0.0703,0.1289 c -0.0419,0.0814 -0.0842,0.16271 -0.1289,0.24219 l -0.0781,0.14453 -0.0644,0.0996 h 124.50195 c 0.62151,-1.32081 1.32768,-2.83896 1.55664,-3.29688 0.27303,0 0.51931,-0.11153 0.72266,-0.27148 z"
     id="path578" /><path
     style="fill:#0a7985;fill-opacity:0.866667;stroke:none;stroke-opacity:1"
     d="m 356.87891,195.03125 -0.0137,-0.0469 -0.15039,-1.72266 h -10.71875 v 1.76953 z"
     id="path576" /><path
     style="fill:#0a7985;fill-opacity:0.866667;stroke:none;stroke-opacity:1"
     d="m 360.13086,193.26172 0.125,1.42773 -0.0391,0.33008 -0.006,0.0117 h 11.36133 v -0.50781 c 0,-0.57919 -0.64953,-0.96531 -1.14454,-1.26172 z"
     id="path574" /><path
     style="fill:#ffac11;fill-opacity:1;stroke:none;stroke-opacity:1"
     d="m 367.63867,185.44336 h -0.004 l -0.0195,0.6543 -0.0723,0.48242 c 0.001,-0.007 0.005,-0.0122 0.006,-0.0195 h 0.004 c 0.0245,-0.15218 0.0471,-0.30663 0.0645,-0.46485 0.0138,-0.22439 0.0211,-0.4417 0.0215,-0.65234 z"
     id="path571" /><path
     style="fill:#ffac11;fill-opacity:1;stroke:none;stroke-opacity:1"
     d="m 367.46094,183.67383 c 0.11535,0.52501 0.17895,1.11328 0.17773,1.76953 h 3.84766 c 0.0927,-0.64667 0.15655,-1.10164 0.25195,-1.76953 z"
     id="path570" /><path
     style="fill:#ffac11;fill-opacity:1;stroke:none;stroke-opacity:1"
     d="m 367.09375,182.55078 h -0.004 l 0.16407,0.39844 0.1582,0.52734 0.0488,0.23828 c -0.003,-0.0122 -9.1e-4,-0.0288 -0.004,-0.041 h 0.004 c -0.091,-0.41434 -0.21545,-0.78852 -0.36719,-1.12305 z"
     id="path569" /><path
     style="fill:#892be1;fill-opacity:1;stroke:none;stroke-opacity:1"
     d="m 365.35547,178.53125 c -0.36232,0.14363 -0.73614,0.23055 -1.11328,0.25586 l 0.2207,-0.0234 0.22266,-0.0371 0.2207,-0.0508 0.21875,-0.0644 0.2168,-0.0781 0.004,-0.002 c -0.43112,0.17019 -0.87801,0.26315 -1.32812,0.26367 h -0.002 -0.002 -0.002 c -0.003,-1.5e-4 -0.005,-0.002 -0.008,-0.002 -0.16587,-0.009 -0.32616,-0.0254 -0.48047,-0.0508 l 0.48047,0.0508 c -0.45193,-0.0253 -0.85738,-0.11718 -1.22461,-0.25586 l 0.24414,0.0898 c -0.0942,-0.0282 -0.18424,-0.0612 -0.27344,-0.0957 0.009,0.003 0.0208,0.002 0.0293,0.006 l -0.16602,-0.0586 c 0.0438,0.019 0.0897,0.0352 0.13477,0.0527 h -16.65821 v 2.23047 l -0.0703,0.36133 -0.20508,0.30664 -0.30664,0.20508 -0.36133,0.0723 h -3.02539 l -0.36132,-0.0723 -0.30665,-0.20508 -0.20507,-0.30664 -0.0703,-0.36133 v -2.23047 h -6.80468 v 2.23047 l -0.0703,0.36133 -0.20507,0.30664 -0.30664,0.20508 -0.36133,0.0723 h -3.02344 l -0.36328,-0.0723 -0.30664,-0.20508 -0.20313,-0.30664 -0.0723,-0.36133 v -2.23047 H 246.4043 c 0.055,0.1729 0.10403,0.3488 0.14648,0.52734 0.13257,0.55763 0.20289,1.14003 0.21484,1.72852 l 0.004,0.0703 -0.002,0.0762 c 6.4e-4,0.17891 -0.003,0.35785 -0.0137,0.53711 -0.0207,0.36184 -0.0643,0.72307 -0.12891,1.08008 h 109.15234 l -0.082,-0.93164 0.0371,-0.33008 0.16016,-0.29101 0.25781,-0.20703 0.32031,-0.0937 1.69336,-0.14844 0.33008,0.0391 0.29102,0.1582 0.20703,0.25977 0.0937,0.31836 0.10742,1.22656 h 0.8418 c 0.004,-0.005 0.008,-0.009 0.0117,-0.0137 0.0457,-0.0635 0.0933,-0.12476 0.14062,-0.18555 l 0.0352,-0.0488 0.0469,-0.0547 c 0.0786,-0.0965 0.15982,-0.18995 0.24219,-0.2793 l 0.0449,-0.0508 h 0.002 c -0.0156,0.0166 -0.0314,0.034 -0.0469,0.0508 l -0.24219,0.2793 c -0.0277,0.034 -0.0549,0.0686 -0.082,0.10351 l -0.11328,0.15625 c 0.2345,-0.32049 0.48885,-0.60873 0.75976,-0.85937 l -0.22656,0.2207 c 0.0744,-0.0769 0.1496,-0.14945 0.22656,-0.2207 0.0166,-0.0154 0.0321,-0.0318 0.0488,-0.0469 0.28125,-0.25398 0.57832,-0.46896 0.88477,-0.64648 0.087,-0.0505 0.17339,-0.10034 0.26172,-0.14453 l -0.18946,0.10547 c 0.30288,-0.16868 0.61388,-0.30204 0.92774,-0.39454 l -0.23047,0.0742 c -0.0542,0.0194 -0.10814,0.0408 -0.16211,0.0625 l -0.27539,0.11914 c 0.091,-0.0437 0.18336,-0.0821 0.27539,-0.11914 l 0.0879,-0.0391 0.0742,-0.0234 c 0.0765,-0.0274 0.15353,-0.0515 0.23047,-0.0742 0.015,-0.004 0.0299,-0.009 0.0449,-0.0137 0.32232,-0.0911 0.64669,-0.14139 0.9668,-0.15039 h -0.0879 c 0.13461,-0.007 0.26955,-0.006 0.40234,0.002 l -0.24805,-0.002 c 0.31096,-0.003 0.6166,0.0338 0.91211,0.11133 l -0.26172,-0.0625 c 0.13056,0.0231 0.25808,0.0535 0.38477,0.0918 l -0.0781,-0.0176 c 0.30667,0.0851 0.60135,0.21216 0.87696,0.38672 l -0.0664,-0.0449 -0.35547,-0.18555 c 0.24426,0.1079 0.47668,0.2492 0.69531,0.41992 l -0.24609,-0.16992 c 0.27179,0.17602 0.5247,0.39794 0.75195,0.66406 l -0.18945,-0.21484 -0.31445,-0.2793 c 0.4568,0.35704 0.84825,0.85386 1.13867,1.49414 h 4.75781 c 0.23208,-1.62748 0.33978,-2.44463 0.56055,-4.01953 z"
     id="path568" /><path
     style="fill:#ffac11;fill-opacity:1;stroke:none;stroke-opacity:1"
     d="m 368.79297,170.13086 0.0898,0.28516 0.0762,0.29687 0.0625,0.30469 0.0508,0.3125 0.0371,0.31836 0.0234,0.32812 0.008,0.33399 -0.008,0.33789 -0.0195,0.3457 -0.043,0.29688 -0.0527,0.29492 -0.0645,0.28906 -0.0742,0.28711 -0.084,0.2793 -0.0937,0.27539 -0.10351,0.26953 -0.11133,0.26367 -0.1211,0.25586 -0.1289,0.25 -0.13477,0.24414 -0.14453,0.23438 -0.15039,0.22851 -0.1582,0.21875 -0.16406,0.21094 -0.16993,0.20117 -0.17773,0.19141 -0.18164,0.18359 -0.18555,0.17187 -0.19336,0.16211 -0.19531,0.15039 -0.20117,0.13868 -0.20508,0.1289 -0.20703,0.11719 -0.21289,0.10352 -0.20899,0.0898 h 0.01 c 1.86384,-0.73889 3.43728,-2.93969 3.76172,-5.53516 0.0844,-1.04062 -0.0395,-2.02014 -0.32422,-2.86523 z"
     id="path567" /><path
     style="fill:#ffac11;fill-opacity:1;stroke:none;stroke-opacity:1"
     d="m 368.02148,168.63867 0.15235,0.2168 0.14648,0.23242 c -0.0933,-0.15779 -0.19185,-0.30811 -0.29883,-0.44922 z"
     id="path566" /><path
     style="fill:#ffac11;fill-opacity:1;stroke:none;stroke-opacity:1"
     d="m 367.67578,168.23828 0.17578,0.19336 0.16797,0.20508 c -0.10788,-0.14213 -0.22291,-0.27479 -0.34375,-0.39844 z"
     id="path565" /><path
     style="fill:#ffac11;fill-opacity:1;stroke:none;stroke-opacity:1"
     d="m 361.13477,170.07617 -0.043,0.0762 -0.20899,0.44727 c 0.0773,-0.1786 0.16231,-0.3532 0.25196,-0.52344 z"
     id="path564" /><path
     style="fill:#ffac11;fill-opacity:1;stroke:none;stroke-opacity:1"
     d="m 361.28906,169.79883 c -0.0531,0.0909 -0.10489,0.18352 -0.15429,0.27734 z"
     id="path563" /><path
     style="fill:#ffac11;fill-opacity:1;stroke:none;stroke-opacity:1"
     d="m 361.36914,169.66602 -0.0391,0.0586 -0.041,0.0742 c 0.0261,-0.0448 0.053,-0.0888 0.0801,-0.13281 z"
     id="path562" /><path
     style="fill:#ffac11;fill-opacity:1;stroke:none;stroke-opacity:1"
     d="m 361.59375,169.32031 c -0.0787,0.11196 -0.15214,0.22774 -0.22461,0.34571 z"
     id="path561" /><path
     style="fill:#ffac11;fill-opacity:1;stroke:none;stroke-opacity:1"
     d="m 361.83398,169.00391 c -0.0823,0.10252 -0.1637,0.20758 -0.24023,0.3164 z"
     id="path560" /><path
     style="fill:#ffac11;fill-opacity:1;stroke:none;stroke-opacity:1"
     d="m 361.9375,168.87891 -0.0566,0.0625 -0.0469,0.0625 c 0.0341,-0.0424 0.0685,-0.0838 0.10352,-0.125 z"
     id="path559" /><path
     style="fill:#ffac11;fill-opacity:1;stroke:none;stroke-opacity:1"
     d="m 362.19531,168.5918 c -0.0894,0.0917 -0.17398,0.18841 -0.25781,0.28711 z"
     id="path558" /><path
     style="fill:#ffac11;fill-opacity:1;stroke:none;stroke-opacity:1"
     d="m 362.45703,168.34375 c -0.0894,0.0798 -0.17723,0.16141 -0.26172,0.24805 z"
     id="path557" /><path
     style="fill:#ffac11;fill-opacity:1;stroke:none;stroke-opacity:1"
     d="m 362.60156,168.21875 -0.0703,0.0547 -0.0742,0.0703 c 0.0476,-0.0425 0.0956,-0.0846 0.14453,-0.125 z"
     id="path556" /><path
     style="fill:#ffac11;fill-opacity:1;stroke:none;stroke-opacity:1"
     d="m 362.8457,168.0293 c -0.0833,0.0602 -0.16441,0.12352 -0.24414,0.18945 z"
     id="path555" /><path
     style="fill:#ffac11;fill-opacity:1;stroke:none;stroke-opacity:1"
     d="m 362.94336,167.96289 -0.0488,0.0293 -0.0488,0.0371 c 0.032,-0.0231 0.0652,-0.0442 0.0977,-0.0664 z"
     id="path554" /><path
     style="fill:#ffac11;fill-opacity:1;stroke:none;stroke-opacity:1"
     d="m 363.2793,167.75 c -0.11529,0.0646 -0.22649,0.13794 -0.33594,0.21289 z"
     id="path553" /><path
     style="fill:#ffac11;fill-opacity:1;stroke:none;stroke-opacity:1"
     d="m 363.66211,167.5625 c -0.13055,0.0566 -0.25887,0.11804 -0.38281,0.1875 z"
     id="path552" /><path
     style="fill:#ffac11;fill-opacity:1;stroke:none;stroke-opacity:1"
     d="m 364.09375,167.40234 c -0.13044,0.0397 -0.25817,0.0865 -0.38281,0.13868 z"
     id="path551" /><path
     style="fill:#ffac11;fill-opacity:1;stroke:none;stroke-opacity:1"
     d="m 365.20312,167.19531 -0.26367,0.0176 -0.26757,0.0391 c 0.54315,-0.0981 1.05775,-0.0666 1.53124,0.0742 l -0.24023,-0.0625 -0.24609,-0.043 -0.25391,-0.0215 z"
     id="path386" /></g><path
   id="text25"
   style="white-space:pre;shape-inside:url(#rect25);display:inline;fill:url(#linearGradient713);stroke:none;stroke-opacity:1"
   d="m -39899.05,-44322.811 c -0.07,0 -0.1,0.03 -0.1,0.09 v 0.38 c 0,0.09 0.03,0.132 0.107,0.159 l 0.652,0.306 c 0.06,0.03 0.12,0.04 0.166,0.04 0.04,0 0.07,10e-4 0.108,-0 l 1.033,-0.306 c 0.03,-0 0.06,-0 0.08,-0 0.02,0 0.05,0 0.08,0.02 l 0.653,0.295 c 0.04,0.01 0.09,0.03 0.121,0.03 0.06,0 0.1,-0.04 0.1,-0.101 v -0.366 c 0,-0.1 -0.04,-0.148 -0.105,-0.168 l -0.655,-0.312 c -0.06,-0.02 -0.127,-0.03 -0.173,-0.03 -0.04,0 -0.07,0 -0.1,0.01 l -1.033,0.293 c -0.03,0 -0.07,0 -0.08,0 -0.03,0 -0.05,-0 -0.08,-0 l -0.661,-0.293 c -0.03,-0.02 -0.08,-0.03 -0.113,-0.03 z m -86.933,1.412 c -0.807,0 -1.412,0.473 -1.412,1.16 0,0.753 0.585,1.18 1.298,1.287 l -1.84,1.887 c -0.03,0.03 -0.05,0.07 -0.05,0.107 0,0.05 0.04,0.106 0.121,0.106 h 2.279 c 0.167,0 0.319,-0.05 0.439,-0.18 l 2.008,-2.061 c 0.07,-0.07 0.114,-0.126 0.114,-0.246 v -0.207 c 0,-0.113 -0.05,-0.174 -0.174,-0.174 h -0.914 c -0.42,0 -0.633,-0.166 -0.633,-0.453 0,-0.286 0.213,-0.445 0.633,-0.445 h 1.488 v 3.586 c 0,0.12 0.06,0.18 0.18,0.18 h 2.285 c 0.12,0 0.181,-0.06 0.181,-0.18 v -4.193 c 0,-0.114 -0.06,-0.174 -0.181,-0.174 z m 6.814,0 c -0.12,0 -0.18,0.06 -0.18,0.174 v 0.425 c 0,0.12 0.06,0.182 0.18,0.182 h 3.1 c 0.58,0 0.787,0.219 0.787,1.039 v 0.727 c 0,0.906 -0.241,1.212 -0.787,1.212 h -3.121 c -0.12,0 -0.18,0.06 -0.18,0.182 v 0.426 c 0,0.12 0.06,0.18 0.18,0.18 h 4.681 c 1.26,0 2.186,-0.954 2.186,-2.274 0,-1.307 -0.872,-2.273 -2.186,-2.273 z m 6.967,0 c -0.09,0 -0.127,0.03 -0.127,0.09 v 0.619 c 0,0.05 0.04,0.07 0.127,0.07 h 1.953 v 3.68 c 0,0.06 0.04,0.09 0.119,0.09 h 2.395 c 0.09,0 0.125,-0.03 0.125,-0.09 v -3.68 h 1.947 c 0.09,0 0.127,-0.02 0.127,-0.07 v -0.619 c 0,-0.06 -0.04,-0.09 -0.127,-0.09 z m 7.252,0 c -0.12,0 -0.18,0.06 -0.18,0.174 v 0.425 c 0,0.12 0.06,0.182 0.18,0.182 h 3.613 l -3.133,1.473 c -0.686,0.32 -0.812,0.687 -0.812,1.173 0,0.594 0.432,1.12 1.285,1.12 h 5.033 c 0.113,0 0.174,-0.06 0.174,-0.18 v -0.426 c 0,-0.12 -0.06,-0.182 -0.174,-0.182 h -3.738 l 3.139,-1.472 c 0.68,-0.32 0.814,-0.686 0.814,-1.166 0,-0.594 -0.433,-1.121 -1.293,-1.121 z m 6.847,0 c -0.12,0 -0.179,0.06 -0.179,0.174 v 0.425 c 0,0.12 0.06,0.182 0.179,0.182 h 3.1 c 0.58,0 0.787,0.219 0.787,1.039 v 0.727 c 0,0.906 -0.24,1.212 -0.787,1.212 h -3.119 c -0.12,0 -0.182,0.06 -0.182,0.182 v 0.426 c 0,0.12 0.06,0.18 0.182,0.18 h 4.68 c 1.26,0 2.185,-0.954 2.185,-2.274 0,-1.307 -0.872,-2.273 -2.185,-2.273 z m 6.967,0 c -0.09,0 -0.127,0.03 -0.127,0.09 v 0.619 c 0,0.05 0.04,0.07 0.127,0.07 h 1.953 v 3.68 c 0,0.06 0.04,0.09 0.12,0.09 h 2.394 c 0.09,0 0.127,-0.03 0.127,-0.09 v -3.68 h 1.945 c 0.09,0 0.127,-0.02 0.127,-0.07 v -0.619 c 0,-0.06 -0.04,-0.09 -0.127,-0.09 z m 7.233,0 c -0.12,0 -0.18,0.06 -0.18,0.174 v 4.193 c 0,0.12 0.06,0.18 0.18,0.18 h 0.461 c 0.266,0 0.425,-0.03 0.718,-0.133 l 5.315,-1.987 v 1.94 c 0,0.12 0.06,0.18 0.18,0.18 h 0.859 c 0.12,0 0.18,-0.06 0.18,-0.18 v -4.193 c 0,-0.114 -0.06,-0.174 -0.18,-0.174 h -0.82 c -0.294,0 -0.427,0.01 -0.713,0.127 l -4.959,1.914 v -1.867 c 0,-0.114 -0.06,-0.174 -0.18,-0.174 z m 8.494,0 c -0.12,0 -0.18,0.06 -0.18,0.174 v 0.425 c 0,0.12 0.06,0.182 0.18,0.182 h 3.099 c 0.58,0 0.788,0.219 0.788,1.039 v 0.727 c 0,0.906 -0.241,1.212 -0.788,1.212 h -3.119 c -0.12,0 -0.181,0.06 -0.181,0.182 v 0.426 c 0,0.12 0.06,0.18 0.181,0.18 h 4.68 c 1.26,0 2.186,-0.954 2.186,-2.274 0,-1.307 -0.873,-2.273 -2.186,-2.273 z m 8.754,0 c -0.874,0 -1.561,0.547 -1.561,1.494 0,0.953 0.753,1.447 1.733,1.447 h 2.486 c 0.113,0 0.174,-0.06 0.174,-0.182 v -0.425 c 0,-0.12 -0.06,-0.18 -0.174,-0.18 h -0.852 c -0.42,0 -0.754,-0.174 -0.754,-0.687 0,-0.474 0.334,-0.686 0.754,-0.686 h 1.426 v 3.586 c 0,0.12 0.06,0.18 0.18,0.18 h 2.287 c 0.113,0 0.174,-0.06 0.174,-0.18 v -4.193 c 0,-0.114 -0.06,-0.174 -0.174,-0.174 z m 10.525,0 c -0.807,0 -1.412,0.473 -1.412,1.16 0,0.753 0.586,1.18 1.299,1.287 l -1.84,1.887 c -0.03,0.03 -0.05,0.07 -0.05,0.107 0,0.05 0.04,0.106 0.121,0.106 h 2.28 c 0.166,0 0.319,-0.05 0.439,-0.18 l 2.008,-2.061 c 0.07,-0.07 0.113,-0.126 0.113,-0.246 v -0.207 c 0,-0.113 -0.05,-0.174 -0.174,-0.174 h -0.914 c -0.42,0 -0.633,-0.166 -0.633,-0.453 0,-0.286 0.213,-0.445 0.633,-0.445 h 1.486 v 3.586 c 0,0.12 0.06,0.18 0.182,0.18 h 2.285 c 0.12,0 0.182,-0.06 0.182,-0.18 v -4.193 c 0,-0.114 -0.06,-0.174 -0.182,-0.174 z m 8.793,0 c -1.327,0 -2.199,0.973 -2.199,2.273 0,1.28 0.886,2.274 2.199,2.274 h 3.268 c 1.3,0 2.193,-0.987 2.193,-2.274 0,-1.32 -0.873,-2.273 -2.193,-2.273 z m 6.207,0 c -0.12,0 -0.18,0.06 -0.18,0.174 v 4.193 c 0,0.12 0.06,0.18 0.18,0.18 h 0.461 c 0.267,0 0.425,-0.03 0.719,-0.133 l 5.314,-1.987 v 1.94 c 0,0.12 0.06,0.18 0.18,0.18 h 0.859 c 0.12,0 0.18,-0.06 0.18,-0.18 v -4.193 c 0,-0.114 -0.06,-0.174 -0.18,-0.174 h -0.82 c -0.293,0 -0.426,0.01 -0.713,0.127 l -4.959,1.914 v -1.867 c 0,-0.114 -0.06,-0.174 -0.181,-0.174 z m 8.494,0 c -0.12,0 -0.179,0.06 -0.179,0.174 v 0.425 c 0,0.12 0.06,0.182 0.179,0.182 h 3.1 c 0.58,0 0.787,0.219 0.787,1.039 v 0.727 c 0,0.906 -0.24,1.212 -0.787,1.212 h -3.119 c -0.12,0 -0.182,0.06 -0.182,0.182 v 0.426 c 0,0.12 0.06,0.18 0.182,0.18 h 4.679 c 1.26,0 2.186,-0.954 2.186,-2.274 0,-1.307 -0.872,-2.273 -2.186,-2.273 z m 7.614,0 c -0.12,0 -0.18,0.06 -0.18,0.174 v 0.425 c 0,0.12 0.06,0.182 0.18,0.182 h 3.613 l -3.133,1.473 c -0.687,0.32 -0.814,0.687 -0.814,1.173 0,0.594 0.433,1.12 1.287,1.12 h 5.033 c 0.113,0 0.174,-0.06 0.174,-0.18 v -0.426 c 0,-0.12 -0.06,-0.182 -0.174,-0.182 h -3.74 l 3.14,-1.472 c 0.68,-0.32 0.813,-0.686 0.813,-1.166 0,-0.594 -0.433,-1.121 -1.293,-1.121 z m -21.067,0.781 h 0.906 c 0.527,0 0.733,0.232 0.733,1.039 v 0.727 c 0,0.9 -0.226,1.212 -0.733,1.212 h -0.906 c -0.547,0 -0.787,-0.306 -0.787,-1.212 v -0.727 c 0,-0.82 0.207,-1.039 0.787,-1.039 z m -73.033,0.898 c -0.113,0 -0.174,0.04 -0.174,0.122 v 0.539 c 0,0.08 0.06,0.121 0.174,0.121 h 3.185 c 0.12,0 0.18,-0.06 0.18,-0.174 v -0.434 c 0,-0.113 -0.06,-0.174 -0.18,-0.174 z m 21.066,0 c -0.113,0 -0.173,0.04 -0.173,0.122 v 0.539 c 0,0.08 0.06,0.121 0.173,0.121 h 3.186 c 0.12,0 0.18,-0.06 0.18,-0.174 v -0.434 c 0,-0.113 -0.06,-0.174 -0.18,-0.174 z m 22.694,0 c -0.114,0 -0.174,0.04 -0.174,0.122 v 0.539 c 0,0.08 0.06,0.121 0.174,0.121 h 3.185 c 0.12,0 0.18,-0.06 0.18,-0.174 v -0.434 c 0,-0.113 -0.06,-0.174 -0.18,-0.174 z m 42.773,0 c -0.113,0 -0.174,0.04 -0.174,0.122 v 0.539 c 0,0.08 0.06,0.121 0.174,0.121 h 3.186 c 0.12,0 0.179,-0.06 0.179,-0.174 v -0.434 c 0,-0.113 -0.06,-0.174 -0.179,-0.174 z m -120.787,13.321 c -1.033,0 -1.519,0.674 -1.519,1.347 0,0.654 0.458,1.293 1.525,1.293 h 1.588 c 0.693,0 0.812,0.193 0.812,0.68 v 0.439 h -3.812 c -0.12,0 -0.182,0.06 -0.182,0.182 v 0.426 c 0,0.12 0.06,0.18 0.182,0.18 h 6.16 c 0.12,0 0.18,-0.06 0.18,-0.18 v -0.881 c 0,-1.36 -0.495,-1.633 -2.895,-1.633 h -0.685 c -0.354,0 -0.555,-0.2 -0.555,-0.547 0,-0.353 0.201,-0.525 0.555,-0.525 h 3.218 c 0.12,0 0.182,-0.06 0.182,-0.182 v -0.425 c 0,-0.114 -0.06,-0.174 -0.182,-0.174 z m 10.086,0 c -1.327,0 -2.199,0.973 -2.199,2.273 0,1.28 0.886,2.274 2.199,2.274 h 2.613 c 1.3,0 2.194,-0.987 2.194,-2.274 0,-1.32 -0.874,-2.273 -2.194,-2.273 z m 5.207,0 c -0.07,0 -0.127,0.05 -0.127,0.113 0,0.03 0.01,0.07 0.05,0.107 l 4.181,4.194 c 0.08,0.09 0.173,0.133 0.28,0.133 h 0.439 c 0.12,0 0.213,-0.05 0.293,-0.133 l 4.115,-4.188 c 0.05,-0.04 0.06,-0.09 0.06,-0.119 0,-0.06 -0.05,-0.107 -0.152,-0.107 h -2.793 c -0.154,0 -0.261,0.05 -0.348,0.133 l -2.586,2.673 -2.687,-2.673 c -0.09,-0.09 -0.199,-0.133 -0.346,-0.133 z m 12.119,0 c -0.12,0 -0.18,0.06 -0.18,0.174 v 0.425 c 0,0.12 0.06,0.182 0.18,0.182 h 3.102 c 0.58,0 0.785,0.219 0.785,1.039 v 0.727 c 0,0.906 -0.239,1.212 -0.785,1.212 h -3.121 c -0.12,0 -0.18,0.06 -0.18,0.182 v 0.426 c 0,0.12 0.06,0.18 0.18,0.18 h 4.679 c 1.26,0 2.188,-0.954 2.188,-2.274 0,-1.307 -0.874,-2.273 -2.188,-2.273 z m 6.654,0 c -0.07,0 -0.127,0.05 -0.127,0.113 0,0.03 0.01,0.07 0.05,0.107 l 4.182,4.194 c 0.08,0.09 0.172,0.133 0.279,0.133 h 0.44 c 0.12,0 0.213,-0.05 0.293,-0.133 l 4.113,-4.188 c 0.05,-0.04 0.06,-0.09 0.06,-0.119 0,-0.06 -0.04,-0.107 -0.152,-0.107 h -2.795 c -0.153,0 -0.259,0.05 -0.346,0.133 l -2.585,2.673 -2.688,-2.673 c -0.09,-0.09 -0.199,-0.133 -0.346,-0.133 z m 11.081,0 c -1.327,0 -2.2,0.973 -2.2,2.273 0,1.28 0.886,2.274 2.2,2.274 h 3.265 c 1.3,0 2.194,-0.987 2.194,-2.274 0,-1.32 -0.874,-2.273 -2.194,-2.273 z m 9.179,0 c -0.12,0 -0.179,0.06 -0.179,0.174 v 2.607 c 0,0.693 -0.201,0.978 -0.788,0.978 h -2.619 c -0.113,0 -0.174,0.06 -0.174,0.182 v 0.426 c 0,0.12 0.06,0.18 0.174,0.18 h 4.36 c 1.326,0 1.953,-0.786 1.953,-1.879 v -2.494 c 0,-0.114 -0.05,-0.174 -0.174,-0.174 z m 5.655,0 c -0.12,0 -0.174,0.06 -0.174,0.174 v 0.425 c 0,0.12 0.05,0.182 0.174,0.182 h 3.099 c 0.587,0 0.787,0.292 0.787,0.978 v 2.608 c 0,0.12 0.06,0.18 0.18,0.18 h 2.553 c 0.12,0 0.173,-0.06 0.173,-0.18 v -2.486 c 0,-1.1 -0.626,-1.881 -1.953,-1.881 z m 9.525,0 c -1.327,0 -2.199,0.973 -2.199,2.273 0,1.28 0.886,2.274 2.199,2.274 h 3.267 c 1.3,0 2.194,-0.987 2.194,-2.274 0,-1.32 -0.874,-2.273 -2.194,-2.273 z m 8.207,0 c -0.09,0 -0.127,0.05 -0.127,0.1 0,0.03 0.01,0.07 0.03,0.09 l 2.414,2.553 v 1.627 c 0,0.12 0.06,0.18 0.18,0.18 h 2.293 c 0.113,0 0.174,-0.06 0.174,-0.18 v -1.586 l 2.392,-2.555 c 0.04,-0.04 0.06,-0.08 0.06,-0.119 0,-0.07 -0.07,-0.107 -0.133,-0.107 h -2.687 c -0.12,0 -0.219,0.05 -0.299,0.133 l -1.774,1.947 -1.847,-1.953 c -0.09,-0.1 -0.16,-0.127 -0.293,-0.127 z m 10.414,0 c -0.12,0 -0.213,0.05 -0.293,0.127 l -4.121,4.187 c -0.04,0.04 -0.05,0.09 -0.05,0.127 0,0.06 0.05,0.106 0.153,0.106 h 2.793 c 0.153,0 0.261,-0.05 0.347,-0.133 l 2.58,-2.674 2.039,2.019 h -3.025 c -0.12,0 -0.18,0.06 -0.18,0.182 v 0.426 c 0,0.12 0.06,0.18 0.18,0.18 h 4.406 c 0.07,0 0.127,-0.05 0.127,-0.114 0,-0.03 -0.01,-0.07 -0.05,-0.107 l -4.181,-4.199 c -0.08,-0.08 -0.173,-0.127 -0.279,-0.127 z m 3.207,0 c -0.1,0 -0.141,0.05 -0.141,0.107 0,0.03 0.01,0.07 0.04,0.113 l 3.173,4.194 c 0.07,0.1 0.173,0.133 0.28,0.133 h 0.38 c 0.127,0 0.228,-0.03 0.301,-0.133 l 2.1,-2.834 2.254,2.834 c 0.07,0.1 0.165,0.133 0.271,0.133 h 0.387 c 0.127,0 0.221,-0.04 0.301,-0.133 l 3.461,-4.188 c 0.04,-0.04 0.05,-0.08 0.05,-0.113 0,-0.07 -0.05,-0.113 -0.146,-0.113 h -2.561 c -0.146,0 -0.259,0.03 -0.345,0.133 l -2.008,2.507 -2.02,-2.507 c -0.07,-0.1 -0.193,-0.133 -0.34,-0.133 h -0.419 c -0.147,0 -0.267,0.03 -0.34,0.133 l -2,2.673 -2.094,-2.673 c -0.08,-0.1 -0.194,-0.133 -0.348,-0.133 z m 13.332,0 c -0.12,0 -0.18,0.06 -0.18,0.174 v 0.425 c 0,0.12 0.06,0.182 0.18,0.182 h 3.1 c 0.58,0 0.787,0.219 0.787,1.039 v 0.727 c 0,0.906 -0.241,1.212 -0.787,1.212 h -3.119 c -0.12,0 -0.18,0.06 -0.18,0.182 v 0.426 c 0,0.12 0.06,0.18 0.18,0.18 h 4.679 c 1.26,0 2.188,-0.954 2.188,-2.274 0,-1.307 -0.874,-2.273 -2.188,-2.273 z m 7.541,0 c -0.12,0 -0.18,0.06 -0.18,0.174 v 0.425 c 0,0.12 0.06,0.182 0.18,0.182 h 3.1 c 0.58,0 0.787,0.219 0.787,1.039 v 0.727 c 0,0.906 -0.241,1.212 -0.787,1.212 h -3.121 c -0.12,0 -0.18,0.06 -0.18,0.182 v 0.426 c 0,0.12 0.06,0.18 0.18,0.18 h 4.681 c 1.26,0 2.186,-0.954 2.186,-2.274 0,-1.307 -0.872,-2.273 -2.186,-2.273 z m 8.813,0 c -0.807,0 -1.414,0.473 -1.414,1.16 0,0.753 0.587,1.18 1.3,1.287 l -1.84,1.887 c -0.03,0.03 -0.05,0.07 -0.05,0.107 0,0.05 0.04,0.106 0.121,0.106 h 2.279 c 0.167,0 0.319,-0.05 0.439,-0.18 l 2.008,-2.061 c 0.07,-0.07 0.113,-0.126 0.113,-0.246 v -0.207 c 0,-0.113 -0.05,-0.174 -0.173,-0.174 h -0.914 c -0.42,0 -0.633,-0.166 -0.633,-0.453 0,-0.286 0.213,-0.445 0.633,-0.445 h 1.486 v 3.586 c 0,0.12 0.06,0.18 0.182,0.18 h 2.285 c 0.12,0 0.181,-0.06 0.181,-0.18 v -4.193 c 0,-0.114 -0.06,-0.174 -0.181,-0.174 z m 6.632,0 c -0.12,0 -0.171,0.06 -0.171,0.174 v 0.425 c 0,0.12 0.05,0.182 0.171,0.182 h 3.102 c 0.587,0 0.785,0.292 0.785,0.978 v 2.608 c 0,0.12 0.06,0.18 0.182,0.18 h 2.552 c 0.12,0 0.174,-0.06 0.174,-0.18 v -2.486 c 0,-1.1 -0.628,-1.881 -1.955,-1.881 z m -116.439,0.781 h 0.494 c 0.52,0 0.732,0.232 0.732,1.039 v 0.727 c 0,0.9 -0.225,1.212 -0.732,1.212 h -0.494 c -0.547,0 -0.787,-0.306 -0.787,-1.212 v -0.727 c 0,-0.82 0.214,-1.039 0.787,-1.039 z m 35.18,0 h 0.906 c 0.527,0 0.734,0.232 0.734,1.039 v 0.727 c 0,0.9 -0.227,1.212 -0.734,1.212 h -0.906 c -0.547,0 -0.787,-0.306 -0.787,-1.212 v -0.727 c 0,-0.82 0.207,-1.039 0.787,-1.039 z m 24.361,0 h 0.906 c 0.527,0 0.733,0.232 0.733,1.039 v 0.727 c 0,0.9 -0.226,1.212 -0.733,1.212 h -0.906 c -0.547,0 -0.787,-0.306 -0.787,-1.212 v -0.727 c 0,-0.82 0.207,-1.039 0.787,-1.039 z m -43.295,0.898 c -0.113,0 -0.172,0.04 -0.172,0.122 v 0.539 c 0,0.08 0.06,0.121 0.172,0.121 h 3.188 c 0.12,0 0.179,-0.06 0.179,-0.174 v -0.434 c 0,-0.113 -0.06,-0.174 -0.179,-0.174 z m 32.561,0 c -0.12,0 -0.18,0.04 -0.18,0.122 v 0.539 c 0,0.08 0.06,0.121 0.18,0.121 h 3.193 c 0.12,0 0.18,-0.06 0.18,-0.174 v -0.434 c 0,-0.113 -0.06,-0.174 -0.18,-0.174 z m 44.693,0 c -0.113,0 -0.174,0.04 -0.174,0.122 v 0.539 c 0,0.08 0.06,0.121 0.174,0.121 h 3.187 c 0.12,0 0.18,-0.06 0.18,-0.174 v -0.434 c 0,-0.113 -0.06,-0.174 -0.18,-0.174 z m 7.541,0 c -0.113,0 -0.174,0.04 -0.174,0.122 v 0.539 c 0,0.08 0.06,0.121 0.174,0.121 h 3.185 c 0.12,0 0.18,-0.06 0.18,-0.174 v -0.434 c 0,-0.113 -0.06,-0.174 -0.18,-0.174 z m 15.439,0 c -0.12,0 -0.179,0.04 -0.179,0.122 v 0.539 c 0,0.08 0.06,0.121 0.179,0.121 h 3.194 c 0.12,0 0.179,-0.06 0.179,-0.174 v -0.434 c 0,-0.113 -0.06,-0.174 -0.179,-0.174 z m -121.754,1.315 c -0.2,0 -0.298,0.1 -0.298,0.293 v 0.961 c 0,0.2 0.1,0.299 0.298,0.299 h 1.061 c 0.193,0 0.299,-0.1 0.299,-0.299 v -0.961 c 0,-0.193 -0.106,-0.293 -0.299,-0.293 z" /><path
   id="rect24"
   style="fill:url(#linearGradient25);stroke-width:1.27461"
   d="m -39851.345,-44298.26 v 16.333 h 21.214 v -16.333 z" /><path
   style="fill:#000000;stroke-width:0.219201"
   d="m -39829.941,-44289.866 v -8.394 h -10.702 -10.702 v 8.394 8.394 h 10.702 10.702 z m -9.483,7.832 c -0.111,-0.1 -0.111,-0.21 0,-0.353 0.05,-0.06 0.09,-0.169 0.09,-0.237 0,-0.141 -0.08,-0.35 -0.138,-0.35 -0.06,0 -0.04,-0.143 0.04,-0.228 0.118,-0.133 0.265,-0.1 0.468,0.107 0.355,0.361 0.355,0.504 0,0.836 -0.113,0.105 -0.227,0.215 -0.254,0.245 -0.07,0.07 -0.1,0.07 -0.201,-0.02 z m -1.178,-0.01 c -0.09,-0.05 -0.124,-0.308 -0.04,-0.308 0.06,0 0.134,-0.26 0.106,-0.399 -0.01,-0.07 -0.05,-0.152 -0.08,-0.18 -0.09,-0.07 -0.07,-0.217 0.03,-0.311 0.139,-0.123 0.194,-0.104 0.453,0.154 0.202,0.203 0.236,0.26 0.236,0.402 0,0.141 -0.03,0.199 -0.231,0.398 -0.195,0.196 -0.282,0.264 -0.37,0.286 -0,10e-4 -0.05,-0.02 -0.1,-0.04 z m -1.147,-0.02 c -0.09,-0.09 -0.08,-0.194 0.02,-0.328 0.108,-0.141 0.109,-0.291 0,-0.505 -0.07,-0.135 -0.08,-0.189 -0.04,-0.263 0.113,-0.219 0.2,-0.209 0.462,0.05 0.211,0.209 0.313,0.356 0.313,0.454 0,0.07 -0.567,0.661 -0.635,0.661 -0.03,0 -0.09,-0.03 -0.124,-0.07 z m -1.547,-0.06 c 0,-0.08 0.03,-0.09 0.261,-0.09 h 0.261 v -0.199 -0.199 h -0.24 c -0.21,0 -0.239,-0.01 -0.239,-0.09 0,-0.08 0.03,-0.09 0.239,-0.09 h 0.24 v -0.152 c 0,-0.188 -0.05,-0.219 -0.313,-0.206 -0.164,0 -0.209,-0 -0.209,-0.06 0,-0.06 0.07,-0.07 0.369,-0.07 h 0.37 v 0.619 0.618 h -0.37 c -0.34,0 -0.369,-0 -0.369,-0.09 z m -0.566,-0.267 c 0,-0.499 -0.05,-0.502 -0.488,-0.03 -0.497,0.537 -0.513,0.53 -0.513,-0.237 0,-0.585 0,-0.619 0.09,-0.619 0.08,0 0.09,0.04 0.1,0.343 0.01,0.317 0.02,0.343 0.111,0.356 0.07,0.01 0.135,-0.03 0.218,-0.132 0.317,-0.39 0.505,-0.567 0.604,-0.567 h 0.103 v 0.619 0.618 h -0.109 c -0.107,0 -0.109,-0 -0.109,-0.355 z m -2.24,0.311 c -0.01,-0.02 -0.07,-0.04 -0.112,-0.04 -0.07,0 -0.08,-0.03 -0.08,-0.265 v -0.265 h 0.174 c 0.126,0 0.174,0.02 0.174,0.07 0,0.04 -0.04,0.07 -0.08,0.07 -0.103,0 -0.16,0.158 -0.09,0.245 0.03,0.04 0.129,0.06 0.246,0.06 0.158,0 0.218,-0.02 0.326,-0.134 0.12,-0.122 0.131,-0.155 0.112,-0.352 -0.03,-0.341 -0.289,-0.493 -0.682,-0.403 -0.193,0.04 -0.238,-0 -0.102,-0.109 0.1,-0.08 0.534,-0.08 0.669,-0 0.168,0.09 0.299,0.224 0.299,0.305 0,0.04 0.02,0.09 0.04,0.103 0.09,0.06 -10e-4,0.425 -0.15,0.578 -0.154,0.159 -0.673,0.264 -0.742,0.151 z m -0.745,-0.121 c -0.08,-0.163 -0.09,-0.166 -0.369,-0.179 l -0.283,-0.01 -0.09,0.168 c -0.05,0.103 -0.123,0.172 -0.182,0.181 -0.05,0 -0.1,0 -0.1,-0.01 0,-0.01 0.08,-0.209 0.178,-0.434 0.1,-0.225 0.201,-0.469 0.229,-0.542 0.08,-0.21 0.112,-0.243 0.24,-0.243 0.105,0 0.135,0.03 0.231,0.254 0.06,0.14 0.137,0.329 0.169,0.42 0.03,0.09 0.07,0.166 0.09,0.166 0.02,0 0.03,0.04 0.03,0.08 0,0.04 0.03,0.118 0.06,0.165 0.09,0.12 0.08,0.152 -0.03,0.152 -0.07,0 -0.126,-0.05 -0.187,-0.165 z m -0.166,-0.325 c 0.03,-0.04 0,-0.119 -0.111,-0.349 -0.06,-0.128 -0.185,-0.07 -0.248,0.109 -0.03,0.1 -0.05,0.201 -0.04,0.232 0.03,0.07 0.355,0.08 0.397,0 z m -1.961,0.446 c -0.01,-0.02 -0.06,-0.04 -0.111,-0.04 -0.07,0 -0.08,-0.03 -0.08,-0.265 v -0.265 h 0.195 c 0.141,0 0.196,0.02 0.196,0.06 0,0.04 -0.04,0.07 -0.1,0.08 -0.07,0 -0.102,0.05 -0.112,0.12 -0.02,0.133 0.05,0.18 0.283,0.181 0.145,0 0.208,-0.03 0.315,-0.135 0.181,-0.184 0.186,-0.423 0.01,-0.619 -0.102,-0.116 -0.153,-0.138 -0.337,-0.143 -0.119,-0 -0.27,0 -0.336,0.03 -0.139,0.04 -0.164,-0.04 -0.04,-0.128 0.113,-0.09 0.596,-0.08 0.741,0.01 0.249,0.159 0.292,0.236 0.292,0.528 0,0.294 -0.08,0.434 -0.325,0.566 -0.131,0.07 -0.55,0.09 -0.589,0.02 z m -1.37,-0.04 c 0,-0.08 0.03,-0.09 0.283,-0.09 h 0.283 v -0.199 -0.199 h -0.24 c -0.21,0 -0.239,-0.01 -0.239,-0.09 0,-0.08 0.03,-0.09 0.239,-0.09 h 0.24 v -0.156 c 0,-0.179 -0.05,-0.209 -0.339,-0.215 -0.116,-0 -0.205,-0.03 -0.216,-0.06 -0.01,-0.04 0.08,-0.06 0.377,-0.06 h 0.395 v 0.619 0.618 h -0.391 c -0.363,0 -0.392,-0 -0.392,-0.09 z m 0.04,-1.857 c -0.105,-0.06 -0.11,-0.214 -0,-0.247 0.04,-0.01 0.115,-0.04 0.163,-0.06 0.05,-0.02 0.194,-0.07 0.326,-0.112 0.132,-0.04 0.284,-0.09 0.339,-0.114 0.06,-0.02 1.627,-0.04 3.494,-0.04 3.324,0 3.398,-0 3.588,-0.09 0.125,-0.06 0.401,-0.297 0.77,-0.668 0.694,-0.697 0.85,-0.819 1.102,-0.857 0.312,-0.05 0.548,0.04 0.862,0.341 0.152,0.143 0.331,0.303 0.398,0.357 0.07,0.05 0.211,0.188 0.32,0.299 0.214,0.219 0.602,0.486 0.705,0.486 0.03,0 0.09,0.03 0.118,0.06 0.08,0.08 5.799,0.08 5.825,0 0.01,-0.03 0.06,-0.06 0.108,-0.06 0.107,0 0.48,-0.299 0.445,-0.356 -0.01,-0.02 -0,-0.08 0.02,-0.12 0.06,-0.111 0.78,-0.825 0.849,-0.841 0.03,-0 0.189,0.122 0.35,0.287 0.243,0.249 0.289,0.319 0.269,0.411 -0.07,0.346 -0.145,0.649 -0.168,0.707 -0.01,0.04 -0.03,0.106 -0.04,0.155 -0.01,0.06 -0.05,0.09 -0.122,0.09 -0.09,0 -0.108,-0.02 -0.11,-0.127 -0,-0.07 -0.04,-0.153 -0.08,-0.185 -0.07,-0.05 -0.1,-0.05 -0.183,0.01 -0.06,0.04 -0.104,0.09 -0.104,0.108 0,0.02 -0.05,0.04 -0.121,0.04 -0.11,0 -0.247,0.08 -0.444,0.265 -0.1,0.09 -0.334,0.202 -0.544,0.255 -0.247,0.06 -18.008,0.07 -18.122,0 z m 14.622,-3.331 c -0.04,-0.07 -0.05,-0.226 -0.04,-0.488 0.02,-0.358 0.03,-0.39 0.158,-0.523 l 0.139,-0.141 1.668,-0.01 1.668,-0.01 0.156,-0.13 c 0.261,-0.219 0.292,-0.329 0.292,-1.035 0,-0.478 -0.02,-0.66 -0.07,-0.764 -0.08,-0.162 -0.292,-0.354 -0.425,-0.384 -0.05,-0.01 -0.809,-0.03 -1.682,-0.03 -1.743,-0.01 -1.722,-0.01 -1.849,-0.283 -0.08,-0.162 -0.09,-0.771 -0.02,-0.902 0.08,-0.155 0.331,-0.109 0.63,0.114 0.325,0.244 0.553,0.365 0.805,0.429 0.107,0.03 0.753,0.06 1.435,0.07 1.273,0.03 1.338,0.04 1.515,0.218 0.225,0.23 0.225,0.232 0.225,1.531 0,1.3 0,1.301 -0.226,1.532 -0.196,0.202 -0.276,0.213 -1.486,0.213 -0.909,0 -1.209,0.01 -1.421,0.07 -0.252,0.07 -0.641,0.245 -0.693,0.32 -0.01,0.02 -0.12,0.1 -0.238,0.175 -0.265,0.176 -0.464,0.189 -0.545,0.04 z m -8.819,-0.138 -0.146,-0.113 -1.076,0 c -0.592,0 -1.145,0.01 -1.229,0.02 -0.188,0.02 -2.224,0.09 -2.609,0.09 -0.279,0 -0.283,-0 -0.357,-0.155 -0.08,-0.175 -0.107,-0.759 -0.04,-0.948 0.05,-0.124 0.142,-0.182 0.229,-0.139 0.09,0.04 0.219,0.132 0.284,0.192 0.03,0.03 0.1,0.06 0.143,0.06 0.05,0 0.08,0.02 0.08,0.04 0,0.06 0.582,0.184 0.874,0.184 0.15,0 0.383,0.02 0.516,0.04 0.133,0.02 0.741,0.07 1.351,0.09 0.61,0.03 1.422,0.06 1.805,0.08 l 0.696,0.03 -0,0.129 c -0,0.07 -0.02,0.14 -0.04,0.154 -0.02,0.01 -0.08,0.1 -0.143,0.191 -0.06,0.09 -0.126,0.166 -0.147,0.166 -0.02,0 -0.105,-0.05 -0.186,-0.113 z m 2.972,-2.867 c -0.129,-0.08 -0.291,-0.166 -0.36,-0.183 -0.07,-0.02 -0.145,-0.05 -0.168,-0.06 -0.05,-0.04 -0.88,-0.122 -1.784,-0.175 -0.909,-0.05 -1.213,-0.112 -1.482,-0.287 -0.245,-0.16 -0.454,-0.355 -0.454,-0.425 0,-0.07 0.116,-0.172 0.198,-0.172 0.04,0 0.164,0.07 0.276,0.152 0.112,0.08 0.261,0.165 0.332,0.183 0.07,0.02 0.153,0.05 0.181,0.07 0.03,0.02 0.224,0.03 0.435,0.02 1.265,-0.07 3.06,-0.128 3.159,-0.102 l 0.117,0.03 v 0.499 c 0,0.669 -0.04,0.715 -0.45,0.452 z m 1.05,-2.842 c -0.09,-0.04 -0.401,-0.305 -0.692,-0.584 -0.709,-0.68 -0.811,-0.75 -1.346,-0.922 -0.218,-0.07 -5.605,-0.07 -5.824,0 -0.2,0.06 -0.394,0.168 -0.5,0.268 -0.05,0.04 -0.103,0.08 -0.125,0.08 -0.02,0 -0.02,0.03 0.01,0.07 0.05,0.06 -0.01,0.137 -0.418,0.553 l -0.475,0.484 -0.315,-0.321 c -0.344,-0.351 -0.357,-0.39 -0.254,-0.759 0.03,-0.123 0.09,-0.337 0.133,-0.474 l 0.07,-0.249 0.127,0.05 c 0.117,0.05 0.125,0.06 0.1,0.215 -0.04,0.236 0.07,0.271 0.262,0.09 0.08,-0.08 0.181,-0.139 0.23,-0.139 0.08,0 0.377,-0.202 0.45,-0.302 0.04,-0.05 0.275,-0.151 0.479,-0.198 0.13,-0.03 3.163,-0.05 9.126,-0.06 8.178,-0.01 8.939,-0 9.038,0.06 0.217,0.145 0.153,0.206 -0.431,0.416 l -0.368,0.132 h -3.279 c -3.082,0 -3.293,0 -3.508,0.08 -0.126,0.04 -0.252,0.104 -0.279,0.132 -0.03,0.03 -0.07,0.05 -0.09,0.05 -0.02,0 -0.314,0.281 -0.654,0.625 -0.363,0.367 -0.69,0.658 -0.792,0.706 -0.218,0.101 -0.474,0.103 -0.684,0 z m 5.337,-2.946 c -0.16,-0.07 -0.185,-0.117 -0.09,-0.193 0.04,-0.03 0.08,-0.03 0.12,-0 0.09,0.06 0.29,0.05 0.404,-0 0.148,-0.08 0.201,-0.176 0.202,-0.371 0,-0.142 -0.03,-0.205 -0.127,-0.304 -0.114,-0.111 -0.151,-0.122 -0.346,-0.103 -0.239,0.02 -0.34,-0.03 -0.244,-0.126 0.04,-0.04 0.162,-0.06 0.346,-0.06 0.275,0 0.292,0 0.459,0.176 0.155,0.157 0.174,0.201 0.174,0.387 0,0.277 -0.123,0.478 -0.359,0.587 -0.222,0.102 -0.335,0.107 -0.534,0.02 z m -1.233,0 c -0.04,-0.05 -0.01,-0.09 0.104,-0.2 l 0.152,-0.14 0.155,0.143 c 0.143,0.132 0.149,0.148 0.08,0.2 -0.1,0.08 -0.427,0.07 -0.489,-0 z m -2.838,-0.152 c -0.327,-0.345 -0.321,-0.441 0.05,-0.815 0.14,-0.142 0.245,-0.21 0.32,-0.21 0.16,0 0.194,0.171 0.07,0.377 -0.113,0.195 -0.113,0.212 0,0.449 0.08,0.18 0.09,0.199 0.02,0.301 -0.107,0.166 -0.237,0.138 -0.465,-0.102 z m -1.1,-0.04 c -0.149,-0.152 -0.244,-0.286 -0.244,-0.346 0,-0.06 0.103,-0.205 0.264,-0.373 0.213,-0.224 0.285,-0.273 0.38,-0.262 0.09,0.01 0.121,0.04 0.132,0.138 0,0.07 -0.02,0.172 -0.06,0.231 -0.08,0.132 -0.08,0.325 -0,0.437 0.08,0.113 0.08,0.242 -0,0.342 -0.115,0.13 -0.207,0.1 -0.467,-0.167 z m -1.099,0.01 c -0.313,-0.319 -0.311,-0.409 0.02,-0.746 0.247,-0.254 0.377,-0.308 0.482,-0.202 0.07,0.07 0.06,0.205 -0.01,0.284 -0.121,0.123 -0.129,0.284 -0.02,0.485 0.1,0.184 0.1,0.19 0.02,0.3 -0.119,0.166 -0.22,0.141 -0.478,-0.122 z m 10.146,0.105 c -0.146,-0.07 -0.19,-0.126 -0.253,-0.305 -0.07,-0.211 -0.07,-0.225 0.01,-0.421 0.123,-0.293 0.286,-0.38 0.709,-0.38 l 0.337,0 v 0.596 0.597 h -0.313 c -0.222,0 -0.363,-0.03 -0.489,-0.09 z m 0.53,-0.14 c 0.07,-0.07 0.07,-0.665 0,-0.737 -0.09,-0.09 -0.318,-0.06 -0.442,0.06 -0.139,0.141 -0.156,0.422 -0.03,0.582 0.09,0.122 0.391,0.18 0.475,0.09 z m -2.012,0.138 c 0,-0.05 0.07,-0.07 0.268,-0.08 0.29,-0.01 0.342,-0.06 0.293,-0.256 -0.02,-0.1 -0.05,-0.107 -0.261,-0.107 -0.205,0 -0.234,-0.01 -0.234,-0.09 0,-0.08 0.03,-0.09 0.234,-0.09 0.249,0 0.317,-0.06 0.264,-0.227 -0.02,-0.07 -0.07,-0.08 -0.284,-0.08 -0.229,0 -0.258,-0.01 -0.258,-0.09 0,-0.08 0.03,-0.09 0.392,-0.09 h 0.391 v 0.567 c 0,0.312 -0.01,0.581 -0.03,0.598 -0.02,0.02 -0.198,0.03 -0.403,0.02 -0.296,-0.01 -0.372,-0.03 -0.372,-0.08 z m -0.639,-0.121 -0.01,-0.21 -0.229,-0.01 c -0.19,-0.01 -0.228,-0.03 -0.228,-0.1 0,-0.07 0.04,-0.09 0.202,-0.1 0.23,-0.01 0.304,-0.09 0.26,-0.271 -0.03,-0.11 -0.04,-0.118 -0.278,-0.118 -0.203,0 -0.26,-0.02 -0.304,-0.09 -0.05,-0.09 -0.04,-0.09 0.381,-0.09 h 0.435 v 0.596 0.597 h -0.106 c -0.1,0 -0.108,-0.02 -0.12,-0.21 z m -3.907,-0.122 c 0,-0.182 -0.02,-0.331 -0.04,-0.331 -0.04,0 -0.268,0.246 -0.268,0.285 0,0.01 -0.08,0.104 -0.169,0.206 -0.272,0.299 -0.31,0.244 -0.31,-0.445 v -0.576 h 0.113 c 0.112,0 0.112,10e-4 0.1,0.32 -0.01,0.271 -0,0.32 0.06,0.32 0.04,0 0.184,-0.144 0.322,-0.32 0.184,-0.235 0.279,-0.32 0.354,-0.32 0.102,0 0.102,10e-4 0.102,0.567 0,0.312 -0.01,0.58 -0.03,0.596 -0.02,0.02 -0.07,0.03 -0.13,0.03 -0.1,0 -0.102,-0.01 -0.102,-0.332 z m 1.523,0.221 c 0,-0.01 0.01,-0.02 0.02,-0.02 0.01,0 0.02,0.01 0.02,0.02 0,0.01 -0.01,0.02 -0.02,0.02 -0.01,0 -0.02,-0.01 -0.02,-0.02 z m -0.971,-0.357 c -0.01,-0.08 -0,-0.216 0.02,-0.299 0.05,-0.176 0.28,-0.426 0.396,-0.426 0.04,0 0.08,-0.02 0.08,-0.04 0,-0.141 0.425,0.05 0.62,0.276 0.1,0.113 0.12,0.182 0.119,0.363 0,0.146 -0.03,0.258 -0.08,0.327 l -0.08,0.104 0,-0.104 c 0,-0.08 -0.02,-0.108 -0.116,-0.119 -0.07,-0 -0.12,-0.03 -0.12,-0.05 0,-0.02 0.05,-0.05 0.12,-0.07 0.208,-0.05 0.228,-0.06 0.228,-0.142 0,-0.102 -0.112,-0.264 -0.154,-0.222 -0.02,0.02 -0.07,-0.03 -0.125,-0.11 -0.08,-0.128 -0.115,-0.142 -0.309,-0.142 -0.192,0 -0.221,0.01 -0.273,0.121 -0.03,0.07 -0.09,0.122 -0.121,0.122 -0.08,0 -0.169,0.192 -0.132,0.291 0.02,0.04 0.04,0.06 0.05,0.05 0.04,-0.03 0.278,0.06 0.278,0.105 0,0.02 -0.05,0.04 -0.11,0.04 -0.133,0 -0.175,0.09 -0.108,0.229 0.04,0.08 0.03,0.08 -0.06,-0.03 -0.06,-0.07 -0.117,-0.193 -0.13,-0.274 z m 0.724,-0.49 c 0.02,-0.02 0.03,-0 0.03,0.03 0,0.03 -0.01,0.04 -0.03,0.03 -0.02,-0.02 -0.02,-0.04 0,-0.06 z m -0.217,0 c 0.02,-0.02 0.03,-0 0.03,0.03 0,0.03 -0.01,0.04 -0.03,0.03 -0.02,-0.02 -0.02,-0.04 0,-0.06 z"
   id="path24-1" /><style
   type="text/css"
   id="style1-9">
	.st0{fill:#F287B7;}
</style><style
   type="text/css"
   id="style1-5">
	.st0{fill:#F287B7;}
</style><style
   type="text/css"
   id="style1-1">
	.st0{fill:#F287B7;}
</style></svg>
