<?xml version="1.0" encoding="UTF-8" standalone="no"?>
<!-- Generator: Adobe Illustrator 28.3.0, SVG Export Plug-In . SVG Version: 6.00 Build 0)  -->

<svg
   version="1.1"
   id="Pink_Base"
   x="0px"
   y="0px"
   viewBox="0 0 466.8 326.6"
   style="enable-background:new 0 0 466.8 326.6;"
   xml:space="preserve"
   sodipodi:docname="1967_cadillac_deville FINAL_MASK_NEG.svg"
   inkscape:version="1.3.2 (091e20e, 2023-11-25)"
   xmlns:inkscape="http://www.inkscape.org/namespaces/inkscape"
   xmlns:sodipodi="http://sodipodi.sourceforge.net/DTD/sodipodi-0.dtd"
   xmlns="http://www.w3.org/2000/svg"
   xmlns:svg="http://www.w3.org/2000/svg"><defs
   id="defs1" /><sodipodi:namedview
   id="namedview1"
   pagecolor="#ffffff"
   bordercolor="#000000"
   borderopacity="0.25"
   inkscape:showpageshadow="2"
   inkscape:pageopacity="0.0"
   inkscape:pagecheckerboard="0"
   inkscape:deskcolor="#d1d1d1"
   inkscape:zoom="3.1874596"
   inkscape:cx="120.62898"
   inkscape:cy="156.23727"
   inkscape:window-width="1920"
   inkscape:window-height="1027"
   inkscape:window-x="1512"
   inkscape:window-y="25"
   inkscape:window-maximized="1"
   inkscape:current-layer="Pink_Base" />
<style
   type="text/css"
   id="style1">
	.st0{fill:#F287B7;}
</style>
<path
   d="m 202.51742,181.92131 c -6.8,-0.7 -7.4,-13 -0.2,-13.4 3,0 5.7,3.1 5.8,6.7 0.2,3.8 -2.4,6.9 -5.6,6.7 z"
   id="path5" /><path
   d="m 201.01742,154.42131 c 3,0 5.6,3 5.8,6.7 0.2,3.7 -2.2,6.7 -5.2,6.7 -7.1,-0.2 -8,-13 -0.6,-13.4 z"
   id="path4" /><path
   d="m 75.017421,165.82131 c -0.5,-8.1 8,-7.2 8.9,0 0.5,8.2 -8.1,7.3 -8.9,0 z"
   id="path3" /><path
   d="m 78.517421,147.12131 c 0,0 0,0 0,0 4.7,1.4 5.7,11.1 0.1,11.4 -2.4,0 -4.7,-2.6 -5.1,-5.8 -0.3,-3.7 2,-6.6 5,-5.6 z"
   id="path2" />
</svg>
