<?xml version="1.0" encoding="utf-8"?>
<!-- Generator: Adobe Illustrator 28.3.0, SVG Export Plug-In . SVG Version: 6.00 Build 0)  -->
<svg version="1.1" id="Full_Outline" xmlns="http://www.w3.org/2000/svg" xmlns:xlink="http://www.w3.org/1999/xlink" x="0px"
	 y="0px" viewBox="0 0 466.8 326.6" style="enable-background:new 0 0 466.8 326.6;" xml:space="preserve">
<style type="text/css">
	.st0{fill:#FFF200;}
</style>
<path class="st0" d="M371.1,158.5c-0.4-0.7-1.1-1.1-1.9-1.2l-31.6-2.4c-2.5-3.7-8.9-14.7-14.5-20.3c-0.7-0.4-17.7-8.8-69.5-8.8
	c-36.8,0-49.7,3.2-50.2,3.4c-1.2,0.3-2.5,1.3-3.4,2.2c-11.2,10.7-19.3,19.6-22,22.5c-5.6,0.5-17.9,1.8-30.8,4.3
	c-9.3,0.4-39.9,1.7-47.8,2.3c-3.4,0.3-6.1,0.8-8.2,1.9c-3.7,2.2-4.9,4-4.6,7c0.3,3.1,2.5,18.2,3.3,23.8c-0.5,0.3-1.2,0.7-1.2,1.3
	c0,0.2,0,1,0,1.1c0.1,0.5,0.6,1,1.2,1c0.5,1,2.6,5.5,3.4,7.2c1.1,2.2,2.6,6.7,8.1,6.4c3.8-0.3,11.5-0.7,15.2-1l0.3,2.4
	c1.2,9.2,8.1,18.5,17.5,18.5l8.2,0.4c0,0,0.1,0,0.1,0c5.9,0,11.5-3.8,14.8-10l1-2.3c8,0.6,10.7,1.5,16.8,0.2
	c1.2-0.5,3.1-0.4,4.2-0.4c1,0,15.3,0.4,19.7,0.5c1.7,0.1,4.1-0.6,5.8-0.9l2.2,0l10.1,1.1c0.8,1.4,2.2,2.7,3.8,3l0.4,2.5
	c1.5,8.5,5.6,17,14.5,17l9.9,0.1c8,0.3,14.8-7.7,17.6-19.8l1.1-0.2l3,0.1c1.5-0.1,50.7-10.9,52-11.1c1.7,6.5,5.4,10.2,10.2,10.3
	c0,0,7.3,0,7.7-0.1c8.7-1.2,12.3-12.8,12.3-21.3c4.2-1.3,13.6-4.2,18.7-6.4c1-0.4,1.7-1.2,2.2-2.1c0.7-1.4,2.3-5,3.2-9.8
	c0.1-0.6,0.5-3.3,0.5-4c0.1-1,0.1-1.9,0.1-2.9C374.5,164.3,371.2,158.7,371.1,158.5z"/>
</svg>
