<?xml version="1.0" encoding="utf-8"?>
<!-- Generator: Adobe Illustrator 28.3.0, SVG Export Plug-In . SVG Version: 6.00 Build 0)  -->
<svg version="1.1" id="Print_Layer" xmlns="http://www.w3.org/2000/svg" xmlns:xlink="http://www.w3.org/1999/xlink" x="0px"
	 y="0px" viewBox="0 0 466.8 326.6" style="enable-background:new 0 0 466.8 326.6;" xml:space="preserve">
<g id="Black">
	<path d="M321.5,207.4c0.9,5,2.8,10.1,8.1,10.8l7.1,0c0,0,0.2,0,0.2,0c2.9-0.1,5.2-2.4,6.7-4.8c3.3-5.3,4.2-11.9,3.5-18.1l-0.7,0.1
		c0.9,6.1-1.6,17.9-5.8,17.5c-1.8-0.2-3.2-2.6-3.9-6.2c0-0.2,0-0.2,0.1,0c0.7,3,1.9,5,3.5,5.2c4,0.4,6.3-10.7,5.4-16.3
		c-0.1,0-0.3,0.1-0.4,0.1c1,5.1-1.1,15.5-5,15.2c-2.8-0.1-4.4-7.2-3.7-12.4l-8.2,7.5l-0.3,0.1L321.5,207.4z"/>
	<path d="M344.3,195.9c-0.7,0.2-4.4,0.9-5.2,1.1c-0.7,0.1-1.4,0.4-1.9,0.9c-0.9,4.8,0.5,12.3,3.4,12.3c3.7,0.2,5.4-9.8,4.3-14.4
		C344.7,195.8,344.5,195.9,344.3,195.9z M343,200.3c-0.1,1.4-0.4,2.8-1.5,2.9c-1.6-0.1-1.5-4.8-0.3-5.7c0.3-0.2,0.6-0.3,0.9-0.1
		C342.7,197.7,343.1,198.9,343,200.3z"/>
	<path d="M342.1,197.7c-1.6-0.6-1.9,5.1-0.5,5.2C343,202.9,343.2,198.2,342.1,197.7z"/>
	<path d="M288.6,162.2c0.5-0.5,1.8-2,2.3-2.6c-1.5-2.4,0.1-5.7,2.8-6.3c0,0,0.1,0,0.1,0c0.5-0.1,0.9-0.1,1.4-0.1c0,0,0,0,0.1,0
		c0,0,0,0,0,0c0,0,0.1,0,0.1,0c0,0,0.1,0,0.1,0c0,0,0.1,0,0.1,0c0,0,0.1,0,0.1,0c0.1,0,0.1,0,0.2,0c0,0,0,0,0.1,0c0,0,0.1,0,0.1,0
		c0.3,0.1,0.5,0.2,0.8,0.3c0.2,0.1,0.3,0.2,0.5,0.3c0.2,0.2,0.5,0.3,0.7,0.5c0,0,0.1,0.1,0.1,0.1c0.2,0.2,0.3,0.4,0.5,0.6
		c0,0,0,0,0,0c0.1,0.2,0.3,0.4,0.4,0.7c0,0,0,0.1,0,0.1c0,0,0,0.1,0.1,0.1c0,0.1,0,0.1,0.1,0.2c0,0.1,0,0.1,0.1,0.2c0,0,0,0,0,0.1
		c0,0.1,0,0.1,0,0.2c0,0.1,0,0.1,0,0.2c0,0,0,0,0,0c0,0.1,0,0.1,0,0.2c0,0,0,0,0,0c0,0,0,0.1,0,0.1c0.2,1.8-0.8,3.3-2.3,4.1
		c0.2-0.1,0.4-0.2,0.5-0.4c1-0.9,1.5-2.1,1.4-3.4c0,0,0-0.1,0-0.1c0,0,0,0,0,0c0-0.1,0-0.1,0-0.2c0,0,0,0,0,0c0-0.1,0-0.1,0-0.2
		c0-0.1,0-0.1,0-0.2c0,0,0,0,0-0.1c0-0.1,0-0.1-0.1-0.2c0-0.1,0-0.1-0.1-0.2c0,0,0-0.1-0.1-0.1c0,0,0,0,0-0.1
		c-0.1-0.2-0.2-0.3-0.2-0.5c0,0-0.1-0.1-0.1-0.1c0,0,0,0,0,0c0,0-0.1-0.1-0.1-0.1c0,0-0.1-0.1-0.1-0.1c-0.1-0.1-0.1-0.2-0.2-0.3
		c0,0-0.1-0.1-0.1-0.1c-0.2-0.2-0.4-0.4-0.6-0.5c-0.1-0.1-0.3-0.2-0.5-0.3c-0.2-0.1-0.5-0.2-0.7-0.3c0,0-0.1,0-0.1,0c0,0,0,0-0.1,0
		c0,0-0.1,0-0.1,0c0,0,0,0-0.1,0c0,0-0.1,0-0.1,0c0,0-0.1,0-0.1,0c0,0-0.1,0-0.1,0c0,0-0.1,0-0.1,0c0,0,0,0,0,0c0,0,0,0-0.1,0
		c-0.4,0-0.9,0-1.3,0.1c0,0-0.1,0-0.1,0c-2,0.5-3.4,2.6-3,4.6c0.1,0.3,0.2,0.7,0.3,1l1.6-1.8c0.2-0.2,0.6-0.1,0.6,0.2
		c0.1,0.1-1.8,2.1-1.8,2.2c0.4,0.6,0.9,1,1.4,1.4c-0.7-0.3-1.2-0.8-1.6-1.2c-0.4,0.5-1.4,1.6-1.8,2c5.2,0,24.2,0.2,29.6,0.2l5.3-2.9
		c-3.1-12-9.5-22.8-9.5-22.8c-10.1-2.3-23.1-2-26.9-1.8c-0.6,0-1.1,0.5-1.1,1.1c0.2,15.1-2.3,25.1-2.6,26c0.7,0.1,1,0.2,1,0.2
		L288.6,162.2z M294.8,161.5c-0.2,0-0.3,0-0.4-0.1c0,0,0,0,0,0c-0.5-0.7-0.6-2-0.7-2.7c0-0.4,0.3-0.6,0.6-0.6
		c1.1,0.2,2.4,0.3,3.3,0.3c0.4,0,0.7,0.5,0.5,0.8C297.1,160.9,296.1,161.3,294.8,161.5z M312.2,140.3c0,0,3,4.4,6,12.5l-26.6-1.4
		c-0.8-6-2.4-13.2-2.4-13.2S304.1,137.9,312.2,140.3z M288.1,138.3c0,0,1.5,6.4,2.4,12.9h-3.2C287.8,147.3,288.2,142.7,288.1,138.3z
		"/>
	<path d="M287.7,163.7c-0.3-0.3,0.1-0.6,0.3-0.8l-1.1,0c-0.3,0-0.4,0.3-0.3,0.5c0.2,0.6,0.6,1.2,1.3,1.1c0,0,2.4-0.2,2.4-0.2
		c0.3,0,0.5-0.3,0.3-0.6l-0.3-0.6c-0.2-0.4-1-0.2-1.3-0.3C288.4,163.3,288.1,164,287.7,163.7z"/>
	<path d="M270.8,198.3c-1.2-8.2-3-12.1-7.9-12.1c-2.8,0.1-9.4,1-11.2,1.4c-1.7,0.4-4.2,1.8-5.2,4.7c-0.4,1.1-0.8,2.8-1.2,4.6
		c8.4-12.2,15.8,1.9,14.5,16.1c-0.9,11.6-6.5,22.2-13.2,18.5c-0.8-0.5-1.4-1.2-2-1.9c0,0,0,0,0,0c-1.9-2.6-2.8-5.7-3.3-8.8l0,0
		c0,0,0,0,0,0c-0.1-0.2,0-0.3,0.1,0c0.4,2.1,1,4.2,2,6c0,0,0,0,0,0c6.3,10.5,14.3-1.2,15.1-13.8c0,0,0,0,0,0
		c1.2-12.6-5.5-26.2-13.5-14.9c-0.3,1.2-0.6,2.4-0.8,3.5c6.4-13.1,14.5-2,13.4,11.2c-1.5,20.7-15.8,21.8-15.8,0.5
		c-0.3,0.6-0.6,1.1-0.9,1.6c0,0,0,0,0,0c-2,3.1-4.7,4.9-4.7,4.9c-2.9,0.5-10.2,1.7-12.7,2c1.2,10.1,6,16.7,12.2,17.1l10.1,0.1
		c6.9,0.5,13.3-7.8,15.6-19.4l2.9-0.7c0,0,2.3-4.2,3.1-5.6C268.3,211.8,271.8,205.4,270.8,198.3z"/>
	<path d="M258.6,158.5c-0.2-0.1-0.4-0.1-0.6-0.2c-2.2-0.3-6.9-0.9-9-1.2l3.3,0.6c0.3,0.1,0.5,0.3,0.6,0.6c2.2,0.2,4.3,0.4,6.3,0.6
		C259.1,158.8,258.9,158.6,258.6,158.5z"/>
	<path d="M250.8,216.4c2.6,0.1,3.3-8.5,0.5-8.8C248.7,207.5,248.2,216.1,250.8,216.4z"/>
	<path d="M242.6,211.8c-0.3,4.5,0.4,8.6,1.7,11.4c5,10,11.8,0.2,12.3-10.6c1-13.2-7-22.2-12.2-9.3l0.3,0.9l-1.9,6.4
		C242.7,211,242.7,211.4,242.6,211.8z M248.4,211.8c0.6-7,5.5-5.9,5.1,0.3c-0.1,1.3-0.4,2.5-0.9,3.4c-1,1.9-2.9,1.9-3.7-0.2
		C248.5,214.4,248.3,213.1,248.4,211.8z"/>
	<path d="M241.1,192.9l-8.7,0.7c-0.5,0-0.3,0.7-0.3,1c0,0.2,0.2,0.3,0.4,0.3l8.7-0.8c0.4,0,0.3-0.6,0.3-0.9
		C241.5,193.1,241.3,192.9,241.1,192.9z"/>
	<path d="M241,195l-8.5,0.8c-0.5,0-0.3,0.7-0.3,0.9c0,0.2,0.2,0.3,0.4,0.3l8.4-0.9c0.4,0,0.3-0.6,0.3-0.8
		C241.4,195.2,241.2,195,241,195z"/>
	<path d="M240.8,197l-8.3,0.9c-0.4,0-0.3,0.6-0.3,0.9c0,0.2,0.2,0.4,0.4,0.3l8.2-1c0.4,0,0.3-0.5,0.3-0.8
		C241.2,197.2,241.1,197,240.8,197z"/>
	<path d="M181.9,156c0.1,0,0.2,0,0.3,0c0.1-0.8,0.7-1.6,1.7-1.6c1-0.1,7.1-0.2,12.8-0.3c2.8,0,5.6-0.1,8.3-0.1
		c1.6,0,2.8-0.4,3.9,0.7c2.4,0.1,7.8,0.4,10.8,0.8c-0.2,0.2-0.4,0.4-0.4,0.7c0.2,0,0.3,0,0.5,0c0-0.5,0.4-0.9,0.8-0.9
		c6.5-0.3,13.8,0,13.8,0l0.2-0.3c6.5,0.3,13.4,1,19.7,1.9c2.8,0.4,4.9,0.7,6.1,0.9c0.5,0.1,0.9,0.6,0.9,1.1c5,0.4,9.4,0.9,13.1,1.4
		c0,0,0,0,0,0c-3.3-7.9-15.1-11.8-20.4-4c-0.5-0.1-0.9-0.1-1.4-0.2c5.9-9.5,19.8-5.2,23.3,4.4c2.7,0.4,4.6,0.6,6.9,1
		c1.5-8.8,2.1-22.4,2.2-25.7c0-0.5-0.4-0.9-0.9-1c-12.7-2.1-70.7-4.2-82.3-1.9c-12.4,11.8-21.1,21.5-22.5,23.1
		C180,156.2,181.5,156.1,181.9,156z M282.8,139.6C282.8,139.6,282.8,139.6,282.8,139.6l0.2,0c-0.1,2.8-0.2,6.9-0.7,11.5l-15.6,0.1
		c-2.9-1.1-6.5-1.2-9.3,0.1l-1.8,0l-2.4-11.6L282.8,139.6z M232,139.6c0.1-0.5,0.6-0.8,1.1-0.8c0,0,2.3,0,2.3,0
		c0.2,0.3,0.7,1,0.8,1.1c0.1,0.1,0.4,0.2,0.6,0.2c0,0,0.1,0,0.1,0c0,0-0.7-0.9-0.7-1c-0.5-0.6-0.4-1.5,0.2-2.1c0,0,3.8-3.5,3.8-3.5
		c0.4,0,0.8,0,1.1,0l-4.3,4.1c-0.4,0.3-0.3,0.9,0.1,1.2h4.8c0.7-0.1,1.5,0.1,1.6,1c0,0,0.2,1.7,0.2,1.7c0,0,0,0.1,0,0.1
		c0,0.6-0.5,1.1-1.1,1.1c0,0-0.5,0-0.5,0h-9.2c-0.6,0-1.1-0.5-1.1-1C231.6,141.5,231.9,139.8,232,139.6z M204.7,136
		c12.7-0.4,27.1,1.7,27.1,1.7c-1.5,3.9-3.6,10.1-4.5,16.1c-1.3-0.1-3.5-0.3-4.8-0.1c0,0-2.1,0.3-2.1,0.3c-0.7,0.2-11-0.2-12-0.2
		c-0.4-0.3-1.4-0.4-2.1-0.3c-0.6,0-3.5,0.1-7.1,0.1l-5.8-0.1C196.8,146.2,204.7,136,204.7,136z M200.8,139.5
		c-0.1,0.1-6.8,9.5-8.8,14.1l-4.4,0.3C187.5,153.9,193.8,145.7,200.8,139.5z"/>
	<path d="M212.2,184.6l-0.7,0l0.1,1.6l0.7,0l0.1,0.9l-0.7,0l0.2,1.9l0.7,0c0,0.5,0.1,1.2,0.1,1.7c-3-0.2-7.2-0.4-10.2-0.6
		c-0.3,0-0.9-0.1-1.2-0.1c0,0-1.7-0.1-1.7-0.1c-0.7,0-1.2,0.5-1.2,1.1l0,0.5c0,0.2,0.1,0.5,0.1,0.8l6.2,0.3c0.3-1,1.8-0.9,2,0.1
		l6.1,0.3c0,0,0,0.2,0,0.7l-6.2-0.3c-0.3,0.9-1.8,0.9-2-0.1l-6.1-0.3l0.2,1.3l0,0c0,0.1,0,0.1,0,0.2c0.1,0.5,0.5,0.8,1,0.8
		c0,0,2.1,0.1,2.1,0.1c0.3,0,0.9,0,1.2,0.1c2.6,0.1,6.6,0.3,9.3,0.5l0.1,0c0.1,0,0.5,0,0.6,0c0,0.5,0.1,0.8,0.1,0.8l-0.4,0l0.2,1.5
		l0.4,0l0.1,0.8l-0.3,0l0.3,2.8c0,0,0.2,0,0.2,0c3.5,0.3,9.9,0.8,13.5,1.1c0,0-0.3-3.6-0.7-8v0c-0.5-5.7-1.1-12.9-1.4-15.6
		c-0.5-4.9-8.5-5.8-8.5-5.8c-4.6,0.5-4.7,3-4.7,5.2C211.8,179.6,212,182.9,212.2,184.6z M213.8,192.2l-0.3-3.6
		c0-0.2,0.1-0.3,0.3-0.3l2.4,0.4c0.2,0,0.3,0.3,0.2,0.5c-0.6,0.5-1.5,1.5-2,3.1C214.2,192.6,213.8,192.5,213.8,192.2z M226.1,200.1
		l0.1,2.1c0,0.2-0.1,0.3-0.3,0.3l-2.4-0.1c-0.3,0-0.3-0.4-0.1-0.5c0.7-0.4,1.6-1,2.2-2C225.7,199.7,226.1,199.8,226.1,200.1z
		 M226,195.3c0.2,3.9-2.4,7-5.6,6.7c-6.8-0.7-7.4-13-0.2-13.4C223.3,188.6,225.9,191.7,226,195.3z M224.9,185.6l0.1,2.2
		c0,0.1-0.1,0.3-0.3,0.3h-2c-0.3,0-0.4-0.3-0.1-0.5c1-0.6,1.5-1.4,1.9-2.1C224.5,185.3,224.9,185.3,224.9,185.6z M224.7,181.2
		c0.2,3.7-2.2,6.7-5.2,6.7c-7.1-0.2-8-13-0.6-13.4C222,174.5,224.6,177.5,224.7,181.2z M216.4,174C216.4,174,216.4,174,216.4,174
		l0.6,0.1c0.1,0,0.2,0.2,0,0.3c-2.5,0.9-3.3,3.3-3.5,3.9c0,0.1-0.1,0.1-0.1,0.1l-1,0c-0.1,0-0.1-0.1-0.1-0.1
		C212.1,174.5,216.1,174.1,216.4,174z"/>
	<polygon points="189.1,197.6 182.9,197.3 183,198.7 189.2,199 	"/>
	<path d="M166.6,204.8l-19.1-1.7c-0.7-0.1-1.3,0.5-1.2,1.2l1.1,10.8c0.1,0.5,0.5,0.9,1,1l19.2,2.3c0.7,0.1,1.3-0.5,1.2-1.2
		l-1.2-11.4C167.6,205.2,167.2,204.8,166.6,204.8z M154.9,214.4c0.3,0.3,0.5,1.2-0.2,1.2c-0.4,0-0.8-0.8-0.5-1.2l-0.1-0.1l0,0
		c0,0-0.1,0-0.1,0c-0.5-0.1-0.8-0.9-0.5-1.3c0.3-0.4,0.8,0,0.9,0.5l2.4-1.3l0.9,0.7L154.9,214.4L154.9,214.4z M162.9,211
		c-0.1,0.1-0.2,0.2-0.4,0.2c0,0,0,0,0,0c-0.3,0-0.5-0.3-0.6-0.7l-2.9,1.5l-0.4-0.3c-0.1,0-0.2,0.1-0.3,0.1l3.2,2.3
		c0.1-0.8,1-0.4,1,0.3c0.1,0.5-0.4,0.8-0.7,0.5l-0.1,0.1c0.3,0.3,0.5,1.3-0.1,1.4c-0.4,0-0.7-0.9-0.5-1.3l-7.7-5.7l-0.1,0
		c0,0.3-0.2,0.5-0.5,0.5c0,0,0,0,0,0c-0.8-0.1-0.9-1.9,0.1-1.4c-0.4-0.3-0.5-1.4,0.1-1.4c0,0,0,0,0,0c0.5,0.1,0.8,0.9,0.5,1.3l1.3,1
		c-0.7-1.7-0.1-4.3,2.1-4.1c2.2,0.2,3.7,3.1,2.9,5.2l1.5-0.8c-0.1-0.2-0.2-0.4-0.3-0.6v0c0-0.3,0.1-0.7,0.5-0.7c0,0,0,0,0,0
		c0.6,0.1,0.9,1.1,0.4,1.5c0.1,0,0.2-0.1,0.3-0.1C162.9,209.8,163.2,210.6,162.9,211z"/>
	<path d="M148,217.1c-1.2-0.6-1.4-1.9-1.4-1.9s-8.4-1.7-11.1-2.3c-2.7-0.6-2.9-2.2-2.9-2.2c-3.1-0.3-10.3-1.1-13.4-1.4
		c0.7,10.4,7.3,18.6,15.4,18.6c0.8,0,7.6,0.4,8.2,0.4c5.7,0,10.6-4.1,13.3-10.2C151.8,217.6,149.9,217.8,148,217.1z"/>
	<path d="M100.6,172.3c-0.2-4.2-3.5-5.7-8.5-6.7c0,0-3.5,0.5-3.2,3.6c0.2,2.4,3.2,22.8,3.2,22.8l12,1
		C104.2,193,101.3,176.6,100.6,172.3C100.6,172.3,100.6,172.3,100.6,172.3z M100.5,177.6l0.1,1.3c0,0.1-0.1,0.2-0.2,0.2l-1.6,0
		c-0.2,0-0.3-0.3-0.1-0.4c0.5-0.3,1-0.6,1.4-1.2C100.2,177.3,100.5,177.3,100.5,177.6z M96.4,167.2
		C96.4,167.2,96.4,167.2,96.4,167.2c4.7,1.4,5.7,11.1,0.1,11.4c-2.4,0-4.7-2.6-5.1-5.8C91.1,169.1,93.4,166.2,96.4,167.2z
		 M90.5,171.3c-0.2,0-0.6,0.1-0.6-0.1c0-0.3-0.1-0.9-0.2-2.2c-0.2-2,2.1-2.7,2.5-2.7c0,0,1,0.2,1,0.2c0.2,0,0.2,0.3,0.1,0.3
		c-2.1,1.1-2.5,3.8-2.6,4.4C90.7,171.3,90.6,171.3,90.5,171.3z M92,183.5c-0.1,0.2-0.4,0.2-0.4,0l-0.3-3.3c0-0.1,0.1-0.2,0.2-0.2
		h2.3c0.2,0,0.3,0.3,0.1,0.4C93.3,180.8,92.4,181.7,92,183.5z M102.3,190.5c0.3,2.2,0.6,1.8-1.6,1.9c-0.3,0-0.4-0.4-0.2-0.6
		c0.4-0.3,0.9-0.8,1.2-1.4C101.8,190.1,102.2,190.2,102.3,190.5z M101.8,185.9c0.5,8.1-8,7.2-8.9,0
		C92.4,177.8,100.9,178.7,101.8,185.9z"/>
	<path d="M210.7,131c17.2-1.3,48.4,0.2,69.5,1.4c-18.2-2-47.7-3.2-69.5-1.6C210,130.8,210,131,210.7,131z"/>
	<path d="M112.4,183.6c-0.6,0-1.1,0.5-1,1.1l0.1,0.7l6,0.4c0.3-1,1.9-0.9,2,0.1l6.1,0.4c0,0-0.1-1.1-0.1-1.1c0-0.5-0.4-0.9-0.9-0.9
		c0,0-0.2,0-0.2,0l-4.8-0.3C118,184,114,183.7,112.4,183.6z"/>
	<path d="M125.7,187l-6.2-0.4c-0.3,0.9-1.7,0.8-2-0.1l-5.9-0.4l0.1,1c0.1,0.8,0.8,0.9,1.5,0.9c1.6,0.1,5.7,0.4,7.3,0.5
		c0,0,4.3,0.3,4.3,0.3c0.6,0,1.1-0.5,1-1C125.7,187.6,125.7,187,125.7,187z"/>
	<path d="M197.4,208.8c0-0.2-0.2-2.2-0.2-2.4l-5.6-0.3l0.2,2.3C194,208.6,196,208.7,197.4,208.8z"/>
	<polygon points="197.2,205.4 197.1,204.2 194.3,203.9 191.4,203.8 191.5,205.2 	"/>
	<path d="M187,208.2c1.3,0.1,2.6,0.1,3.9,0.2l-0.2-2.3l-6.3-0.3l0.3,2.3L187,208.2z"/>
	<polygon points="190.5,205.1 190.4,203.7 184.1,203.5 184.2,204.8 	"/>
	<path d="M183.7,208.1l-0.3-2.3l-6.1-0.3l0.3,2.2C179,207.8,181.2,207.9,183.7,208.1z"/>
	<polygon points="183.3,204.8 183.1,203.5 177,203.2 177.2,204.5 	"/>
	<path d="M171.4,205.3c0.9,2.2,2.8,2.3,5.2,2.4l-0.3-2.2L171.4,205.3C171.4,205.2,171.4,205.3,171.4,205.3z"/>
	<path d="M176.2,204.5l-0.1-1.3l-6.4-0.2c0.4,0.3,0.8,0.7,1.2,1.3L176.2,204.5z"/>
	<polygon points="146.7,201.5 144.1,201.1 144.1,201.6 146.2,201.9 	"/>
	<path d="M145.1,203.4c0-0.2,0.1-0.5,0.2-0.7l-1.1-0.2l0.2,2l0.5,0.1C145,204.2,145,203.8,145.1,203.4z"/>
	<polygon points="143.5,204.4 143.3,202.4 140.4,202 140.7,203.9 	"/>
	<polygon points="140.2,200.4 140.3,201 143.2,201.4 143.1,200.9 	"/>
	<polygon points="139.7,203.8 139.4,201.8 136.6,201.4 136.8,203.4 	"/>
	<polygon points="136.4,199.8 136.5,200.4 139.3,200.8 139.2,200.3 	"/>
	<path d="M133.6,202.9l2.3,0.3l-0.2-2l-3-0.5C132.8,201.6,132.7,202.8,133.6,202.9z"/>
	<polygon points="135.5,200.2 135.4,199.6 132.3,199.1 132.4,199.8 	"/>
	<path d="M217.1,208.5c0-0.4-0.3-0.6-0.7-0.7c-0.8-0.1-1.5-0.2-2.1-0.4c-0.6-0.2-1.1,0.4-0.9,0.9c1.4,4.3,2.8,7,4,8.8
		c0.5,0.7,1.6,0.1,1.3-0.7C217.5,213,217.2,209.8,217.1,208.5z"/>
	<path d="M96.8,198.3c0-0.3-0.2-0.5-0.5-0.5c-0.9,0-2.1-0.1-2.9-0.2c-0.4,0-0.7,0.3-0.6,0.7c1.5,4.5,2.9,6.8,4,7.9
		c0.4,0.4,1.1,0,0.9-0.5C96.9,202.8,96.8,199.5,96.8,198.3z"/>
	<path d="M129.7,206.8c-0.2-0.3-0.5-0.5-0.8-0.5c0,0-9.5-1-9.5-1c-0.9-0.1-1.7-0.7-1.9-1.5c0,0-2.2-4.5-3.2-6.4
		c-0.7-1.3-2.7-0.4-2.1,1c1.2,2.6,2.2,4.8,3.6,7c0.7,1.1,1.8,1.8,3.1,1.9c2.5,0.3,7.1,0.7,9.9,1
		C129.5,208.4,130.1,207.5,129.7,206.8z"/>
	<path d="M133.5,209c0.2,1.1,1.7,2.2,3.1,2.6c1.1,0.3,6.4,1.4,8.6,1.8c0.9,0.2,1.1-1.3,0.3-1.5c0,0-8.1-1.7-8.6-1.8
		c-0.4-0.1-0.8-0.5-0.9-0.8c-0.1-0.4-1.1-3.6-1.1-3.6c-0.1-0.6-1-0.5-1.4-0.6c-0.5-0.1-0.9,0.4-0.8,0.9
		C133,207,133.4,208.6,133.5,209z"/>
	<path d="M212.8,215.6c-0.1-0.2-0.3-0.3-0.5-0.4c0,0-6.2-0.9-6.2-0.9c-1.1-0.3-5.2,1.2-6.3,1.4c-0.5,0.1-1,0.2-1.5,0.2
		c-0.4,0-22.4-0.4-22.8-0.4c0,0-1.2,0.4-1.2,0.4c-0.4,0.1-0.8-0.1-0.9-0.6l-0.7-4.8c0-0.3-0.2-0.5-0.5-0.6c-0.3-0.1-0.7-0.2-0.9-0.3
		c-0.5-0.2-1,0.2-0.9,0.7l0.8,7.3c0,0.4,0.4,0.7,0.8,0.6c1.4-0.3,2.6-1.4,4.6-1.4c1.1,0,17.7,0.3,22.2,0.4c2.3,0.2,5.2-1.7,7.6-1.4
		c0,0,5.6,0.8,5.6,0.8C212.7,216.7,213.1,216.1,212.8,215.6z"/>
	<path d="M192.4,155.4c0,0,0.1,0,0.1,0l3.9-0.4c-1.4,0-7.1,0.2-9.3,0.3c-1.2,0.2-2.9-0.2-3.6,0.7c2.8,0,5.5-0.1,8.1-0.1
		C191.8,155.7,192.1,155.5,192.4,155.4z"/>
	<path d="M336,157.1C336,157.1,336,157.1,336,157.1c-4-6.5-8.4-13.2-13.2-19.2c-0.1-0.1-0.2,0-0.2,0.1l12.2,19.1L336,157.1
		C336.1,157.2,336.1,157.1,336,157.1z"/>
	<polygon points="212.5,201.5 212.2,199.1 208,198.7 208.3,201 	"/>
	<polygon points="208.2,196.5 207.8,196.5 207.9,197.8 212.1,198.1 211.9,196.7 	"/>
	<polygon points="211,188.8 210.8,187 206.6,186.7 206.8,188.6 	"/>
	<polygon points="206.3,184.2 206.5,185.8 210.7,186 210.5,184.5 	"/>
	<polygon points="207.3,200.9 207.1,198.7 202.9,198.4 203.2,200.4 	"/>
	<polygon points="203.1,196.2 202.6,196.2 202.8,197.4 206.9,197.7 206.8,196.4 	"/>
	<polygon points="201.2,183.9 201.4,185.5 205.6,185.7 205.4,184.1 	"/>
	<polygon points="202.2,200.3 201.9,198.3 197.4,198 197.6,199.7 	"/>
	<path d="M199.7,196c-0.7,0-1.2-0.4-1.5-1c0,0,0-0.1-0.1-0.1l-1.2,0l0.2,2.2l4.6,0.3l-0.1-1.2L199.7,196z"/>
	<polygon points="196,186.1 196.3,188 200.7,188.3 200.5,186.4 	"/>
	<polygon points="195.7,183.5 195.9,185.2 200.4,185.4 200.2,183.8 	"/>
	<path d="M199.4,189.3c-0.1,0,1.4,0.1,1.4,0.1l0-0.1l-4.5-0.2l0.2,2l0.4,0l0,0l0.7,0C197.6,190.1,198.5,189.2,199.4,189.3z"/>
	<polygon points="197.8,192 196.7,192 196.9,193.9 198,193.9 	"/>
	<polygon points="196.6,199.6 196.4,197.9 190.1,197.6 190.2,199 192.1,199 	"/>
	<polygon points="190,196.7 196.3,196.9 196.1,194.8 189.7,194.5 189.9,196.3 189.9,196.3 	"/>
	<polygon points="189.4,191.7 189.6,193.6 195.9,193.8 195.7,191.9 	"/>
	<polygon points="189,188.7 189.3,190.7 195.6,191 195.4,188.9 	"/>
	<polygon points="188.7,185.8 188.9,187.7 195.3,188 195.1,186.1 	"/>
	<polygon points="194.1,183.4 188.4,183.2 188.6,184.9 195,185.1 194.8,183.5 	"/>
	<path d="M182.7,195.6c0,0.1,0.1,0.6,0.1,0.6l0,0.1c1.8,0.1,4.4,0.2,6.2,0.3l-0.3-2.1c-1.4-0.1-4.8-0.2-6.2-0.3
		C182.6,194.6,182.6,195.2,182.7,195.6z"/>
	<path d="M182.4,193.3c1,0,5.1,0.2,6.2,0.3l-0.2-1.9l-6.2-0.3L182.4,193.3z"/>
	<polygon points="181.8,188.3 182,190.4 188.3,190.7 188,188.6 	"/>
	<polygon points="181.4,185.5 181.7,187.4 187.9,187.7 187.7,185.8 	"/>
	<polygon points="181.1,182.9 181.3,184.5 187.6,184.8 187.4,183.2 	"/>
	<path d="M181.9,197.2c-1.8-0.1-4.3-0.2-6.1-0.3l0.2,1.4l6.1,0.3L181.9,197.2z"/>
	<path d="M181.8,196.3c-0.1-0.5-0.2-1.6-0.3-2.1c-0.1,0-5.8-0.2-6.1-0.2l0.3,2.1C177.3,196.1,180.2,196.2,181.8,196.3z"/>
	<path d="M175.3,193c1.4,0.1,4.7,0.2,6.1,0.2l-0.2-1.9l-6.1-0.3L175.3,193z"/>
	<polygon points="174.7,188 174.9,190.1 181.1,190.3 180.8,188.3 	"/>
	<polygon points="174.3,185.2 174.6,187.1 180.7,187.3 180.5,185.5 	"/>
	<polygon points="174,182.6 174.2,184.3 180.3,184.5 180.1,182.9 	"/>
	<polygon points="174.8,196.9 168.7,196.6 168.9,198.1 175,198.3 	"/>
	<polygon points="168.3,193.6 168.6,195.7 174.7,196 174.5,193.9 	"/>
	<polygon points="168.2,192.7 174.3,192.9 174.1,191 167.9,190.7 	"/>
	<polygon points="167.5,187.7 167.8,189.8 174,190 173.7,188 	"/>
	<polygon points="167.2,184.9 167.4,186.8 173.6,187 173.4,185.2 	"/>
	<polygon points="166.9,182.4 167.1,184 173.2,184.2 173,182.6 	"/>
	<polygon points="167.9,198 167.7,196.6 161.7,196.3 161.9,197.8 	"/>
	<polygon points="161.4,193.4 161.6,195.4 167.6,195.6 167.3,193.6 	"/>
	<polygon points="161.2,192.4 167.2,192.6 167,190.7 161,190.4 	"/>
	<polygon points="160.6,187.4 160.8,189.5 166.8,189.7 166.6,187.7 	"/>
	<polygon points="160.2,184.6 160.4,186.5 166.5,186.7 166.2,184.9 	"/>
	<polygon points="159.8,182.1 160.1,183.7 166.1,183.9 165.9,182.3 	"/>
	<polygon points="161,197.8 160.8,196.3 154.8,196 155.1,197.5 	"/>
	<polygon points="160.7,195.3 160.4,193.3 154.4,193.1 154.7,195 	"/>
	<polygon points="160.3,192.4 160,190.4 154,190.1 154.3,192.1 	"/>
	<polygon points="153.6,187.1 153.8,189.1 159.9,189.4 159.6,187.4 	"/>
	<polygon points="153.1,184.3 153.4,186.2 159.5,186.4 159.2,184.6 	"/>
	<polygon points="152.8,181.8 153,183.4 159.1,183.6 158.9,182 	"/>
	<polygon points="154.1,197.5 153.9,195.9 150.7,195.5 151,197.3 	"/>
	<polygon points="153.7,194.9 153.4,193 150.2,192.6 150.5,194.5 	"/>
	<polygon points="153.3,192 153,190 149.8,189.7 150.1,191.6 	"/>
	<polygon points="149.3,186.7 149.7,188.7 152.9,189.1 152.6,187 	"/>
	<polygon points="148.9,183.9 149.2,185.7 152.4,186.1 152.2,184.3 	"/>
	<polygon points="151.6,181.8 148.6,181.4 148.8,182.9 152,183.3 151.8,181.8 	"/>
	<polygon points="150,197.2 149.7,195.3 146.5,194.9 146.8,196.8 	"/>
	<polygon points="149.5,194.3 149.3,192.5 146.1,192 146.4,193.9 	"/>
	<polygon points="145.6,189.2 145.9,191.1 149.1,191.5 148.8,189.6 	"/>
	<polygon points="145.2,186.2 145.5,188.2 148.7,188.6 148.4,186.6 	"/>
	<polygon points="144.8,183.4 145,185.2 148.2,185.6 147.9,183.8 	"/>
	<polygon points="144.4,180.8 144.6,182.4 147.8,182.8 147.6,181.3 	"/>
	<polygon points="142.5,194.3 142.8,196.2 145.8,196.6 145.5,194.7 	"/>
	<polygon points="142.1,191.5 142.4,193.3 145.4,193.7 145.1,191.9 	"/>
	<polygon points="141.7,188.7 141.9,190.5 144.9,190.9 144.7,189.1 	"/>
	<polygon points="141.2,185.7 141.5,187.7 144.5,188.1 144.2,186.1 	"/>
	<polygon points="140.8,182.9 141.1,184.7 144.1,185.1 143.8,183.3 	"/>
	<polygon points="140.4,180.3 140.6,182 143.6,182.3 143.4,180.7 	"/>
	<polygon points="138.5,193.7 138.8,195.6 141.8,196 141.5,194.2 	"/>
	<polygon points="138.1,191 138.4,192.7 141.4,193.2 141.1,191.4 	"/>
	<polygon points="137.7,188.3 138,190 141,190.4 140.7,188.6 	"/>
	<polygon points="137.3,185.2 137.6,187.3 140.5,187.6 140.2,185.6 	"/>
	<polygon points="136.9,182.5 137.1,184.3 140.1,184.6 139.8,182.8 	"/>
	<polygon points="136.5,179.8 136.7,181.5 139.7,181.8 139.4,180.2 	"/>
	<polygon points="134.8,193.2 135.1,195 137.8,195.4 137.6,193.6 	"/>
	<polygon points="134.4,190.5 134.6,192.2 137.4,192.6 137.2,190.9 	"/>
	<polygon points="134,187.8 134.2,189.5 137,189.9 136.8,188.2 	"/>
	<polygon points="133.5,184.8 133.8,186.9 136.6,187.2 136.3,185.1 	"/>
	<polygon points="133.1,182.1 133.4,183.8 136.2,184.1 135.9,182.4 	"/>
	<polygon points="132.7,179.3 133,181.1 135.7,181.4 135.5,179.7 	"/>
	<polygon points="134.1,194.9 133.8,193.1 131,192.7 131.3,194.4 	"/>
	<polygon points="133.7,192.1 133.4,190.4 130.7,190 130.9,191.7 	"/>
	<polygon points="130.3,187.4 130.5,189.1 133.3,189.4 133,187.7 	"/>
	<polygon points="129.9,184.4 130.2,186.4 132.9,186.7 132.6,184.7 	"/>
	<polygon points="129.5,181.6 129.7,183.4 132.4,183.7 132.1,181.9 	"/>
	<polygon points="129.1,178.9 129.4,180.7 132,181 131.7,179.2 	"/>
	<polygon points="127.4,193.9 130.3,194.3 130,192.5 126.2,192.2 126.5,193.8 	"/>
	<polygon points="126.1,191.3 129.9,191.6 129.7,189.9 125.8,189.7 	"/>
	<path d="M129.5,189l-0.2-1.6l-1.5-0.1c0.1,0.5,0.1,1.2-0.2,1.6L129.5,189z"/>
	<path d="M126.6,184.1c1,0.3,1.1,1.3,1.1,2.1l1.5,0.1l-0.3-2.1L126.6,184.1z"/>
	<polygon points="124.4,181.2 124.7,183 128.8,183.3 128.5,181.5 	"/>
	<polygon points="127.9,178.7 124,178.4 124.3,180.3 128.4,180.6 128.1,178.8 	"/>
	<polygon points="125.5,193.7 125.2,192.2 121.5,191.9 121.8,193.4 	"/>
	<polygon points="121.1,189.3 121.3,190.9 125.1,191.2 124.8,189.6 	"/>
	<polygon points="123.8,183 123.5,181.2 119.6,180.9 119.9,182.7 	"/>
	<polygon points="119.1,178 119.5,179.9 123.3,180.2 123,178.3 	"/>
	<polygon points="120.8,193.4 120.5,191.8 116.8,191.5 117,193.1 	"/>
	<polygon points="116.3,189 116.6,190.5 120.4,190.8 120.1,189.2 	"/>
	<polygon points="119,182.6 118.6,180.8 114.8,180.5 115.1,182.4 	"/>
	<polygon points="114.2,177.6 114.6,179.6 118.5,179.9 118.2,178 	"/>
	<path d="M115.8,191.4c-1.7-0.1-4.9-0.5-6.6-0.2l0.1,1.3l6.7,0.5L115.8,191.4z"/>
	<path d="M111.1,190.1c0.4,0,4,0.3,4.5,0.3l-0.3-1.6c-1.6-0.1-4.8-0.4-6.4-0.2l0.2,1.5C109.5,190.2,110.7,190.1,111.1,190.1z"/>
	<path d="M110.5,185c0.1,0,0.2,0,0.4,0c-0.2-0.8,0.3-1.8,1.2-1.9c-1.1-0.1-2.6-0.1-3.8,0l0.2,2C108.9,185.1,110.1,185,110.5,185z"/>
	<path d="M110.2,182.1c0.3,0,3.5,0.2,3.9,0.2l-0.3-1.8c-0.4,0-3.4-0.3-3.7-0.3c-0.4,0-1.7,0.1-2.1,0.1l0.2,1.8
		C108.6,182.2,109.8,182,110.2,182.1z"/>
	<path d="M110,179.3c0.4,0,3.1,0.2,3.6,0.2l-0.4-1.9l-1.7-0.1l-4-0.1l0.2,2.1C108.3,179.4,109.6,179.3,110,179.3z"/>
	<path d="M110.8,187.7c0.2,0,0.3,0,0.5,0c-0.2-0.4-0.2-1.3-0.3-1.7c-0.6-0.1-1.7,0.1-2.4,0.1l0.2,1.7
		C109.2,187.7,110.4,187.6,110.8,187.7z"/>
	<polygon points="205.8,188.5 205.6,186.7 201.5,186.4 201.7,188.3 	"/>
	<path d="M232.4,142.3c0.1,0.1,0.3,0.1,0.4,0.1h9.6c0.5,0,0.8-0.4,0.8-0.8c0,0-0.2-1.7-0.2-1.7c0-0.3-0.2-0.6-0.5-0.7
		c-0.2,0-0.2,0.2-0.2,0.3c0,0,0.2,2.1,0.2,2.1c0,0.1-0.1,0.2-0.2,0.2h-10C231.7,141.6,232,142.2,232.4,142.3z"/>
	<path d="M151.5,172.5C151.5,172.5,151.5,172.6,151.5,172.5L151.5,172.5L151.5,172.5l0,0.1l0,0l0,0l0,0c0,0,0,0,0,0l0,0l0,0
		c0,0,0,0,0,0l0,0c0,0,0,0,0,0l0,0l0,0c0,0,0,0,0,0l0,0c0,0,0,0,0,0l0,0c0,0,0,0,0,0l0,0c0,0,0,0,0.1,0l0,0c0,0,0.1,0,0.1,0l0,0l0,0
		c0,0,0,0,0,0l0,0c0.1,0,0.2,0.1,0.2,0.1l0,0l0,0c0,0,0.1,0,0.2,0.1l0,0l0,0c0,0,0.1,0,0.1,0l0,0l0,0l0,0l0,0l0,0l0,0l0,0
		c0,0,0.1,0,0.1,0l0.1,0l0,0l0,0l0,0c0,0,0.1,0,0.1,0l0,0c0,0,0.1,0,0.1,0l0,0l0,0h0c0.1,0,0.1,0,0.2-0.1l0.1,0l0,0
		c0.1,0,0.2-0.1,0.3-0.1l0,0c0,0,0.1,0,0.1,0l0,0l0,0l0,0l0,0c0,0,0.1,0,0.1,0l0,0l0,0l0,0l0,0l0,0l0,0l0,0l0,0l0,0l0,0l0,0l0,0l0,0
		l0,0l0,0l0,0l0,0l0,0l0,0c0,0,0,0,0,0c0,0,0,0,0,0l0,0l0,0c0,0,0,0,0,0l0,0l0,0l0,0l0,0l0,0l0,0l0,0c0,0,0,0,0-0.1l0,0c0,0,0,0,0,0
		l0,0l0,0l0,0l0,0l0,0l0,0l0,0l0.4-1.1l0.6-0.6c-0.4,0-1.8-0.2-2.2-0.3c-0.1,0-0.3,0-0.4,0l-0.1,0c-0.5,0.1-1.4,0.2-1.9,0.2l0.2,0.6
		l-0.3,1.1l0,0l0,0l0,0c0,0,0,0,0,0l0,0l0,0c0,0,0,0,0,0.1C151.5,172.4,151.5,172.4,151.5,172.5L151.5,172.5L151.5,172.5
		L151.5,172.5L151.5,172.5z"/>
	<path d="M152.6,174.5c0,0-0.2,0.1-0.2,0.1c-0.4-0.7-2.2-3.7-2.6-4.4c0.4,1,2,4.8,2.4,5.7l0,0c1.2-0.8,6.5-4.4,7.6-5.1l-6.6,3.5
		L152.6,174.5z"/>
	<path d="M158.4,208.3c0.9,0,0.6-1.4-0.2-1.4c0,0,0,0,0,0C157.3,206.8,157.7,208.2,158.4,208.3z"/>
	<path d="M156.5,208.1C156.5,208.1,156.5,208.1,156.5,208.1c0.9,0,0.5-1.4-0.2-1.4c0,0,0,0,0,0C155.4,206.6,155.7,208.1,156.5,208.1
		z"/>
	<path d="M159.3,208.7c-0.2,0-0.4,0.1-0.4,0.3c0,0.1,0.1,0.2,0.2,0.3c-0.2,2.3-2.8,1.5-3.2-0.3c0.3-0.2,0.1-0.6-0.3-0.6
		c-0.4-0.1-0.5,0.4-0.2,0.5c0.4,2.4,4,3.4,4.1,0.4C159.8,209,159.5,208.7,159.3,208.7z"/>
</g>
</svg>
