<?xml version="1.0" encoding="UTF-8" standalone="no"?>
<!-- Created with Inkscape (http://www.inkscape.org/) -->

<svg
   width="88mm"
   height="62mm"
   viewBox="0 0 88 62"
   version="1.1"
   id="svg1"
   inkscape:version="1.3.2 (091e20e, 2023-11-25)"
   sodipodi:docname="1967_cadillac_deville FINAL_f.Silk.svg"
   xmlns:inkscape="http://www.inkscape.org/namespaces/inkscape"
   xmlns:sodipodi="http://sodipodi.sourceforge.net/DTD/sodipodi-0.dtd"
   xmlns="http://www.w3.org/2000/svg"
   xmlns:svg="http://www.w3.org/2000/svg">
  <sodipodi:namedview
     id="namedview1"
     pagecolor="#acacac"
     bordercolor="#000000"
     borderopacity="0.25"
     inkscape:showpageshadow="2"
     inkscape:pageopacity="0.0"
     inkscape:pagecheckerboard="0"
     inkscape:deskcolor="#d1d1d1"
     inkscape:document-units="mm"
     inkscape:zoom="1.1212375"
     inkscape:cx="375.92391"
     inkscape:cy="181.49588"
     inkscape:window-width="1512"
     inkscape:window-height="866"
     inkscape:window-x="0"
     inkscape:window-y="38"
     inkscape:window-maximized="1"
     inkscape:current-layer="layer1" />
  <defs
     id="defs1" />
  <g
     inkscape:label="Layer 1"
     inkscape:groupmode="layer"
     id="layer1">
    <path
       class="st0"
       d="m 82.373723,26.809678 c -0.10583,-0.18521 -0.29104,-0.291044 -0.5027,-0.317502 l -8.36084,-0.635 c -0.66146,-0.978959 -2.35479,-3.889375 -3.83646,-5.371042 -0.1852,-0.105833 -4.68312,-2.328333 -18.38854,-2.328333 -9.73666,0 -13.14979,0.846667 -13.28208,0.899583 -0.3175,0.07937 -0.66146,0.343959 -0.89958,0.582084 -2.96334,2.831041 -5.10646,5.185833 -5.82084,5.953124 -1.481663,0.132292 -4.736038,0.47625 -8.149163,1.137706 -2.460625,0.10584 -10.556875,0.44979 -12.647084,0.60854 -0.8995834,0.0794 -1.6139584,0.21167 -2.1695834,0.50271 -0.978958,0.58209 -1.296458,1.05834 -1.217083,1.85209 0.07937,0.8202 0.661458,4.81541 0.873125,6.29708 -0.132292,0.0794 -0.3175,0.18521 -0.3175,0.34396 0,0.0529 0,0.26458 0,0.29104 0.02646,0.13229 0.15875,0.26458 0.3175,0.26458 0.132292,0.26459 0.687917,1.45521 0.899583,1.905 0.291042,0.58209 0.687917,1.77271 2.1431254,1.69334 1.005417,-0.0794 3.042708,-0.18521 4.021667,-0.26459 l 0.07937,0.635 c 0.3175,2.43417 2.143125,4.89479 4.630208,4.89479 l 2.169583,0.10584 c 0,0 0.02646,0 0.02646,0 1.561041,0 3.042708,-1.00542 3.915833,-2.64584 l 0.264583,-0.60854 c 2.116667,0.15875 2.831042,0.39688 4.445,0.0529 0.317506,-0.13229 0.820216,-0.10583 1.111256,-0.10583 0.26458,0 4.04812,0.10583 5.21229,0.13229 0.44979,0.0265 1.08479,-0.15875 1.53458,-0.23813 h 0.58209 l 2.67229,0.29104 c 0.21166,0.37042 0.58208,0.71438 1.00541,0.79375 l 0.10584,0.66146 c 0.39687,2.24896 1.48166,4.49792 3.83646,4.49792 l 2.61937,0.0265 c 2.11667,0.0794 3.91583,-2.03729 4.65667,-5.23875 l 0.29104,-0.0529 0.79375,0.0265 c 0.39687,-0.0265 13.41437,-2.88396 13.75833,-2.93688 0.44979,1.7198 1.42875,2.69875 2.69875,2.72521 0,0 1.93146,0 2.03729,-0.0265 2.30188,-0.3175 3.25438,-3.38666 3.25438,-5.63562 1.11125,-0.34396 3.59833,-1.11125 4.94771,-1.69333 0.26458,-0.10584 0.44979,-0.3175 0.58208,-0.55563 0.18521,-0.37042 0.60854,-1.32292 0.84667,-2.59292 0.0265,-0.15875 0.13229,-0.87312 0.13229,-1.05833 0.0265,-0.26458 0.0265,-0.50271 0.0265,-0.76729 0,-2.56646 -0.87313,-4.04813 -0.89959,-4.10104 z m -72.6810364,2.30187 c 0,0 0,0 0,0 1.2435414,0.37042 1.5081244,2.93688 0.02646,3.01625 -0.635,0 -1.243542,-0.68791 -1.349375,-1.53458 -0.07937,-0.97896 0.529167,-1.74625 1.322917,-1.48167 z m -0.926042,4.94771 c -0.132292,-2.14312 2.1166664,-1.905 2.3547914,0 0.132292,2.16958 -2.1431244,1.93146 -2.3547914,0 z m 33.3374984,-3.01625 c 0.79375,0 1.48167,0.79375 1.53458,1.77271 0.0529,0.97896 -0.58208,1.77271 -1.37583,1.77271 -1.87854,-0.0529 -2.11667,-3.43959 -0.15875,-3.54542 z m 0.39688,7.27604 c -1.79917,-0.18521 -1.95792,-3.43958 -0.0529,-3.54541 0.79375,0 1.50812,0.8202 1.53458,1.7727 0.0529,1.00542 -0.635,1.82563 -1.48166,1.77271 z"
       id="path1-0"
       style="fill:#f287b7;stroke-width:0.264583"
       inkscape:label="pink" />
    <g
       id="Black"
       transform="matrix(0.26458333,0,0,0.26458333,-15.813146,-15.126782)">
	<path
   d="m 321.5,207.4 c 0.9,5 2.8,10.1 8.1,10.8 h 7.1 c 0,0 0.2,0 0.2,0 2.9,-0.1 5.2,-2.4 6.7,-4.8 3.3,-5.3 4.2,-11.9 3.5,-18.1 l -0.7,0.1 c 0.9,6.1 -1.6,17.9 -5.8,17.5 -1.8,-0.2 -3.2,-2.6 -3.9,-6.2 0,-0.2 0,-0.2 0.1,0 0.7,3 1.9,5 3.5,5.2 4,0.4 6.3,-10.7 5.4,-16.3 -0.1,0 -0.3,0.1 -0.4,0.1 1,5.1 -1.1,15.5 -5,15.2 -2.8,-0.1 -4.4,-7.2 -3.7,-12.4 l -8.2,7.5 -0.3,0.1 z"
   id="path1-2" />

	<path
   d="m 344.3,195.9 c -0.7,0.2 -4.4,0.9 -5.2,1.1 -0.7,0.1 -1.4,0.4 -1.9,0.9 -0.9,4.8 0.5,12.3 3.4,12.3 3.7,0.2 5.4,-9.8 4.3,-14.4 -0.2,0 -0.4,0.1 -0.6,0.1 z m -1.3,4.4 c -0.1,1.4 -0.4,2.8 -1.5,2.9 -1.6,-0.1 -1.5,-4.8 -0.3,-5.7 0.3,-0.2 0.6,-0.3 0.9,-0.1 0.6,0.3 1,1.5 0.9,2.9 z"
   id="path2" />

	<path
   d="m 342.1,197.7 c -1.6,-0.6 -1.9,5.1 -0.5,5.2 1.4,0 1.6,-4.7 0.5,-5.2 z"
   id="path3" />

	<path
   d="m 288.6,162.2 c 0.5,-0.5 1.8,-2 2.3,-2.6 -1.5,-2.4 0.1,-5.7 2.8,-6.3 0,0 0.1,0 0.1,0 0.5,-0.1 0.9,-0.1 1.4,-0.1 0,0 0,0 0.1,0 0,0 0,0 0,0 0,0 0.1,0 0.1,0 0,0 0.1,0 0.1,0 0,0 0.1,0 0.1,0 0,0 0.1,0 0.1,0 0.1,0 0.1,0 0.2,0 0,0 0,0 0.1,0 0,0 0.1,0 0.1,0 0.3,0.1 0.5,0.2 0.8,0.3 0.2,0.1 0.3,0.2 0.5,0.3 0.2,0.2 0.5,0.3 0.7,0.5 0,0 0.1,0.1 0.1,0.1 0.2,0.2 0.3,0.4 0.5,0.6 0,0 0,0 0,0 0.1,0.2 0.3,0.4 0.4,0.7 0,0 0,0.1 0,0.1 0,0 0,0.1 0.1,0.1 0,0.1 0,0.1 0.1,0.2 0,0.1 0,0.1 0.1,0.2 0,0 0,0 0,0.1 0,0.1 0,0.1 0,0.2 0,0.1 0,0.1 0,0.2 0,0 0,0 0,0 0,0.1 0,0.1 0,0.2 0,0 0,0 0,0 0,0 0,0.1 0,0.1 0.2,1.8 -0.8,3.3 -2.3,4.1 0.2,-0.1 0.4,-0.2 0.5,-0.4 1,-0.9 1.5,-2.1 1.4,-3.4 0,0 0,-0.1 0,-0.1 0,0 0,0 0,0 0,-0.1 0,-0.1 0,-0.2 0,0 0,0 0,0 0,-0.1 0,-0.1 0,-0.2 0,-0.1 0,-0.1 0,-0.2 0,0 0,0 0,-0.1 0,-0.1 0,-0.1 -0.1,-0.2 0,-0.1 0,-0.1 -0.1,-0.2 0,0 0,-0.1 -0.1,-0.1 0,0 0,0 0,-0.1 -0.1,-0.2 -0.2,-0.3 -0.2,-0.5 0,0 -0.1,-0.1 -0.1,-0.1 0,0 0,0 0,0 0,0 -0.1,-0.1 -0.1,-0.1 0,0 -0.1,-0.1 -0.1,-0.1 -0.1,-0.1 -0.1,-0.2 -0.2,-0.3 0,0 -0.1,-0.1 -0.1,-0.1 -0.2,-0.2 -0.4,-0.4 -0.6,-0.5 -0.1,-0.1 -0.3,-0.2 -0.5,-0.3 -0.2,-0.1 -0.5,-0.2 -0.7,-0.3 0,0 -0.1,0 -0.1,0 0,0 0,0 -0.1,0 0,0 -0.1,0 -0.1,0 0,0 0,0 -0.1,0 0,0 -0.1,0 -0.1,0 0,0 -0.1,0 -0.1,0 0,0 -0.1,0 -0.1,0 0,0 -0.1,0 -0.1,0 0,0 0,0 0,0 0,0 0,0 -0.1,0 -0.4,0 -0.9,0 -1.3,0.1 0,0 -0.1,0 -0.1,0 -2,0.5 -3.4,2.6 -3,4.6 0.1,0.3 0.2,0.7 0.3,1 l 1.6,-1.8 c 0.2,-0.2 0.6,-0.1 0.6,0.2 0.1,0.1 -1.8,2.1 -1.8,2.2 0.4,0.6 0.9,1 1.4,1.4 -0.7,-0.3 -1.2,-0.8 -1.6,-1.2 -0.4,0.5 -1.4,1.6 -1.8,2 5.2,0 24.2,0.2 29.6,0.2 l 5.3,-2.9 c -3.1,-12 -9.5,-22.8 -9.5,-22.8 -10.1,-2.3 -23.1,-2 -26.9,-1.8 -0.6,0 -1.1,0.5 -1.1,1.1 0.2,15.1 -2.3,25.1 -2.6,26 0.7,0.1 1,0.2 1,0.2 z m 6.2,-0.7 c -0.2,0 -0.3,0 -0.4,-0.1 0,0 0,0 0,0 -0.5,-0.7 -0.6,-2 -0.7,-2.7 0,-0.4 0.3,-0.6 0.6,-0.6 1.1,0.2 2.4,0.3 3.3,0.3 0.4,0 0.7,0.5 0.5,0.8 -1,1.7 -2,2.1 -3.3,2.3 z m 17.4,-21.2 c 0,0 3,4.4 6,12.5 l -26.6,-1.4 c -0.8,-6 -2.4,-13.2 -2.4,-13.2 0,0 14.9,-0.3 23,2.1 z m -24.1,-2 c 0,0 1.5,6.4 2.4,12.9 h -3.2 c 0.5,-3.9 0.9,-8.5 0.8,-12.9 z"
   id="path4" />

	<path
   d="m 287.7,163.7 c -0.3,-0.3 0.1,-0.6 0.3,-0.8 h -1.1 c -0.3,0 -0.4,0.3 -0.3,0.5 0.2,0.6 0.6,1.2 1.3,1.1 0,0 2.4,-0.2 2.4,-0.2 0.3,0 0.5,-0.3 0.3,-0.6 l -0.3,-0.6 c -0.2,-0.4 -1,-0.2 -1.3,-0.3 -0.6,0.5 -0.9,1.2 -1.3,0.9 z"
   id="path5" />

	<path
   d="m 270.8,198.3 c -1.2,-8.2 -3,-12.1 -7.9,-12.1 -2.8,0.1 -9.4,1 -11.2,1.4 -1.7,0.4 -4.2,1.8 -5.2,4.7 -0.4,1.1 -0.8,2.8 -1.2,4.6 8.4,-12.2 15.8,1.9 14.5,16.1 -0.9,11.6 -6.5,22.2 -13.2,18.5 -0.8,-0.5 -1.4,-1.2 -2,-1.9 0,0 0,0 0,0 -1.9,-2.6 -2.8,-5.7 -3.3,-8.8 v 0 c 0,0 0,0 0,0 -0.1,-0.2 0,-0.3 0.1,0 0.4,2.1 1,4.2 2,6 0,0 0,0 0,0 6.3,10.5 14.3,-1.2 15.1,-13.8 0,0 0,0 0,0 1.2,-12.6 -5.5,-26.2 -13.5,-14.9 -0.3,1.2 -0.6,2.4 -0.8,3.5 6.4,-13.1 14.5,-2 13.4,11.2 -1.5,20.7 -15.8,21.8 -15.8,0.5 -0.3,0.6 -0.6,1.1 -0.9,1.6 0,0 0,0 0,0 -2,3.1 -4.7,4.9 -4.7,4.9 -2.9,0.5 -10.2,1.7 -12.7,2 1.2,10.1 6,16.7 12.2,17.1 l 10.1,0.1 c 6.9,0.5 13.3,-7.8 15.6,-19.4 l 2.9,-0.7 c 0,0 2.3,-4.2 3.1,-5.6 0.9,-1.5 4.4,-7.9 3.4,-15 z"
   id="path6" />

	<path
   d="m 258.6,158.5 c -0.2,-0.1 -0.4,-0.1 -0.6,-0.2 -2.2,-0.3 -6.9,-0.9 -9,-1.2 l 3.3,0.6 c 0.3,0.1 0.5,0.3 0.6,0.6 2.2,0.2 4.3,0.4 6.3,0.6 -0.1,-0.1 -0.3,-0.3 -0.6,-0.4 z"
   id="path7" />

	<path
   d="m 250.8,216.4 c 2.6,0.1 3.3,-8.5 0.5,-8.8 -2.6,-0.1 -3.1,8.5 -0.5,8.8 z"
   id="path8" />

	<path
   d="m 242.6,211.8 c -0.3,4.5 0.4,8.6 1.7,11.4 5,10 11.8,0.2 12.3,-10.6 1,-13.2 -7,-22.2 -12.2,-9.3 l 0.3,0.9 -1.9,6.4 c -0.1,0.4 -0.1,0.8 -0.2,1.2 z m 5.8,0 c 0.6,-7 5.5,-5.9 5.1,0.3 -0.1,1.3 -0.4,2.5 -0.9,3.4 -1,1.9 -2.9,1.9 -3.7,-0.2 -0.4,-0.9 -0.6,-2.2 -0.5,-3.5 z"
   id="path9" />

	<path
   d="m 241.1,192.9 -8.7,0.7 c -0.5,0 -0.3,0.7 -0.3,1 0,0.2 0.2,0.3 0.4,0.3 l 8.7,-0.8 c 0.4,0 0.3,-0.6 0.3,-0.9 0,-0.1 -0.2,-0.3 -0.4,-0.3 z"
   id="path10" />

	<path
   d="m 241,195 -8.5,0.8 c -0.5,0 -0.3,0.7 -0.3,0.9 0,0.2 0.2,0.3 0.4,0.3 l 8.4,-0.9 c 0.4,0 0.3,-0.6 0.3,-0.8 0.1,-0.1 -0.1,-0.3 -0.3,-0.3 z"
   id="path11" />

	<path
   d="m 240.8,197 -8.3,0.9 c -0.4,0 -0.3,0.6 -0.3,0.9 0,0.2 0.2,0.4 0.4,0.3 l 8.2,-1 c 0.4,0 0.3,-0.5 0.3,-0.8 0.1,-0.1 0,-0.3 -0.3,-0.3 z"
   id="path12" />

	<path
   d="m 181.9,156 c 0.1,0 0.2,0 0.3,0 0.1,-0.8 0.7,-1.6 1.7,-1.6 1,-0.1 7.1,-0.2 12.8,-0.3 2.8,0 5.6,-0.1 8.3,-0.1 1.6,0 2.8,-0.4 3.9,0.7 2.4,0.1 7.8,0.4 10.8,0.8 -0.2,0.2 -0.4,0.4 -0.4,0.7 0.2,0 0.3,0 0.5,0 0,-0.5 0.4,-0.9 0.8,-0.9 6.5,-0.3 13.8,0 13.8,0 l 0.2,-0.3 c 6.5,0.3 13.4,1 19.7,1.9 2.8,0.4 4.9,0.7 6.1,0.9 0.5,0.1 0.9,0.6 0.9,1.1 5,0.4 9.4,0.9 13.1,1.4 0,0 0,0 0,0 -3.3,-7.9 -15.1,-11.8 -20.4,-4 -0.5,-0.1 -0.9,-0.1 -1.4,-0.2 5.9,-9.5 19.8,-5.2 23.3,4.4 2.7,0.4 4.6,0.6 6.9,1 1.5,-8.8 2.1,-22.4 2.2,-25.7 0,-0.5 -0.4,-0.9 -0.9,-1 -12.7,-2.1 -70.7,-4.2 -82.3,-1.9 -12.4,11.8 -21.1,21.5 -22.5,23.1 0.7,0.2 2.2,0.1 2.6,0 z m 100.9,-16.4 c 0,0 0,0 0,0 h 0.2 c -0.1,2.8 -0.2,6.9 -0.7,11.5 l -15.6,0.1 c -2.9,-1.1 -6.5,-1.2 -9.3,0.1 h -1.8 l -2.4,-11.6 z m -50.8,0 c 0.1,-0.5 0.6,-0.8 1.1,-0.8 0,0 2.3,0 2.3,0 0.2,0.3 0.7,1 0.8,1.1 0.1,0.1 0.4,0.2 0.6,0.2 0,0 0.1,0 0.1,0 0,0 -0.7,-0.9 -0.7,-1 -0.5,-0.6 -0.4,-1.5 0.2,-2.1 0,0 3.8,-3.5 3.8,-3.5 0.4,0 0.8,0 1.1,0 l -4.3,4.1 c -0.4,0.3 -0.3,0.9 0.1,1.2 h 4.8 c 0.7,-0.1 1.5,0.1 1.6,1 0,0 0.2,1.7 0.2,1.7 0,0 0,0.1 0,0.1 0,0.6 -0.5,1.1 -1.1,1.1 0,0 -0.5,0 -0.5,0 h -9.2 c -0.6,0 -1.1,-0.5 -1.1,-1 -0.2,-0.2 0.1,-1.9 0.2,-2.1 z M 204.7,136 c 12.7,-0.4 27.1,1.7 27.1,1.7 -1.5,3.9 -3.6,10.1 -4.5,16.1 -1.3,-0.1 -3.5,-0.3 -4.8,-0.1 0,0 -2.1,0.3 -2.1,0.3 -0.7,0.2 -11,-0.2 -12,-0.2 -0.4,-0.3 -1.4,-0.4 -2.1,-0.3 -0.6,0 -3.5,0.1 -7.1,0.1 l -5.8,-0.1 c 3.4,-7.3 11.3,-17.5 11.3,-17.5 z m -3.9,3.5 c -0.1,0.1 -6.8,9.5 -8.8,14.1 l -4.4,0.3 c -0.1,0 6.2,-8.2 13.2,-14.4 z"
   id="path13" />

	<path
   d="m 212.2,184.6 h -0.7 l 0.1,1.6 h 0.7 l 0.1,0.9 h -0.7 l 0.2,1.9 h 0.7 c 0,0.5 0.1,1.2 0.1,1.7 -3,-0.2 -7.2,-0.4 -10.2,-0.6 -0.3,0 -0.9,-0.1 -1.2,-0.1 0,0 -1.7,-0.1 -1.7,-0.1 -0.7,0 -1.2,0.5 -1.2,1.1 v 0.5 c 0,0.2 0.1,0.5 0.1,0.8 l 6.2,0.3 c 0.3,-1 1.8,-0.9 2,0.1 l 6.1,0.3 c 0,0 0,0.2 0,0.7 l -6.2,-0.3 c -0.3,0.9 -1.8,0.9 -2,-0.1 l -6.1,-0.3 0.2,1.3 v 0 c 0,0.1 0,0.1 0,0.2 0.1,0.5 0.5,0.8 1,0.8 0,0 2.1,0.1 2.1,0.1 0.3,0 0.9,0 1.2,0.1 2.6,0.1 6.6,0.3 9.3,0.5 h 0.1 c 0.1,0 0.5,0 0.6,0 0,0.5 0.1,0.8 0.1,0.8 h -0.4 l 0.2,1.5 h 0.4 l 0.1,0.8 h -0.3 l 0.3,2.8 c 0,0 0.2,0 0.2,0 3.5,0.3 9.9,0.8 13.5,1.1 0,0 -0.3,-3.6 -0.7,-8 v 0 c -0.5,-5.7 -1.1,-12.9 -1.4,-15.6 -0.5,-4.9 -8.5,-5.8 -8.5,-5.8 -4.6,0.5 -4.7,3 -4.7,5.2 0,0.8 0.2,4.1 0.4,5.8 z m 1.6,7.6 -0.3,-3.6 c 0,-0.2 0.1,-0.3 0.3,-0.3 l 2.4,0.4 c 0.2,0 0.3,0.3 0.2,0.5 -0.6,0.5 -1.5,1.5 -2,3.1 -0.2,0.3 -0.6,0.2 -0.6,-0.1 z m 12.3,7.9 0.1,2.1 c 0,0.2 -0.1,0.3 -0.3,0.3 l -2.4,-0.1 c -0.3,0 -0.3,-0.4 -0.1,-0.5 0.7,-0.4 1.6,-1 2.2,-2 0.1,-0.2 0.5,-0.1 0.5,0.2 z m -0.1,-4.8 c 0.2,3.9 -2.4,7 -5.6,6.7 -6.8,-0.7 -7.4,-13 -0.2,-13.4 3.1,0 5.7,3.1 5.8,6.7 z m -1.1,-9.7 0.1,2.2 c 0,0.1 -0.1,0.3 -0.3,0.3 h -2 c -0.3,0 -0.4,-0.3 -0.1,-0.5 1,-0.6 1.5,-1.4 1.9,-2.1 0,-0.2 0.4,-0.2 0.4,0.1 z m -0.2,-4.4 c 0.2,3.7 -2.2,6.7 -5.2,6.7 -7.1,-0.2 -8,-13 -0.6,-13.4 3.1,0 5.7,3 5.8,6.7 z m -8.3,-7.2 c 0,0 0,0 0,0 l 0.6,0.1 c 0.1,0 0.2,0.2 0,0.3 -2.5,0.9 -3.3,3.3 -3.5,3.9 0,0.1 -0.1,0.1 -0.1,0.1 h -1 c -0.1,0 -0.1,-0.1 -0.1,-0.1 -0.2,-3.8 3.8,-4.2 4.1,-4.3 z"
   id="path14" />

	<polygon
   points="189.2,199 189.1,197.6 182.9,197.3 183,198.7 "
   id="polygon14" />

	<path
   d="m 166.6,204.8 -19.1,-1.7 c -0.7,-0.1 -1.3,0.5 -1.2,1.2 l 1.1,10.8 c 0.1,0.5 0.5,0.9 1,1 l 19.2,2.3 c 0.7,0.1 1.3,-0.5 1.2,-1.2 l -1.2,-11.4 c 0,-0.6 -0.4,-1 -1,-1 z m -11.7,9.6 c 0.3,0.3 0.5,1.2 -0.2,1.2 -0.4,0 -0.8,-0.8 -0.5,-1.2 l -0.1,-0.1 v 0 c 0,0 -0.1,0 -0.1,0 -0.5,-0.1 -0.8,-0.9 -0.5,-1.3 0.3,-0.4 0.8,0 0.9,0.5 l 2.4,-1.3 0.9,0.7 z m 8,-3.4 c -0.1,0.1 -0.2,0.2 -0.4,0.2 0,0 0,0 0,0 -0.3,0 -0.5,-0.3 -0.6,-0.7 l -2.9,1.5 -0.4,-0.3 c -0.1,0 -0.2,0.1 -0.3,0.1 l 3.2,2.3 c 0.1,-0.8 1,-0.4 1,0.3 0.1,0.5 -0.4,0.8 -0.7,0.5 l -0.1,0.1 c 0.3,0.3 0.5,1.3 -0.1,1.4 -0.4,0 -0.7,-0.9 -0.5,-1.3 l -7.7,-5.7 h -0.1 c 0,0.3 -0.2,0.5 -0.5,0.5 0,0 0,0 0,0 -0.8,-0.1 -0.9,-1.9 0.1,-1.4 -0.4,-0.3 -0.5,-1.4 0.1,-1.4 0,0 0,0 0,0 0.5,0.1 0.8,0.9 0.5,1.3 l 1.3,1 c -0.7,-1.7 -0.1,-4.3 2.1,-4.1 2.2,0.2 3.7,3.1 2.9,5.2 l 1.5,-0.8 c -0.1,-0.2 -0.2,-0.4 -0.3,-0.6 v 0 c 0,-0.3 0.1,-0.7 0.5,-0.7 0,0 0,0 0,0 0.6,0.1 0.9,1.1 0.4,1.5 0.1,0 0.2,-0.1 0.3,-0.1 0.7,0 1,0.8 0.7,1.2 z"
   id="path15" />

	<path
   d="m 148,217.1 c -1.2,-0.6 -1.4,-1.9 -1.4,-1.9 0,0 -8.4,-1.7 -11.1,-2.3 -2.7,-0.6 -2.9,-2.2 -2.9,-2.2 -3.1,-0.3 -10.3,-1.1 -13.4,-1.4 0.7,10.4 7.3,18.6 15.4,18.6 0.8,0 7.6,0.4 8.2,0.4 5.7,0 10.6,-4.1 13.3,-10.2 -4.3,-0.5 -6.2,-0.3 -8.1,-1 z"
   id="path16" />

	<path
   d="m 100.6,172.3 c -0.2,-4.2 -3.5,-5.7 -8.5,-6.7 0,0 -3.5,0.5 -3.2,3.6 0.2,2.4 3.2,22.8 3.2,22.8 l 12,1 c 0.1,0 -2.8,-16.4 -3.5,-20.7 z m -0.1,5.3 0.1,1.3 c 0,0.1 -0.1,0.2 -0.2,0.2 h -1.6 c -0.2,0 -0.3,-0.3 -0.1,-0.4 0.5,-0.3 1,-0.6 1.4,-1.2 0.1,-0.2 0.4,-0.2 0.4,0.1 z m -4.1,-10.4 c 0,0 0,0 0,0 4.7,1.4 5.7,11.1 0.1,11.4 -2.4,0 -4.7,-2.6 -5.1,-5.8 -0.3,-3.7 2,-6.6 5,-5.6 z m -5.9,4.1 c -0.2,0 -0.6,0.1 -0.6,-0.1 0,-0.3 -0.1,-0.9 -0.2,-2.2 -0.2,-2 2.1,-2.7 2.5,-2.7 0,0 1,0.2 1,0.2 0.2,0 0.2,0.3 0.1,0.3 -2.1,1.1 -2.5,3.8 -2.6,4.4 0,0.1 -0.1,0.1 -0.2,0.1 z m 1.5,12.2 c -0.1,0.2 -0.4,0.2 -0.4,0 l -0.3,-3.3 c 0,-0.1 0.1,-0.2 0.2,-0.2 h 2.3 c 0.2,0 0.3,0.3 0.1,0.4 -0.6,0.4 -1.5,1.3 -1.9,3.1 z m 10.3,7 c 0.3,2.2 0.6,1.8 -1.6,1.9 -0.3,0 -0.4,-0.4 -0.2,-0.6 0.4,-0.3 0.9,-0.8 1.2,-1.4 0.1,-0.3 0.5,-0.2 0.6,0.1 z m -0.5,-4.6 c 0.5,8.1 -8,7.2 -8.9,0 -0.5,-8.1 8,-7.2 8.9,0 z"
   id="path17" />

	<path
   d="m 210.7,131 c 17.2,-1.3 48.4,0.2 69.5,1.4 -18.2,-2 -47.7,-3.2 -69.5,-1.6 -0.7,0 -0.7,0.2 0,0.2 z"
   id="path18" />

	<path
   d="m 112.4,183.6 c -0.6,0 -1.1,0.5 -1,1.1 l 0.1,0.7 6,0.4 c 0.3,-1 1.9,-0.9 2,0.1 l 6.1,0.4 c 0,0 -0.1,-1.1 -0.1,-1.1 0,-0.5 -0.4,-0.9 -0.9,-0.9 0,0 -0.2,0 -0.2,0 l -4.8,-0.3 c -1.6,0 -5.6,-0.3 -7.2,-0.4 z"
   id="path19" />

	<path
   d="m 125.7,187 -6.2,-0.4 c -0.3,0.9 -1.7,0.8 -2,-0.1 l -5.9,-0.4 0.1,1 c 0.1,0.8 0.8,0.9 1.5,0.9 1.6,0.1 5.7,0.4 7.3,0.5 0,0 4.3,0.3 4.3,0.3 0.6,0 1.1,-0.5 1,-1 -0.1,-0.2 -0.1,-0.8 -0.1,-0.8 z"
   id="path20" />

	<path
   d="m 197.4,208.8 c 0,-0.2 -0.2,-2.2 -0.2,-2.4 l -5.6,-0.3 0.2,2.3 c 2.2,0.2 4.2,0.3 5.6,0.4 z"
   id="path21" />

	<polygon
   points="191.5,205.2 197.2,205.4 197.1,204.2 194.3,203.9 191.4,203.8 "
   id="polygon21" />

	<path
   d="m 187,208.2 c 1.3,0.1 2.6,0.1 3.9,0.2 l -0.2,-2.3 -6.3,-0.3 0.3,2.3 z"
   id="path22" />

	<polygon
   points="184.2,204.8 190.5,205.1 190.4,203.7 184.1,203.5 "
   id="polygon22" />

	<path
   d="m 183.7,208.1 -0.3,-2.3 -6.1,-0.3 0.3,2.2 c 1.4,0.1 3.6,0.2 6.1,0.4 z"
   id="path23" />

	<polygon
   points="177.2,204.5 183.3,204.8 183.1,203.5 177,203.2 "
   id="polygon23" />

	<path
   d="m 171.4,205.3 c 0.9,2.2 2.8,2.3 5.2,2.4 l -0.3,-2.2 -4.9,-0.2 c 0,-0.1 0,0 0,0 z"
   id="path24" />

	<path
   d="m 176.2,204.5 -0.1,-1.3 -6.4,-0.2 c 0.4,0.3 0.8,0.7 1.2,1.3 z"
   id="path25" />

	<polygon
   points="146.2,201.9 146.7,201.5 144.1,201.1 144.1,201.6 "
   id="polygon25" />

	<path
   d="m 145.1,203.4 c 0,-0.2 0.1,-0.5 0.2,-0.7 l -1.1,-0.2 0.2,2 0.5,0.1 c 0.1,-0.4 0.1,-0.8 0.2,-1.2 z"
   id="path26" />

	<polygon
   points="140.7,203.9 143.5,204.4 143.3,202.4 140.4,202 "
   id="polygon26" />

	<polygon
   points="143.1,200.9 140.2,200.4 140.3,201 143.2,201.4 "
   id="polygon27" />

	<polygon
   points="136.8,203.4 139.7,203.8 139.4,201.8 136.6,201.4 "
   id="polygon28" />

	<polygon
   points="139.2,200.3 136.4,199.8 136.5,200.4 139.3,200.8 "
   id="polygon29" />

	<path
   d="m 133.6,202.9 2.3,0.3 -0.2,-2 -3,-0.5 c 0.1,0.9 0,2.1 0.9,2.2 z"
   id="path29" />

	<polygon
   points="132.4,199.8 135.5,200.2 135.4,199.6 132.3,199.1 "
   id="polygon30" />

	<path
   d="m 217.1,208.5 c 0,-0.4 -0.3,-0.6 -0.7,-0.7 -0.8,-0.1 -1.5,-0.2 -2.1,-0.4 -0.6,-0.2 -1.1,0.4 -0.9,0.9 1.4,4.3 2.8,7 4,8.8 0.5,0.7 1.6,0.1 1.3,-0.7 -1.2,-3.4 -1.5,-6.6 -1.6,-7.9 z"
   id="path30" />

	<path
   d="m 96.8,198.3 c 0,-0.3 -0.2,-0.5 -0.5,-0.5 -0.9,0 -2.1,-0.1 -2.9,-0.2 -0.4,0 -0.7,0.3 -0.6,0.7 1.5,4.5 2.9,6.8 4,7.9 0.4,0.4 1.1,0 0.9,-0.5 -0.8,-2.9 -0.9,-6.2 -0.9,-7.4 z"
   id="path31" />

	<path
   d="m 129.7,206.8 c -0.2,-0.3 -0.5,-0.5 -0.8,-0.5 0,0 -9.5,-1 -9.5,-1 -0.9,-0.1 -1.7,-0.7 -1.9,-1.5 0,0 -2.2,-4.5 -3.2,-6.4 -0.7,-1.3 -2.7,-0.4 -2.1,1 1.2,2.6 2.2,4.8 3.6,7 0.7,1.1 1.8,1.8 3.1,1.9 2.5,0.3 7.1,0.7 9.9,1 0.7,0.1 1.3,-0.8 0.9,-1.5 z"
   id="path32" />

	<path
   d="m 133.5,209 c 0.2,1.1 1.7,2.2 3.1,2.6 1.1,0.3 6.4,1.4 8.6,1.8 0.9,0.2 1.1,-1.3 0.3,-1.5 0,0 -8.1,-1.7 -8.6,-1.8 -0.4,-0.1 -0.8,-0.5 -0.9,-0.8 -0.1,-0.4 -1.1,-3.6 -1.1,-3.6 -0.1,-0.6 -1,-0.5 -1.4,-0.6 -0.5,-0.1 -0.9,0.4 -0.8,0.9 0.3,1 0.7,2.6 0.8,3 z"
   id="path33" />

	<path
   d="m 212.8,215.6 c -0.1,-0.2 -0.3,-0.3 -0.5,-0.4 0,0 -6.2,-0.9 -6.2,-0.9 -1.1,-0.3 -5.2,1.2 -6.3,1.4 -0.5,0.1 -1,0.2 -1.5,0.2 -0.4,0 -22.4,-0.4 -22.8,-0.4 0,0 -1.2,0.4 -1.2,0.4 -0.4,0.1 -0.8,-0.1 -0.9,-0.6 l -0.7,-4.8 c 0,-0.3 -0.2,-0.5 -0.5,-0.6 -0.3,-0.1 -0.7,-0.2 -0.9,-0.3 -0.5,-0.2 -1,0.2 -0.9,0.7 l 0.8,7.3 c 0,0.4 0.4,0.7 0.8,0.6 1.4,-0.3 2.6,-1.4 4.6,-1.4 1.1,0 17.7,0.3 22.2,0.4 2.3,0.2 5.2,-1.7 7.6,-1.4 0,0 5.6,0.8 5.6,0.8 0.7,0.1 1.1,-0.5 0.8,-1 z"
   id="path34" />

	<path
   d="m 192.4,155.4 c 0,0 0.1,0 0.1,0 l 3.9,-0.4 c -1.4,0 -7.1,0.2 -9.3,0.3 -1.2,0.2 -2.9,-0.2 -3.6,0.7 2.8,0 5.5,-0.1 8.1,-0.1 0.2,-0.2 0.5,-0.4 0.8,-0.5 z"
   id="path35" />

	<path
   d="m 336,157.1 c 0,0 0,0 0,0 -4,-6.5 -8.4,-13.2 -13.2,-19.2 -0.1,-0.1 -0.2,0 -0.2,0.1 l 12.2,19.1 h 1.2 c 0.1,0.1 0.1,0 0,0 z"
   id="path36" />

	<polygon
   points="208.3,201 212.5,201.5 212.2,199.1 208,198.7 "
   id="polygon36" />

	<polygon
   points="211.9,196.7 208.2,196.5 207.8,196.5 207.9,197.8 212.1,198.1 "
   id="polygon37" />

	<polygon
   points="206.8,188.6 211,188.8 210.8,187 206.6,186.7 "
   id="polygon38" />

	<polygon
   points="210.5,184.5 206.3,184.2 206.5,185.8 210.7,186 "
   id="polygon39" />

	<polygon
   points="203.2,200.4 207.3,200.9 207.1,198.7 202.9,198.4 "
   id="polygon40" />

	<polygon
   points="206.8,196.4 203.1,196.2 202.6,196.2 202.8,197.4 206.9,197.7 "
   id="polygon41" />

	<polygon
   points="205.4,184.1 201.2,183.9 201.4,185.5 205.6,185.7 "
   id="polygon42" />

	<polygon
   points="197.6,199.7 202.2,200.3 201.9,198.3 197.4,198 "
   id="polygon43" />

	<path
   d="m 199.7,196 c -0.7,0 -1.2,-0.4 -1.5,-1 0,0 0,-0.1 -0.1,-0.1 h -1.2 l 0.2,2.2 4.6,0.3 -0.1,-1.2 z"
   id="path43" />

	<polygon
   points="200.5,186.4 196,186.1 196.3,188 200.7,188.3 "
   id="polygon44" />

	<polygon
   points="200.2,183.8 195.7,183.5 195.9,185.2 200.4,185.4 "
   id="polygon45" />

	<path
   d="m 199.4,189.3 c -0.1,0 1.4,0.1 1.4,0.1 v -0.1 l -4.5,-0.2 0.2,2 h 0.4 v 0 h 0.7 c 0,-1 0.9,-1.9 1.8,-1.8 z"
   id="path45" />

	<polygon
   points="198,193.9 197.8,192 196.7,192 196.9,193.9 "
   id="polygon46" />

	<polygon
   points="192.1,199 196.6,199.6 196.4,197.9 190.1,197.6 190.2,199 "
   id="polygon47" />

	<polygon
   points="189.7,194.5 189.9,196.3 190,196.7 196.3,196.9 196.1,194.8 "
   id="polygon48" />

	<polygon
   points="195.7,191.9 189.4,191.7 189.6,193.6 195.9,193.8 "
   id="polygon49" />

	<polygon
   points="195.4,188.9 189,188.7 189.3,190.7 195.6,191 "
   id="polygon50" />

	<polygon
   points="195.1,186.1 188.7,185.8 188.9,187.7 195.3,188 "
   id="polygon51" />

	<polygon
   points="194.8,183.5 194.1,183.4 188.4,183.2 188.6,184.9 195,185.1 "
   id="polygon52" />

	<path
   d="m 182.7,195.6 c 0,0.1 0.1,0.6 0.1,0.6 v 0.1 c 1.8,0.1 4.4,0.2 6.2,0.3 l -0.3,-2.1 c -1.4,-0.1 -4.8,-0.2 -6.2,-0.3 0.1,0.4 0.1,1 0.2,1.4 z"
   id="path52" />

	<path
   d="m 182.4,193.3 c 1,0 5.1,0.2 6.2,0.3 l -0.2,-1.9 -6.2,-0.3 z"
   id="path53" />

	<polygon
   points="188,188.6 181.8,188.3 182,190.4 188.3,190.7 "
   id="polygon53" />

	<polygon
   points="187.7,185.8 181.4,185.5 181.7,187.4 187.9,187.7 "
   id="polygon54" />

	<polygon
   points="187.4,183.2 181.1,182.9 181.3,184.5 187.6,184.8 "
   id="polygon55" />

	<path
   d="m 181.9,197.2 c -1.8,-0.1 -4.3,-0.2 -6.1,-0.3 l 0.2,1.4 6.1,0.3 z"
   id="path55" />

	<path
   d="m 181.8,196.3 c -0.1,-0.5 -0.2,-1.6 -0.3,-2.1 -0.1,0 -5.8,-0.2 -6.1,-0.2 l 0.3,2.1 c 1.6,0 4.5,0.1 6.1,0.2 z"
   id="path56" />

	<path
   d="m 175.3,193 c 1.4,0.1 4.7,0.2 6.1,0.2 l -0.2,-1.9 -6.1,-0.3 z"
   id="path57" />

	<polygon
   points="180.8,188.3 174.7,188 174.9,190.1 181.1,190.3 "
   id="polygon57" />

	<polygon
   points="180.5,185.5 174.3,185.2 174.6,187.1 180.7,187.3 "
   id="polygon58" />

	<polygon
   points="180.1,182.9 174,182.6 174.2,184.3 180.3,184.5 "
   id="polygon59" />

	<polygon
   points="175,198.3 174.8,196.9 168.7,196.6 168.9,198.1 "
   id="polygon60" />

	<polygon
   points="174.5,193.9 168.3,193.6 168.6,195.7 174.7,196 "
   id="polygon61" />

	<polygon
   points="167.9,190.7 168.2,192.7 174.3,192.9 174.1,191 "
   id="polygon62" />

	<polygon
   points="173.7,188 167.5,187.7 167.8,189.8 174,190 "
   id="polygon63" />

	<polygon
   points="173.4,185.2 167.2,184.9 167.4,186.8 173.6,187 "
   id="polygon64" />

	<polygon
   points="173,182.6 166.9,182.4 167.1,184 173.2,184.2 "
   id="polygon65" />

	<polygon
   points="161.9,197.8 167.9,198 167.7,196.6 161.7,196.3 "
   id="polygon66" />

	<polygon
   points="167.3,193.6 161.4,193.4 161.6,195.4 167.6,195.6 "
   id="polygon67" />

	<polygon
   points="161,190.4 161.2,192.4 167.2,192.6 167,190.7 "
   id="polygon68" />

	<polygon
   points="166.6,187.7 160.6,187.4 160.8,189.5 166.8,189.7 "
   id="polygon69" />

	<polygon
   points="166.2,184.9 160.2,184.6 160.4,186.5 166.5,186.7 "
   id="polygon70" />

	<polygon
   points="165.9,182.3 159.8,182.1 160.1,183.7 166.1,183.9 "
   id="polygon71" />

	<polygon
   points="155.1,197.5 161,197.8 160.8,196.3 154.8,196 "
   id="polygon72" />

	<polygon
   points="154.7,195 160.7,195.3 160.4,193.3 154.4,193.1 "
   id="polygon73" />

	<polygon
   points="154.3,192.1 160.3,192.4 160,190.4 154,190.1 "
   id="polygon74" />

	<polygon
   points="159.6,187.4 153.6,187.1 153.8,189.1 159.9,189.4 "
   id="polygon75" />

	<polygon
   points="159.2,184.6 153.1,184.3 153.4,186.2 159.5,186.4 "
   id="polygon76" />

	<polygon
   points="158.9,182 152.8,181.8 153,183.4 159.1,183.6 "
   id="polygon77" />

	<polygon
   points="151,197.3 154.1,197.5 153.9,195.9 150.7,195.5 "
   id="polygon78" />

	<polygon
   points="150.5,194.5 153.7,194.9 153.4,193 150.2,192.6 "
   id="polygon79" />

	<polygon
   points="150.1,191.6 153.3,192 153,190 149.8,189.7 "
   id="polygon80" />

	<polygon
   points="152.6,187 149.3,186.7 149.7,188.7 152.9,189.1 "
   id="polygon81" />

	<polygon
   points="152.2,184.3 148.9,183.9 149.2,185.7 152.4,186.1 "
   id="polygon82" />

	<polygon
   points="151.8,181.8 151.6,181.8 148.6,181.4 148.8,182.9 152,183.3 "
   id="polygon83" />

	<polygon
   points="146.8,196.8 150,197.2 149.7,195.3 146.5,194.9 "
   id="polygon84" />

	<polygon
   points="146.4,193.9 149.5,194.3 149.3,192.5 146.1,192 "
   id="polygon85" />

	<polygon
   points="148.8,189.6 145.6,189.2 145.9,191.1 149.1,191.5 "
   id="polygon86" />

	<polygon
   points="148.4,186.6 145.2,186.2 145.5,188.2 148.7,188.6 "
   id="polygon87" />

	<polygon
   points="147.9,183.8 144.8,183.4 145,185.2 148.2,185.6 "
   id="polygon88" />

	<polygon
   points="147.6,181.3 144.4,180.8 144.6,182.4 147.8,182.8 "
   id="polygon89" />

	<polygon
   points="145.5,194.7 142.5,194.3 142.8,196.2 145.8,196.6 "
   id="polygon90" />

	<polygon
   points="145.1,191.9 142.1,191.5 142.4,193.3 145.4,193.7 "
   id="polygon91" />

	<polygon
   points="144.7,189.1 141.7,188.7 141.9,190.5 144.9,190.9 "
   id="polygon92" />

	<polygon
   points="144.2,186.1 141.2,185.7 141.5,187.7 144.5,188.1 "
   id="polygon93" />

	<polygon
   points="143.8,183.3 140.8,182.9 141.1,184.7 144.1,185.1 "
   id="polygon94" />

	<polygon
   points="143.4,180.7 140.4,180.3 140.6,182 143.6,182.3 "
   id="polygon95" />

	<polygon
   points="141.5,194.2 138.5,193.7 138.8,195.6 141.8,196 "
   id="polygon96" />

	<polygon
   points="141.1,191.4 138.1,191 138.4,192.7 141.4,193.2 "
   id="polygon97" />

	<polygon
   points="140.7,188.6 137.7,188.3 138,190 141,190.4 "
   id="polygon98" />

	<polygon
   points="140.2,185.6 137.3,185.2 137.6,187.3 140.5,187.6 "
   id="polygon99" />

	<polygon
   points="139.8,182.8 136.9,182.5 137.1,184.3 140.1,184.6 "
   id="polygon100" />

	<polygon
   points="139.4,180.2 136.5,179.8 136.7,181.5 139.7,181.8 "
   id="polygon101" />

	<polygon
   points="137.6,193.6 134.8,193.2 135.1,195 137.8,195.4 "
   id="polygon102" />

	<polygon
   points="137.2,190.9 134.4,190.5 134.6,192.2 137.4,192.6 "
   id="polygon103" />

	<polygon
   points="136.8,188.2 134,187.8 134.2,189.5 137,189.9 "
   id="polygon104" />

	<polygon
   points="136.3,185.1 133.5,184.8 133.8,186.9 136.6,187.2 "
   id="polygon105" />

	<polygon
   points="135.9,182.4 133.1,182.1 133.4,183.8 136.2,184.1 "
   id="polygon106" />

	<polygon
   points="135.5,179.7 132.7,179.3 133,181.1 135.7,181.4 "
   id="polygon107" />

	<polygon
   points="131.3,194.4 134.1,194.9 133.8,193.1 131,192.7 "
   id="polygon108" />

	<polygon
   points="130.9,191.7 133.7,192.1 133.4,190.4 130.7,190 "
   id="polygon109" />

	<polygon
   points="133,187.7 130.3,187.4 130.5,189.1 133.3,189.4 "
   id="polygon110" />

	<polygon
   points="132.6,184.7 129.9,184.4 130.2,186.4 132.9,186.7 "
   id="polygon111" />

	<polygon
   points="132.1,181.9 129.5,181.6 129.7,183.4 132.4,183.7 "
   id="polygon112" />

	<polygon
   points="131.7,179.2 129.1,178.9 129.4,180.7 132,181 "
   id="polygon113" />

	<polygon
   points="126.5,193.8 127.4,193.9 130.3,194.3 130,192.5 126.2,192.2 "
   id="polygon114" />

	<polygon
   points="125.8,189.7 126.1,191.3 129.9,191.6 129.7,189.9 "
   id="polygon115" />

	<path
   d="m 129.5,189 -0.2,-1.6 -1.5,-0.1 c 0.1,0.5 0.1,1.2 -0.2,1.6 z"
   id="path115" />

	<path
   d="m 126.6,184.1 c 1,0.3 1.1,1.3 1.1,2.1 l 1.5,0.1 -0.3,-2.1 z"
   id="path116" />

	<polygon
   points="128.5,181.5 124.4,181.2 124.7,183 128.8,183.3 "
   id="polygon116" />

	<polygon
   points="128.1,178.8 127.9,178.7 124,178.4 124.3,180.3 128.4,180.6 "
   id="polygon117" />

	<polygon
   points="121.8,193.4 125.5,193.7 125.2,192.2 121.5,191.9 "
   id="polygon118" />

	<polygon
   points="124.8,189.6 121.1,189.3 121.3,190.9 125.1,191.2 "
   id="polygon119" />

	<polygon
   points="119.9,182.7 123.8,183 123.5,181.2 119.6,180.9 "
   id="polygon120" />

	<polygon
   points="123,178.3 119.1,178 119.5,179.9 123.3,180.2 "
   id="polygon121" />

	<polygon
   points="117,193.1 120.8,193.4 120.5,191.8 116.8,191.5 "
   id="polygon122" />

	<polygon
   points="120.1,189.2 116.3,189 116.6,190.5 120.4,190.8 "
   id="polygon123" />

	<polygon
   points="115.1,182.4 119,182.6 118.6,180.8 114.8,180.5 "
   id="polygon124" />

	<polygon
   points="118.2,178 114.2,177.6 114.6,179.6 118.5,179.9 "
   id="polygon125" />

	<path
   d="m 115.8,191.4 c -1.7,-0.1 -4.9,-0.5 -6.6,-0.2 l 0.1,1.3 6.7,0.5 z"
   id="path125" />

	<path
   d="m 111.1,190.1 c 0.4,0 4,0.3 4.5,0.3 l -0.3,-1.6 c -1.6,-0.1 -4.8,-0.4 -6.4,-0.2 l 0.2,1.5 c 0.4,0.1 1.6,0 2,0 z"
   id="path126" />

	<path
   d="m 110.5,185 c 0.1,0 0.2,0 0.4,0 -0.2,-0.8 0.3,-1.8 1.2,-1.9 -1.1,-0.1 -2.6,-0.1 -3.8,0 l 0.2,2 c 0.4,0 1.6,-0.1 2,-0.1 z"
   id="path127" />

	<path
   d="m 110.2,182.1 c 0.3,0 3.5,0.2 3.9,0.2 l -0.3,-1.8 c -0.4,0 -3.4,-0.3 -3.7,-0.3 -0.4,0 -1.7,0.1 -2.1,0.1 l 0.2,1.8 c 0.4,0.1 1.6,-0.1 2,0 z"
   id="path128" />

	<path
   d="m 110,179.3 c 0.4,0 3.1,0.2 3.6,0.2 l -0.4,-1.9 -1.7,-0.1 -4,-0.1 0.2,2.1 c 0.6,-0.1 1.9,-0.2 2.3,-0.2 z"
   id="path129" />

	<path
   d="m 110.8,187.7 c 0.2,0 0.3,0 0.5,0 -0.2,-0.4 -0.2,-1.3 -0.3,-1.7 -0.6,-0.1 -1.7,0.1 -2.4,0.1 l 0.2,1.7 c 0.4,-0.1 1.6,-0.2 2,-0.1 z"
   id="path130" />

	<polygon
   points="201.7,188.3 205.8,188.5 205.6,186.7 201.5,186.4 "
   id="polygon130" />

	<path
   d="m 232.4,142.3 c 0.1,0.1 0.3,0.1 0.4,0.1 h 9.6 c 0.5,0 0.8,-0.4 0.8,-0.8 0,0 -0.2,-1.7 -0.2,-1.7 0,-0.3 -0.2,-0.6 -0.5,-0.7 -0.2,0 -0.2,0.2 -0.2,0.3 0,0 0.2,2.1 0.2,2.1 0,0.1 -0.1,0.2 -0.2,0.2 h -10 c -0.6,-0.2 -0.3,0.4 0.1,0.5 z"
   id="path131" />

	<path
   d="m 151.5,172.5 c 0,0 0,0.1 0,0 v 0 0 0.1 0 0 0 c 0,0 0,0 0,0 v 0 0 c 0,0 0,0 0,0 v 0 c 0,0 0,0 0,0 v 0 0 c 0,0 0,0 0,0 v 0 c 0,0 0,0 0,0 v 0 c 0,0 0,0 0,0 v 0 c 0,0 0,0 0.1,0 v 0 c 0,0 0.1,0 0.1,0 v 0 0 c 0,0 0,0 0,0 v 0 c 0.1,0 0.2,0.1 0.2,0.1 v 0 0 c 0,0 0.1,0 0.2,0.1 v 0 0 c 0,0 0.1,0 0.1,0 v 0 0 0 0 0 0 0 c 0,0 0.1,0 0.1,0 h 0.1 v 0 0 0 c 0,0 0.1,0 0.1,0 v 0 c 0,0 0.1,0 0.1,0 v 0 0 0 c 0.1,0 0.1,0 0.2,-0.1 h 0.1 v 0 c 0.1,0 0.2,-0.1 0.3,-0.1 v 0 c 0,0 0.1,0 0.1,0 v 0 0 0 0 c 0,0 0.1,0 0.1,0 v 0 0 0 0 0 0 0 0 0 0 0 0 0 0 0 0 0 0 0 c 0,0 0,0 0,0 0,0 0,0 0,0 v 0 0 c 0,0 0,0 0,0 v 0 0 0 0 0 0 0 c 0,0 0,0 0,-0.1 v 0 c 0,0 0,0 0,0 v 0 0 0 0 0 0 0 l 0.4,-1.1 0.6,-0.6 c -0.4,0 -1.8,-0.2 -2.2,-0.3 -0.1,0 -0.3,0 -0.4,0 h -0.1 c -0.5,0.1 -1.4,0.2 -1.9,0.2 l 0.2,0.6 -0.3,1.1 v 0 0 0 c 0,0 0,0 0,0 v 0 0 c 0,0 0,0 0,0.1 1.8,-0.1 1.8,-0.1 1.8,0 z"
   id="path132" />

	<path
   d="m 152.6,174.5 c 0,0 -0.2,0.1 -0.2,0.1 -0.4,-0.7 -2.2,-3.7 -2.6,-4.4 0.4,1 2,4.8 2.4,5.7 v 0 c 1.2,-0.8 6.5,-4.4 7.6,-5.1 l -6.6,3.5 z"
   id="path133" />

	<path
   d="m 158.4,208.3 c 0.9,0 0.6,-1.4 -0.2,-1.4 0,0 0,0 0,0 -0.9,-0.1 -0.5,1.3 0.2,1.4 z"
   id="path134" />

	<path
   d="m 156.5,208.1 c 0,0 0,0 0,0 0.9,0 0.5,-1.4 -0.2,-1.4 0,0 0,0 0,0 -0.9,-0.1 -0.6,1.4 0.2,1.4 z"
   id="path135" />

	<path
   d="m 159.3,208.7 c -0.2,0 -0.4,0.1 -0.4,0.3 0,0.1 0.1,0.2 0.2,0.3 -0.2,2.3 -2.8,1.5 -3.2,-0.3 0.3,-0.2 0.1,-0.6 -0.3,-0.6 -0.4,-0.1 -0.5,0.4 -0.2,0.5 0.4,2.4 4,3.4 4.1,0.4 0.3,-0.3 0,-0.6 -0.2,-0.6 z"
   id="path136" />

</g>
    <g
       id="White"
       transform="matrix(0.26458333,0,0,0.26458333,-15.813146,-15.100324)"
       inkscape:label="White"
       style="fill:#ffffff">
	<path
   class="st0"
   d="m 371.1,158.5 c -0.4,-0.7 -1.1,-1.1 -1.9,-1.2 l -31.6,-2.4 c -2.5,-3.7 -8.9,-14.7 -14.5,-20.3 -0.7,-0.4 -17.7,-8.8 -69.5,-8.8 -36.8,0 -49.7,3.2 -50.2,3.4 -1.2,0.3 -2.5,1.3 -3.4,2.2 -11.2,10.7 -19.3,19.6 -22,22.5 -5.6,0.5 -17.9,1.8 -30.8,4.3 -9.3,0.4 -39.9,1.7 -47.8,2.3 -3.4,0.3 -6.1,0.8 -8.2,1.9 -3.7,2.2 -4.9,4 -4.6,7 0.3,3.1 2.5,18.2 3.3,23.8 -0.5,0.3 -1.2,0.7 -1.2,1.3 0,0.2 0,1 0,1.1 0.1,0.5 0.6,1 1.2,1 0.5,1 2.6,5.5 3.4,7.2 1.1,2.2 2.6,6.7 8.1,6.4 3.8,-0.3 11.5,-0.7 15.2,-1 l 0.3,2.4 c 1.2,9.2 8.1,18.5 17.5,18.5 l 8.2,0.4 c 0,0 0.1,0 0.1,0 5.9,0 11.5,-3.8 14.8,-10 l 1,-2.3 c 8,0.6 10.7,1.5 16.8,0.2 1.2,-0.5 3.1,-0.4 4.2,-0.4 1,0 15.3,0.4 19.7,0.5 1.7,0.1 4.1,-0.6 5.8,-0.9 h 2.2 l 10.1,1.1 c 0.8,1.4 2.2,2.7 3.8,3 l 0.4,2.5 c 1.5,8.5 5.6,17 14.5,17 l 9.9,0.1 c 8,0.3 14.8,-7.7 17.6,-19.8 l 1.1,-0.2 3,0.1 c 1.5,-0.1 50.7,-10.9 52,-11.1 1.7,6.5 5.4,10.2 10.2,10.3 0,0 7.3,0 7.7,-0.1 8.7,-1.2 12.3,-12.8 12.3,-21.3 4.2,-1.3 13.6,-4.2 18.7,-6.4 1,-0.4 1.7,-1.2 2.2,-2.1 0.7,-1.4 2.3,-5 3.2,-9.8 0.1,-0.6 0.5,-3.3 0.5,-4 0.1,-1 0.1,-1.9 0.1,-2.9 0,-9.7 -3.3,-15.3 -3.4,-15.5 z M 210.7,130.7 c 21.7,-1.6 51.3,-0.4 69.5,1.6 -11.5,-0.5 -26,-1.6 -35.6,-1.6 -15.1,-0.4 -26.5,-0.3 -33.8,0.3 -0.8,0 -0.8,-0.2 -0.1,-0.3 z M 96.8,206.2 c -1,-1.1 -2.5,-3.4 -4,-7.9 -0.1,-0.4 0.2,-0.8 0.6,-0.7 0.8,0.1 2,0.2 2.9,0.2 0.3,0 0.5,0.2 0.5,0.5 0,1.2 0.1,4.5 0.9,7.4 0.1,0.5 -0.6,0.9 -0.9,0.5 z M 92.1,192 c 0,0 -3,-20.4 -3.2,-22.8 -0.3,-3.1 3.2,-3.6 3.2,-3.6 5,1 8.3,2.5 8.5,6.7 0,0 0,0 0,0 0.7,4.3 3.5,20.7 3.5,20.7 z M 108,180.3 c 0.4,0 1.7,-0.1 2.1,-0.1 0.3,0 3.4,0.2 3.7,0.3 l 0.3,1.8 c -1.7,-0.1 -4.3,-0.4 -5.9,-0.1 z m -0.2,-0.9 -0.2,-2.1 4,0.1 1.7,0.1 0.4,1.9 c -0.5,0 -3.2,-0.2 -3.6,-0.2 -0.5,0.1 -1.8,0.2 -2.3,0.2 z m 6.8,0.2 -0.3,-1.9 3.9,0.3 0.3,1.9 z m 4,1.2 0.3,1.8 -3.9,-0.3 -0.3,-1.8 z m -3.7,3 c 2.4,0.1 7.2,0.4 9.6,0.6 0.5,0 1,0.3 1.1,0.9 0,0 0.1,1.1 0.1,1.1 l -6.1,-0.4 c -0.2,-1 -1.7,-1.1 -2,-0.1 l -6,-0.4 -0.1,-0.7 c -0.1,-0.6 0.4,-1.1 1,-1.1 0.5,0 1.8,0.1 2.4,0.1 z m 4.6,-3.9 -0.3,-1.9 3.9,0.3 0.3,1.9 z m 4,1.3 0.3,1.8 -3.8,-0.3 -0.3,-1.8 z m 52.5,17.2 -0.2,-1.4 c 1.8,0.1 4.3,0.2 6.1,0.3 l 0.2,1.4 z m 0.6,9.3 c -2.4,-0.1 -4.3,-0.2 -5.2,-2.5 l 4.9,0.2 z m -0.9,-11.7 -0.3,-2.1 c 0.3,0 6,0.2 6.1,0.2 0.1,0.4 0.2,1.6 0.3,2.1 -1.6,0 -4.5,-0.1 -6.1,-0.2 z m 7.4,7.5 0.2,1.3 -6.1,-0.3 -0.1,-1.3 z m -0.6,-9.3 c 1.4,0.1 4.8,0.2 6.2,0.3 l 0.3,2.1 c -1.8,-0.1 -4.4,-0.2 -6.2,-0.3 v -0.1 c -0.1,-0.6 -0.2,-1.4 -0.3,-2 z m 0.9,11.6 0.3,2.3 c -2.5,-0.1 -4.7,-0.2 -6.1,-0.3 l -0.3,-2.2 z m -0.4,-7.1 -0.2,-1.4 6.2,0.3 0.2,1.4 z m 7.4,5 0.1,1.4 -6.3,-0.3 -0.2,-1.3 z m -0.7,-9.2 6.3,0.3 0.2,2.2 -6.3,-0.3 v -0.4 0 z m 0.9,11.6 0.2,2.3 c -1.9,-0.1 -4.2,-0.2 -6.2,-0.3 l -0.3,-2.3 z m -0.4,-7.1 -0.2,-1.4 6.3,0.3 0.2,1.7 -4.5,-0.5 z m 4.1,4.9 2.8,0.3 0.1,1.3 -5.7,-0.3 -0.1,-1.4 z m 2.4,-11.9 1.1,0.1 0.2,1.9 h -1.1 z m 0.5,14.4 c 0,0.2 0.2,2.2 0.2,2.4 -1.4,-0.1 -3.4,-0.2 -5.6,-0.3 l -0.2,-2.3 z m 0.2,-8.4 4.6,0.3 0.2,2 -4.6,-0.6 z m -0.1,-1 -0.2,-2.2 h 1.2 c 0,0 0,0.1 0.1,0.1 0.5,1.4 2.3,1 3.4,1.1 l 0.1,1.2 z m 0.9,-7.2 c -0.3,0.3 -0.5,0.8 -0.5,1.3 H 197 v 0 h -0.4 l -0.2,-2 4.5,0.2 v 0.1 c -0.9,-0.1 -2.1,-0.4 -2.7,0.4 z m -1.9,-1.8 -0.2,-1.9 4.5,0.2 0.2,1.9 z m -0.4,-2.8 -0.2,-1.6 4.4,0.3 0.2,1.6 z m 0,8.6 -6.4,-0.3 -0.2,-1.9 6.4,0.3 z m -6.6,-3.1 -0.2,-2 6.4,0.3 0.2,2 z m -0.4,-3 -0.2,-1.9 6.4,0.3 0.2,1.9 z m -0.3,-2.8 -0.2,-1.7 5.7,0.2 h 0.7 l 0.2,1.7 z m -0.2,6.7 0.2,1.9 c -1.1,0 -5.2,-0.2 -6.2,-0.3 l -0.2,-1.9 z m -6.4,-1.2 -0.3,-2 6.3,0.3 0.2,2 z m -0.3,-3 -0.2,-1.9 6.3,0.3 0.2,1.9 z m -0.4,-2.9 -0.2,-1.6 6.3,0.2 0.2,1.7 z m -0.1,6.8 0.2,1.9 c -1.4,-0.1 -4.7,-0.2 -6.1,-0.2 l -0.2,-1.9 z m -6.3,-1.2 -0.3,-2 6.1,0.3 0.3,2 z m -0.2,5.9 -6.2,-0.3 -0.3,-2 6.1,0.2 z m -0.1,-8.9 -0.2,-1.9 6.1,0.3 0.2,1.9 z m -0.4,-2.8 -0.2,-1.6 6.1,0.2 0.2,1.6 z m -0.1,6.7 0.2,2 -6.2,-0.2 -0.3,-2 z m -6.3,-1.2 -0.3,-2 6.2,0.3 0.3,2 z m -0.1,6.8 0.2,1.5 -6,-0.2 -0.2,-1.5 z m -6.1,-1.2 -0.3,-2 6,0.2 0.3,2 z m 5.8,-8.6 -0.2,-1.9 6.2,0.3 0.2,1.9 z m -0.3,-2.8 -0.2,-1.6 6.2,0.2 0.2,1.6 z m -0.1,6.7 0.3,2 -6,-0.2 -0.3,-2 z m -33.6,-0.3 0.3,1.7 -2.8,-0.4 -0.2,-1.6 z m -2.9,-1.3 -0.2,-1.6 2.7,0.3 0.3,1.7 z m 3.3,4 0.3,1.8 -2.8,-0.4 -0.2,-1.8 z m 12.1,-2 -0.3,-1.9 3.2,0.4 0.3,1.9 z m 3.4,1.4 0.3,1.9 -3.2,-0.5 -0.3,-1.8 z m -3.5,4.1 -3,-0.5 -0.3,-1.9 3,0.4 z m -2.5,5.8 0.2,2 -2.8,-0.4 -0.3,-2 z m -3,-1.4 -0.1,-0.6 2.9,0.5 0.1,0.5 z m 2.1,-7.7 -0.3,-1.8 3,0.4 0.3,1.8 z m -0.5,-2.8 -0.3,-1.8 3,0.3 0.3,1.9 z m -0.1,5.5 -3,-0.5 -0.3,-1.8 3,0.4 z m -2.4,5.8 0.3,2 -2.9,-0.4 -0.2,-2 z m -2.9,-1.4 -0.1,-0.6 2.8,0.5 0.1,0.6 z m 1.9,-7.7 -0.3,-1.7 3,0.4 0.3,1.8 z m -0.4,-2.7 -0.3,-1.8 3,0.3 0.3,1.8 z m -0.2,5.4 -2.8,-0.4 -0.3,-1.8 2.8,0.4 z m -3.2,-3.2 -0.3,-1.7 2.8,0.4 0.3,1.7 z m -0.4,-2.7 -0.3,-1.7 2.8,0.3 0.3,1.7 z m 1.2,10.1 0.1,0.6 -3.1,-0.5 -0.1,-0.7 z m 0.2,1.6 0.2,2 -2.3,-0.3 c -0.3,-0.1 -0.6,-0.3 -0.7,-0.7 l -0.3,-1.5 z m -2.1,3.9 c 0.4,0.1 1.3,0 1.4,0.6 0,0 0.9,3.2 1.1,3.6 0.1,0.4 0.4,0.7 0.9,0.8 0.4,0.1 8.6,1.8 8.6,1.8 0.3,0.1 0.6,0.4 0.6,0.7 0.1,0.5 -0.4,0.9 -0.8,0.8 -2.2,-0.5 -7.4,-1.6 -8.6,-1.8 -1.4,-0.4 -2.9,-1.5 -3.1,-2.6 -0.1,-0.4 -0.5,-1.9 -0.8,-3 -0.2,-0.5 0.2,-0.9 0.7,-0.9 z m 10.7,-2.5 1.1,0.2 c -0.3,0.6 -0.3,1.2 -0.4,1.9 l -0.5,-0.1 z m -0.1,-1 -0.1,-0.5 2.6,0.5 -0.5,0.4 z m 2.4,-6.7 3.2,0.5 0.3,1.9 -3.2,-0.5 z m 3.3,-5.2 3.2,0.4 0.3,2 -3.2,-0.4 z m 3.6,3.3 0.3,1.9 -3.2,-0.5 -0.3,-1.9 z m 0.5,2.9 0.2,1.6 -3.1,-0.1 -0.3,-1.9 z m 0.1,-5.8 6,0.3 0.3,2 -6,-0.2 z m 6.4,3.2 0.3,2 -6,-0.3 -0.3,-2 z m 0.4,3 0.2,1.5 -5.9,-0.2 -0.2,-1.5 z m 0,-6.8 -0.3,-2 6,0.3 0.3,2 z m -0.4,-3 -0.2,-1.8 6,0.3 0.2,1.9 z m -0.3,-2.8 -0.2,-1.6 6.1,0.2 0.2,1.6 z m -0.2,5.7 -6,-0.3 -0.3,-2 6,0.3 z m -6.5,-3.2 -0.3,-1.8 6.1,0.3 0.2,1.8 z m -0.4,-2.8 -0.2,-1.5 6.1,0.2 0.2,1.6 z m -0.1,5.7 -3.2,-0.4 -0.3,-2 3.2,0.4 z m -3.7,-3.4 -0.3,-1.8 3.2,0.4 0.3,1.8 z m -0.4,-2.8 -0.2,-1.5 3,0.4 h 0.2 l 0.2,1.5 z m -0.1,5.7 -3.2,-0.4 -0.3,-2 3.2,0.4 z m -3.7,-3.4 -0.3,-1.8 3.2,0.4 0.3,1.8 z m -0.4,-2.8 -0.2,-1.6 3.2,0.4 0.2,1.5 z m -0.1,5.7 -3,-0.3 -0.3,-2 3,0.4 z m -3.4,-3.4 -0.3,-1.8 3,0.3 0.3,1.8 z m -0.5,-2.7 -0.2,-1.6 3,0.4 0.2,1.6 z m -0.1,5.6 -3,-0.3 -0.3,-2.1 2.9,0.3 z m -3.4,-3.3 -0.3,-1.8 2.9,0.3 0.3,1.8 z m -0.4,-2.8 -0.2,-1.7 2.9,0.4 0.2,1.6 z m -0.1,5.7 -2.8,-0.3 -0.3,-2.1 2.8,0.3 z m -3.2,-3.4 -0.3,-1.8 2.8,0.3 0.3,1.8 z m -0.4,-2.7 -0.3,-1.7 2.8,0.4 0.3,1.7 z m -0.1,5.6 -2.7,-0.3 -0.3,-2.1 2.7,0.3 z m -5.1,0.5 1.5,0.1 0.2,1.6 -2,-0.1 c 0.4,-0.4 0.4,-1.1 0.3,-1.6 z m 1.9,2.7 0.2,1.6 -3.8,-0.3 -0.3,-1.6 z m 0.3,2.6 0.2,1.8 -2.9,-0.4 -0.9,-0.1 -0.2,-1.5 z m -0.3,-9.1 -0.2,-1.8 2.6,0.3 0.3,1.8 z m -0.3,-2.7 -0.2,-1.8 2.6,0.3 0.3,1.7 z m -0.2,5.6 -1.5,-0.1 c 0,-0.9 -0.1,-1.8 -1.1,-2.1 l 2.3,0.2 z m -4.5,-3.3 -0.3,-1.8 4.1,0.3 0.2,1.8 z m 0.5,9.2 0.2,1.5 -3.7,-0.3 -0.3,-1.6 z m -3.9,-1.3 -0.3,-1.6 3.7,0.3 0.3,1.6 z m 3.8,-2.3 c -0.1,0.2 -4.5,-0.2 -4.7,-0.2 0,0 -4.8,-0.3 -4.8,-0.3 -0.4,0 -2.7,-0.2 -3.1,-0.2 -0.5,0 -0.8,-0.4 -0.9,-0.9 0,0 -0.1,-1 -0.1,-1 l 5.9,0.4 c 0.2,0.9 1.6,1 2,0.1 l 6.2,0.4 c 0.2,0.7 0.2,1.4 -0.5,1.7 z m -4.6,3.2 0.3,1.6 -3.8,-0.3 -0.3,-1.6 z m -3.9,-1.3 -0.3,-1.6 3.8,0.3 0.3,1.6 z m 7.7,-10.2 -0.3,-1.9 3.9,0.3 h 0.2 l 0.2,1.8 z m -16,2.8 c 1.1,-0.1 2.6,-0.1 3.8,0 -0.9,0.2 -1.4,1.1 -1.2,1.9 -0.6,0 -1.8,0.1 -2.4,0.1 z m 0.3,3 c 0.6,0 1.8,-0.2 2.4,-0.1 0.1,0.4 0.1,1.3 0.3,1.7 -0.7,-0.1 -1.8,0.1 -2.5,0.1 z m 0.3,2.6 c 1.5,-0.3 4.8,0.1 6.4,0.2 l 0.3,1.6 c -1.8,-0.1 -4.8,-0.5 -6.5,-0.2 z m 0.3,2.5 c 1.7,-0.3 4.9,0.1 6.6,0.2 l 0.3,1.6 -6.7,-0.5 z m 6.6,14.2 c -1.4,-2.2 -2.3,-4.4 -3.6,-7 -0.6,-1.4 1.4,-2.3 2.1,-1 0.9,1.9 3.2,6.4 3.2,6.4 0.3,0.8 1.1,1.4 1.9,1.5 l 9.5,1 c 0.3,0 0.6,0.2 0.8,0.5 0.5,0.7 -0.1,1.6 -0.9,1.5 -2.8,-0.3 -7.4,-0.7 -9.9,-1 -1.3,-0.1 -2.5,-0.8 -3.1,-1.9 z m 26.9,22.9 c -0.6,0 -7.4,-0.4 -8.2,-0.4 -8,0 -14.6,-8.2 -15.4,-18.6 3.2,0.3 10.3,1.1 13.4,1.4 0,0 0.2,1.6 2.9,2.2 2.7,0.6 11.1,2.3 11.1,2.3 0,0 0.2,1.2 1.4,1.9 0.3,0.1 0.6,0.3 1,0.3 0.9,0.1 3.7,0.4 7,0.7 -2.6,6.1 -7.6,10.2 -13.2,10.2 z m 24.9,-10 -19.2,-2.3 c -0.5,-0.1 -0.9,-0.5 -1,-1 l -1.1,-10.8 c -0.1,-0.7 0.5,-1.3 1.2,-1.2 l 19.1,1.7 c 0.5,0 0.9,0.5 1,1 l 1.2,11.4 c 0.1,0.7 -0.5,1.3 -1.2,1.2 z m 1.1,-21.7 6.1,0.3 0.2,1.4 -6.1,-0.3 z m 0.9,6.3 6.4,0.2 0.1,1.3 -5.4,-0.2 c -0.2,-0.5 -0.7,-0.9 -1.1,-1.3 z m 42.5,13.8 -5.6,-0.8 c -0.6,-0.1 -1.2,0 -1.8,0.1 -1.5,0.4 -4.2,1.4 -5.7,1.3 -4.5,-0.1 -21.1,-0.4 -22.2,-0.4 -1.3,0 -3,0.7 -3.6,1.1 -0.5,0.3 -1.7,0.7 -1.8,-0.3 0,0 -0.8,-7.3 -0.8,-7.3 -0.1,-0.5 0.5,-0.9 0.9,-0.7 0.4,0.2 1.4,0.2 1.4,0.9 0,0 0.7,4.8 0.7,4.8 0.3,1.2 1.6,0.2 2.3,0.2 0,0 22.6,0.4 22.6,0.4 0.5,0 1,-0.1 1.5,-0.2 1.2,-0.3 5.2,-1.7 6.3,-1.4 0,0 6.2,0.9 6.2,0.9 0.7,0.1 0.5,1.5 -0.4,1.4 z m -9.3,-19.3 -0.1,-1.2 c 0,0 3.9,0.2 4.1,0.2 l 0.2,1.3 z m 4.3,1.3 0.3,2.2 -4.2,-0.5 -0.2,-2 z m 0.8,-0.9 -0.2,-1.3 c 0,0 4,0.2 4.2,0.2 l 0.2,1.4 z m 4.3,1.3 0.3,2.5 -4.2,-0.5 -0.3,-2.3 z m 5.3,18 c -1.2,-1.8 -2.6,-4.5 -4,-8.8 -0.2,-0.6 0.3,-1.1 0.9,-0.9 0.6,0.2 1.3,0.3 2.1,0.4 0.4,0 0.6,0.3 0.7,0.7 0.1,1.3 0.4,4.5 1.7,7.9 0.1,0.9 -1,1.4 -1.4,0.7 z m 50,-3.9 c -0.8,1.4 -3.1,5.6 -3.1,5.6 l -2.9,0.7 c -2.3,11.6 -8.7,19.9 -15.6,19.4 l -10.1,-0.1 c -6.2,-0.5 -11,-7 -12.2,-17.1 2.5,-0.3 9.8,-1.5 12.7,-2 0,0 2.7,-1.8 4.7,-4.9 0,0 0,0 0,0 0.3,-0.5 0.6,-1 0.9,-1.6 0.1,21.3 14.3,20.2 15.8,-0.5 1.1,-13.2 -7,-24.3 -13.4,-11.2 0.3,-1.2 0.5,-2.3 0.8,-3.5 8,-11.3 14.7,2.3 13.5,14.9 0,0 0,0 0,0 -0.8,12.5 -8.8,24.3 -15.1,13.8 0,0 0,0 0,0 -1,-1.9 -1.6,-3.9 -2,-6 -0.1,-0.3 -0.2,-0.2 -0.1,0 0,0 0,0 0,0 v 0 c 0.5,3.1 1.4,6.3 3.3,8.8 0,0 0,0 0,0 0.6,0.7 1.2,1.4 2,1.9 6.7,3.7 12.3,-6.9 13.2,-18.5 1.3,-14.2 -6.1,-28.3 -14.5,-16.1 0.4,-1.8 0.9,-3.5 1.2,-4.6 1,-2.9 3.5,-4.3 5.2,-4.7 1.8,-0.4 8.3,-1.3 11.2,-1.4 2.8,-0.1 4.3,1.5 4.8,2.3 0.5,0.8 2.1,2.6 3,9.8 1,7.2 -2.5,13.6 -3.3,15 z m -23.1,-9.9 c 5.3,-12.9 13.2,-3.9 12.2,9.3 -0.5,10.8 -7.3,20.6 -12.3,10.6 -1.4,-3 -2,-8.1 -1.6,-12.6 l 1.9,-6.4 z M 371.8,178 c 0,0.1 0,0.1 0,0 -19.7,3.2 -60.9,9.7 -80.3,12.8 v 0 c -0.1,0 -16.9,2.7 -17,2.7 -0.8,0.1 -0.6,1.3 0.2,1.2 l 16.6,-2.6 h 0.1 v 0 c 19.2,-3 60.7,-9.3 80.2,-12.3 -0.5,3.1 -1.2,5.5 -2.4,8.3 -0.5,1.1 -0.6,1.7 -1.3,2.4 -5,2.4 -10.8,4.1 -16.1,5.8 l 0.5,-1.4 c 0.2,-0.5 -0.3,-1.1 -0.8,-1 -1.2,0.2 -5,1 -6,1.2 -3.8,0.8 -8.3,1.7 -12.2,2.5 l -4.8,8.4 8.2,-7.5 c -0.7,5.3 0.9,12.4 3.7,12.4 3.9,0.4 5.9,-10 5,-15.2 0.1,0 0.3,-0.1 0.4,-0.1 0.9,5.6 -1.4,16.7 -5.4,16.3 -1.6,-0.1 -2.8,-2.2 -3.5,-5.2 -0.1,-0.2 -0.1,-0.2 -0.1,0 0.7,3.6 2.1,6 3.9,6.2 4.2,0.4 6.7,-11.4 5.8,-17.5 l 0.7,-0.1 c 0.8,6.1 -0.2,12.8 -3.5,18.1 -1.5,2.3 -3.8,4.6 -6.7,4.8 0,0 -0.2,0 -0.2,0 0,0 -7.1,0 -7.1,0 -5.3,-0.7 -7.2,-5.8 -8.1,-10.8 -9.6,2.1 -44.9,9.6 -53.8,11.6 6.6,-12 7.6,-20.7 3.2,-30.2 -1.6,-3.3 -5.3,-3.7 -6.8,-3.7 -2.1,0.2 -10.9,0.4 -14.4,1.9 0,0 0,0 0,0 -4.3,2.2 -5.2,10 -6,14.1 -0.1,0 -0.4,0 -0.5,0.1 0,0 -14.6,1.6 -14.6,1.6 -0.2,-2.6 -2,-21.3 -2.2,-23.3 -0.1,-0.7 -0.2,-1.7 -0.8,-2.7 28.2,-3.5 51,-5.1 65.3,-5.9 13.5,-0.7 21.2,-0.8 21.3,-0.8 0.4,0 0.4,-0.6 0,-0.6 -20.9,-1.3 -82.7,5.2 -87.6,6 -1.4,-1.4 -3.9,-2.7 -8.3,-3.3 -1.2,0.3 -2.7,0.7 -4.2,2.4 -0.6,1.3 -0.5,2.8 -0.4,4.1 -0.1,-2.2 0.1,-4.7 4.7,-5.2 0,0 8,0.8 8.5,5.8 0.3,2.8 0.9,9.9 1.4,15.6 v 0 c 0.4,4.4 0.7,8 0.7,8 -3.5,-0.3 -9.9,-0.8 -13.5,-1.1 0,0 -0.2,0 -0.2,0 l -0.3,-2.8 h 0.3 l -0.1,-0.8 h -0.4 l -0.2,-1.5 h 0.4 c 0,0 0,-0.3 -0.1,-0.8 -0.1,0 -0.5,0 -0.6,0 h -0.1 c -2.6,-0.1 -6.6,-0.3 -9.3,-0.5 -0.3,0 -0.9,0 -1.2,-0.1 0,0 -2.1,-0.1 -2.1,-0.1 -0.5,0 -0.9,-0.4 -1,-0.8 0,-0.1 0,-0.1 0,-0.2 v 0 l -0.2,-1.3 6.1,0.3 c 0.2,1 1.7,1.1 2,0.1 l 6.2,0.3 c 0,-0.4 -0.1,-0.7 0,-0.7 l -6.1,-0.3 c -0.2,-1 -1.7,-1.1 -2,-0.1 l -6.2,-0.3 c 0,-0.2 -0.1,-0.5 -0.1,-0.8 v -0.5 c 0,-0.6 0.6,-1.2 1.2,-1.1 l 1.7,0.1 c 0.3,0 0.9,0.1 1.2,0.1 3,0.2 7.2,0.4 10.2,0.6 0,-0.4 -0.1,-1.2 -0.1,-1.7 h -0.7 l -0.2,-1.9 h 0.7 l -0.1,-0.9 h -0.7 l -0.1,-1.6 h 0.7 c -0.1,-0.9 -0.2,-1.9 -0.2,-2.6 l -17.2,-1.1 -43.1,-1.7 -23.3,-3 -16.7,-1.4 -0.8,-0.1 -4.2,0.1 c -0.7,0 -1.2,0.6 -1.1,1.3 l 2.1,16.6 -2,0.1 c -2.5,-14.3 -3.5,-21.1 -4.3,-23.7 -0.2,-0.8 -0.7,-1.4 -1.3,-1.8 -3.8,-2.4 -7.7,-2.9 -7.7,-2.9 2.5,-1.2 5.9,-1.5 8.8,-1.7 3.8,-0.2 8.6,-0.5 12.6,-0.7 10.8,-0.5 23,-1 33.6,-1.5 13.5,-2.6 26.3,-3.9 31.7,-4.4 1.4,-1.6 10.1,-11.3 22.5,-23.1 11.8,-2.3 69.5,-0.2 82.3,1.9 0.5,0.1 0.9,0.5 0.9,1 -0.1,3.4 -0.7,16.9 -2.2,25.7 0.7,0.1 1.3,0.2 1.7,0.3 0.2,-0.9 2.7,-10.9 2.6,-26 0,-0.6 0.5,-1.1 1.1,-1.1 3.8,-0.2 16.9,-0.5 26.9,1.8 0,0 6.4,10.8 9.5,22.8 l 5.2,-2.8 c 0.3,0 5.2,0.4 5.3,0.4 L 322.6,138 c -0.1,-0.1 0.1,-0.2 0.2,-0.1 4.9,6.1 9.2,12.8 13.2,19.2 0,0 0,0 0,0 0,0 0,0.1 0.1,0.1 l 32.9,2.5 c 2.6,5.2 3.5,12 2.8,18.3 z m -26.7,22.6 c -0.3,5.4 -2.3,9.7 -4.6,9.6 -2.8,0 -4.2,-7.5 -3.4,-12.3 0.5,-0.5 1.2,-0.8 1.9,-0.9 0,0 4.1,-0.9 4.1,-0.9 0.4,-0.1 1.3,-0.3 1.7,-0.4 0.3,1.5 0.4,3.2 0.3,4.9 z m -143.7,-15.1 -0.2,-1.6 4.2,0.3 0.2,1.6 z m 4.2,1.2 0.2,1.9 -4.2,-0.2 -0.2,-1.9 z m 0.9,-0.9 -0.2,-1.5 4.1,0.3 0.2,1.5 z m 4.3,1.2 0.2,1.9 -4.2,-0.2 -0.2,-1.9 z"
   id="path1-8"
   style="fill:#ffffff" />

	<path
   class="st0"
   d="m 342.1,197.3 c -0.3,-0.2 -0.6,-0.1 -0.9,0.1 -1.2,0.9 -1.3,5.6 0.3,5.7 1.9,-0.1 1.9,-5.1 0.6,-5.8 z m 0.7,3 c -0.2,3.5 -2.3,3.3 -2.1,-0.1 0.3,-3.7 2.3,-3.2 2.1,0.1 z"
   id="path2-6"
   style="fill:#ffffff" />

	<path
   class="st0"
   d="m 334.2,158.6 c -1.1,0 -3.7,-0.4 -4.7,0.2 0,0 -7.1,3.5 -7.1,3.5 -0.3,0.2 -0.1,0.7 0.2,0.5 0.8,-0.3 7.8,-3.1 8.5,-3.1 0,0 3,-0.5 3,-0.5 0.5,-0.1 0.5,-0.6 0.1,-0.6 z"
   id="path3-8"
   style="fill:#ffffff" />

	<path
   class="st0"
   d="m 322.7,166.2 c -1.2,0.1 -5,0.5 -6.2,0.7 -0.4,0 -0.7,0.4 -0.7,0.8 0,0.6 -0.1,1.4 0.7,1.3 0,0 6.2,-0.7 6.2,-0.7 0.1,0 0.2,0 0.3,-0.1 0.5,-0.2 0.4,-0.9 0.4,-1.4 0,-0.3 -0.3,-0.6 -0.7,-0.6 z"
   id="path4-6"
   style="fill:#ffffff" />

	<path
   class="st0"
   d="m 312.2,140.3 c -8.2,-2.3 -23.1,-2.2 -23.1,-2.2 0,0 1.6,7.2 2.4,13.2 l 26.6,1.4 c -2.9,-8 -5.9,-12.4 -5.9,-12.4 z"
   id="path5-7"
   style="fill:#ffffff" />

	<path
   class="st0"
   d="m 298.1,159.2 c 0.2,-0.4 0,-0.8 -0.5,-0.8 -0.8,0 -2.2,-0.1 -3.3,-0.3 -0.4,-0.1 -0.7,0.2 -0.6,0.6 0.1,0.7 0.1,2 0.7,2.7 0,0 0,0 0,0 0.3,0.3 0.7,0.1 1.1,0 0.8,-0.2 1.8,-0.8 2.6,-2.2 z"
   id="path6-4"
   style="fill:#ffffff" />

	<path
   class="st0"
   d="m 299.4,157.1 c 0,0 0,0 0,0 0,-0.1 0,-0.2 0,-0.2 0,0 0,0 0,0 0,-0.1 0,-0.1 0,-0.2 0,-0.1 0,-0.1 0,-0.2 0,0 0,0 0,-0.1 0,-0.1 0,-0.1 -0.1,-0.2 0,-0.1 0,-0.1 -0.1,-0.2 0,0 0,-0.1 -0.1,-0.1 0,0 0,-0.1 0,-0.1 -0.1,-0.2 -0.2,-0.4 -0.4,-0.7 0,0 0,0 0,0 -0.1,-0.2 -0.3,-0.4 -0.5,-0.6 0,0 -0.1,-0.1 -0.1,-0.1 -0.2,-0.2 -0.4,-0.4 -0.7,-0.5 -0.2,-0.1 -0.3,-0.2 -0.5,-0.3 -0.3,-0.1 -0.5,-0.2 -0.8,-0.3 0,0 -0.1,0 -0.1,0 0,0 0,0 -0.1,0 -0.1,0 -0.1,0 -0.2,0 0,0 -0.1,0 -0.1,0 0,0 -0.1,0 -0.1,0 0,0 -0.1,0 -0.1,0 0,0 -0.1,0 -0.1,0 0,0 0,0 0,0 0,0 0,0 -0.1,0 -0.5,0 -0.9,0 -1.4,0.1 0,0 -0.1,0 -0.1,0 -2.7,0.6 -4.3,3.9 -2.8,6.3 -0.5,0.6 -1.8,2 -2.3,2.6 0,0 -0.6,0.7 -0.6,0.7 -0.1,0.1 -0.4,0.4 -0.4,0.5 0,0.3 0.4,0.4 0.6,0.2 0,0 0.7,-0.8 0.7,-0.8 0.7,-0.8 1.7,-1.9 2.4,-2.7 0.4,0.4 0.9,0.9 1.6,1.2 -0.6,-0.3 -1.1,-0.8 -1.4,-1.4 0.1,-0.1 2,-2.1 1.8,-2.2 0,-0.3 -0.4,-0.4 -0.6,-0.2 0,0 -1.6,1.8 -1.6,1.8 -0.1,-0.3 -0.2,-0.7 -0.3,-1 -0.3,-2 1,-4.1 3,-4.6 0,0 0.1,0 0.1,0 0.4,-0.1 0.8,-0.1 1.3,-0.1 0,0 0,0 0.1,0 0,0 0,0 0,0 0,0 0.1,0 0.1,0 0,0 0.1,0 0.1,0 0,0 0.1,0 0.1,0 0,0 0.1,0 0.1,0 0,0 0,0 0.1,0 0,0 0.1,0 0.1,0 0,0 0,0 0.1,0 0,0 0.1,0 0.1,0 0.3,0.1 0.5,0.2 0.7,0.3 0.2,0.1 0.3,0.2 0.5,0.3 0.2,0.2 0.4,0.3 0.6,0.5 0,0 0.1,0.1 0.1,0.1 0.1,0.1 0.2,0.2 0.2,0.3 0,0 0.1,0.1 0.1,0.1 0,0 0.1,0.1 0.1,0.1 0,0 0,0 0,0 0,0 0.1,0.1 0.1,0.1 0.1,0.2 0.2,0.3 0.2,0.5 0,0 0,0 0,0.1 0,0 0,0.1 0.1,0.1 0,0.1 0,0.1 0.1,0.2 0,0.1 0,0.1 0.1,0.2 0,0 0,0 0,0.1 0,0.1 0,0.1 0,0.2 0,0.1 0,0.1 0,0.2 0,0 0,0 0,0 0,0.1 0,0.1 0,0.2 0,0 0,0 0,0 0,0 0,0.1 0,0.1 0.1,1.3 -0.4,2.6 -1.4,3.4 -0.2,0.1 -0.3,0.3 -0.5,0.4 1.5,-0.7 2.5,-2.3 2.3,-4.1 0,0.1 0,0 0,0 z"
   id="path7-0"
   style="fill:#ffffff" />

	<path
   class="st0"
   d="m 288.1,138.3 c 0.1,4.3 -0.3,9 -0.8,12.9 h 3.2 c -0.9,-6.4 -2.4,-12.9 -2.4,-12.9 z"
   id="path8-0"
   style="fill:#ffffff" />

	<path
   class="st0"
   d="m 282.8,139.6 c 0,0 0,0 0,0 l -29.6,0.2 2.4,11.6 h 1.8 c 2.8,-1.3 6.4,-1.2 9.3,-0.1 l 15.6,-0.1 c 0.4,-4.6 0.6,-8.8 0.7,-11.5 z"
   id="path9-8"
   style="fill:#ffffff" />

	<path
   class="st0"
   d="m 250.7,216.9 c 3.6,-0.2 3.9,-9.5 0.6,-9.9 -3.1,-0.2 -4.3,9.2 -0.6,9.9 z m -1.6,-5 c 0.2,-2.6 1.2,-4.8 2.7,-4.2 2.2,1 1.6,8.7 -0.9,8.7 -1.2,-0.1 -2,-2.1 -1.8,-4.5 z"
   id="path10-7"
   style="fill:#ffffff" />

	<path
   class="st0"
   d="m 241.1,191.9 -8.9,0.8 c -0.7,0.1 -1.1,0.6 -1.1,1.3 l 0.4,5.1 c 0.1,0.7 0.7,1.2 1.3,1.1 l 8,-1 c 0.6,-0.1 1,-0.5 1.1,-1.1 l 0.5,-4.9 c 0.1,-0.8 -0.6,-1.4 -1.3,-1.3 z m 0.1,5.9 c 0,0.2 -0.1,0.3 -0.3,0.3 l -8.2,1 c -0.5,0 -0.4,-0.5 -0.4,-0.8 0,-0.2 0.1,-0.3 0.3,-0.4 l 8.3,-0.9 c 0.4,0 0.3,0.5 0.3,0.8 z m 0.1,-1.9 c 0,0.2 -0.1,0.3 -0.3,0.3 l -8.4,0.9 c -0.2,0 -0.4,-0.1 -0.4,-0.3 0,-0.3 -0.2,-0.9 0.3,-0.9 0,0 8.5,-0.8 8.5,-0.8 0.5,-0.1 0.3,0.5 0.3,0.8 z m 0.1,-2 c 0,0.2 -0.1,0.3 -0.3,0.3 l -8.7,0.8 c -0.5,0 -0.4,-0.7 -0.4,-1 0,-0.2 0.1,-0.3 0.3,-0.4 l 8.7,-0.7 c 0.6,0 0.4,0.7 0.4,1 z"
   id="path11-6"
   style="fill:#ffffff" />

	<path
   class="st0"
   d="m 239.5,163.9 c -25.8,0.4 -40.4,-1.3 -43.3,-2.2 -1.5,-0.5 -1.9,-1 -1.9,-1.4 0,-0.4 -0.4,-0.8 -0.8,-0.7 -13.2,1.3 -36.8,5 -32.7,6.4 0,0 38.9,1.3 38.9,1.3 0,0 38.8,-2.7 39.9,-2.7 1,-0.1 1.5,-0.8 -0.1,-0.7 z"
   id="path12-4"
   style="fill:#ffffff" />

	<path
   class="st0"
   d="m 199.1,153.7 c 3.6,-0.1 6.5,-0.1 7.1,-0.1 0.7,-0.1 1.7,0.1 2.1,0.3 1.1,0 11.2,0.4 12,0.2 1.2,-0.1 2.9,-0.5 4.1,-0.3 0,0 2.8,0.2 2.8,0.2 0.9,-6 3.1,-12.2 4.5,-16.1 0,0 -14.3,-2.2 -27.1,-1.7 0,0 -7.9,10.1 -11.4,17.5 z"
   id="path13-6"
   style="fill:#ffffff" />

	<path
   class="st0"
   d="m 223.5,202.4 2.4,0.1 c 0.2,0 0.3,-0.1 0.3,-0.3 l -0.1,-2.1 c 0,-0.3 -0.3,-0.3 -0.5,-0.1 -0.6,1 -1.5,1.6 -2.2,2 -0.2,0 -0.1,0.4 0.1,0.4 z"
   id="path14-3"
   style="fill:#ffffff" />

	<path
   class="st0"
   d="m 222.7,188 h 2 c 0.1,0 0.3,-0.1 0.3,-0.3 l -0.1,-2.2 c 0,-0.3 -0.4,-0.3 -0.5,-0.1 -0.3,0.7 -0.9,1.5 -1.9,2.1 -0.2,0.2 -0.1,0.5 0.2,0.5 z"
   id="path15-7"
   style="fill:#ffffff" />

	<path
   class="st0"
   d="m 217.3,169.5 -15.2,1.6 c -0.3,0 -0.3,0.5 0,0.5 l 9.4,0.3 c 1,0.1 1.8,-0.4 2.7,-0.8 1,-0.4 2.2,-0.8 3.2,-1.1 0.3,-0.1 0.2,-0.5 -0.1,-0.5 z"
   id="path16-8"
   style="fill:#ffffff" />

	<path
   class="st0"
   d="m 200.8,139.5 c -7,6.2 -13.3,14.4 -13.3,14.4 l 4.4,-0.3 c 2.1,-4.6 8.8,-14 8.9,-14.1 z"
   id="path17-4"
   style="fill:#ffffff" />

	<path
   class="st0"
   d="m 157.8,165.1 c 0.3,-0.1 0.5,-0.2 0.9,-0.2 0,0 0,0 0,0 0,0 0,0 0,0 4.9,-1.4 15.1,-3.6 22.2,-4.5 0,0 0,0 0,0 0.4,-0.1 0.8,-0.1 1.2,-0.2 0.3,-0.1 0.2,-0.6 -0.2,-0.6 -4.7,0 -12.1,0.3 -19.3,1.5 -8.9,1.5 -13.4,1 -15.1,0.6 -0.6,-0.1 -1.3,-0.1 -1.9,0 l -10.3,2.1 c -0.3,0.1 -0.3,0.4 -0.1,0.5 6.2,0.5 16,0.9 19.7,1.1 1,0.1 2,-0.1 2.9,-0.3 z"
   id="path18-6"
   style="fill:#ffffff" />

	<path
   class="st0"
   d="m 131.4,164.1 -12.1,1.7 c -0.2,0 -0.2,0.3 0,0.4 l 10.6,0.4 c 1,0.1 1.4,-1.3 1.9,-1.9 0.2,-0.3 0,-0.6 -0.4,-0.6 z"
   id="path19-8"
   style="fill:#ffffff" />

	<path
   class="st0"
   d="m 109.7,167 c -1.3,-0.1 -3.5,-0.1 -6.8,0.7 -0.6,0.1 -1,0.7 -0.8,1.3 0.3,1.1 0.8,3 1.2,5.3 0.9,2.9 5.2,-2.3 7.2,-5.7 0.4,-0.7 0,-1.5 -0.8,-1.6 z"
   id="path20-2"
   style="fill:#ffffff" />

	<path
   class="st0"
   d="m 106.7,163.4 -8.4,0.4 c -0.3,0 -0.3,0.4 -0.1,0.5 0.4,0.2 1,0.4 1.5,0.3 0,0 7.1,-0.7 7.1,-0.7 0.3,0 0.3,-0.5 -0.1,-0.5 z"
   id="path21-3"
   style="fill:#ffffff" />

	<path
   class="st0"
   d="m 100.6,192.3 h 1.5 c 0.2,0 0.3,-0.2 0.3,-0.4 l -0.2,-1.5 c 0,-0.3 -0.4,-0.4 -0.6,-0.1 -0.4,0.6 -0.8,1.1 -1.2,1.4 -0.2,0.2 -0.1,0.6 0.2,0.6 z"
   id="path22-0"
   style="fill:#ffffff" />

	<path
   class="st0"
   d="m 100.6,178.8 -0.1,-1.3 c 0,-0.2 -0.3,-0.3 -0.4,-0.1 -0.4,0.6 -0.9,1 -1.4,1.2 -0.2,0.1 -0.1,0.4 0.1,0.4 h 1.6 c 0.1,0.1 0.2,0 0.2,-0.2 z"
   id="path23-4"
   style="fill:#ffffff" />

	<path
   class="st0"
   d="m 93.8,179.9 h -2.3 c -0.1,0 -0.2,0.1 -0.2,0.2 l 0.3,3.3 c 0,0.2 0.4,0.3 0.4,0 0.4,-1.8 1.3,-2.7 2,-3.1 0.1,-0.1 0,-0.4 -0.2,-0.4 z"
   id="path24-4"
   style="fill:#ffffff" />

	<path
   class="st0"
   d="m 262.1,151 c -4.1,0 -7.7,2 -9.7,5.4 0.5,0.1 1,0.1 1.4,0.2 5.3,-7.8 17.1,-3.9 20.4,4 0,0 0,0 0,0 0.5,0.1 1,0.1 1.5,0.2 -2.2,-5.7 -7.7,-9.8 -13.6,-9.8 z"
   id="path25-3"
   style="fill:#ffffff" />

	<path
   class="st0"
   d="m 182.3,156.4 c 0.5,0 1,0.2 1.1,-0.1 0.5,-1.3 2.5,-0.8 3.8,-1 2.1,-0.1 7.9,-0.3 9.3,-0.3 l -3.9,0.4 c -0.4,0 -0.7,0.2 -0.8,0.5 9.6,0 18.3,0 27.6,0.3 0,-0.3 0.1,-0.5 0.4,-0.7 -3,-0.4 -8.4,-0.8 -10.8,-0.8 -1.1,-1.1 -2.3,-0.7 -3.9,-0.7 -2.7,0.1 -5.6,0.1 -8.3,0.1 -5.6,0.1 -11.8,0.2 -12.8,0.3 -0.9,0 -1.6,0.8 -1.7,1.6 -0.2,0.2 -0.1,0.3 0,0.4 z"
   id="path26-3"
   style="fill:#ffffff" />

	<path
   class="st0"
   d="m 261.1,158.8 c -0.1,-0.4 -0.4,-0.7 -0.9,-0.8 -1.2,-0.2 -3.3,-0.5 -6.1,-0.9 -6.3,-0.9 -13.2,-1.6 -19.7,-1.9 l -0.2,0.3 c 0,0 -7.3,-0.3 -13.8,0 -0.5,0 -0.8,0.4 -0.8,0.9 13.6,0.4 25,1.4 33.2,2.1 -0.1,-0.3 -0.3,-0.5 -0.6,-0.6 0,0 -3.3,-0.6 -3.3,-0.6 2.2,0.3 6.8,0.9 9,1.2 0.5,0.1 0.9,0.2 1.1,0.6 0.3,0.4 0.1,1.1 0.8,1.1 0.5,0 1.1,0.1 1.2,-0.5 0,-0.1 0,-0.3 0,-0.4 0.1,-0.3 0.1,-0.4 0.1,-0.5 z"
   id="path27"
   style="fill:#ffffff" />

	<path
   class="st0"
   d="m 93.3,166.7 c 0.2,-0.1 0.1,-0.3 -0.1,-0.3 l -1,-0.2 c 0,0 -0.1,0 -0.1,0 -0.3,0.1 -2.6,0.8 -2.4,2.7 0.1,1.4 0.2,2 0.2,2.2 0,0.3 0.5,0.1 0.6,0.1 0.1,0 0.2,-0.1 0.2,-0.2 0.1,-0.5 0.5,-3.2 2.6,-4.3 z"
   id="path28"
   style="fill:#ffffff" />

	<path
   class="st0"
   d="m 212.4,178.4 c 0.4,0 1.1,0.1 1.1,-0.1 0.1,-0.5 1,-3 3.5,-3.9 0.1,0 0.1,-0.2 0,-0.3 0,0 -0.5,-0.1 -0.5,-0.1 -0.3,0 -4.3,0.5 -4.1,4.2 -0.1,0.1 -0.1,0.2 0,0.2 z"
   id="path29-2"
   style="fill:#ffffff" />

	<path
   class="st0"
   d="m 216.2,188.7 -2.4,-0.4 c -0.2,0 -0.4,0.1 -0.3,0.3 l 0.3,3.6 c 0,0.3 0.5,0.4 0.6,0.1 0.5,-1.6 1.4,-2.6 2,-3.1 0.1,-0.2 0,-0.5 -0.2,-0.5 z"
   id="path30-9"
   style="fill:#ffffff" />

	<path
   class="st0"
   d="m 231.6,141.7 c 0,0.6 0.5,1 1.1,1 0,0 9.2,0 9.2,0 h 0.5 c 0.7,0 1.2,-0.6 1.1,-1.2 0,0 -0.2,-1.7 -0.2,-1.7 0,-0.6 -0.5,-1 -1.1,-1 -0.1,0 -5.1,0 -5.3,0 -0.3,-0.3 -0.4,-0.9 -0.1,-1.2 0,0 4.3,-4.1 4.3,-4.1 -0.4,0 -0.8,0 -1.1,0 l -3.8,3.5 c -0.6,0.5 -0.6,1.5 -0.2,2.1 0,0 0.7,1 0.7,1 0,0 -0.1,0 -0.1,0 -0.3,0.1 -0.6,-0.1 -0.6,-0.2 -0.1,-0.1 -0.6,-0.8 -0.8,-1.1 H 233 c -0.5,0 -1,0.4 -1.1,0.8 0,0.3 -0.3,1.9 -0.3,2.1 z m 0.4,0 c 0.1,-0.1 0.2,0 0.3,0 0,0 10,0 10,0 0.1,0 0.2,-0.1 0.2,-0.2 l -0.2,-2.1 c -0.2,-0.8 0.7,-0.1 0.7,0.3 0,0 0.2,1.7 0.2,1.7 0,0.4 -0.3,0.9 -0.8,0.8 0,0 -9.6,0 -9.6,0 -0.3,0.2 -0.9,0 -0.8,-0.5 z"
   id="path31-7"
   style="fill:#ffffff" />

	<path
   class="st0"
   d="m 241.4,168.9 c -0.6,0 -17.6,1.2 -17.6,1.2 -0.4,0 -0.5,0.6 -0.1,0.8 0.8,0.2 1.8,0.8 2.7,0.7 1.5,-0.2 9.1,-1.3 15.1,-2.1 0.9,-0.3 0.5,-0.6 -0.1,-0.6 z"
   id="path32-9"
   style="fill:#ffffff" />

	<path
   class="st0"
   d="m 159.5,170.3 -3.9,2.1 c 0,0 0,0 0,0 l 0.4,-1.1 0.5,-0.6 c 0.3,-0.3 0.1,-0.8 -0.3,-0.8 0,0 -2.2,-0.3 -2.2,-0.3 0,0 -0.1,0 -0.1,0 l -2.4,0.3 c -0.6,0.1 -0.4,0.7 -0.3,1.1 l -0.1,0.5 -0.9,-1.6 c -0.3,-0.5 -1.1,-0.1 -0.9,0.4 0,0 2.4,5.7 2.4,5.7 0.1,0.2 0.3,0.3 0.5,0.3 0.1,0 0.2,0 0.3,-0.1 l 7.6,-5.1 c 0.4,-0.3 0,-1.1 -0.6,-0.8 z m -8,2.2 v 0 c 0,-0.1 0,-0.1 0,0 0,-0.1 0,-0.1 0,-0.1 v 0 0 c 0,0 0,0 0,0 v 0 0 c 0,0 0.3,-1.1 0.3,-1.2 l -0.2,-0.6 c 0.5,-0.1 1.4,-0.2 1.9,-0.2 h 0.1 c 0.1,0 0.3,0 0.4,0 0.4,0 1.8,0.2 2.2,0.3 l -0.6,0.6 -0.4,1.1 v 0 0 0 0 0 0 0 c 0,0 0,0 0,0 v 0 c 0,0 0,0 0,0.1 v 0 0 0 0 0 0 0 c 0,0 0,0 0,0 v 0 0 c 0,0 0,0 0,0 0,0 0,0 0,0 v 0 0 0 0 0 0 0 0 0 0 0 0 0 0 0 0 0 0 0 c 0,0 -0.1,0 -0.1,0 v 0 0 0 0 c 0,0 -0.1,0 -0.1,0 v 0 c -0.1,0 -0.2,0.1 -0.3,0.1 v 0 h -0.1 c -0.1,0 -0.1,0 -0.2,0.1 v 0 0 0 c 0,0 -0.1,0 -0.1,0 v 0 c 0,0 -0.1,0 -0.1,0 v 0 0 0 h -0.1 c 0,0 -0.1,0 -0.1,0 v 0 0 0 0 0 0 0 c 0,0 -0.1,0 -0.1,0 v 0 0 c 0,0 -0.1,0 -0.2,-0.1 v 0 0 c -0.1,0 -0.2,-0.1 -0.2,-0.1 v 0 c 0,0 0,0 0,0 v 0 0 c 0,0 -0.1,0 -0.1,0 v 0 c 0,0 0,0 -0.1,0 v 0 c 0,0 0,0 0,0 v 0 c 0,0 0,0 0,0 v 0 c 0,0 0,0 0,0 v 0 0 c 0,0 0,0 0,0 v 0 c 0,0 0,0 0,0 v 0 0 c 0,0 0,0 0,0 v 0 0 0 0 0 0 c -1.8,0.1 -1.8,0 -1.8,0 z m 6.8,-0.8 -6,4 -0.2,0.1 v 0 c -0.4,-0.9 -2,-4.7 -2.4,-5.7 0.4,0.7 2.2,3.7 2.6,4.4 0.1,-0.1 7,-3.7 7.4,-3.9 z"
   id="path33-7"
   style="fill:#ffffff" />

	<path
   class="st0"
   d="m 156.8,212.1 -2.4,1.3 c -0.1,-0.4 -0.6,-0.9 -0.9,-0.5 -0.3,0.4 0,1.2 0.5,1.3 0,0 0.1,0 0.1,0 v 0 l 0.1,0.1 c -0.3,0.4 0.1,1.2 0.5,1.2 0.7,0 0.5,-1 0.1,-1.3 l 2.9,-1.5 z"
   id="path34-1"
   style="fill:#ffffff" />

	<path
   class="st0"
   d="m 162.3,209.7 c -0.1,0 -0.2,0 -0.3,0.1 0.5,-0.4 0.1,-1.4 -0.4,-1.5 0,0 0,0 0,0 -0.4,0 -0.5,0.3 -0.5,0.7 v 0 c 0,0.2 0.1,0.4 0.3,0.6 l -1.5,0.8 c 0.7,-2 -0.8,-4.9 -2.9,-5.2 -2.2,-0.2 -2.8,2.5 -2.1,4.1 l -1.3,-1 c 0.3,-0.4 0,-1.3 -0.5,-1.3 0,0 0,0 0,0 -0.7,0 -0.5,1 -0.1,1.4 -1,-0.5 -0.9,1.3 -0.1,1.4 0,0 0,0 0,0 0.2,0 0.4,-0.2 0.5,-0.5 0.1,0.1 7.7,5.7 7.8,5.7 -0.2,0.4 0.1,1.3 0.5,1.3 0.6,0 0.4,-1.1 0.1,-1.4 l 0.1,-0.1 c 0.3,0.3 0.8,0 0.7,-0.5 0,-0.6 -0.9,-1 -1,-0.3 l -3.2,-2.3 c 0.1,0 0.2,0 0.3,-0.1 l 0.4,0.3 2.9,-1.5 c 0.1,0.3 0.3,0.6 0.6,0.7 0,0 0,0 0,0 0.7,0.1 0.4,-1.3 -0.3,-1.4 z m -4.1,-2.8 c 0,0 0,0 0,0 0.7,0 1.1,1.4 0.2,1.4 -0.7,0 -1.1,-1.5 -0.2,-1.4 z m -1.9,-0.2 c 0,0 0,0 0,0 0.7,0 1.1,1.4 0.2,1.4 0,0 0,0 0,0 -0.8,0 -1.1,-1.5 -0.2,-1.4 z m 3.2,2.5 c -0.1,3 -3.7,2 -4.1,-0.4 -0.3,-0.2 -0.2,-0.6 0.2,-0.5 0.3,0 0.6,0.4 0.3,0.6 0.4,1.9 3.1,2.6 3.2,0.3 -0.1,-0.1 -0.2,-0.2 -0.2,-0.3 0,-0.6 1.2,-0.1 0.6,0.3 z"
   id="path35-3"
   style="fill:#ffffff" />

</g>
  </g>
</svg>
