<?xml version="1.0" encoding="utf-8"?>
<!-- Generator: Adobe Illustrator 28.3.0, SVG Export Plug-In . SVG Version: 6.00 Build 0)  -->
<svg version="1.1" id="Print_Layer" xmlns="http://www.w3.org/2000/svg" xmlns:xlink="http://www.w3.org/1999/xlink" x="0px"
	 y="0px" viewBox="0 0 466.8 326.6" style="enable-background:new 0 0 466.8 326.6;" xml:space="preserve">
<style type="text/css">
	.st0{fill:#FFFFFF;}
</style>
<g id="White">
	<path class="st0" d="M371.1,158.5c-0.4-0.7-1.1-1.1-1.9-1.2l-31.6-2.4c-2.5-3.7-8.9-14.7-14.5-20.3c-0.7-0.4-17.7-8.8-69.5-8.8
		c-36.8,0-49.7,3.2-50.2,3.4c-1.2,0.3-2.5,1.3-3.4,2.2c-11.2,10.7-19.3,19.6-22,22.5c-5.6,0.5-17.9,1.8-30.8,4.3
		c-9.3,0.4-39.9,1.7-47.8,2.3c-3.4,0.3-6.1,0.8-8.2,1.9c-3.7,2.2-4.9,4-4.6,7c0.3,3.1,2.5,18.2,3.3,23.8c-0.5,0.3-1.2,0.7-1.2,1.3
		c0,0.2,0,1,0,1.1c0.1,0.5,0.6,1,1.2,1c0.5,1,2.6,5.5,3.4,7.2c1.1,2.2,2.6,6.7,8.1,6.4c3.8-0.3,11.5-0.7,15.2-1l0.3,2.4
		c1.2,9.2,8.1,18.5,17.5,18.5l8.2,0.4c0,0,0.1,0,0.1,0c5.9,0,11.5-3.8,14.8-10l1-2.3c8,0.6,10.7,1.5,16.8,0.2
		c1.2-0.5,3.1-0.4,4.2-0.4c1,0,15.3,0.4,19.7,0.5c1.7,0.1,4.1-0.6,5.8-0.9l2.2,0l10.1,1.1c0.8,1.4,2.2,2.7,3.8,3l0.4,2.5
		c1.5,8.5,5.6,17,14.5,17l9.9,0.1c8,0.3,14.8-7.7,17.6-19.8l1.1-0.2l3,0.1c1.5-0.1,50.7-10.9,52-11.1c1.7,6.5,5.4,10.2,10.2,10.3
		c0,0,7.3,0,7.7-0.1c8.7-1.2,12.3-12.8,12.3-21.3c4.2-1.3,13.6-4.2,18.7-6.4c1-0.4,1.7-1.2,2.2-2.1c0.7-1.4,2.3-5,3.2-9.8
		c0.1-0.6,0.5-3.3,0.5-4c0.1-1,0.1-1.9,0.1-2.9C374.5,164.3,371.2,158.7,371.1,158.5z M210.7,130.7c21.7-1.6,51.3-0.4,69.5,1.6
		c-11.5-0.5-26-1.6-35.6-1.6c-15.1-0.4-26.5-0.3-33.8,0.3C210,131,210,130.8,210.7,130.7z M96.8,206.2c-1-1.1-2.5-3.4-4-7.9
		c-0.1-0.4,0.2-0.8,0.6-0.7c0.8,0.1,2,0.2,2.9,0.2c0.3,0,0.5,0.2,0.5,0.5c0,1.2,0.1,4.5,0.9,7.4C97.8,206.2,97.1,206.6,96.8,206.2z
		 M92.1,192c0,0-3-20.4-3.2-22.8c-0.3-3.1,3.2-3.6,3.2-3.6c5,1,8.3,2.5,8.5,6.7c0,0,0,0,0,0c0.7,4.3,3.5,20.7,3.5,20.7L92.1,192z
		 M108,180.3c0.4,0,1.7-0.1,2.1-0.1c0.3,0,3.4,0.2,3.7,0.3l0.3,1.8c-1.7-0.1-4.3-0.4-5.9-0.1L108,180.3z M107.8,179.4l-0.2-2.1
		l4,0.1l1.7,0.1l0.4,1.9c-0.5,0-3.2-0.2-3.6-0.2C109.6,179.3,108.3,179.4,107.8,179.4z M114.6,179.6l-0.3-1.9l3.9,0.3l0.3,1.9
		L114.6,179.6z M118.6,180.8l0.3,1.8l-3.9-0.3l-0.3-1.8L118.6,180.8z M114.9,183.8c2.4,0.1,7.2,0.4,9.6,0.6c0.5,0,1,0.3,1.1,0.9
		c0,0,0.1,1.1,0.1,1.1l-6.1-0.4c-0.2-1-1.7-1.1-2-0.1l-6-0.4l-0.1-0.7c-0.1-0.6,0.4-1.1,1-1.1C113,183.7,114.3,183.8,114.9,183.8z
		 M119.5,179.9l-0.3-1.9l3.9,0.3l0.3,1.9L119.5,179.9z M123.5,181.2l0.3,1.8l-3.8-0.3l-0.3-1.8L123.5,181.2z M176,198.4l-0.2-1.4
		c1.8,0.1,4.3,0.2,6.1,0.3l0.2,1.4L176,198.4z M176.6,207.7c-2.4-0.1-4.3-0.2-5.2-2.5l4.9,0.2L176.6,207.7z M175.7,196l-0.3-2.1
		c0.3,0,6,0.2,6.1,0.2c0.1,0.4,0.2,1.6,0.3,2.1C180.2,196.2,177.3,196.1,175.7,196z M183.1,203.5l0.2,1.3l-6.1-0.3l-0.1-1.3
		L183.1,203.5z M182.5,194.2c1.4,0.1,4.8,0.2,6.2,0.3l0.3,2.1c-1.8-0.1-4.4-0.2-6.2-0.3l0-0.1C182.7,195.6,182.6,194.8,182.5,194.2z
		 M183.4,205.8l0.3,2.3c-2.5-0.1-4.7-0.2-6.1-0.3l-0.3-2.2L183.4,205.8z M183,198.7l-0.2-1.4l6.2,0.3l0.2,1.4L183,198.7z
		 M190.4,203.7l0.1,1.4l-6.3-0.3l-0.2-1.3L190.4,203.7z M189.7,194.5l6.3,0.3l0.2,2.2l-6.3-0.3l0-0.4h0L189.7,194.5z M190.6,206.1
		l0.2,2.3c-1.9-0.1-4.2-0.2-6.2-0.3l-0.3-2.3L190.6,206.1z M190.2,199l-0.2-1.4l6.3,0.3l0.2,1.7l-4.5-0.5L190.2,199z M194.3,203.9
		l2.8,0.3l0.1,1.3l-5.7-0.3l-0.1-1.4L194.3,203.9z M196.7,192l1.1,0.1l0.2,1.9l-1.1,0L196.7,192z M197.2,206.4
		c0,0.2,0.2,2.2,0.2,2.4c-1.4-0.1-3.4-0.2-5.6-0.3l-0.2-2.3L197.2,206.4z M197.4,198l4.6,0.3l0.2,2l-4.6-0.6L197.4,198z M197.3,197
		l-0.2-2.2l1.2,0c0,0,0,0.1,0.1,0.1c0.5,1.4,2.3,1,3.4,1.1l0.1,1.2L197.3,197z M198.2,189.8c-0.3,0.3-0.5,0.8-0.5,1.3l-0.7,0l0,0
		l-0.4,0l-0.2-2l4.5,0.2l0,0.1C200,189.3,198.8,189,198.2,189.8z M196.3,188l-0.2-1.9l4.5,0.2l0.2,1.9L196.3,188z M195.9,185.2
		l-0.2-1.6l4.4,0.3l0.2,1.6L195.9,185.2z M195.9,193.8l-6.4-0.3l-0.2-1.9l6.4,0.3L195.9,193.8z M189.3,190.7l-0.2-2l6.4,0.3l0.2,2
		L189.3,190.7z M188.9,187.7l-0.2-1.9l6.4,0.3l0.2,1.9L188.9,187.7z M188.6,184.9l-0.2-1.7l5.7,0.2l0.7,0l0.2,1.7L188.6,184.9z
		 M188.4,191.6l0.2,1.9c-1.1,0-5.2-0.2-6.2-0.3l-0.2-1.9L188.4,191.6z M182,190.4l-0.3-2l6.3,0.3l0.2,2L182,190.4z M181.7,187.4
		l-0.2-1.9l6.3,0.3l0.2,1.9L181.7,187.4z M181.3,184.5l-0.2-1.6l6.3,0.2l0.2,1.7L181.3,184.5z M181.2,191.3l0.2,1.9
		c-1.4-0.1-4.7-0.2-6.1-0.2l-0.2-1.9L181.2,191.3z M174.9,190.1l-0.3-2l6.1,0.3l0.3,2L174.9,190.1z M174.7,196l-6.2-0.3l-0.3-2
		l6.1,0.2L174.7,196z M174.6,187.1l-0.2-1.9l6.1,0.3l0.2,1.9L174.6,187.1z M174.2,184.3l-0.2-1.6l6.1,0.2l0.2,1.6L174.2,184.3z
		 M174.1,191l0.2,2l-6.2-0.2l-0.3-2L174.1,191z M167.8,189.8l-0.3-2l6.2,0.3l0.3,2L167.8,189.8z M167.7,196.6l0.2,1.5l-6-0.2
		l-0.2-1.5L167.7,196.6z M161.6,195.4l-0.3-2l6,0.2l0.3,2L161.6,195.4z M167.4,186.8l-0.2-1.9l6.2,0.3l0.2,1.9L167.4,186.8z
		 M167.1,184l-0.2-1.6l6.2,0.2l0.2,1.6L167.1,184z M167,190.7l0.3,2l-6-0.2l-0.3-2L167,190.7z M133.4,190.4l0.3,1.7l-2.8-0.4
		l-0.2-1.6L133.4,190.4z M130.5,189.1l-0.2-1.6l2.7,0.3l0.3,1.7L130.5,189.1z M133.8,193.1l0.3,1.8l-2.8-0.4l-0.2-1.8L133.8,193.1z
		 M145.9,191.1l-0.3-1.9l3.2,0.4l0.3,1.9L145.9,191.1z M149.3,192.5l0.3,1.9l-3.2-0.5l-0.3-1.8L149.3,192.5z M145.8,196.6l-3-0.5
		l-0.3-1.9l3,0.4L145.8,196.6z M143.3,202.4l0.2,2l-2.8-0.4l-0.3-2L143.3,202.4z M140.3,201l-0.1-0.6l2.9,0.5l0.1,0.5L140.3,201z
		 M142.4,193.3l-0.3-1.8l3,0.4l0.3,1.8L142.4,193.3z M141.9,190.5l-0.3-1.8l3,0.3l0.3,1.9L141.9,190.5z M141.8,196l-3-0.5l-0.3-1.8
		l3,0.4L141.8,196z M139.4,201.8l0.3,2l-2.9-0.4l-0.2-2L139.4,201.8z M136.5,200.4l-0.1-0.6l2.8,0.5l0.1,0.6L136.5,200.4z
		 M138.4,192.7l-0.3-1.7l3,0.4l0.3,1.8L138.4,192.7z M138,190l-0.3-1.8l3,0.3l0.3,1.8L138,190z M137.8,195.4l-2.8-0.4l-0.3-1.8
		l2.8,0.4L137.8,195.4z M134.6,192.2l-0.3-1.7l2.8,0.4l0.3,1.7L134.6,192.2z M134.2,189.5l-0.3-1.7l2.8,0.3l0.3,1.7L134.2,189.5z
		 M135.4,199.6l0.1,0.6l-3.1-0.5l-0.1-0.7L135.4,199.6z M135.6,201.2l0.2,2l-2.3-0.3c-0.3-0.1-0.6-0.3-0.7-0.7l-0.3-1.5L135.6,201.2
		z M133.5,205.1c0.4,0.1,1.3,0,1.4,0.6c0,0,0.9,3.2,1.1,3.6c0.1,0.4,0.4,0.7,0.9,0.8c0.4,0.1,8.6,1.8,8.6,1.8
		c0.3,0.1,0.6,0.4,0.6,0.7c0.1,0.5-0.4,0.9-0.8,0.8c-2.2-0.5-7.4-1.6-8.6-1.8c-1.4-0.4-2.9-1.5-3.1-2.6c-0.1-0.4-0.5-1.9-0.8-3
		C132.6,205.5,133,205.1,133.5,205.1z M144.2,202.6l1.1,0.2c-0.3,0.6-0.3,1.2-0.4,1.9l-0.5-0.1L144.2,202.6z M144.1,201.6l-0.1-0.5
		l2.6,0.5l-0.5,0.4L144.1,201.6z M146.5,194.9l3.2,0.5l0.3,1.9l-3.2-0.5L146.5,194.9z M149.8,189.7l3.2,0.4l0.3,2l-3.2-0.4
		L149.8,189.7z M153.4,193l0.3,1.9l-3.2-0.5l-0.3-1.9L153.4,193z M153.9,195.9l0.2,1.6l-3.1-0.1l-0.3-1.9L153.9,195.9z M154,190.1
		l6,0.3l0.3,2l-6-0.2L154,190.1z M160.4,193.3l0.3,2l-6-0.3l-0.3-2L160.4,193.3z M160.8,196.3l0.2,1.5l-5.9-0.2l-0.2-1.5
		L160.8,196.3z M160.8,189.5l-0.3-2l6,0.3l0.3,2L160.8,189.5z M160.4,186.5l-0.2-1.8l6,0.3l0.2,1.9L160.4,186.5z M160.1,183.7
		l-0.2-1.6l6.1,0.2l0.2,1.6L160.1,183.7z M159.9,189.4l-6-0.3l-0.3-2l6,0.3L159.9,189.4z M153.4,186.2l-0.3-1.8l6.1,0.3l0.2,1.8
		L153.4,186.2z M153,183.4l-0.2-1.5l6.1,0.2l0.2,1.6L153,183.4z M152.9,189.1l-3.2-0.4l-0.3-2l3.2,0.4L152.9,189.1z M149.2,185.7
		l-0.3-1.8l3.2,0.4l0.3,1.8L149.2,185.7z M148.8,182.9l-0.2-1.5l3,0.4l0.2,0l0.2,1.5L148.8,182.9z M148.7,188.6l-3.2-0.4l-0.3-2
		l3.2,0.4L148.7,188.6z M145,185.2l-0.3-1.8l3.2,0.4l0.3,1.8L145,185.2z M144.6,182.4l-0.2-1.6l3.2,0.4l0.2,1.5L144.6,182.4z
		 M144.5,188.1l-3-0.3l-0.3-2l3,0.4L144.5,188.1z M141.1,184.7l-0.3-1.8l3,0.3l0.3,1.8L141.1,184.7z M140.6,182l-0.2-1.6l3,0.4
		l0.2,1.6L140.6,182z M140.5,187.6l-3-0.3l-0.3-2.1l2.9,0.3L140.5,187.6z M137.1,184.3l-0.3-1.8l2.9,0.3l0.3,1.8L137.1,184.3z
		 M136.7,181.5l-0.2-1.7l2.9,0.4l0.2,1.6L136.7,181.5z M136.6,187.2l-2.8-0.3l-0.3-2.1l2.8,0.3L136.6,187.2z M133.4,183.8l-0.3-1.8
		l2.8,0.3l0.3,1.8L133.4,183.8z M133,181.1l-0.3-1.7l2.8,0.4l0.3,1.7L133,181.1z M132.9,186.7l-2.7-0.3l-0.3-2.1l2.7,0.3
		L132.9,186.7z M127.8,187.2l1.5,0.1l0.2,1.6l-2-0.1C127.9,188.4,127.9,187.7,127.8,187.2z M129.7,189.9l0.2,1.6l-3.8-0.3l-0.3-1.6
		L129.7,189.9z M130,192.5l0.2,1.8l-2.9-0.4l-0.9-0.1l-0.2-1.5L130,192.5z M129.7,183.4l-0.2-1.8l2.6,0.3l0.3,1.8L129.7,183.4z
		 M129.4,180.7l-0.2-1.8l2.6,0.3l0.3,1.7L129.4,180.7z M129.2,186.3l-1.5-0.1c0-0.9-0.1-1.8-1.1-2.1l2.3,0.2L129.2,186.3z
		 M124.7,183l-0.3-1.8l4.1,0.3l0.2,1.8L124.7,183z M125.2,192.2l0.2,1.5l-3.7-0.3l-0.3-1.6L125.2,192.2z M121.3,190.9l-0.3-1.6
		l3.7,0.3l0.3,1.6L121.3,190.9z M125.1,188.6c-0.1,0.2-4.5-0.2-4.7-0.2c0,0-4.8-0.3-4.8-0.3c-0.4,0-2.7-0.2-3.1-0.2
		c-0.5,0-0.8-0.4-0.9-0.9c0,0-0.1-1-0.1-1l5.9,0.4c0.2,0.9,1.6,1,2,0.1l6.2,0.4C125.8,187.6,125.8,188.3,125.1,188.6z M120.5,191.8
		l0.3,1.6l-3.8-0.3l-0.3-1.6L120.5,191.8z M116.6,190.5l-0.3-1.6l3.8,0.3l0.3,1.6L116.6,190.5z M124.3,180.3l-0.3-1.9l3.9,0.3l0.2,0
		l0.2,1.8L124.3,180.3z M108.3,183.1c1.1-0.1,2.6-0.1,3.8,0c-0.9,0.2-1.4,1.1-1.2,1.9c-0.6,0-1.8,0.1-2.4,0.1L108.3,183.1z
		 M108.6,186.1c0.6,0,1.8-0.2,2.4-0.1c0.1,0.4,0.1,1.3,0.3,1.7c-0.7-0.1-1.8,0.1-2.5,0.1L108.6,186.1z M108.9,188.7
		c1.5-0.3,4.8,0.1,6.4,0.2l0.3,1.6c-1.8-0.1-4.8-0.5-6.5-0.2L108.9,188.7z M109.2,191.2c1.7-0.3,4.9,0.1,6.6,0.2l0.3,1.6l-6.7-0.5
		L109.2,191.2z M115.8,205.4c-1.4-2.2-2.3-4.4-3.6-7c-0.6-1.4,1.4-2.3,2.1-1c0.9,1.9,3.2,6.4,3.2,6.4c0.3,0.8,1.1,1.4,1.9,1.5l9.5,1
		c0.3,0,0.6,0.2,0.8,0.5c0.5,0.7-0.1,1.6-0.9,1.5c-2.8-0.3-7.4-0.7-9.9-1C117.6,207.2,116.4,206.5,115.8,205.4z M142.7,228.3
		c-0.6,0-7.4-0.4-8.2-0.4c-8,0-14.6-8.2-15.4-18.6c3.2,0.3,10.3,1.1,13.4,1.4c0,0,0.2,1.6,2.9,2.2c2.7,0.6,11.1,2.3,11.1,2.3
		s0.2,1.2,1.4,1.9c0.3,0.1,0.6,0.3,1,0.3c0.9,0.1,3.7,0.4,7,0.7C153.3,224.2,148.3,228.3,142.7,228.3z M167.6,218.3l-19.2-2.3
		c-0.5-0.1-0.9-0.5-1-1l-1.1-10.8c-0.1-0.7,0.5-1.3,1.2-1.2l19.1,1.7c0.5,0,0.9,0.5,1,1l1.2,11.4
		C168.9,217.8,168.3,218.4,167.6,218.3z M168.7,196.6l6.1,0.3l0.2,1.4l-6.1-0.3L168.7,196.6z M169.6,202.9l6.4,0.2l0.1,1.3l-5.4-0.2
		C170.5,203.7,170,203.3,169.6,202.9z M212.1,216.7l-5.6-0.8c-0.6-0.1-1.2,0-1.8,0.1c-1.5,0.4-4.2,1.4-5.7,1.3
		c-4.5-0.1-21.1-0.4-22.2-0.4c-1.3,0-3,0.7-3.6,1.1c-0.5,0.3-1.7,0.7-1.8-0.3c0,0-0.8-7.3-0.8-7.3c-0.1-0.5,0.5-0.9,0.9-0.7
		c0.4,0.2,1.4,0.2,1.4,0.9c0,0,0.7,4.8,0.7,4.8c0.3,1.2,1.6,0.2,2.3,0.2c0,0,22.6,0.4,22.6,0.4c0.5,0,1-0.1,1.5-0.2
		c1.2-0.3,5.2-1.7,6.3-1.4c0,0,6.2,0.9,6.2,0.9C213.2,215.4,213,216.8,212.1,216.7z M202.8,197.4l-0.1-1.2c0,0,3.9,0.2,4.1,0.2
		l0.2,1.3L202.8,197.4z M207.1,198.7l0.3,2.2l-4.2-0.5l-0.2-2L207.1,198.7z M207.9,197.8l-0.2-1.3c0,0,4,0.2,4.2,0.2l0.2,1.4
		L207.9,197.8z M212.2,199.1l0.3,2.5l-4.2-0.5l-0.3-2.3L212.2,199.1z M217.5,217.1c-1.2-1.8-2.6-4.5-4-8.8c-0.2-0.6,0.3-1.1,0.9-0.9
		c0.6,0.2,1.3,0.3,2.1,0.4c0.4,0,0.6,0.3,0.7,0.7c0.1,1.3,0.4,4.5,1.7,7.9C219,217.3,217.9,217.8,217.5,217.1z M267.5,213.2
		c-0.8,1.4-3.1,5.6-3.1,5.6l-2.9,0.7c-2.3,11.6-8.7,19.9-15.6,19.4l-10.1-0.1c-6.2-0.5-11-7-12.2-17.1c2.5-0.3,9.8-1.5,12.7-2
		c0,0,2.7-1.8,4.7-4.9c0,0,0,0,0,0c0.3-0.5,0.6-1,0.9-1.6c0.1,21.3,14.3,20.2,15.8-0.5c1.1-13.2-7-24.3-13.4-11.2
		c0.3-1.2,0.5-2.3,0.8-3.5c8-11.3,14.7,2.3,13.5,14.9c0,0,0,0,0,0c-0.8,12.5-8.8,24.3-15.1,13.8c0,0,0,0,0,0c-1-1.9-1.6-3.9-2-6
		c-0.1-0.3-0.2-0.2-0.1,0c0,0,0,0,0,0l0,0c0.5,3.1,1.4,6.3,3.3,8.8c0,0,0,0,0,0c0.6,0.7,1.2,1.4,2,1.9c6.7,3.7,12.3-6.9,13.2-18.5
		c1.3-14.2-6.1-28.3-14.5-16.1c0.4-1.8,0.9-3.5,1.2-4.6c1-2.9,3.5-4.3,5.2-4.7c1.8-0.4,8.3-1.3,11.2-1.4c2.8-0.1,4.3,1.5,4.8,2.3
		c0.5,0.8,2.1,2.6,3,9.8C271.8,205.4,268.3,211.8,267.5,213.2z M244.4,203.3c5.3-12.9,13.2-3.9,12.2,9.3
		c-0.5,10.8-7.3,20.6-12.3,10.6c-1.4-3-2-8.1-1.6-12.6l1.9-6.4L244.4,203.3z M371.8,178C371.8,178.1,371.8,178.1,371.8,178
		c-19.7,3.2-60.9,9.7-80.3,12.8v0c-0.1,0-16.9,2.7-17,2.7c-0.8,0.1-0.6,1.3,0.2,1.2l16.6-2.6l0.1,0v0c19.2-3,60.7-9.3,80.2-12.3
		c-0.5,3.1-1.2,5.5-2.4,8.3c-0.5,1.1-0.6,1.7-1.3,2.4c-5,2.4-10.8,4.1-16.1,5.8l0.5-1.4c0.2-0.5-0.3-1.1-0.8-1c-1.2,0.2-5,1-6,1.2
		c-3.8,0.8-8.3,1.7-12.2,2.5l-4.8,8.4l8.2-7.5c-0.7,5.3,0.9,12.4,3.7,12.4c3.9,0.4,5.9-10,5-15.2c0.1,0,0.3-0.1,0.4-0.1
		c0.9,5.6-1.4,16.7-5.4,16.3c-1.6-0.1-2.8-2.2-3.5-5.2c-0.1-0.2-0.1-0.2-0.1,0c0.7,3.6,2.1,6,3.9,6.2c4.2,0.4,6.7-11.4,5.8-17.5
		l0.7-0.1c0.8,6.1-0.2,12.8-3.5,18.1c-1.5,2.3-3.8,4.6-6.7,4.8c0,0-0.2,0-0.2,0c0,0-7.1,0-7.1,0c-5.3-0.7-7.2-5.8-8.1-10.8
		c-9.6,2.1-44.9,9.6-53.8,11.6c6.6-12,7.6-20.7,3.2-30.2c-1.6-3.3-5.3-3.7-6.8-3.7c-2.1,0.2-10.9,0.4-14.4,1.9c0,0,0,0,0,0
		c-4.3,2.2-5.2,10-6,14.1c-0.1,0-0.4,0-0.5,0.1c0,0-14.6,1.6-14.6,1.6c-0.2-2.6-2-21.3-2.2-23.3c-0.1-0.7-0.2-1.7-0.8-2.7
		c28.2-3.5,51-5.1,65.3-5.9c13.5-0.7,21.2-0.8,21.3-0.8c0.4,0,0.4-0.6,0-0.6c-20.9-1.3-82.7,5.2-87.6,6c-1.4-1.4-3.9-2.7-8.3-3.3
		c-1.2,0.3-2.7,0.7-4.2,2.4c-0.6,1.3-0.5,2.8-0.4,4.1c-0.1-2.2,0.1-4.7,4.7-5.2c0,0,8,0.8,8.5,5.8c0.3,2.8,0.9,9.9,1.4,15.6v0
		c0.4,4.4,0.7,8,0.7,8c-3.5-0.3-9.9-0.8-13.5-1.1c0,0-0.2,0-0.2,0l-0.3-2.8l0.3,0l-0.1-0.8l-0.4,0l-0.2-1.5l0.4,0c0,0,0-0.3-0.1-0.8
		c-0.1,0-0.5,0-0.6,0l-0.1,0c-2.6-0.1-6.6-0.3-9.3-0.5c-0.3,0-0.9,0-1.2-0.1c0,0-2.1-0.1-2.1-0.1c-0.5,0-0.9-0.4-1-0.8
		c0-0.1,0-0.1,0-0.2l0,0l-0.2-1.3l6.1,0.3c0.2,1,1.7,1.1,2,0.1l6.2,0.3c0-0.4-0.1-0.7,0-0.7l-6.1-0.3c-0.2-1-1.7-1.1-2-0.1l-6.2-0.3
		c0-0.2-0.1-0.5-0.1-0.8l0-0.5c0-0.6,0.6-1.2,1.2-1.1l1.7,0.1c0.3,0,0.9,0.1,1.2,0.1c3,0.2,7.2,0.4,10.2,0.6c0-0.4-0.1-1.2-0.1-1.7
		l-0.7,0l-0.2-1.9l0.7,0l-0.1-0.9l-0.7,0l-0.1-1.6l0.7,0c-0.1-0.9-0.2-1.9-0.2-2.6l-17.2-1.1l-43.1-1.7l-23.3-3l-16.7-1.4l-0.8-0.1
		l-4.2,0.1c-0.7,0-1.2,0.6-1.1,1.3l2.1,16.6l-2,0.1c-2.5-14.3-3.5-21.1-4.3-23.7c-0.2-0.8-0.7-1.4-1.3-1.8c-3.8-2.4-7.7-2.9-7.7-2.9
		c2.5-1.2,5.9-1.5,8.8-1.7c3.8-0.2,8.6-0.5,12.6-0.7c10.8-0.5,23-1,33.6-1.5c13.5-2.6,26.3-3.9,31.7-4.4
		c1.4-1.6,10.1-11.3,22.5-23.1c11.8-2.3,69.5-0.2,82.3,1.9c0.5,0.1,0.9,0.5,0.9,1c-0.1,3.4-0.7,16.9-2.2,25.7
		c0.7,0.1,1.3,0.2,1.7,0.3c0.2-0.9,2.7-10.9,2.6-26c0-0.6,0.5-1.1,1.1-1.1c3.8-0.2,16.9-0.5,26.9,1.8c0,0,6.4,10.8,9.5,22.8l5.2-2.8
		c0.3,0,5.2,0.4,5.3,0.4L322.6,138c-0.1-0.1,0.1-0.2,0.2-0.1c4.9,6.1,9.2,12.8,13.2,19.2c0,0,0,0,0,0c0,0,0,0.1,0.1,0.1l32.9,2.5
		C371.6,164.9,372.5,171.7,371.8,178z M345.1,200.6c-0.3,5.4-2.3,9.7-4.6,9.6c-2.8,0-4.2-7.5-3.4-12.3c0.5-0.5,1.2-0.8,1.9-0.9
		c0,0,4.1-0.9,4.1-0.9c0.4-0.1,1.3-0.3,1.7-0.4C345.1,197.2,345.2,198.9,345.1,200.6z M201.4,185.5l-0.2-1.6l4.2,0.3l0.2,1.6
		L201.4,185.5z M205.6,186.7l0.2,1.9l-4.2-0.2l-0.2-1.9L205.6,186.7z M206.5,185.8l-0.2-1.5l4.1,0.3l0.2,1.5L206.5,185.8z
		 M210.8,187l0.2,1.9l-4.2-0.2l-0.2-1.9L210.8,187z"/>
	<path class="st0" d="M342.1,197.3c-0.3-0.2-0.6-0.1-0.9,0.1c-1.2,0.9-1.3,5.6,0.3,5.7C343.4,203,343.4,198,342.1,197.3z
		 M342.8,200.3c-0.2,3.5-2.3,3.3-2.1-0.1C341,196.5,343,197,342.8,200.3z"/>
	<path class="st0" d="M334.2,158.6c-1.1,0-3.7-0.4-4.7,0.2c0,0-7.1,3.5-7.1,3.5c-0.3,0.2-0.1,0.7,0.2,0.5c0.8-0.3,7.8-3.1,8.5-3.1
		c0,0,3-0.5,3-0.5C334.6,159.1,334.6,158.6,334.2,158.6z"/>
	<path class="st0" d="M322.7,166.2c-1.2,0.1-5,0.5-6.2,0.7c-0.4,0-0.7,0.4-0.7,0.8c0,0.6-0.1,1.4,0.7,1.3c0,0,6.2-0.7,6.2-0.7
		c0.1,0,0.2,0,0.3-0.1c0.5-0.2,0.4-0.9,0.4-1.4C323.4,166.5,323.1,166.2,322.7,166.2z"/>
	<path class="st0" d="M312.2,140.3c-8.2-2.3-23.1-2.2-23.1-2.2s1.6,7.2,2.4,13.2l26.6,1.4C315.2,144.7,312.2,140.3,312.2,140.3z"/>
	<path class="st0" d="M298.1,159.2c0.2-0.4,0-0.8-0.5-0.8c-0.8,0-2.2-0.1-3.3-0.3c-0.4-0.1-0.7,0.2-0.6,0.6c0.1,0.7,0.1,2,0.7,2.7
		c0,0,0,0,0,0c0.3,0.3,0.7,0.1,1.1,0C296.3,161.2,297.3,160.6,298.1,159.2z"/>
	<path class="st0" d="M299.4,157.1C299.4,157.1,299.4,157.1,299.4,157.1c0-0.1,0-0.2,0-0.2c0,0,0,0,0,0c0-0.1,0-0.1,0-0.2
		c0-0.1,0-0.1,0-0.2c0,0,0,0,0-0.1c0-0.1,0-0.1-0.1-0.2c0-0.1,0-0.1-0.1-0.2c0,0,0-0.1-0.1-0.1c0,0,0-0.1,0-0.1
		c-0.1-0.2-0.2-0.4-0.4-0.7c0,0,0,0,0,0c-0.1-0.2-0.3-0.4-0.5-0.6c0,0-0.1-0.1-0.1-0.1c-0.2-0.2-0.4-0.4-0.7-0.5
		c-0.2-0.1-0.3-0.2-0.5-0.3c-0.3-0.1-0.5-0.2-0.8-0.3c0,0-0.1,0-0.1,0c0,0,0,0-0.1,0c-0.1,0-0.1,0-0.2,0c0,0-0.1,0-0.1,0
		c0,0-0.1,0-0.1,0c0,0-0.1,0-0.1,0c0,0-0.1,0-0.1,0c0,0,0,0,0,0c0,0,0,0-0.1,0c-0.5,0-0.9,0-1.4,0.1c0,0-0.1,0-0.1,0
		c-2.7,0.6-4.3,3.9-2.8,6.3c-0.5,0.6-1.8,2-2.3,2.6c0,0-0.6,0.7-0.6,0.7c-0.1,0.1-0.4,0.4-0.4,0.5c0,0.3,0.4,0.4,0.6,0.2
		c0,0,0.7-0.8,0.7-0.8c0.7-0.8,1.7-1.9,2.4-2.7c0.4,0.4,0.9,0.9,1.6,1.2c-0.6-0.3-1.1-0.8-1.4-1.4c0.1-0.1,2-2.1,1.8-2.2
		c0-0.3-0.4-0.4-0.6-0.2c0,0-1.6,1.8-1.6,1.8c-0.1-0.3-0.2-0.7-0.3-1c-0.3-2,1-4.1,3-4.6c0,0,0.1,0,0.1,0c0.4-0.1,0.8-0.1,1.3-0.1
		c0,0,0,0,0.1,0c0,0,0,0,0,0c0,0,0.1,0,0.1,0c0,0,0.1,0,0.1,0c0,0,0.1,0,0.1,0c0,0,0.1,0,0.1,0c0,0,0,0,0.1,0c0,0,0.1,0,0.1,0
		c0,0,0,0,0.1,0c0,0,0.1,0,0.1,0c0.3,0.1,0.5,0.2,0.7,0.3c0.2,0.1,0.3,0.2,0.5,0.3c0.2,0.2,0.4,0.3,0.6,0.5c0,0,0.1,0.1,0.1,0.1
		c0.1,0.1,0.2,0.2,0.2,0.3c0,0,0.1,0.1,0.1,0.1c0,0,0.1,0.1,0.1,0.1c0,0,0,0,0,0c0,0,0.1,0.1,0.1,0.1c0.1,0.2,0.2,0.3,0.2,0.5
		c0,0,0,0,0,0.1c0,0,0,0.1,0.1,0.1c0,0.1,0,0.1,0.1,0.2c0,0.1,0,0.1,0.1,0.2c0,0,0,0,0,0.1c0,0.1,0,0.1,0,0.2c0,0.1,0,0.1,0,0.2
		c0,0,0,0,0,0c0,0.1,0,0.1,0,0.2c0,0,0,0,0,0c0,0,0,0.1,0,0.1c0.1,1.3-0.4,2.6-1.4,3.4c-0.2,0.1-0.3,0.3-0.5,0.4
		c1.5-0.7,2.5-2.3,2.3-4.1C299.4,157.2,299.4,157.1,299.4,157.1z"/>
	<path class="st0" d="M288.1,138.3c0.1,4.3-0.3,9-0.8,12.9h3.2C289.6,144.8,288.1,138.3,288.1,138.3z"/>
	<path class="st0" d="M282.8,139.6C282.8,139.6,282.8,139.6,282.8,139.6l-29.6,0.2l2.4,11.6l1.8,0c2.8-1.3,6.4-1.2,9.3-0.1l15.6-0.1
		c0.4-4.6,0.6-8.8,0.7-11.5L282.8,139.6z"/>
	<path class="st0" d="M250.7,216.9c3.6-0.2,3.9-9.5,0.6-9.9C248.2,206.8,247,216.2,250.7,216.9z M249.1,211.9
		c0.2-2.6,1.2-4.8,2.7-4.2c2.2,1,1.6,8.7-0.9,8.7C249.7,216.3,248.9,214.3,249.1,211.9z"/>
	<path class="st0" d="M241.1,191.9l-8.9,0.8c-0.7,0.1-1.1,0.6-1.1,1.3l0.4,5.1c0.1,0.7,0.7,1.2,1.3,1.1l8-1c0.6-0.1,1-0.5,1.1-1.1
		l0.5-4.9C242.5,192.4,241.8,191.8,241.1,191.9z M241.2,197.8c0,0.2-0.1,0.3-0.3,0.3l-8.2,1c-0.5,0-0.4-0.5-0.4-0.8
		c0-0.2,0.1-0.3,0.3-0.4l8.3-0.9C241.3,197,241.2,197.5,241.2,197.8z M241.3,195.9c0,0.2-0.1,0.3-0.3,0.3l-8.4,0.9
		c-0.2,0-0.4-0.1-0.4-0.3c0-0.3-0.2-0.9,0.3-0.9c0,0,8.5-0.8,8.5-0.8C241.5,195,241.3,195.6,241.3,195.9z M241.4,193.9
		c0,0.2-0.1,0.3-0.3,0.3l-8.7,0.8c-0.5,0-0.4-0.7-0.4-1c0-0.2,0.1-0.3,0.3-0.4l8.7-0.7C241.6,192.9,241.4,193.6,241.4,193.9z"/>
	<path class="st0" d="M239.5,163.9c-25.8,0.4-40.4-1.3-43.3-2.2c-1.5-0.5-1.9-1-1.9-1.4c0-0.4-0.4-0.8-0.8-0.7
		c-13.2,1.3-36.8,5-32.7,6.4c0,0,38.9,1.3,38.9,1.3c0,0,38.8-2.7,39.9-2.7C240.6,164.5,241.1,163.8,239.5,163.9z"/>
	<path class="st0" d="M199.1,153.7c3.6-0.1,6.5-0.1,7.1-0.1c0.7-0.1,1.7,0.1,2.1,0.3c1.1,0,11.2,0.4,12,0.2c1.2-0.1,2.9-0.5,4.1-0.3
		c0,0,2.8,0.2,2.8,0.2c0.9-6,3.1-12.2,4.5-16.1c0,0-14.3-2.2-27.1-1.7c0,0-7.9,10.1-11.4,17.5L199.1,153.7z"/>
	<path class="st0" d="M223.5,202.4l2.4,0.1c0.2,0,0.3-0.1,0.3-0.3l-0.1-2.1c0-0.3-0.3-0.3-0.5-0.1c-0.6,1-1.5,1.6-2.2,2
		C223.2,202,223.3,202.4,223.5,202.4z"/>
	<path class="st0" d="M222.7,188h2c0.1,0,0.3-0.1,0.3-0.3l-0.1-2.2c0-0.3-0.4-0.3-0.5-0.1c-0.3,0.7-0.9,1.5-1.9,2.1
		C222.3,187.7,222.4,188,222.7,188z"/>
	<path class="st0" d="M217.3,169.5l-15.2,1.6c-0.3,0-0.3,0.5,0,0.5l9.4,0.3c1,0.1,1.8-0.4,2.7-0.8c1-0.4,2.2-0.8,3.2-1.1
		C217.7,169.9,217.6,169.5,217.3,169.5z"/>
	<path class="st0" d="M200.8,139.5c-7,6.2-13.3,14.4-13.3,14.4l4.4-0.3C194,149,200.7,139.6,200.8,139.5z"/>
	<path class="st0" d="M157.8,165.1c0.3-0.1,0.5-0.2,0.9-0.2c0,0,0,0,0,0c0,0,0,0,0,0c4.9-1.4,15.1-3.6,22.2-4.5c0,0,0,0,0,0
		c0.4-0.1,0.8-0.1,1.2-0.2c0.3-0.1,0.2-0.6-0.2-0.6c-4.7,0-12.1,0.3-19.3,1.5c-8.9,1.5-13.4,1-15.1,0.6c-0.6-0.1-1.3-0.1-1.9,0
		l-10.3,2.1c-0.3,0.1-0.3,0.4-0.1,0.5c6.2,0.5,16,0.9,19.7,1.1C155.9,165.5,156.9,165.3,157.8,165.1z"/>
	<path class="st0" d="M131.4,164.1l-12.1,1.7c-0.2,0-0.2,0.3,0,0.4l10.6,0.4c1,0.1,1.4-1.3,1.9-1.9
		C132,164.4,131.8,164.1,131.4,164.1z"/>
	<path class="st0" d="M109.7,167c-1.3-0.1-3.5-0.1-6.8,0.7c-0.6,0.1-1,0.7-0.8,1.3c0.3,1.1,0.8,3,1.2,5.3c0.9,2.9,5.2-2.3,7.2-5.7
		C110.9,167.9,110.5,167.1,109.7,167z"/>
	<path class="st0" d="M106.7,163.4l-8.4,0.4c-0.3,0-0.3,0.4-0.1,0.5c0.4,0.2,1,0.4,1.5,0.3c0,0,7.1-0.7,7.1-0.7
		C107.1,163.9,107.1,163.4,106.7,163.4z"/>
	<path class="st0" d="M100.6,192.3l1.5,0c0.2,0,0.3-0.2,0.3-0.4l-0.2-1.5c0-0.3-0.4-0.4-0.6-0.1c-0.4,0.6-0.8,1.1-1.2,1.4
		C100.2,191.9,100.3,192.3,100.6,192.3z"/>
	<path class="st0" d="M100.6,178.8l-0.1-1.3c0-0.2-0.3-0.3-0.4-0.1c-0.4,0.6-0.9,1-1.4,1.2c-0.2,0.1-0.1,0.4,0.1,0.4l1.6,0
		C100.5,179.1,100.6,179,100.6,178.8z"/>
	<path class="st0" d="M93.8,179.9h-2.3c-0.1,0-0.2,0.1-0.2,0.2l0.3,3.3c0,0.2,0.4,0.3,0.4,0c0.4-1.8,1.3-2.7,2-3.1
		C94.1,180.2,94,179.9,93.8,179.9z"/>
	<path class="st0" d="M262.1,151c-4.1,0-7.7,2-9.7,5.4c0.5,0.1,1,0.1,1.4,0.2c5.3-7.8,17.1-3.9,20.4,4c0,0,0,0,0,0
		c0.5,0.1,1,0.1,1.5,0.2C273.5,155.1,268,151,262.1,151z"/>
	<path class="st0" d="M182.3,156.4c0.5,0,1,0.2,1.1-0.1c0.5-1.3,2.5-0.8,3.8-1c2.1-0.1,7.9-0.3,9.3-0.3l-3.9,0.4
		c-0.4,0-0.7,0.2-0.8,0.5c9.6,0,18.3,0,27.6,0.3c0-0.3,0.1-0.5,0.4-0.7c-3-0.4-8.4-0.8-10.8-0.8c-1.1-1.1-2.3-0.7-3.9-0.7
		c-2.7,0.1-5.6,0.1-8.3,0.1c-5.6,0.1-11.8,0.2-12.8,0.3c-0.9,0-1.6,0.8-1.7,1.6C182.1,156.2,182.2,156.3,182.3,156.4z"/>
	<path class="st0" d="M261.1,158.8c-0.1-0.4-0.4-0.7-0.9-0.8c-1.2-0.2-3.3-0.5-6.1-0.9c-6.3-0.9-13.2-1.6-19.7-1.9l-0.2,0.3
		c0,0-7.3-0.3-13.8,0c-0.5,0-0.8,0.4-0.8,0.9c13.6,0.4,25,1.4,33.2,2.1c-0.1-0.3-0.3-0.5-0.6-0.6c0,0-3.3-0.6-3.3-0.6
		c2.2,0.3,6.8,0.9,9,1.2c0.5,0.1,0.9,0.2,1.1,0.6c0.3,0.4,0.1,1.1,0.8,1.1c0.5,0,1.1,0.1,1.2-0.5c0-0.1,0-0.3,0-0.4
		C261.1,159,261.1,158.9,261.1,158.8z"/>
	<path class="st0" d="M93.3,166.7c0.2-0.1,0.1-0.3-0.1-0.3l-1-0.2c0,0-0.1,0-0.1,0c-0.3,0.1-2.6,0.8-2.4,2.7c0.1,1.4,0.2,2,0.2,2.2
		c0,0.3,0.5,0.1,0.6,0.1c0.1,0,0.2-0.1,0.2-0.2C90.8,170.5,91.2,167.8,93.3,166.7z"/>
	<path class="st0" d="M212.4,178.4c0.4,0,1.1,0.1,1.1-0.1c0.1-0.5,1-3,3.5-3.9c0.1,0,0.1-0.2,0-0.3c0,0-0.5-0.1-0.5-0.1
		c-0.3,0-4.3,0.5-4.1,4.2C212.3,178.3,212.3,178.4,212.4,178.4z"/>
	<path class="st0" d="M216.2,188.7l-2.4-0.4c-0.2,0-0.4,0.1-0.3,0.3l0.3,3.6c0,0.3,0.5,0.4,0.6,0.1c0.5-1.6,1.4-2.6,2-3.1
		C216.5,189,216.4,188.7,216.2,188.7z"/>
	<path class="st0" d="M231.6,141.7c0,0.6,0.5,1,1.1,1c0,0,9.2,0,9.2,0h0.5c0.7,0,1.2-0.6,1.1-1.2c0,0-0.2-1.7-0.2-1.7
		c0-0.6-0.5-1-1.1-1c-0.1,0-5.1,0-5.3,0c-0.3-0.3-0.4-0.9-0.1-1.2c0,0,4.3-4.1,4.3-4.1c-0.4,0-0.8,0-1.1,0l-3.8,3.5
		c-0.6,0.5-0.6,1.5-0.2,2.1c0,0,0.7,1,0.7,1c0,0-0.1,0-0.1,0c-0.3,0.1-0.6-0.1-0.6-0.2c-0.1-0.1-0.6-0.8-0.8-1.1H233
		c-0.5,0-1,0.4-1.1,0.8C231.9,139.9,231.6,141.5,231.6,141.7z M232,141.7c0.1-0.1,0.2,0,0.3,0c0,0,10,0,10,0c0.1,0,0.2-0.1,0.2-0.2
		l-0.2-2.1c-0.2-0.8,0.7-0.1,0.7,0.3c0,0,0.2,1.7,0.2,1.7c0,0.4-0.3,0.9-0.8,0.8c0,0-9.6,0-9.6,0C232.5,142.4,231.9,142.2,232,141.7
		z"/>
	<path class="st0" d="M241.4,168.9c-0.6,0-17.6,1.2-17.6,1.2c-0.4,0-0.5,0.6-0.1,0.8c0.8,0.2,1.8,0.8,2.7,0.7
		c1.5-0.2,9.1-1.3,15.1-2.1C242.4,169.2,242,168.9,241.4,168.9z"/>
	<path class="st0" d="M159.5,170.3l-3.9,2.1c0,0,0,0,0,0l0.4-1.1l0.5-0.6c0.3-0.3,0.1-0.8-0.3-0.8c0,0-2.2-0.3-2.2-0.3
		c0,0-0.1,0-0.1,0l-2.4,0.3c-0.6,0.1-0.4,0.7-0.3,1.1l-0.1,0.5l-0.9-1.6c-0.3-0.5-1.1-0.1-0.9,0.4c0,0,2.4,5.7,2.4,5.7
		c0.1,0.2,0.3,0.3,0.5,0.3c0.1,0,0.2,0,0.3-0.1l7.6-5.1C160.5,170.8,160.1,170,159.5,170.3z M151.5,172.5L151.5,172.5
		C151.5,172.4,151.5,172.4,151.5,172.5c0-0.1,0-0.1,0-0.1l0,0l0,0c0,0,0,0,0,0l0,0l0,0c0,0,0.3-1.1,0.3-1.2l-0.2-0.6
		c0.5-0.1,1.4-0.2,1.9-0.2l0.1,0c0.1,0,0.3,0,0.4,0c0.4,0,1.8,0.2,2.2,0.3l-0.6,0.6l-0.4,1.1l0,0l0,0l0,0l0,0l0,0l0,0l0,0
		c0,0,0,0,0,0l0,0c0,0,0,0,0,0.1l0,0l0,0l0,0l0,0l0,0l0,0l0,0c0,0,0,0,0,0l0,0l0,0c0,0,0,0,0,0c0,0,0,0,0,0l0,0l0,0l0,0l0,0l0,0l0,0
		l0,0l0,0l0,0l0,0l0,0l0,0l0,0l0,0l0,0l0,0l0,0l0,0l0,0c0,0-0.1,0-0.1,0l0,0l0,0l0,0l0,0c0,0-0.1,0-0.1,0l0,0
		c-0.1,0-0.2,0.1-0.3,0.1l0,0l-0.1,0c-0.1,0-0.1,0-0.2,0.1h0l0,0l0,0c0,0-0.1,0-0.1,0l0,0c0,0-0.1,0-0.1,0l0,0l0,0l0,0l-0.1,0
		c0,0-0.1,0-0.1,0l0,0l0,0l0,0l0,0l0,0l0,0l0,0c0,0-0.1,0-0.1,0l0,0l0,0c0,0-0.1,0-0.2-0.1l0,0l0,0c-0.1,0-0.2-0.1-0.2-0.1l0,0
		c0,0,0,0,0,0l0,0l0,0c0,0-0.1,0-0.1,0l0,0c0,0,0,0-0.1,0l0,0c0,0,0,0,0,0l0,0c0,0,0,0,0,0l0,0c0,0,0,0,0,0l0,0l0,0c0,0,0,0,0,0l0,0
		c0,0,0,0,0,0l0,0l0,0c0,0,0,0,0,0l0,0l0,0l0,0l0,0l0,0l0,0C151.5,172.6,151.5,172.5,151.5,172.5L151.5,172.5L151.5,172.5
		L151.5,172.5z M158.3,171.7l-6,4l-0.2,0.1l0,0c-0.4-0.9-2-4.7-2.4-5.7c0.4,0.7,2.2,3.7,2.6,4.4c0.1-0.1,7-3.7,7.4-3.9L158.3,171.7z
		"/>
	<path class="st0" d="M156.8,212.1l-2.4,1.3c-0.1-0.4-0.6-0.9-0.9-0.5c-0.3,0.4,0,1.2,0.5,1.3c0,0,0.1,0,0.1,0l0,0l0.1,0.1
		c-0.3,0.4,0.1,1.2,0.5,1.2c0.7,0,0.5-1,0.1-1.3l2.9-1.5L156.8,212.1z"/>
	<path class="st0" d="M162.3,209.7c-0.1,0-0.2,0-0.3,0.1c0.5-0.4,0.1-1.4-0.4-1.5c0,0,0,0,0,0c-0.4,0-0.5,0.3-0.5,0.7v0
		c0,0.2,0.1,0.4,0.3,0.6l-1.5,0.8c0.7-2-0.8-4.9-2.9-5.2c-2.2-0.2-2.8,2.5-2.1,4.1l-1.3-1c0.3-0.4,0-1.3-0.5-1.3c0,0,0,0,0,0
		c-0.7,0-0.5,1-0.1,1.4c-1-0.5-0.9,1.3-0.1,1.4c0,0,0,0,0,0c0.2,0,0.4-0.2,0.5-0.5c0.1,0.1,7.7,5.7,7.8,5.7
		c-0.2,0.4,0.1,1.3,0.5,1.3c0.6,0,0.4-1.1,0.1-1.4l0.1-0.1c0.3,0.3,0.8,0,0.7-0.5c0-0.6-0.9-1-1-0.3l-3.2-2.3c0.1,0,0.2,0,0.3-0.1
		l0.4,0.3l2.9-1.5c0.1,0.3,0.3,0.6,0.6,0.7c0,0,0,0,0,0C163.3,211.2,163,209.8,162.3,209.7z M158.2,206.9
		C158.2,206.9,158.2,206.9,158.2,206.9c0.7,0,1.1,1.4,0.2,1.4C157.7,208.3,157.3,206.8,158.2,206.9z M156.3,206.7
		C156.3,206.7,156.3,206.7,156.3,206.7c0.7,0,1.1,1.4,0.2,1.4c0,0,0,0,0,0C155.7,208.1,155.4,206.6,156.3,206.7z M159.5,209.2
		c-0.1,3-3.7,2-4.1-0.4c-0.3-0.2-0.2-0.6,0.2-0.5c0.3,0,0.6,0.4,0.3,0.6c0.4,1.9,3.1,2.6,3.2,0.3c-0.1-0.1-0.2-0.2-0.2-0.3
		C158.9,208.3,160.1,208.8,159.5,209.2z"/>
</g>
</svg>
