<?xml version="1.0" encoding="UTF-8" standalone="no"?>
<!-- Generator: Adobe Illustrator 28.3.0, SVG Export Plug-In . SVG Version: 6.00 Build 0)  -->

<svg
   version="1.1"
   id="Full_Outline"
   x="0px"
   y="0px"
   viewBox="0 0 430.86615 306.14173"
   xml:space="preserve"
   sodipodi:docname="1967_cadillac_deville FINAL_b.Silk.svg"
   inkscape:version="1.3.2 (091e20e, 2023-11-25)"
   inkscape:export-filename="1967_cadillac_deville FINAL_b.Silk1.pdf"
   inkscape:export-xdpi="96"
   inkscape:export-ydpi="96"
   width="114mm"
   height="81mm"
   xmlns:inkscape="http://www.inkscape.org/namespaces/inkscape"
   xmlns:sodipodi="http://sodipodi.sourceforge.net/DTD/sodipodi-0.dtd"
   xmlns:xlink="http://www.w3.org/1999/xlink"
   xmlns="http://www.w3.org/2000/svg"
   xmlns:svg="http://www.w3.org/2000/svg"><defs
   id="defs1"><linearGradient
     id="linearGradient712"
     inkscape:collect="always"><stop
       style="stop-color:#ffac11;stop-opacity:1;"
       offset="0"
       id="stop712" /><stop
       style="stop-color:#db1675;stop-opacity:1;"
       offset="0.5"
       id="stop714" /><stop
       style="stop-color:#892be1;stop-opacity:1;"
       offset="1"
       id="stop713" /></linearGradient><rect
     x="137.75255"
     y="138.14168"
     width="194.95488"
     height="43.193596"
     id="rect25" /><linearGradient
     id="linearGradient24"
     inkscape:collect="always"><stop
       style="stop-color:#892be1;stop-opacity:1;"
       offset="0"
       id="stop24" /><stop
       style="stop-color:#db1675;stop-opacity:1;"
       offset="1"
       id="stop25" /></linearGradient><linearGradient
     inkscape:collect="always"
     xlink:href="#linearGradient24"
     id="linearGradient25"
     x1="97.428589"
     y1="168.78786"
     x2="114.95543"
     y2="168.78786"
     gradientUnits="userSpaceOnUse"
     gradientTransform="matrix(0,1.2746125,-1.2746125,0,315.27888,33.3036)" /><linearGradient
     inkscape:collect="always"
     xlink:href="#linearGradient712"
     id="linearGradient713"
     x1="137.8497"
     y1="146.60625"
     x2="273.99033"
     y2="146.60625"
     gradientUnits="userSpaceOnUse"
     gradientTransform="translate(2e-6)" /></defs><sodipodi:namedview
   id="namedview1"
   pagecolor="#b2b2b2"
   bordercolor="#000000"
   borderopacity="0.25"
   inkscape:showpageshadow="2"
   inkscape:pageopacity="0.0"
   inkscape:pagecheckerboard="0"
   inkscape:deskcolor="#d1d1d1"
   inkscape:zoom="0.69009338"
   inkscape:cx="133.31529"
   inkscape:cy="251.41525"
   inkscape:window-width="1392"
   inkscape:window-height="860"
   inkscape:window-x="35"
   inkscape:window-y="38"
   inkscape:window-maximized="0"
   inkscape:current-layer="Full_Outline"
   shape-rendering="auto"
   inkscape:document-units="mm" />
<style
   type="text/css"
   id="style1">
	.st0{fill:#FFF200;}
</style>

<style
   type="text/css"
   id="style1-7">
	.st0{fill:#F287B7;}
</style><g
   inkscape:groupmode="layer"
   id="layer3"
   inkscape:label="back"
   style="display:inline" /><g
   inkscape:groupmode="layer"
   id="layer1"
   inkscape:label="silk"
   style="display:inline" /><g
   id="g714"><path
     style="fill:#0a7985;fill-opacity:0.866667;stroke:none;stroke-opacity:1"
     d="m 363.89062,191.65039 c -0.12041,0.045 -0.24184,0.0837 -0.36328,0.11719 z"
     id="path712" /><path
     style="fill:#0a7985;fill-opacity:0.866667;stroke:none;stroke-opacity:1"
     d="m 365.45898,190.68359 c -0.11525,0.10393 -0.23328,0.20192 -0.35351,0.29297 z"
     id="path709" /><path
     style="fill:#0a7985;fill-opacity:0.866667;stroke:none;stroke-opacity:1"
     d="m 366.14648,189.94141 c -0.10584,0.13578 -0.21486,0.26452 -0.32812,0.38671 z"
     id="path707" /><path
     style="fill:#ffac11;fill-opacity:1;stroke:none;stroke-opacity:1"
     d="m 242.16211,189.21289 c 0.17123,0.0732 0.33457,0.15427 0.49219,0.24414 z"
     id="path706" /><path
     style="fill:#ffac11;fill-opacity:1;stroke:none;stroke-opacity:1"
     d="m 240.03516,188.80469 c -0.18554,0.012 -0.37065,0.0355 -0.55274,0.0703 l 0.27539,-0.0449 z"
     id="path705" /><path
     style="fill:#ffac11;fill-opacity:1;stroke:none;stroke-opacity:1"
     d="m 242.81641,187.73828 c -0.17486,0.0678 -0.35514,0.12838 -0.54102,0.17774 z"
     id="path704" /><path
     id="path703"
     style="fill:#892be1;fill-opacity:1;stroke:none;stroke-opacity:1"
     d="m 237.2168,186.13086 0.18164,0.22266 0.18554,0.20507 H 87.876953 c 0.660624,1.92303 1.311834,3.39711 1.695313,4.16407 0.433615,0.78051 1.030402,1.46792 1.830078,1.90234 h 68.507816 a 3.2640001,3.2640001 0 0 1 -0.0312,-0.43164 3.2640001,3.2640001 0 0 1 3.26367,-3.26367 3.2640001,3.2640001 0 0 1 3.26367,3.26367 3.2640001,3.2640001 0 0 1 -0.0312,0.43164 h 3.13477 a 3.2640001,3.2640001 0 0 1 -0.0312,-0.43164 3.2640001,3.2640001 0 0 1 3.26367,-3.26367 3.2640001,3.2640001 0 0 1 3.26367,3.26367 3.2640001,3.2640001 0 0 1 -0.0312,0.43164 h 3.13477 a 3.2640001,3.2640001 0 0 1 -0.0313,-0.43164 3.2640001,3.2640001 0 0 1 3.26368,-3.26367 3.2640001,3.2640001 0 0 1 3.26367,3.26367 3.2640001,3.2640001 0 0 1 -0.0312,0.43164 h 46.17969 l 0.14062,-0.13281 0.20703,-0.0762 0.22071,0.008 0.87695,0.20312 h 1.96875 l -0.002,0.006 -0.12305,0.29688 c 0.0438,-0.11107 0.092,-0.21996 0.14062,-0.32813 -0.003,0.007 -0.009,0.0125 -0.0117,0.0195 l 0.1289,-0.27539 0.14649,-0.28125 0.15625,-0.27148 0.16796,-0.26367 0.17579,-0.25586 0.13281,-0.17578 c -0.005,0.006 -0.007,0.0136 -0.0117,0.0195 0.0124,-0.0162 0.0246,-0.0328 0.0371,-0.0488 -0.003,0.004 -0.007,0.006 -0.01,0.01 l 0.0371,-0.0488 0.19531,-0.23438 0.20313,-0.22461 0.21094,-0.21289 h 0.002 l 0.21875,-0.20312 0.22656,-0.18946 0.0996,-0.0762 c -0.004,0.003 -0.007,0.008 -0.0117,0.0117 0.0194,-0.015 0.039,-0.0302 0.0586,-0.0449 -0.004,0.003 -0.009,0.005 -0.0137,0.008 l 0.0996,-0.0762 0.23828,-0.16406 0.24609,-0.15039 c -0.19609,0.11391 -0.38554,0.24399 -0.57031,0.38281 0.43218,-0.32457 0.89751,-0.58514 1.38476,-0.76563 -0.10279,0.0381 -0.20392,0.0781 -0.30468,0.12305 l 0.25976,-0.10937 0.0586,-0.0215 c -0.005,0.002 -0.009,0.006 -0.0137,0.008 0.0135,-0.005 0.0275,-0.009 0.041,-0.0137 -0.005,0.002 -0.0106,1e-4 -0.0156,0.002 l 0.19336,-0.0664 c -0.0598,0.019 -0.11856,0.0431 -0.17773,0.0644 0.49497,-0.17836 1.01086,-0.27732 1.53711,-0.27929 l -0.25,0.008 c 0.0873,-0.005 0.17387,-0.01 0.26172,-0.01 -0.004,4.1e-4 -0.007,0.002 -0.0117,0.002 h 0.0215 c -0.002,0 -0.003,-9.6e-4 -0.004,-0.002 0.22019,0.0122 0.43302,0.0365 0.63867,0.0703 l -0.59961,-0.0644 c 0.27568,0.0173 0.53834,0.0544 0.79101,0.10547 0.0556,0.0111 0.10958,0.0245 0.16407,0.0371 0.22883,0.0536 0.44883,0.11934 0.6582,0.19922 0.0262,0.01 0.0562,0.0189 0.082,0.0293 0.50395,0.20231 0.95361,0.47837 1.34375,0.8125 0.003,0.003 0.009,0.007 0.0117,0.01 0.39372,0.33968 0.73048,0.73876 1.00977,1.18164 l -0.0918,-0.15039 c -0.0267,-0.0395 -0.0544,-0.0785 -0.082,-0.11719 l 0.041,0.0527 0.041,0.0644 c 0.0741,0.10971 0.1441,0.22259 0.21094,0.33789 l 0.0449,0.0723 0.0527,0.10547 c -0.032,-0.0597 -0.0637,-0.11937 -0.0977,-0.17774 l -0.11914,-0.1875 c 0.28076,0.44524 0.50449,0.93381 0.67187,1.45117 h 0.004 84.27343 v -0.33789 l 0.0723,-0.36133 0.20508,-0.30664 0.30664,-0.20507 0.36133,-0.0723 h 3.02343 l 0.36133,0.0723 0.30664,0.20507 0.20508,0.30664 0.0723,0.36133 v 0.33789 h 6.80273 v -0.33789 l 0.0723,-0.36133 0.20508,-0.30664 0.30664,-0.20507 0.36132,-0.0723 h 3.02344 l 0.36133,0.0723 0.30664,0.20507 0.20508,0.30664 0.0723,0.36133 v 0.33789 h 10.72071 l 0.004,-0.043 0.16016,-0.29101 0.25781,-0.20703 0.32031,-0.0937 1.69336,-0.14844 0.33008,0.0391 0.29102,0.15821 0.20703,0.25976 0.0937,0.31836 v 0.008 h 10.38476 c 0.20399,-1.42485 0.559,-3.9204 0.86719,-6.0664 h -3.77344 c -0.10425,0.64772 -0.29054,1.22016 -0.50781,1.75586 -0.0497,0.12243 -0.0918,0.25278 -0.14648,0.36914 -0.0709,0.151 -0.15166,0.28868 -0.23047,0.42968 -0.10884,0.19538 -0.21509,0.39493 -0.33789,0.57032 -0.0102,0.0145 -0.021,0.0305 -0.0312,0.0449 -0.18522,0.25969 -0.38557,0.4963 -0.59571,0.71094 -0.0136,0.0139 -0.0273,0.0273 -0.041,0.041 -0.21014,0.21028 -0.42991,0.39966 -0.6582,0.56446 -0.0169,0.012 -0.0339,0.0234 -0.0508,0.0352 -0.22727,0.15991 -0.46237,0.29786 -0.70117,0.41211 -0.0194,0.009 -0.0392,0.0165 -0.0586,0.0254 -0.24201,0.11165 -0.4871,0.20163 -0.73438,0.26563 l 0.0234,-0.004 c -0.0174,0.005 -0.0353,0.007 -0.0527,0.0117 -0.2502,0.0627 -0.50091,0.10222 -0.75,0.11523 0.0176,-9e-4 0.0351,-0.003 0.0527,-0.004 l -0.0547,0.006 h -0.0156 c 0.004,-1.9e-4 0.008,-0.002 0.0117,-0.002 -0.005,2.3e-4 -0.009,-2.1e-4 -0.0137,0 -0.19599,0.009 -0.38838,-0.0122 -0.58008,-0.0351 -0.12924,-0.0153 -0.25667,-0.0386 -0.38281,-0.0684 -0.17915,-0.0423 -0.35849,-0.0847 -0.5293,-0.15625 -0.009,-0.004 -0.0184,-0.006 -0.0274,-0.01 -0.22278,-0.0956 -0.43595,-0.22005 -0.63867,-0.36719 -0.0167,-0.0121 -0.0342,-0.0226 -0.0508,-0.0351 -0.19592,-0.14779 -0.3801,-0.32368 -0.55078,-0.52149 -0.0171,-0.0201 -0.0357,-0.038 -0.0527,-0.0586 -0.16851,-0.20376 -0.32018,-0.43427 -0.45704,-0.68945 -0.0196,-0.0371 -0.0415,-0.0714 -0.0605,-0.10938 l -0.0488,-0.0918 -0.043,-0.10546 c -0.044,-0.0985 -0.0878,-0.19947 -0.12695,-0.30469 l -0.0293,-0.0723 -0.0371,-0.12304 c -0.0234,-0.0709 -0.0451,-0.14305 -0.0664,-0.2168 -0.0903,-0.31261 -0.15934,-0.65131 -0.20704,-1.01563 -0.009,-0.0679 -0.0181,-0.13535 -0.0254,-0.20507 l -0.0234,-0.19532 -0.008,-0.18554 c -0.006,-0.10173 -0.0109,-0.20527 -0.0137,-0.31055 l -0.008,-0.19336 0.006,-0.2168 c 4e-5,-0.003 -4e-5,-0.005 0,-0.008 v -0.0234 c -5.8e-4,-0.009 -0.002,-0.0188 -0.002,-0.0293 H 244.62109 c -0.0903,0.0889 -0.1815,0.17532 -0.27734,0.25781 l 0.24414,-0.23438 c -0.43835,0.42555 -0.94161,0.7771 -1.50586,1.03516 -0.0335,0.0152 -0.0657,0.0324 -0.0996,0.0469 -0.27049,0.11669 -0.55543,0.20869 -0.85351,0.27929 -0.15253,0.0363 -0.30535,0.0728 -0.46485,0.0957 -0.2097,0.0301 -0.42461,0.0484 -0.64648,0.0547 h -0.002 -0.002 -0.002 l -0.27539,-0.008 -0.27344,-0.0273 c 0.18041,0.0226 0.36334,0.0349 0.54883,0.0351 -0.31924,-1.5e-4 -0.63032,-0.0382 -0.9336,-0.10351 -0.0168,-0.004 -0.034,-0.006 -0.0508,-0.01 l -0.006,-0.002 c -0.2982,-0.0684 -0.58757,-0.16479 -0.86523,-0.29102 h -0.002 c -0.001,-6e-4 -0.003,-9.5e-4 -0.004,-0.002 l -0.01,-0.006 c -0.27553,-0.12663 -0.53845,-0.28266 -0.78906,-0.46094 -0.0182,-0.0129 -0.0366,-0.0259 -0.0547,-0.0391 -0.2379,-0.17403 -0.46298,-0.37183 -0.67383,-0.58789 0.0555,0.0571 0.11043,0.11564 0.16797,0.16992 l -0.20118,-0.19726 c 0.0101,0.0105 0.0231,0.0151 0.0332,0.0254 -0.14159,-0.1456 -0.27852,-0.29791 -0.40625,-0.46094 z m -3.4043,0.49609 0.33008,0.0117 1.6582,0.38086 0.30274,0.13672 0.22656,0.24219 0.11719,0.31054 -0.01,0.33204 -0.46875,2.02539 -0.13672,0.30273 -0.24219,0.22656 -0.30859,0.11719 -0.33203,-0.0117 -1.6582,-0.38281 -0.30079,-0.13477 -0.22851,-0.24218 -0.11719,-0.31055 0.0117,-0.33203 0.4668,-2.02539 0.13672,-0.30274 0.24218,-0.22656 z m 123.83984,0.0371 0.22071,0.0234 0.19336,0.10547 0.13867,0.17187 0.0625,0.21289 0.16406,1.88282 -0.0234,0.21875 -0.10547,0.19531 -0.17187,0.13867 -0.21289,0.0606 -1.12891,0.0996 -0.2207,-0.0234 -0.19336,-0.10547 -0.13867,-0.17187 -0.0625,-0.21289 -0.16406,-1.88282 0.0215,-0.2207 0.10742,-0.19336 0.17188,-0.13867 0.21289,-0.0625 z m 1.13086,1.36133 c 0.0146,0.10163 0.0307,0.20134 0.0488,0.29883 l -0.0332,-0.16016 z m 0.10742,0.57813 c 0.025,0.1091 0.0526,0.21485 0.082,0.31836 l -0.0527,-0.17383 z m -115.81835,1.12304 0.0586,0.0391 0.0703,0.0586 c -0.0427,-0.0329 -0.0849,-0.0661 -0.1289,-0.0977 z m 0.40625,0.32813 0.0801,0.0664 0.0586,0.0605 c -0.0451,-0.0435 -0.0919,-0.0851 -0.13867,-0.12695 z m 116.5664,0.82422 c 0.0112,0.0115 0.0219,0.0238 0.0332,0.0352 h -0.002 z m 4.72461,0.33007 -0.0586,0.0391 -0.0566,0.0312 c 0.0384,-0.0231 0.0772,-0.046 0.11523,-0.0703 z m -120,0.60352 0.0644,0.12695 0.0586,0.14649 c -0.0388,-0.0925 -0.0803,-0.18341 -0.12305,-0.27344 z m 118.32227,0.0508 -0.004,0.002 -0.043,0.004 c 0.0155,-0.002 0.0314,-0.003 0.0469,-0.006 z m -118.08789,0.50586 0.041,0.10352 0.0332,0.11132 c -0.0239,-0.0723 -0.0481,-0.14371 -0.0742,-0.21484 z" /><path
     style="fill:#ffac11;fill-opacity:1;stroke:none;stroke-opacity:1"
     d="m 367.54297,186.58789 c -0.064,0.39023 -0.15268,0.7578 -0.25977,1.10742 l 0.0937,-0.30664 0.14063,-0.6289 z"
     id="path701" /><path
     style="fill:#ffac11;fill-opacity:1;stroke:none;stroke-opacity:1"
     d="m 236.45117,184.86914 c 0.0845,0.18419 0.17649,0.36318 0.27539,0.53516 l -0.14453,-0.26368 z"
     id="path700" /><path
     style="fill:#ffac11;fill-opacity:1;stroke:none;stroke-opacity:1"
     d="m 361.62891,181.03711 -0.31055,0.21094 c 0.10218,-0.0747 0.20562,-0.14543 0.31055,-0.21094 z"
     id="path698" /><path
     style="fill:#ffac11;fill-opacity:1;stroke:none;stroke-opacity:1"
     d="m 364.88281,180.49805 c 0.1267,0.0384 0.25122,0.0849 0.37305,0.13867 z"
     id="path697" /><path
     style="fill:#ffac11;fill-opacity:1;stroke:none;stroke-opacity:1"
     d="m 363.26562,180.4043 -0.375,0.0801 c 0.12495,-0.0329 0.24993,-0.0595 0.375,-0.0801 z"
     id="path696" /><path
     style="fill:#ffac11;fill-opacity:1;stroke:none;stroke-opacity:1"
     d="m 364.09766,180.35938 c 0.13277,0.008 0.26458,0.0241 0.39453,0.0469 z"
     id="path695" /><path
     style="fill:#ffac11;fill-opacity:1;stroke:none;stroke-opacity:1"
     d="m 363.68359,180.35742 -0.39257,0.041 c 0.13153,-0.0208 0.26184,-0.034 0.39257,-0.041 z"
     id="path694" /><path
     style="fill:#ffac11;fill-opacity:1;stroke:none;stroke-opacity:1"
     d="m 363.05664,178.63672 0.42774,0.0977 c -0.14736,-0.0257 -0.2909,-0.058 -0.42774,-0.0977 z"
     id="path693" /><path
     style="fill:#ffac11;fill-opacity:1;stroke:none;stroke-opacity:1"
     d="m 237.28906,177.13477 -0.17578,0.25195 -0.16601,0.26367 -0.15625,0.27149 -0.14454,0.27929 c 0.18768,-0.3789 0.40357,-0.73611 0.64258,-1.0664 z"
     id="path692" /><path
     style="fill:#ffac11;fill-opacity:1;stroke:none;stroke-opacity:1"
     d="m 237.86719,176.43555 -0.20117,0.22265 -0.19336,0.23242 -0.18164,0.24219 c 0.17973,-0.24818 0.37127,-0.48097 0.57617,-0.69726 z"
     id="path691" /><path
     style="fill:#ffac11;fill-opacity:1;stroke:none;stroke-opacity:1"
     d="m 238.18945,176.12305 c -0.0374,0.0344 -0.0765,0.0681 -0.11328,0.10351 z"
     id="path690" /><path
     style="fill:#ffac11;fill-opacity:1;stroke:none;stroke-opacity:1"
     d="m 161.5625,185.44141 a 3.2640001,3.2640001 0 0 1 -1.49414,-1.76953 H 87.011719 c 0.16602,0.63283 0.332567,1.20167 0.509765,1.76953 z"
     id="path686" /><path
     style="fill:#ffac11;fill-opacity:1;stroke:none;stroke-opacity:1"
     d="m 171.16406,185.44141 a 3.2640001,3.2640001 0 0 1 -1.49414,-1.76953 h -3.45508 a 3.2640001,3.2640001 0 0 1 -1.49414,1.76953 z"
     id="path684" /><path
     style="fill:#ffac11;fill-opacity:1;stroke:none;stroke-opacity:1"
     d="m 179.07812,185.44141 v -1.76953 h -3.26171 a 3.2640001,3.2640001 0 0 1 -1.49414,1.76953 z"
     id="path682" /><path
     style="fill:#ffac11;fill-opacity:1;stroke:none;stroke-opacity:1"
     d="m 236.74023,185.42773 0.13868,0.23047 0.16406,0.24219 c -0.10722,-0.15136 -0.20776,-0.30913 -0.30274,-0.47266 z"
     id="path680" /><path
     style="fill:#ffac11;fill-opacity:1;stroke:none;stroke-opacity:1"
     d="m 234.35352,183.67188 -0.0391,0.0684 -0.21875,0.24805 -0.29687,0.14844 -0.33203,0.0215 -0.31446,-0.10547 -0.6582,-0.38085 h -46.88867 v 1.76953 h 51.14062 c -0.002,-0.004 -0.003,-0.01 -0.006,-0.0137 l -0.002,-0.004 c -0.30431,-0.52409 -0.54096,-1.10846 -0.70117,-1.73633 0.0271,0.10649 0.0543,0.21251 0.0859,0.31641 l -0.0859,-0.30469 -0.004,-0.0195 c -7.4e-4,-0.003 -0.003,-0.005 -0.004,-0.008 z"
     id="path678" /><path
     style="fill:#892be1;fill-opacity:1;stroke:none;stroke-opacity:1"
     d="m 211.78516,178.53125 v 2.87305 l -0.0723,0.36132 -0.20508,0.30665 -0.30664,0.20507 -0.36133,0.0723 h -3.02343 l -0.36133,-0.0723 -0.30664,-0.20507 -0.20508,-0.30665 -0.0723,-0.36132 v -2.87305 H 86.117188 c 0.114798,0.86066 0.204459,1.7465 0.255859,2.05469 0.1316,0.70186 0.300501,1.31742 0.457031,1.96484 h 73.052732 a 3.2640001,3.2640001 0 0 1 3.25977,-3.2207 3.2640001,3.2640001 0 0 1 3.25976,3.2207 h 3.08008 a 3.2640001,3.2640001 0 0 1 3.25977,-3.2207 3.2640001,3.2640001 0 0 1 3.25976,3.2207 h 3.07617 v -3.2207 h 6.52735 v 3.2207 h 45.66992 l -0.0137,-0.19726 0.10547,-0.31446 1.03906,-1.79883 0.21875,-0.25 0.29883,-0.14648 0.33008,-0.0234 0.31445,0.10742 1.47266,0.84961 0.25,0.21875 0.14648,0.29688 0.0234,0.33203 -0.10742,0.31445 L 235,182.55078 h 0.83789 c -7.2e-4,-0.008 7e-4,-0.0158 0,-0.0234 v -0.01 l -0.0117,-0.10156 -0.0195,-0.33594 -0.004,-0.33985 0.0117,-0.34375 c -7.1e-4,0.0133 6.4e-4,0.0258 0,0.0391 6.7e-4,-0.0137 0.001,-0.0273 0.002,-0.041 6e-4,-0.0112 10e-4,-0.0221 0.002,-0.0332 -6.3e-4,0.0107 -0.003,0.0205 -0.004,0.0312 l 0.0274,-0.3418 0.0391,-0.33984 0.0527,-0.33594 0.0664,-0.33008 c -0.0938,0.42562 -0.15548,0.86558 -0.18164,1.31641 0.0287,-0.49092 0.10066,-0.96923 0.20898,-1.42969 0.004,-0.0183 0.009,-0.0364 0.0137,-0.0547 0.11023,-0.45452 0.2566,-0.89071 0.43554,-1.30468 -0.0732,0.16946 -0.14293,0.34273 -0.20508,0.51953 -0.0721,0.20523 -0.13703,0.41483 -0.19336,0.6289 l 0.0898,-0.3164 0.10351,-0.3125 0.11329,-0.30469 0.0918,-0.21484 c 0.002,-0.005 0.004,-0.0106 0.006,-0.0156 0.003,-0.008 0.004,-0.0174 0.008,-0.0254 h -12.98828 v 2.87305 l -0.0723,0.36132 -0.20508,0.30665 -0.30664,0.20507 -0.36133,0.0723 h -3.02344 l -0.36132,-0.0723 -0.30665,-0.20507 -0.20507,-0.30665 -0.0723,-0.36132 v -2.87305 z"
     id="path673" /><path
     style="fill:#ffac11;fill-opacity:1;stroke:none;stroke-opacity:1"
     d="m 241.61719,174.69531 0.66797,0.0742 0.62109,0.14063 c -0.39767,-0.11547 -0.82726,-0.18989 -1.28906,-0.21485 z"
     id="path671" /><path
     style="fill:#ffac11;fill-opacity:1;stroke:none;stroke-opacity:1"
     d="m 362.26367,178.30078 c 0.11135,0.064 0.22675,0.12313 0.34766,0.17578 z"
     id="path670" /><path
     style="fill:#ffac11;fill-opacity:1;stroke:none;stroke-opacity:1"
     d="m 362.15625,178.23633 0.0605,0.041 0.0469,0.0234 c -0.0364,-0.021 -0.072,-0.0423 -0.10742,-0.0644 z"
     id="path669" /><path
     style="fill:#ffac11;fill-opacity:1;stroke:none;stroke-opacity:1"
     d="m 361.92773,178.07812 c 0.0741,0.055 0.14944,0.10882 0.22852,0.15821 z"
     id="path668" /><path
     style="fill:#ffac11;fill-opacity:1;stroke:none;stroke-opacity:1"
     d="m 361.81445,177.99023 0.0469,0.043 0.0664,0.0449 c -0.0384,-0.0285 -0.0762,-0.0579 -0.11328,-0.0879 z"
     id="path667" /><path
     style="fill:#ffac11;fill-opacity:1;stroke:none;stroke-opacity:1"
     d="m 361.59375,177.79688 c 0.0707,0.0676 0.14434,0.13161 0.2207,0.19335 z"
     id="path666" /><path
     style="fill:#ffac11;fill-opacity:1;stroke:none;stroke-opacity:1"
     d="m 361.48828,177.69336 0.0527,0.0586 0.0527,0.0449 c -0.0356,-0.034 -0.0713,-0.0681 -0.10547,-0.10352 z"
     id="path665" /><path
     style="fill:#ffac11;fill-opacity:1;stroke:none;stroke-opacity:1"
     d="m 361.3125,177.49609 c 0.0565,0.0676 0.11483,0.13401 0.17578,0.19727 z"
     id="path664" /><path
     style="fill:#ffac11;fill-opacity:1;stroke:none;stroke-opacity:1"
     d="m 361.19141,177.34375 0.0644,0.0898 0.0566,0.0625 c -0.0417,-0.0499 -0.0819,-0.10023 -0.12109,-0.15234 z"
     id="path663" /><path
     style="fill:#ffac11;fill-opacity:1;stroke:none;stroke-opacity:1"
     d="m 361.07422,177.17969 c 0.0378,0.0558 0.0768,0.11047 0.11719,0.16406 z"
     id="path662" /><path
     style="fill:#ffac11;fill-opacity:1;stroke:none;stroke-opacity:1"
     d="m 360.95508,176.99414 0.0508,0.0898 0.0684,0.0957 c -0.041,-0.0605 -0.0812,-0.12254 -0.11914,-0.18555 z"
     id="path661" /><path
     style="fill:#ffac11;fill-opacity:1;stroke:none;stroke-opacity:1"
     d="m 360.82617,176.76758 c 0.0406,0.0772 0.0843,0.15256 0.12891,0.22656 z"
     id="path660" /><path
     style="fill:#ffac11;fill-opacity:1;stroke:none;stroke-opacity:1"
     d="m 360.75,176.61328 0.041,0.0918 0.0351,0.0625 c -0.0266,-0.0507 -0.0513,-0.1023 -0.0762,-0.1543 z"
     id="path659" /><path
     style="fill:#ffac11;fill-opacity:1;stroke:none;stroke-opacity:1"
     d="m 360.65234,176.39453 c 0.0311,0.0742 0.0633,0.14696 0.0977,0.21875 z"
     id="path658" /><path
     style="fill:#ffac11;fill-opacity:1;stroke:none;stroke-opacity:1"
     d="m 360.58008,176.2168 0.0293,0.084 0.043,0.0937 c -0.0246,-0.0588 -0.0497,-0.11756 -0.0723,-0.17773 z"
     id="path657" /><path
     style="fill:#ffac11;fill-opacity:1;stroke:none;stroke-opacity:1"
     d="m 360.50391,175.99609 c 0.0243,0.0745 0.0489,0.14812 0.0762,0.22071 z"
     id="path656" /><path
     style="fill:#ffac11;fill-opacity:1;stroke:none;stroke-opacity:1"
     d="m 360.42188,175.7207 0.0391,0.15235 0.043,0.12304 c -0.0296,-0.0906 -0.0568,-0.18221 -0.082,-0.27539 z"
     id="path655" /><path
     style="fill:#ffac11;fill-opacity:1;stroke:none;stroke-opacity:1"
     d="m 360.37695,175.54492 c 0.0141,0.0589 0.0292,0.11775 0.0449,0.17578 z"
     id="path654" /><path
     style="fill:#ffac11;fill-opacity:1;stroke:none;stroke-opacity:1"
     d="m 360.32031,175.28906 0.0254,0.13672 0.0312,0.11914 c -0.0201,-0.0843 -0.0399,-0.16991 -0.0566,-0.25586 z"
     id="path653" /><path
     style="fill:#ffac11;fill-opacity:1;stroke:none;stroke-opacity:1"
     d="m 360.29297,175.13281 c 0.009,0.0523 0.0173,0.10446 0.0273,0.15625 z"
     id="path652" /><path
     style="fill:#ffac11;fill-opacity:1;stroke:none;stroke-opacity:1"
     d="m 360.69922,171.0625 -0.1582,0.47461 -0.12696,0.48633 -0.0996,0.49218 -0.0703,0.4961 -0.041,0.49609 -0.0117,0.49219 0.0195,0.48633 0.0508,0.47461 0.0312,0.17187 c -0.2197,-1.29758 -0.0679,-2.75933 0.40625,-4.07031 z"
     id="path651" /><path
     style="fill:#ffac11;fill-opacity:1;stroke:none;stroke-opacity:1"
     d="m 244.48633,175.69531 c -0.45539,-0.34356 -0.98087,-0.6115 -1.57813,-0.78515 l 0.57227,0.20507 0.52539,0.26368 z"
     id="path648" /><path
     style="fill:#ffac11;fill-opacity:1;stroke:none;stroke-opacity:1"
     d="m 244.91797,176.06445 c -0.13659,-0.1307 -0.27947,-0.25434 -0.43164,-0.36914 z"
     id="path647" /><path
     style="fill:#ffac11;fill-opacity:1;stroke:none;stroke-opacity:1"
     d="m 245.9375,177.41992 c -0.27141,-0.5056 -0.6111,-0.96464 -1.01953,-1.35547 l 0.38476,0.41211 0.33985,0.45313 z"
     id="path646" /><path
     style="fill:#ffac11;fill-opacity:1;stroke:none;stroke-opacity:1"
     d="m 246.39062,178.48828 c -0.12136,-0.37318 -0.27203,-0.73102 -0.45312,-1.06836 l 0.24805,0.52149 z"
     id="path645" /><path
     style="fill:#ffac11;fill-opacity:1;stroke:none;stroke-opacity:1"
     d="m 246.40234,178.53125 h 0.002 c -0.005,-0.0143 -0.009,-0.0288 -0.0137,-0.043 z"
     id="path644" /><path
     style="fill:#ffac11;fill-opacity:1;stroke:none;stroke-opacity:1"
     d="m 246.55078,179.05859 -0.14844,-0.52734 c 0.1973,0.62008 0.31096,1.28077 0.34766,1.95313 l -0.0117,-0.23633 -0.0723,-0.60157 z"
     id="path643" /><path
     style="fill:#ffac11;fill-opacity:1;stroke:none;stroke-opacity:1"
     d="m 367.08984,182.55078 -0.0332,-0.0801 -0.23242,-0.42773 -0.26367,-0.37695 -0.0781,-0.0879 c 0.23162,0.27665 0.43777,0.5985 0.60742,0.97266 z"
     id="path637" /><path
     style="fill:#ffac11;fill-opacity:1;stroke:none;stroke-opacity:1"
     d="m 367.46094,183.71484 c 0.11023,0.51492 0.17466,1.08674 0.17383,1.72657 l 0.002,-0.0762 -0.0293,-0.68164 -0.0762,-0.6289 z"
     id="path636" /><path
     style="fill:#ffac11;fill-opacity:1;stroke:none;stroke-opacity:1"
     d="m 358.69922,186.62109 c -0.002,0.1394 -0.002,0.27652 0.002,0.41016 l 0.0137,0.31055 c 0.008,0.13004 0.0183,0.25659 0.0312,0.38086 l 0.01,0.0898 c -0.043,-0.37071 -0.0623,-0.76778 -0.0566,-1.19141 z"
     id="path634" /><path
     style="fill:#ffac11;fill-opacity:1;stroke:none;stroke-opacity:1"
     d="m 246.59961,182.69141 c 0.009,-0.0467 0.0169,-0.0937 0.0254,-0.14063 h -0.002 l 0.0742,-0.4668 0.0566,-0.61328 0.0137,-0.53711 c -1.8e-4,-0.0488 -9.7e-4,-0.0978 -0.002,-0.14648 l -0.0137,-0.26172 c 0.0334,0.67247 -0.01,1.35668 -0.13086,2.02539 z"
     id="path632" /><path
     style="fill:#ffac11;fill-opacity:1;stroke:none;stroke-opacity:1"
     d="m 246.45898,183.28906 c 0.0536,-0.19723 0.10085,-0.39641 0.14063,-0.59765 z"
     id="path631" /><path
     style="fill:#ffac11;fill-opacity:1;stroke:none;stroke-opacity:1"
     d="m 246.33594,183.68359 c 0.002,-0.004 0.005,-0.008 0.006,-0.0117 h 0.004 c 0.0408,-0.12633 0.0783,-0.25426 0.11328,-0.38282 z"
     id="path630" /><path
     style="fill:#ffac11;fill-opacity:1;stroke:none;stroke-opacity:1"
     d="m 245.52148,185.44141 h -0.004 l -0.0293,0.0508 -0.32031,0.45312 c 0.1251,-0.16145 0.24274,-0.32996 0.35351,-0.5039 z"
     id="path629" /><path
     style="fill:#ffac11;fill-opacity:1;stroke:none;stroke-opacity:1"
     d="m 358.80469,185.55078 c 0.009,-0.047 0.016,-0.0942 0.0254,-0.14062 0.1275,-0.62697 0.31389,-1.19912 0.54883,-1.71485 -0.0119,0.0262 -0.0235,0.0536 -0.0352,0.0801 l -0.1875,0.46289 -0.16211,0.50195 c -0.017,0.0587 -0.0329,0.11793 -0.0488,0.17774 l -0.10156,0.42969 c 0.0308,-0.14625 0.0643,-0.28949 0.10156,-0.42969 l 0.0234,-0.0977 0.0254,-0.0801 c 0.0497,-0.17145 0.10324,-0.34 0.16211,-0.50195 0.0579,-0.15922 0.12141,-0.31296 0.1875,-0.46289 l 0.0332,-0.0801 h 0.002 v -0.002 c 0.001,-0.003 0.002,-0.007 0.004,-0.01 0.002,-0.004 0.002,-0.008 0.004,-0.0117 h -0.15234 l -0.006,0.0527 -0.15821,0.29101 -0.25976,0.20704 -0.31836,0.0937 -1.69336,0.14843 -0.33008,-0.0391 -0.29102,-0.16016 -0.20898,-0.25781 -0.0918,-0.31836 -0.002,-0.0176 H 246.3457 c -0.0218,0.0675 -0.0449,0.13442 -0.0684,0.20117 -0.13466,0.38339 -0.29563,0.75337 -0.48437,1.10547 l 0.26172,-0.54102 0.22265,-0.56445 0.0586,-0.18946 c -0.20282,0.62435 -0.47542,1.21935 -0.81836,1.75782 l 0.27344,-0.46094 c -0.0845,0.15753 -0.17434,0.31145 -0.26954,0.46094 h 113.29883 l 0.002,-0.002 z"
     id="path628" /><path
     style="fill:#ffac11;fill-opacity:1;stroke:none;stroke-opacity:1"
     d="m 244.76367,186.41797 c 0.12287,-0.12944 0.23968,-0.26763 0.35156,-0.4082 z"
     id="path624" /><path
     style="fill:#ffac11;fill-opacity:1;stroke:none;stroke-opacity:1"
     d="m 244.58789,186.58398 c 0.009,-0.009 0.0203,-0.0144 0.0293,-0.0234 h 0.004 c 0.0481,-0.0473 0.096,-0.0935 0.14258,-0.14258 z"
     id="path623" /><path
     style="fill:#ffac11;fill-opacity:1;stroke:none;stroke-opacity:1"
     d="m 241.01758,188.0957 0.64648,-0.0547 0.31836,-0.0645 c -0.30851,0.0639 -0.62807,0.10902 -0.96484,0.11914 z"
     id="path622" /><path
     style="fill:#0a7985;fill-opacity:0.866667;stroke:none;stroke-opacity:1"
     d="m 161.54297,195.03125 a 3.2640001,3.2640001 0 0 1 -1.47852,-1.76953 H 92.896484 c 1.410838,0.57389 2.974159,1.16188 4.703125,1.76953 z"
     id="path617" /><path
     style="fill:#0a7985;fill-opacity:0.866667;stroke:none;stroke-opacity:1"
     d="m 171.14258,195.03125 a 3.2640001,3.2640001 0 0 1 -1.47656,-1.76953 h -3.44727 a 3.2640001,3.2640001 0 0 1 -1.47656,1.76953 z"
     id="path615" /><path
     style="fill:#0a7985;fill-opacity:0.866667;stroke:none;stroke-opacity:1"
     d="m 180.74219,195.03125 a 3.2640001,3.2640001 0 0 1 -1.47657,-1.76953 h -3.44531 a 3.2640001,3.2640001 0 0 1 -1.47851,1.76953 z"
     id="path613" /><path
     style="fill:#0a7985;fill-opacity:0.866667;stroke:none;stroke-opacity:1"
     d="m 231.25391,195.03125 -0.0449,-0.12109 0.008,-0.22071 0.33008,-1.42773 h -46.12696 a 3.2640001,3.2640001 0 0 1 -1.47656,1.76953 z"
     id="path611" /><path
     style="fill:#0a7985;fill-opacity:0.866667;stroke:none;stroke-opacity:1"
     d="m 234.91992,193.26172 h -1.06445 l -0.004,0.0977 -0.38672,1.67187 h 1.07813 c 5.5e-4,-0.006 0.003,-0.0115 0.004,-0.0176 l 0.0176,-0.1875 0.0449,-0.32812 0.0605,-0.32422 0.0742,-0.32031 0.0859,-0.31446 z"
     id="path609" /><path
     style="fill:#0a7985;fill-opacity:0.866667;stroke:none;stroke-opacity:1"
     d="m 234.91602,193.2832 c -0.18573,0.54878 -0.3113,1.12666 -0.36719,1.72266 0.0558,-0.59565 0.18171,-1.17415 0.36719,-1.72266 z"
     id="path608" /><path
     style="fill:#0a7985;fill-opacity:0.866667;stroke:none;stroke-opacity:1"
     d="m 236.06836,191.11719 c -0.10255,0.13336 -0.20279,0.2702 -0.29688,0.41211 -0.22252,0.33564 -0.41858,0.6954 -0.58789,1.07226 0.24114,-0.53632 0.53952,-1.03551 0.88477,-1.48437 z"
     id="path606" /><path
     style="fill:#0a7985;fill-opacity:0.866667;stroke:none;stroke-opacity:1"
     d="m 237.27734,189.90039 c -0.18391,0.14167 -0.36274,0.29268 -0.5332,0.45703 -0.22674,0.21861 -0.43959,0.4566 -0.63867,0.71094 0.34866,-0.44524 0.74358,-0.8381 1.17187,-1.16797 z"
     id="path605" /><path
     style="fill:#0a7985;fill-opacity:0.866667;stroke:none;stroke-opacity:1"
     d="m 334.2793,193.26172 v 1.76953 h 6.80273 v -1.76953 z"
     id="path602" /><path
     style="fill:#ffac11;fill-opacity:1;stroke:none;stroke-opacity:1"
     d="m 245.16211,192.85352 c -0.0219,-0.0763 -0.046,-0.15144 -0.0703,-0.22657 z"
     id="path600" /><path
     style="fill:#ffac11;fill-opacity:1;stroke:none;stroke-opacity:1"
     d="m 245.25,193.18555 -0.0352,-0.15821 -0.0527,-0.17382 c 0.0315,0.10955 0.0612,0.22037 0.0879,0.33203 z"
     id="path599" /><path
     style="fill:#ffac11;fill-opacity:1;stroke:none;stroke-opacity:1"
     d="m 245.26562,193.26172 h 0.002 c -0.006,-0.0256 -0.0115,-0.0507 -0.0176,-0.0762 z"
     id="path598" /><path
     style="fill:#0a7985;fill-opacity:1;stroke:none;stroke-opacity:1"
     d="m 245.46875,195.03125 h 83.89648 v -1.76953 h -84.09765 c 0.0168,0.0737 0.0322,0.14819 0.0469,0.22266 l 0.0254,0.11523 0.0195,0.13477 c 0.0144,0.0876 0.0275,0.17522 0.0391,0.26367 l 0.0273,0.1875 0.0137,0.19336 c 0.006,0.0702 0.0114,0.14041 0.0156,0.21093 l 0.0137,0.19336 v 0.19922 c -0.002,-0.1311 -0.006,-0.26221 -0.0137,-0.39258 l -0.0156,-0.21093 c -0.0108,-0.12759 -0.0245,-0.25458 -0.041,-0.38086 l -0.0391,-0.26367 c -0.0138,-0.0838 -0.0286,-0.16707 -0.0449,-0.25 l -0.0488,-0.22266 c 0.13028,0.57173 0.19618,1.16823 0.20118,1.76953 z"
     id="path597" /><path
     style="fill:#ffac11;fill-opacity:1;stroke:none;stroke-opacity:1"
     d="m 245.46875,195.17188 c 3.4e-4,-0.0469 4.1e-4,-0.0938 0,-0.14063 z"
     id="path596" /><path
     style="fill:#ffac11;fill-opacity:1;stroke:none;stroke-opacity:1"
     d="m 245.45703,195.59961 0.0137,-0.2168 -0.002,-0.21093 c -0.001,0.14262 -0.004,0.28496 -0.0117,0.42773 z"
     id="path595" /><path
     style="fill:#ffac11;fill-opacity:1;stroke:none;stroke-opacity:1"
     d="m 245.44727,195.75586 c 0.004,-0.0521 0.007,-0.1041 0.01,-0.15625 z"
     id="path594" /><path
     style="fill:#ffac11;fill-opacity:1;stroke:none;stroke-opacity:1"
     d="m 245.43359,195.90625 h 0.004 l 0.01,-0.15039 c -0.004,0.0502 -0.009,0.10024 -0.0137,0.15039 z"
     id="path593" /><path
     style="fill:#ffac11;fill-opacity:1;stroke:none;stroke-opacity:1"
     d="m 236.81836,201.10547 0.0703,0.0586 0.23438,0.17188 0.24023,0.1582 0.14453,0.084 c -0.24071,-0.13744 -0.4707,-0.29572 -0.68945,-0.47265 z"
     id="path592" /><path
     style="fill:#ffac11;fill-opacity:1;stroke:none;stroke-opacity:1"
     d="m 235.41797,199.43555 c -0.27676,-0.48506 -0.49936,-1.01821 -0.6543,-1.58789 l 0.004,0.0137 0.0937,0.31055 0.10547,0.30468 0.11914,0.29688 0.13086,0.28711 0.14453,0.27734 z"
     id="path591" /><path
     style="fill:#db1675;fill-opacity:1;stroke:none;stroke-opacity:1"
     d="m 230.30664,199.47461 0.26563,-1.15234 0.13671,-0.30274 0.24024,-0.22851 0.31055,-0.11719 0.33203,0.0117 1.6582,0.38281 0.30078,0.13672 0.22852,0.24023 0.11718,0.31055 -0.0117,0.33203 -0.0899,0.38672 h 1.63867 c -0.003,-0.005 -0.004,-0.0103 -0.006,-0.0156 -0.53774,-0.93472 -0.86982,-2.05033 -0.91601,-3.25976 l 0.0234,0.34375 0.0371,0.33789 0.0508,0.33398 0.0664,0.32618 0.0508,0.20898 c -0.14666,-0.57093 -0.22746,-1.17559 -0.23046,-1.80469 l 0.002,0.25196 c -0.003,-0.0892 -0.004,-0.17937 -0.004,-0.26954 -0.002,-0.007 -0.004,-0.0139 -0.004,-0.0215 H 101.41016 c 3.52084,1.16561 6.93044,2.21964 9.03515,2.87109 0,0.22407 0.0321,0.46915 0.0371,0.69727 z"
     id="path589" /><path
     style="fill:#ffac11;fill-opacity:1;stroke:none;stroke-opacity:1"
     d="m 242.87305,201.08594 -0.0254,0.0215 -0.0723,0.0508 c -0.1075,0.081 -0.21831,0.15757 -0.33203,0.23047 l -0.0664,0.0469 -0.0664,0.0351 c -0.13245,0.0795 -0.26772,0.15459 -0.40821,0.22266 l 0.40821,-0.22266 c 0.0447,-0.0268 0.089,-0.054 0.13281,-0.082 l 0.33203,-0.23047 c 0.0315,-0.0237 0.0628,-0.0479 0.0937,-0.0723 h -0.002 c -0.3723,0.29319 -0.78509,0.53512 -1.23438,0.72265 l 0.20313,-0.082 c -0.13634,0.0637 -0.27816,0.11955 -0.42188,0.17188 l -0.0918,0.0371 -0.0879,0.0234 c -0.13451,0.0435 -0.27146,0.082 -0.41211,0.11524 l -0.082,0.0234 -0.0762,0.0117 c -0.17409,0.0356 -0.35201,0.0647 -0.53515,0.084 l 0.53515,-0.084 c 0.0532,-0.0109 0.10589,-0.0228 0.15821,-0.0352 l 0.41211,-0.11524 c 0.0606,-0.0196 0.12037,-0.0389 0.17968,-0.0605 l 0.16992,-0.0703 c -0.45169,0.18316 -0.93996,0.31256 -1.46679,0.36719 -0.001,1.4e-4 -0.003,-1.3e-4 -0.004,0 -0.29732,0.0183 -0.58982,0.007 -0.875,-0.0293 l 0.28906,0.0273 0.29493,0.01 0.29101,-0.008 c -0.3045,0.019 -0.60295,0.006 -0.89453,-0.0332 l 0.0156,0.004 c -0.19113,-0.0247 -0.37817,-0.0616 -0.5625,-0.10938 l 0.28124,0.0625 0.21876,0.0352 c -0.27769,-0.0399 -0.54812,-0.10321 -0.81055,-0.19141 l 0.0371,0.0137 c -0.27237,-0.0887 -0.53444,-0.20167 -0.78711,-0.33789 l 0.25586,0.12695 0.26172,0.11329 0.17187,0.0625 c -0.26121,-0.0918 -0.51533,-0.20598 -0.75781,-0.3418 -0.26273,-0.14706 -0.51337,-0.31774 -0.75,-0.51172 0.008,0.006 0.0175,0.0114 0.0254,0.0176 l -0.1543,-0.12695 -0.21484,-0.19922 -0.20703,-0.21094 -0.19727,-0.22461 -0.1875,-0.23437 -0.17578,-0.2461 -0.16602,-0.25781 -0.0977,-0.16992 c 0.004,0.007 0.007,0.0153 0.01,0.0234 0.36592,0.63605 0.82749,1.18863 1.36133,1.62696 h -3.36523 l -0.006,0.0273 -0.13672,0.30274 -0.24219,0.22851 -0.30859,0.11719 -0.33203,-0.0117 -1.65821,-0.38281 -0.30273,-0.13672 -0.13672,-0.14453 H 110.37109 c 0.23185,3.95566 1.18326,8.28863 3.02149,11.89844 h 26.18359 c 0.33679,-0.83758 0.64654,-1.71852 0.89844,-2.68165 0.31195,0.048 7.93412,1.70724 12.44141,2.68165 h 189.97265 c 0.0887,-0.4615 0.22486,-0.91868 0.28516,-1.38086 l 0.30078,-2.4004 c 3.7,0.3 11.39922,0.70004 15.19922,1 5.49996,0.3 6.99961,-4.20039 8.09961,-6.40039 0.3019,-0.6415 0.76689,-1.61633 1.2832,-2.71679 z"
     id="path587" /><path
     style="fill:#ffac11;fill-opacity:1;stroke:none;stroke-opacity:1"
     d="m 242.92578,201.04102 c -0.0187,0.0151 -0.0378,0.0301 -0.0566,0.0449 h 0.004 z"
     id="path586" /><path
     style="fill:#ffac11;fill-opacity:1;stroke:none;stroke-opacity:1"
     d="m 243.18164,200.82031 -0.25586,0.22071 c 0.0875,-0.0708 0.17279,-0.14482 0.25586,-0.22071 z"
     id="path585" /><path
     style="fill:#ffac11;fill-opacity:1;stroke:none;stroke-opacity:1"
     d="m 243.38867,200.62109 c -0.0674,0.068 -0.13639,0.1347 -0.20703,0.19922 l 0.0996,-0.0859 z"
     id="path584" /><path
     style="fill:#ffac11;fill-opacity:1;stroke:none;stroke-opacity:1"
     d="m 243.58789,200.41211 -0.19922,0.20898 c 0.0676,-0.0682 0.13482,-0.13741 0.19922,-0.20898 z"
     id="path583" /><path
     style="fill:#ffac11;fill-opacity:1;stroke:none;stroke-opacity:1"
     d="m 243.76758,200.20117 c -0.0588,0.0716 -0.11788,0.14225 -0.17969,0.21094 l 0.0879,-0.0937 z"
     id="path582" /><path
     style="fill:#ffac11;fill-opacity:1;stroke:none;stroke-opacity:1"
     d="m 243.93555,199.98828 -0.16797,0.21289 c 0.0575,-0.0699 0.11335,-0.1403 0.16797,-0.21289 z"
     id="path581" /><path
     style="fill:#ffac11;fill-opacity:1;stroke:none;stroke-opacity:1"
     d="m 244.11914,199.73242 c -0.0592,0.0871 -0.12056,0.17209 -0.18359,0.25586 l 0.0976,-0.125 z"
     id="path580" /><path
     style="fill:#ffac11;fill-opacity:1;stroke:none;stroke-opacity:1"
     d="m 244.25781,199.51953 -0.13867,0.21289 c 0.0475,-0.0698 0.0936,-0.14106 0.13867,-0.21289 z"
     id="path579" /><path
     style="fill:#db1675;fill-opacity:1;stroke:none;stroke-opacity:1"
     d="m 345.99609,195.90625 v 1.10742 l -0.0723,0.36133 -0.20508,0.30664 -0.30664,0.20508 -0.36133,0.0723 h -3.02344 l -0.36132,-0.0723 -0.30664,-0.20508 -0.20508,-0.30664 -0.0723,-0.36133 v -1.10742 h -6.80273 v 1.10742 l -0.0723,0.36133 -0.20508,0.30664 -0.30664,0.20508 -0.36133,0.0723 h -3.02343 l -0.36133,-0.0723 -0.30664,-0.20508 -0.20508,-0.30664 -0.0723,-0.36133 v -1.10742 h -83.9276 l -0.006,0.0801 -0.0332,0.24219 c 0.0136,-0.10704 0.0255,-0.21485 0.0352,-0.32227 h -0.002 c -0.11469,1.26972 -0.50318,2.5191 -1.15039,3.56836 h 0.004 c -0.009,0.0149 -0.018,0.0301 -0.0273,0.0449 l 0.0293,-0.0449 c 0.0493,-0.0799 0.0963,-0.16197 0.14258,-0.24414 l 0.1289,-0.24219 c 0.0415,-0.0807 0.0824,-0.16164 0.1211,-0.24414 l 0.14843,-0.33398 c 0.0262,-0.0634 0.0516,-0.12721 0.0762,-0.19141 l 0.11328,-0.31836 c 0.0377,-0.11206 0.0724,-0.22589 0.10547,-0.33984 l 0.0625,-0.22266 c 0.0274,-0.10511 0.0527,-0.21011 0.0762,-0.31641 l 0.0508,-0.24609 c 0.0272,-0.14244 0.0501,-0.28594 0.0703,-0.42969 l -0.0312,0.23828 -0.0391,0.19141 c -0.0158,0.0826 -0.0327,0.16413 -0.0508,0.24609 l -0.0312,0.1543 -0.0449,0.16211 c -0.0194,0.0745 -0.0411,0.14884 -0.0625,0.22266 l -0.0527,0.19336 -0.0527,0.14648 c -0.036,0.10703 -0.073,0.21332 -0.11328,0.31836 l -0.0352,0.0977 -0.041,0.0937 c -0.0467,0.11304 -0.0967,0.22382 -0.14843,0.33398 l -0.0508,0.11524 -0.0703,0.1289 c -0.0419,0.0814 -0.0842,0.16271 -0.1289,0.24219 l -0.0781,0.14453 -0.0644,0.0996 h 124.50195 c 0.62151,-1.32081 1.32768,-2.83896 1.55664,-3.29688 0.27303,0 0.51931,-0.11153 0.72266,-0.27148 z"
     id="path578" /><path
     style="fill:#0a7985;fill-opacity:0.866667;stroke:none;stroke-opacity:1"
     d="m 356.87891,195.03125 -0.0137,-0.0469 -0.15039,-1.72266 h -10.71875 v 1.76953 z"
     id="path576" /><path
     style="fill:#0a7985;fill-opacity:0.866667;stroke:none;stroke-opacity:1"
     d="m 360.13086,193.26172 0.125,1.42773 -0.0391,0.33008 -0.006,0.0117 h 11.36133 v -0.50781 c 0,-0.57919 -0.64953,-0.96531 -1.14454,-1.26172 z"
     id="path574" /><path
     style="fill:#ffac11;fill-opacity:1;stroke:none;stroke-opacity:1"
     d="m 367.63867,185.44336 h -0.004 l -0.0195,0.6543 -0.0723,0.48242 c 0.001,-0.007 0.005,-0.0122 0.006,-0.0195 h 0.004 c 0.0245,-0.15218 0.0471,-0.30663 0.0645,-0.46485 0.0138,-0.22439 0.0211,-0.4417 0.0215,-0.65234 z"
     id="path571" /><path
     style="fill:#ffac11;fill-opacity:1;stroke:none;stroke-opacity:1"
     d="m 367.46094,183.67383 c 0.11535,0.52501 0.17895,1.11328 0.17773,1.76953 h 3.84766 c 0.0927,-0.64667 0.15655,-1.10164 0.25195,-1.76953 z"
     id="path570" /><path
     style="fill:#ffac11;fill-opacity:1;stroke:none;stroke-opacity:1"
     d="m 367.09375,182.55078 h -0.004 l 0.16407,0.39844 0.1582,0.52734 0.0488,0.23828 c -0.003,-0.0122 -9.1e-4,-0.0288 -0.004,-0.041 h 0.004 c -0.091,-0.41434 -0.21545,-0.78852 -0.36719,-1.12305 z"
     id="path569" /><path
     style="fill:#892be1;fill-opacity:1;stroke:none;stroke-opacity:1"
     d="m 365.35547,178.53125 c -0.36232,0.14363 -0.73614,0.23055 -1.11328,0.25586 l 0.2207,-0.0234 0.22266,-0.0371 0.2207,-0.0508 0.21875,-0.0644 0.2168,-0.0781 0.004,-0.002 c -0.43112,0.17019 -0.87801,0.26315 -1.32812,0.26367 h -0.002 -0.002 -0.002 c -0.003,-1.5e-4 -0.005,-0.002 -0.008,-0.002 -0.16587,-0.009 -0.32616,-0.0254 -0.48047,-0.0508 l 0.48047,0.0508 c -0.45193,-0.0253 -0.85738,-0.11718 -1.22461,-0.25586 l 0.24414,0.0898 c -0.0942,-0.0282 -0.18424,-0.0612 -0.27344,-0.0957 0.009,0.003 0.0208,0.002 0.0293,0.006 l -0.16602,-0.0586 c 0.0438,0.019 0.0897,0.0352 0.13477,0.0527 h -16.65821 v 2.23047 l -0.0703,0.36133 -0.20508,0.30664 -0.30664,0.20508 -0.36133,0.0723 h -3.02539 l -0.36132,-0.0723 -0.30665,-0.20508 -0.20507,-0.30664 -0.0703,-0.36133 v -2.23047 h -6.80468 v 2.23047 l -0.0703,0.36133 -0.20507,0.30664 -0.30664,0.20508 -0.36133,0.0723 h -3.02344 l -0.36328,-0.0723 -0.30664,-0.20508 -0.20313,-0.30664 -0.0723,-0.36133 v -2.23047 H 246.4043 c 0.055,0.1729 0.10403,0.3488 0.14648,0.52734 0.13257,0.55763 0.20289,1.14003 0.21484,1.72852 l 0.004,0.0703 -0.002,0.0762 c 6.4e-4,0.17891 -0.003,0.35785 -0.0137,0.53711 -0.0207,0.36184 -0.0643,0.72307 -0.12891,1.08008 h 109.15234 l -0.082,-0.93164 0.0371,-0.33008 0.16016,-0.29101 0.25781,-0.20703 0.32031,-0.0937 1.69336,-0.14844 0.33008,0.0391 0.29102,0.1582 0.20703,0.25977 0.0937,0.31836 0.10742,1.22656 h 0.8418 c 0.004,-0.005 0.008,-0.009 0.0117,-0.0137 0.0457,-0.0635 0.0933,-0.12476 0.14062,-0.18555 l 0.0352,-0.0488 0.0469,-0.0547 c 0.0786,-0.0965 0.15982,-0.18995 0.24219,-0.2793 l 0.0449,-0.0508 h 0.002 c -0.0156,0.0166 -0.0314,0.034 -0.0469,0.0508 l -0.24219,0.2793 c -0.0277,0.034 -0.0549,0.0686 -0.082,0.10351 l -0.11328,0.15625 c 0.2345,-0.32049 0.48885,-0.60873 0.75976,-0.85937 l -0.22656,0.2207 c 0.0744,-0.0769 0.1496,-0.14945 0.22656,-0.2207 0.0166,-0.0154 0.0321,-0.0318 0.0488,-0.0469 0.28125,-0.25398 0.57832,-0.46896 0.88477,-0.64648 0.087,-0.0505 0.17339,-0.10034 0.26172,-0.14453 l -0.18946,0.10547 c 0.30288,-0.16868 0.61388,-0.30204 0.92774,-0.39454 l -0.23047,0.0742 c -0.0542,0.0194 -0.10814,0.0408 -0.16211,0.0625 l -0.27539,0.11914 c 0.091,-0.0437 0.18336,-0.0821 0.27539,-0.11914 l 0.0879,-0.0391 0.0742,-0.0234 c 0.0765,-0.0274 0.15353,-0.0515 0.23047,-0.0742 0.015,-0.004 0.0299,-0.009 0.0449,-0.0137 0.32232,-0.0911 0.64669,-0.14139 0.9668,-0.15039 h -0.0879 c 0.13461,-0.007 0.26955,-0.006 0.40234,0.002 l -0.24805,-0.002 c 0.31096,-0.003 0.6166,0.0338 0.91211,0.11133 l -0.26172,-0.0625 c 0.13056,0.0231 0.25808,0.0535 0.38477,0.0918 l -0.0781,-0.0176 c 0.30667,0.0851 0.60135,0.21216 0.87696,0.38672 l -0.0664,-0.0449 -0.35547,-0.18555 c 0.24426,0.1079 0.47668,0.2492 0.69531,0.41992 l -0.24609,-0.16992 c 0.27179,0.17602 0.5247,0.39794 0.75195,0.66406 l -0.18945,-0.21484 -0.31445,-0.2793 c 0.4568,0.35704 0.84825,0.85386 1.13867,1.49414 h 4.75781 c 0.23208,-1.62748 0.33978,-2.44463 0.56055,-4.01953 z"
     id="path568" /><path
     style="fill:#ffac11;fill-opacity:1;stroke:none;stroke-opacity:1"
     d="m 368.79297,170.13086 0.0898,0.28516 0.0762,0.29687 0.0625,0.30469 0.0508,0.3125 0.0371,0.31836 0.0234,0.32812 0.008,0.33399 -0.008,0.33789 -0.0195,0.3457 -0.043,0.29688 -0.0527,0.29492 -0.0645,0.28906 -0.0742,0.28711 -0.084,0.2793 -0.0937,0.27539 -0.10351,0.26953 -0.11133,0.26367 -0.1211,0.25586 -0.1289,0.25 -0.13477,0.24414 -0.14453,0.23438 -0.15039,0.22851 -0.1582,0.21875 -0.16406,0.21094 -0.16993,0.20117 -0.17773,0.19141 -0.18164,0.18359 -0.18555,0.17187 -0.19336,0.16211 -0.19531,0.15039 -0.20117,0.13868 -0.20508,0.1289 -0.20703,0.11719 -0.21289,0.10352 -0.20899,0.0898 h 0.01 c 1.86384,-0.73889 3.43728,-2.93969 3.76172,-5.53516 0.0844,-1.04062 -0.0395,-2.02014 -0.32422,-2.86523 z"
     id="path567" /><path
     style="fill:#ffac11;fill-opacity:1;stroke:none;stroke-opacity:1"
     d="m 368.02148,168.63867 0.15235,0.2168 0.14648,0.23242 c -0.0933,-0.15779 -0.19185,-0.30811 -0.29883,-0.44922 z"
     id="path566" /><path
     style="fill:#ffac11;fill-opacity:1;stroke:none;stroke-opacity:1"
     d="m 367.67578,168.23828 0.17578,0.19336 0.16797,0.20508 c -0.10788,-0.14213 -0.22291,-0.27479 -0.34375,-0.39844 z"
     id="path565" /><path
     style="fill:#ffac11;fill-opacity:1;stroke:none;stroke-opacity:1"
     d="m 361.13477,170.07617 -0.043,0.0762 -0.20899,0.44727 c 0.0773,-0.1786 0.16231,-0.3532 0.25196,-0.52344 z"
     id="path564" /><path
     style="fill:#ffac11;fill-opacity:1;stroke:none;stroke-opacity:1"
     d="m 361.28906,169.79883 c -0.0531,0.0909 -0.10489,0.18352 -0.15429,0.27734 z"
     id="path563" /><path
     style="fill:#ffac11;fill-opacity:1;stroke:none;stroke-opacity:1"
     d="m 361.36914,169.66602 -0.0391,0.0586 -0.041,0.0742 c 0.0261,-0.0448 0.053,-0.0888 0.0801,-0.13281 z"
     id="path562" /><path
     style="fill:#ffac11;fill-opacity:1;stroke:none;stroke-opacity:1"
     d="m 361.59375,169.32031 c -0.0787,0.11196 -0.15214,0.22774 -0.22461,0.34571 z"
     id="path561" /><path
     style="fill:#ffac11;fill-opacity:1;stroke:none;stroke-opacity:1"
     d="m 361.83398,169.00391 c -0.0823,0.10252 -0.1637,0.20758 -0.24023,0.3164 z"
     id="path560" /><path
     style="fill:#ffac11;fill-opacity:1;stroke:none;stroke-opacity:1"
     d="m 361.9375,168.87891 -0.0566,0.0625 -0.0469,0.0625 c 0.0341,-0.0424 0.0685,-0.0838 0.10352,-0.125 z"
     id="path559" /><path
     style="fill:#ffac11;fill-opacity:1;stroke:none;stroke-opacity:1"
     d="m 362.19531,168.5918 c -0.0894,0.0917 -0.17398,0.18841 -0.25781,0.28711 z"
     id="path558" /><path
     style="fill:#ffac11;fill-opacity:1;stroke:none;stroke-opacity:1"
     d="m 362.45703,168.34375 c -0.0894,0.0798 -0.17723,0.16141 -0.26172,0.24805 z"
     id="path557" /><path
     style="fill:#ffac11;fill-opacity:1;stroke:none;stroke-opacity:1"
     d="m 362.60156,168.21875 -0.0703,0.0547 -0.0742,0.0703 c 0.0476,-0.0425 0.0956,-0.0846 0.14453,-0.125 z"
     id="path556" /><path
     style="fill:#ffac11;fill-opacity:1;stroke:none;stroke-opacity:1"
     d="m 362.8457,168.0293 c -0.0833,0.0602 -0.16441,0.12352 -0.24414,0.18945 z"
     id="path555" /><path
     style="fill:#ffac11;fill-opacity:1;stroke:none;stroke-opacity:1"
     d="m 362.94336,167.96289 -0.0488,0.0293 -0.0488,0.0371 c 0.032,-0.0231 0.0652,-0.0442 0.0977,-0.0664 z"
     id="path554" /><path
     style="fill:#ffac11;fill-opacity:1;stroke:none;stroke-opacity:1"
     d="m 363.2793,167.75 c -0.11529,0.0646 -0.22649,0.13794 -0.33594,0.21289 z"
     id="path553" /><path
     style="fill:#ffac11;fill-opacity:1;stroke:none;stroke-opacity:1"
     d="m 363.66211,167.5625 c -0.13055,0.0566 -0.25887,0.11804 -0.38281,0.1875 z"
     id="path552" /><path
     style="fill:#ffac11;fill-opacity:1;stroke:none;stroke-opacity:1"
     d="m 364.09375,167.40234 c -0.13044,0.0397 -0.25817,0.0865 -0.38281,0.13868 z"
     id="path551" /><path
     style="fill:#ffac11;fill-opacity:1;stroke:none;stroke-opacity:1"
     d="m 365.20312,167.19531 -0.26367,0.0176 -0.26757,0.0391 c 0.54315,-0.0981 1.05775,-0.0666 1.53124,0.0742 l -0.24023,-0.0625 -0.24609,-0.043 -0.25391,-0.0215 z"
     id="path386" /></g><path
   id="text25"
   style="white-space:pre;shape-inside:url(#rect25);display:inline;fill:url(#linearGradient713);stroke:none;stroke-opacity:1"
   d="m 158.07626,136.12695 c 0.0667,0 0.0996,0.0326 0.0996,0.0859 v 0.38086 c 0,0.0867 -0.0341,0.13153 -0.10742,0.1582 l -0.65234,0.30664 c -0.06,0.0333 -0.11935,0.041 -0.16602,0.041 -0.04,0 -0.0741,8e-4 -0.10742,-0.006 l -1.03321,-0.30664 c -0.0333,-0.007 -0.0601,-0.008 -0.0801,-0.008 -0.02,0 -0.0534,0.006 -0.0801,0.0195 l -0.65235,0.29493 c -0.04,0.0133 -0.0878,0.0332 -0.12109,0.0332 -0.06,0 -0.0996,-0.0349 -0.0996,-0.10156 v -0.36524 c 0,-0.1 0.0388,-0.14797 0.10547,-0.16797 l 0.6543,-0.3125 c 0.06,-0.02 0.12716,-0.0332 0.17383,-0.0332 0.04,0 0.0663,3.4e-4 0.0996,0.0137 l 1.03321,0.29297 c 0.0333,0.007 0.0667,0.006 0.0801,0.006 0.0267,0 0.0534,-0.006 0.0801,-0.006 l 0.66016,-0.29297 c 0.0333,-0.02 0.0799,-0.0332 0.11328,-0.0332 z m 86.9336,1.41211 c 0.80666,0 1.4121,0.47349 1.4121,1.16016 0,0.75333 -0.58549,1.18044 -1.29882,1.2871 l 1.83984,1.88672 c 0.0333,0.0267 0.0469,0.0741 0.0469,0.10743 -1e-5,0.0533 -0.0411,0.10546 -0.1211,0.10546 h -2.2793 c -0.16666,0 -0.31945,-0.053 -0.43945,-0.17968 l -2.00781,-2.06055 c -0.0733,-0.0733 -0.11328,-0.12609 -0.11328,-0.24609 v -0.20704 c 0,-0.11333 0.0538,-0.17382 0.17383,-0.17382 h 0.91406 c 0.42,0 0.63281,-0.16646 0.63281,-0.45313 0,-0.28666 -0.21281,-0.44531 -0.63281,-0.44531 h -1.48828 v 3.58594 c 0,0.12 -0.0597,0.17968 -0.17969,0.17968 h -2.28516 c -0.12,0 -0.18164,-0.0597 -0.18164,-0.17968 v -4.19336 c 0,-0.11334 0.0616,-0.17383 0.18164,-0.17383 z m -6.81446,0 c 0.12,0 0.17969,0.0605 0.17969,0.17383 v 0.42578 c 0,0.12 -0.0597,0.18164 -0.17969,0.18164 h -3.09961 c -0.58,0 -0.78711,0.21906 -0.78711,1.03906 v 0.72656 c 0,0.90667 0.24045,1.21289 0.78711,1.21289 h 3.1211 c 0.12,0 0.17968,0.0616 0.17968,0.18165 v 0.42578 c 0,0.12 -0.0597,0.17968 -0.17968,0.17968 h -4.68164 c -1.26,0 -2.18555,-0.95343 -2.18555,-2.27343 0,-1.30667 0.87221,-2.27344 2.18555,-2.27344 z m -6.96679,0 c 0.0867,0 0.12695,0.0279 0.12695,0.0879 v 0.61914 c 0,0.0533 -0.0403,0.0742 -0.12695,0.0742 h -1.95313 v 3.67969 c 0,0.06 -0.0391,0.0859 -0.11914,0.0859 h -2.39453 c -0.0867,0 -0.125,-0.0259 -0.125,-0.0859 v -3.67969 h -1.94727 c -0.0867,0 -0.12695,-0.0209 -0.12695,-0.0742 v -0.61914 c 0,-0.06 0.0403,-0.0879 0.12695,-0.0879 z m -7.25196,0 c 0.12,0 0.17969,0.0605 0.17969,0.17383 v 0.42578 c 0,0.12 -0.0597,0.18164 -0.17969,0.18164 h -3.61328 l 3.13281,1.47266 c 0.68667,0.32 0.8125,0.68716 0.8125,1.17382 0,0.59334 -0.43182,1.11914 -1.28515,1.11914 h -5.03321 c -0.11333,0 -0.17382,-0.0597 -0.17382,-0.17968 v -0.42578 c 0,-0.12 0.0605,-0.18165 0.17382,-0.18165 h 3.73829 l -3.13868,-1.47265 c -0.68,-0.32 -0.81445,-0.68602 -0.81445,-1.16602 0,-0.59333 0.43297,-1.12109 1.29297,-1.12109 z m -6.84765,0 c 0.12,0 0.17968,0.0605 0.17968,0.17383 v 0.42578 c 0,0.12 -0.0597,0.18164 -0.17968,0.18164 h -3.09961 c -0.58,0 -0.78711,0.21906 -0.78711,1.03906 v 0.72656 c 0,0.90667 0.24044,1.21289 0.78711,1.21289 h 3.11914 c 0.12,0 0.18164,0.0616 0.18164,0.18165 v 0.42578 c 0,0.12 -0.0616,0.17968 -0.18164,0.17968 h -4.67969 c -1.26,0 -2.18555,-0.95343 -2.18555,-2.27343 0,-1.30667 0.87222,-2.27344 2.18555,-2.27344 z m -6.9668,0 c 0.0867,0 0.12695,0.0279 0.12695,0.0879 v 0.61914 c 0,0.0533 -0.0403,0.0742 -0.12695,0.0742 h -1.95313 v 3.67969 c 0,0.06 -0.0391,0.0859 -0.11914,0.0859 h -2.39453 c -0.0867,0 -0.12695,-0.0259 -0.12695,-0.0859 v -3.67969 h -1.94531 c -0.0867,0 -0.12696,-0.0209 -0.12696,-0.0742 v -0.61914 c 0,-0.06 0.0403,-0.0879 0.12696,-0.0879 z m -7.23242,0 c 0.12,0 0.17968,0.0605 0.17968,0.17383 v 4.19336 c 0,0.12 -0.0597,0.17968 -0.17968,0.17968 h -0.46094 c -0.26667,0 -0.42542,-0.0261 -0.71875,-0.13281 l -5.31445,-1.98633 v 1.93946 c 0,0.12 -0.0597,0.17968 -0.17969,0.17968 h -0.85938 c -0.12,0 -0.17968,-0.0597 -0.17968,-0.17968 v -4.19336 c 0,-0.11334 0.0597,-0.17383 0.17968,-0.17383 h 0.82032 c 0.29333,0 0.42622,0.0136 0.71289,0.12695 l 4.95898,1.91406 v -1.86718 c 0,-0.11334 0.0597,-0.17383 0.17969,-0.17383 z m -8.49414,0 c 0.12,0 0.17968,0.0605 0.17968,0.17383 v 0.42578 c 0,0.12 -0.0597,0.18164 -0.17968,0.18164 h -3.09961 c -0.58,0 -0.78711,0.21906 -0.78711,1.03906 v 0.72656 c 0,0.90667 0.24044,1.21289 0.78711,1.21289 h 3.11914 c 0.12,0 0.18164,0.0616 0.18164,0.18165 v 0.42578 c 0,0.12 -0.0616,0.17968 -0.18164,0.17968 h -4.67969 c -1.26,0 -2.18555,-0.95343 -2.18555,-2.27343 0,-1.30667 0.87222,-2.27344 2.18555,-2.27344 z m -8.75391,0 c 0.87333,0 1.56055,0.54747 1.56055,1.49414 0,0.95333 -0.75243,1.44727 -1.73242,1.44727 h -2.48633 c -0.11334,0 -0.17383,-0.0616 -0.17383,-0.18165 v -0.42578 c 0,-0.12 0.0605,-0.17968 0.17383,-0.17968 h 0.85156 c 0.42,0 0.75391,-0.17417 0.75391,-0.6875 0,-0.47334 -0.33391,-0.68555 -0.75391,-0.68555 h -1.42578 v 3.58594 c 0,0.12 -0.0597,0.17968 -0.17969,0.17968 h -2.28711 c -0.11333,0 -0.17383,-0.0597 -0.17383,-0.17968 v -4.19336 c 0,-0.11334 0.0605,-0.17383 0.17383,-0.17383 z m -10.52539,0 c 0.80667,0 1.41211,0.47349 1.41211,1.16016 0,0.75333 -0.5855,1.18044 -1.29883,1.2871 l 1.83984,1.88672 c 0.0333,0.0267 0.0469,0.0741 0.0469,0.10743 0,0.0533 -0.0411,0.10546 -0.12109,0.10546 h -2.2793 c -0.16667,0 -0.31945,-0.053 -0.43945,-0.17968 l -2.00782,-2.06055 c -0.0733,-0.0733 -0.11328,-0.12609 -0.11328,-0.24609 v -0.20704 c 0,-0.11333 0.0538,-0.17382 0.17383,-0.17382 h 0.91406 c 0.42,0 0.63282,-0.16646 0.63282,-0.45313 -1e-5,-0.28666 -0.21282,-0.44531 -0.63282,-0.44531 h -1.48633 v 3.58594 c 0,0.12 -0.0616,0.17968 -0.18164,0.17968 h -2.28515 c -0.12,0 -0.18164,-0.0597 -0.18164,-0.17968 v -4.19336 c 0,-0.11334 0.0616,-0.17383 0.18164,-0.17383 z m -8.79297,0 c 1.32667,0 2.19922,0.97344 2.19922,2.27344 0,1.28 -0.88589,2.27343 -2.19922,2.27343 h -3.26758 c -1.3,0 -2.19336,-0.98677 -2.19336,-2.27343 0,-1.32 0.87336,-2.27344 2.19336,-2.27344 z m -6.20703,0 c 0.12,0 0.17969,0.0605 0.17969,0.17383 v 4.19336 c 0,0.12 -0.0597,0.17968 -0.17969,0.17968 h -0.46094 c -0.26666,0 -0.42541,-0.0261 -0.71875,-0.13281 l -5.31445,-1.98633 v 1.93946 c 0,0.12 -0.0597,0.17968 -0.17969,0.17968 h -0.85937 c -0.12,0 -0.17969,-0.0597 -0.17969,-0.17968 v -4.19336 c 0,-0.11334 0.0597,-0.17383 0.17969,-0.17383 h 0.82031 c 0.29333,0 0.42622,0.0136 0.71289,0.12695 l 4.95898,1.91406 v -1.86718 c 0,-0.11334 0.0616,-0.17383 0.18164,-0.17383 z m -8.49414,0 c 0.12,0 0.17969,0.0605 0.17969,0.17383 v 0.42578 c 0,0.12 -0.0597,0.18164 -0.17969,0.18164 h -3.09961 c -0.58,0 -0.78711,0.21906 -0.78711,1.03906 v 0.72656 c 0,0.90667 0.24044,1.21289 0.78711,1.21289 h 3.11914 c 0.12,0 0.18164,0.0616 0.18164,0.18165 v 0.42578 c 0,0.12 -0.0616,0.17968 -0.18164,0.17968 h -4.67969 c -1.26,0 -2.18554,-0.95343 -2.18554,-2.27343 0,-1.30667 0.87221,-2.27344 2.18554,-2.27344 z m -7.61328,0 c 0.12,0 0.17969,0.0605 0.17969,0.17383 v 0.42578 c 0,0.12 -0.0597,0.18164 -0.17969,0.18164 h -3.61328 l 3.13281,1.47266 c 0.68667,0.32 0.81445,0.68716 0.81445,1.17382 0,0.59334 -0.43377,1.11914 -1.28711,1.11914 h -5.0332 c -0.11333,0 -0.17383,-0.0597 -0.17383,-0.17968 v -0.42578 c 0,-0.12 0.0605,-0.18165 0.17383,-0.18165 h 3.74023 l -3.14062,-1.47265 c -0.68,-0.32 -0.8125,-0.68602 -0.8125,-1.16602 0,-0.59333 0.43297,-1.12109 1.29297,-1.12109 z m 21.0664,0.78125 h -0.90625 c -0.52666,0 -0.73242,0.2324 -0.73242,1.03906 v 0.72656 c 0,0.9 0.22576,1.21289 0.73242,1.21289 h 0.90625 c 0.54667,0 0.78711,-0.30622 0.78711,-1.21289 v -0.72656 c 0,-0.82 -0.20711,-1.03906 -0.78711,-1.03906 z m 73.03321,0.89844 c 0.11333,0 0.17383,0.0411 0.17383,0.12109 v 0.53906 c 0,0.08 -0.0605,0.1211 -0.17383,0.1211 h -3.18555 c -0.12,0 -0.17969,-0.0605 -0.17969,-0.17383 v -0.4336 c 0,-0.11333 0.0597,-0.17382 0.17969,-0.17382 z m -21.06641,0 c 0.11333,0 0.17383,0.0411 0.17383,0.12109 v 0.53906 c 0,0.08 -0.0605,0.1211 -0.17383,0.1211 h -3.18555 c -0.12,0 -0.17968,-0.0605 -0.17968,-0.17383 v -0.4336 c 0,-0.11333 0.0597,-0.17382 0.17968,-0.17382 z m -22.69336,0 c 0.11333,0 0.17383,0.0411 0.17383,0.12109 v 0.53906 c 0,0.08 -0.0605,0.1211 -0.17383,0.1211 h -3.18555 c -0.12,0 -0.17968,-0.0605 -0.17968,-0.17383 v -0.4336 c 0,-0.11333 0.0597,-0.17382 0.17968,-0.17382 z m -42.77344,0 c 0.11334,0 0.17383,0.0411 0.17383,0.12109 v 0.53906 c 0,0.08 -0.0605,0.1211 -0.17383,0.1211 h -3.18554 c -0.12,0 -0.17969,-0.0605 -0.17969,-0.17383 v -0.4336 c 0,-0.11333 0.0597,-0.17382 0.17969,-0.17382 z m 120.78711,13.32031 c 1.03334,0 1.51953,0.67432 1.51953,1.34766 0,0.65333 -0.45872,1.29296 -1.52539,1.29296 h -1.58789 c -0.69333,0 -0.8125,0.19303 -0.8125,0.67969 v 0.43945 h 3.8125 c 0.12,0 0.18164,0.0616 0.18164,0.18165 v 0.42578 c 0,0.12 -0.0616,0.17968 -0.18164,0.17968 h -6.16015 c -0.12,0 -0.17969,-0.0597 -0.17969,-0.17968 v -0.88086 c 0,-1.36 0.49453,-1.63282 2.89453,-1.63282 h 0.68555 c 0.35333,0 0.55469,-0.2002 0.55469,-0.54687 0,-0.35333 -0.20136,-0.52539 -0.55469,-0.52539 h -3.21875 c -0.12,0 -0.18164,-0.0616 -0.18164,-0.18164 v -0.42578 c 0,-0.11334 0.0616,-0.17383 0.18164,-0.17383 z m -10.08593,0 c 1.32666,0 2.19921,0.97344 2.19921,2.27344 0,1.28 -0.88588,2.27343 -2.19921,2.27343 h -2.61329 c -1.29999,0 -2.19335,-0.98677 -2.19335,-2.27343 0,-1.32 0.87336,-2.27344 2.19335,-2.27344 z m -5.20704,0 c 0.0733,0 0.12696,0.0466 0.12696,0.11328 0,0.0267 -0.0127,0.0674 -0.0527,0.10742 l -4.18164,4.19336 c -0.08,0.0867 -0.17263,0.13281 -0.27929,0.13281 h -0.43946 c -0.12,0 -0.21297,-0.0461 -0.29297,-0.13281 l -4.11523,-4.1875 c -0.0467,-0.04 -0.0586,-0.0858 -0.0586,-0.11914 0,-0.06 0.0457,-0.10742 0.15234,-0.10742 h 2.79297 c 0.15333,0 0.26099,0.0462 0.34765,0.13281 l 2.58594,2.67383 2.6875,-2.67383 c 0.0933,-0.0867 0.19904,-0.13281 0.34571,-0.13281 z m -12.11914,0 c 0.12,0 0.17969,0.0605 0.17969,0.17383 v 0.42578 c 0,0.12 -0.0597,0.18164 -0.17969,0.18164 h -3.10156 c -0.58,0 -0.78515,0.21906 -0.78515,1.03906 v 0.72656 c 0,0.90667 0.23848,1.21289 0.78515,1.21289 h 3.1211 c 0.11999,0 0.17968,0.0616 0.17968,0.18165 v 0.42578 c 0,0.12 -0.0597,0.17968 -0.17968,0.17968 h -4.67969 c -1.26,0 -2.1875,-0.95343 -2.1875,-2.27343 0,-1.30667 0.87416,-2.27344 2.1875,-2.27344 z m -6.65429,0 c 0.0733,0 0.12695,0.0466 0.12695,0.11328 0,0.0267 -0.0127,0.0674 -0.0527,0.10742 l -4.18164,4.19336 c -0.08,0.0867 -0.17264,0.13281 -0.2793,0.13281 h -0.43945 c -0.12,0 -0.21297,-0.0461 -0.29297,-0.13281 l -4.11328,-4.1875 c -0.0467,-0.04 -0.0606,-0.0858 -0.0606,-0.11914 0,-0.06 0.0457,-0.10742 0.15234,-0.10742 h 2.79492 c 0.15334,0 0.25904,0.0462 0.34571,0.13281 l 2.58593,2.67383 2.6875,-2.67383 c 0.0933,-0.0867 0.19904,-0.13281 0.34571,-0.13281 z m -11.08008,0 c 1.32666,0 2.19922,0.97344 2.19922,2.27344 0,1.28 -0.88589,2.27343 -2.19922,2.27343 h -3.26563 c -1.3,0 -2.19336,-0.98677 -2.19336,-2.27343 0,-1.32 0.87336,-2.27344 2.19336,-2.27344 z m -9.17969,0 c 0.12,0 0.17969,0.0605 0.17969,0.17383 v 2.60742 c 0,0.69333 0.20044,0.97851 0.78711,0.97851 h 2.61914 c 0.11333,0 0.17383,0.0616 0.17383,0.18165 v 0.42578 c 0,0.12 -0.0605,0.17968 -0.17383,0.17968 h -4.35938 c -1.32666,0 -1.95312,-0.78557 -1.95312,-1.8789 v -2.49414 c 0,-0.11334 0.0538,-0.17383 0.17383,-0.17383 z m -5.6543,0 c 0.12,0 0.17383,0.0605 0.17383,0.17383 v 0.42578 c 0,0.12 -0.0538,0.18164 -0.17383,0.18164 h -3.0996 c -0.58667,0 -0.78711,0.29185 -0.78711,0.97851 v 2.60743 c 0,0.12 -0.0597,0.17968 -0.17969,0.17968 h -2.55274 c -0.12,0 -0.17382,-0.0597 -0.17382,-0.17968 v -2.48633 c 0,-1.1 0.62645,-1.88086 1.95312,-1.88086 z m -9.52539,0 c 1.32667,0 2.19922,0.97344 2.19922,2.27344 0,1.28 -0.88588,2.27343 -2.19922,2.27343 H 199.629 c -1.3,0 -2.19336,-0.98677 -2.19336,-2.27343 0,-1.32 0.87336,-2.27344 2.19336,-2.27344 z m -8.20703,0 c 0.0867,0 0.12696,0.0463 0.12696,0.0996 0,0.0267 -0.0132,0.0679 -0.0332,0.0879 l -2.41406,2.55273 v 1.62696 c 0,0.12 -0.0597,0.17968 -0.17969,0.17968 h -2.29297 c -0.11333,0 -0.17382,-0.0597 -0.17382,-0.17968 v -1.58594 l -2.39258,-2.55469 c -0.04,-0.04 -0.0606,-0.0791 -0.0606,-0.11914 0,-0.0667 0.0661,-0.10742 0.13281,-0.10742 h 2.6875 c 0.12,0 0.21883,0.0462 0.29883,0.13281 l 1.77344,1.94727 1.84766,-1.95313 c 0.0933,-0.1 0.15963,-0.12695 0.29296,-0.12695 z m -10.41406,0 c 0.12,0 0.21297,0.047 0.29297,0.12695 l 4.12109,4.1875 c 0.04,0.04 0.0527,0.0936 0.0527,0.12696 0,0.06 -0.0457,0.10546 -0.15235,0.10546 h -2.79297 c -0.15333,0 -0.26099,-0.0461 -0.34765,-0.13281 l -2.58008,-2.67383 -2.03906,2.01953 h 3.02539 c 0.12,0 0.17969,0.0616 0.17969,0.18165 v 0.42578 c 0,0.12 -0.0597,0.17968 -0.17969,0.17968 h -4.40625 c -0.0733,0 -0.12695,-0.0466 -0.12695,-0.11328 0,-0.0267 0.0127,-0.0741 0.0527,-0.10742 l 4.18164,-4.19922 c 0.08,-0.08 0.17263,-0.12695 0.2793,-0.12695 z m -3.20703,0 c 0.1,0 0.14062,0.0474 0.14062,0.10742 0,0.0333 -0.0124,0.0733 -0.0391,0.11328 l -3.17383,4.19336 c -0.0733,0.1 -0.17263,0.13281 -0.27929,0.13281 h -0.38086 c -0.12667,0 -0.22745,-0.0328 -0.30078,-0.13281 l -2.09961,-2.83398 -2.25391,2.83398 c -0.0733,0.1 -0.16482,0.13281 -0.27148,0.13281 h -0.38672 c -0.12667,0 -0.22078,-0.0395 -0.30078,-0.13281 l -3.46094,-4.1875 c -0.04,-0.04 -0.0527,-0.0799 -0.0527,-0.11328 0,-0.0667 0.0532,-0.11328 0.14649,-0.11328 h 2.56055 c 0.14666,0 0.25903,0.0328 0.3457,0.13281 l 2.00781,2.50781 2.01953,-2.50781 c 0.0733,-0.1 0.19318,-0.13281 0.33985,-0.13281 h 0.41992 c 0.14666,0 0.26651,0.0328 0.33984,0.13281 l 2,2.67383 2.09375,-2.67383 c 0.08,-0.1 0.19432,-0.13281 0.34766,-0.13281 z m -13.33203,0 c 0.12,0 0.17969,0.0605 0.17969,0.17383 v 0.42578 c 0,0.12 -0.0597,0.18164 -0.17969,0.18164 h -3.09961 c -0.58,0 -0.78711,0.21906 -0.78711,1.03906 v 0.72656 c 0,0.90667 0.24044,1.21289 0.78711,1.21289 h 3.11914 c 0.12,0 0.17969,0.0616 0.17969,0.18165 v 0.42578 c 0,0.12 -0.0597,0.17968 -0.17969,0.17968 h -4.67969 c -1.26,0 -2.1875,-0.95343 -2.1875,-2.27343 0,-1.30667 0.87417,-2.27344 2.1875,-2.27344 z m -7.54102,0 c 0.12,0 0.17969,0.0605 0.17969,0.17383 v 0.42578 c 0,0.12 -0.0597,0.18164 -0.17969,0.18164 h -3.09961 c -0.58,0 -0.78711,0.21906 -0.78711,1.03906 v 0.72656 c 0,0.90667 0.24045,1.21289 0.78711,1.21289 h 3.1211 c 0.12,0 0.17968,0.0616 0.17968,0.18165 v 0.42578 c 0,0.12 -0.0597,0.17968 -0.17968,0.17968 h -4.68164 c -1.26,0 -2.18555,-0.95343 -2.18555,-2.27343 0,-1.30667 0.87221,-2.27344 2.18555,-2.27344 z m -8.8125,0 c 0.80667,0 1.41406,0.47349 1.41406,1.16016 0,0.75333 -0.58744,1.18044 -1.30078,1.2871 l 1.83985,1.88672 c 0.0333,0.0267 0.0469,0.0741 0.0469,0.10743 0,0.0533 -0.0411,0.10546 -0.12109,0.10546 h -2.2793 c -0.16667,0 -0.31945,-0.053 -0.43945,-0.17968 l -2.00781,-2.06055 c -0.0733,-0.0733 -0.11329,-0.12609 -0.11329,-0.24609 v -0.20704 c 0,-0.11333 0.0538,-0.17382 0.17383,-0.17382 h 0.91407 c 0.41999,0 0.63281,-0.16646 0.63281,-0.45313 0,-0.28666 -0.21282,-0.44531 -0.63281,-0.44531 h -1.48633 v 3.58594 c 0,0.12 -0.0616,0.17968 -0.18164,0.17968 h -2.28516 c -0.12,0 -0.18164,-0.0597 -0.18164,-0.17968 v -4.19336 c 0,-0.11334 0.0616,-0.17383 0.18164,-0.17383 z m -6.63281,0 c 0.12,0 0.17187,0.0605 0.17187,0.17383 v 0.42578 c 0,0.12 -0.0519,0.18164 -0.17187,0.18164 h -3.10156 c -0.58667,0 -0.78516,0.29185 -0.78516,0.97851 v 2.60743 c 0,0.12 -0.0616,0.17968 -0.18164,0.17968 H 138.129 c -0.12,0 -0.17383,-0.0597 -0.17383,-0.17968 v -2.48633 c 0,-1.1 0.62841,-1.88086 1.95508,-1.88086 z m 116.43945,0.78125 h -0.49414 c -0.52,0 -0.73242,0.2324 -0.73242,1.03906 v 0.72656 c 0,0.9 0.22576,1.21289 0.73242,1.21289 h 0.49414 c 0.54667,0 0.78711,-0.30622 0.78711,-1.21289 v -0.72656 c 0,-0.82 -0.21377,-1.03906 -0.78711,-1.03906 z m -35.17968,0 h -0.90625 c -0.52667,0 -0.73438,0.2324 -0.73438,1.03906 v 0.72656 c 0,0.9 0.22771,1.21289 0.73438,1.21289 h 0.90625 c 0.54666,0 0.7871,-0.30622 0.7871,-1.21289 v -0.72656 c 0,-0.82 -0.20711,-1.03906 -0.7871,-1.03906 z m -24.36133,0 h -0.90625 c -0.52667,0 -0.73242,0.2324 -0.73242,1.03906 v 0.72656 c -1e-5,0.9 0.22575,1.21289 0.73242,1.21289 h 0.90625 c 0.54666,0 0.78711,-0.30622 0.78711,-1.21289 v -0.72656 c 0,-0.82 -0.20711,-1.03906 -0.78711,-1.03906 z m 43.29492,0.89844 c 0.11333,0 0.17187,0.0411 0.17187,0.12109 v 0.53906 c 0,0.08 -0.0585,0.1211 -0.17187,0.1211 h -3.1875 c -0.12,0 -0.17969,-0.0605 -0.17969,-0.17383 v -0.4336 c 0,-0.11333 0.0597,-0.17382 0.17969,-0.17382 z m -32.56055,0 c 0.12,0 0.17969,0.0411 0.17969,0.12109 v 0.53906 c 0,0.08 -0.0597,0.1211 -0.17969,0.1211 h -3.19336 c -0.12,0 -0.17968,-0.0605 -0.17968,-0.17383 v -0.4336 c -1e-5,-0.11333 0.0597,-0.17382 0.17968,-0.17382 z m -44.69336,0 c 0.11334,0 0.17383,0.0411 0.17383,0.12109 v 0.53906 c 0,0.08 -0.0605,0.1211 -0.17383,0.1211 h -3.1875 c -0.12,0 -0.17968,-0.0605 -0.17968,-0.17383 v -0.4336 c 0,-0.11333 0.0597,-0.17382 0.17968,-0.17382 z m -7.54101,0 c 0.11333,0 0.17383,0.0411 0.17383,0.12109 v 0.53906 c 0,0.08 -0.0605,0.1211 -0.17383,0.1211 h -3.18555 c -0.12,0 -0.17969,-0.0605 -0.17969,-0.17383 v -0.4336 c 0,-0.11333 0.0597,-0.17382 0.17969,-0.17382 z m -15.43946,0 c 0.12,0 0.17969,0.0411 0.17969,0.12109 v 0.53906 c 0,0.08 -0.0597,0.1211 -0.17969,0.1211 h -3.19336 c -0.12,0 -0.17968,-0.0605 -0.17968,-0.17383 v -0.4336 c 0,-0.11333 0.0597,-0.17382 0.17968,-0.17382 z m 121.75391,1.31445 c 0.2,0 0.29883,0.0996 0.29883,0.29297 v 0.96094 c 0,0.2 -0.0988,0.29882 -0.29883,0.29882 h -1.06055 c -0.19333,0 -0.29882,-0.0988 -0.29882,-0.29882 v -0.96094 c 0,-0.19333 0.10549,-0.29297 0.29882,-0.29297 z" /><path
   id="rect24"
   style="fill:url(#linearGradient25);stroke-width:1.27461"
   d="m 110.37109,160.67872 v 16.33256 H 89.157542 v -16.33256 z" /><path
   style="fill:#000000;stroke-width:0.219201"
   d="m 88.967162,169.07277 v -8.39405 h 10.70196 10.701968 v 8.39405 8.39406 H 99.669122 88.967162 Z m 9.48335,7.83199 c 0.111,-0.0965 0.11112,-0.21083 4.4e-4,-0.35364 -0.0479,-0.0617 -0.087,-0.16835 -0.087,-0.23682 0,-0.14058 0.0822,-0.34956 0.1375,-0.34956 0.0624,0 0.0402,-0.14364 -0.0356,-0.22846 -0.11808,-0.13253 -0.26512,-0.0988 -0.46799,0.10719 -0.35533,0.36084 -0.35574,0.50407 -0.002,0.83537 0.11237,0.10541 0.22659,0.21569 0.25373,0.24515 0.067,0.0727 0.0989,0.0697 0.20112,-0.0192 z m 1.17798,-0.0138 c 0.0856,-0.0465 0.1238,-0.30771 0.0449,-0.30771 -0.0645,0 -0.13364,-0.25974 -0.10628,-0.3988 0.014,-0.0711 0.0524,-0.15212 0.0855,-0.17995 0.0885,-0.0746 0.0731,-0.21672 -0.0337,-0.31068 -0.13988,-0.12326 -0.19432,-0.10478 -0.45297,0.15379 -0.20258,0.20246 -0.23644,0.25995 -0.23644,0.40145 0,0.1408 0.0341,0.19948 0.23093,0.3978 0.19515,0.19659 0.28234,0.26406 0.37011,0.28635 0.007,0.001 0.0516,-0.0172 0.0979,-0.0423 z m 1.146868,-0.0237 c 0.0906,-0.092 0.0849,-0.19378 -0.0187,-0.32819 -0.1085,-0.14096 -0.109,-0.29081 -10e-4,-0.50477 0.0678,-0.13503 0.0755,-0.18921 0.037,-0.26336 -0.11298,-0.21811 -0.20058,-0.20859 -0.4623,0.0502 -0.21113,0.20879 -0.3126,0.35623 -0.3126,0.45422 0,0.0709 0.56683,0.66131 0.63483,0.66131 0.0303,0 0.0858,-0.0314 0.12342,-0.0695 z m 1.5475,-0.0631 c 0,-0.0785 -0.029,-0.0883 -0.26103,-0.0883 h -0.26102 v -0.1988 -0.19881 h 0.23927 c 0.21027,0 0.23927,-0.0102 0.23927,-0.0883 0,-0.0776 -0.029,-0.0883 -0.23927,-0.0883 h -0.23927 v -0.15201 c 0,-0.18807 0.0469,-0.21908 0.31238,-0.20677 0.16446,0.008 0.20967,-0.005 0.20967,-0.0587 0,-0.0565 -0.0649,-0.0685 -0.36979,-0.0685 h -0.36978 v 0.6185 0.61852 h 0.36978 c 0.34079,0 0.36979,-0.008 0.36979,-0.0883 z m 0.56555,-0.26647 c 0,-0.49952 0.0482,-0.50214 0.48814,-0.0264 0.49695,0.53743 0.51245,0.53024 0.51245,-0.23727 0,-0.58461 -0.005,-0.6185 -0.0851,-0.6185 -0.0762,0 -0.0865,0.0363 -0.0979,0.34238 -0.0115,0.31713 -0.02,0.34345 -0.11089,0.35655 -0.0682,0.0102 -0.13439,-0.0305 -0.21747,-0.13255 -0.31699,-0.38957 -0.50553,-0.56638 -0.60393,-0.56638 h -0.1028 v 0.6185 0.61852 h 0.10876 c 0.10702,0 0.10876,-0.006 0.10876,-0.35483 z m 2.24045,0.31065 c 0.0148,-0.0242 0.0649,-0.0442 0.11141,-0.0442 0.0742,0 0.0844,-0.0323 0.0844,-0.26508 V 176.274 h -0.17402 c -0.12568,0 -0.17401,0.0185 -0.17401,0.0663 0,0.0365 0.0379,0.0663 0.0841,0.0663 0.10311,0 0.15984,0.15741 0.0882,0.24511 -0.0315,0.0385 -0.12987,0.0641 -0.24621,0.0641 -0.15796,0 -0.21829,-0.0248 -0.3263,-0.13456 -0.11994,-0.12198 -0.13055,-0.15507 -0.11191,-0.35204 0.0323,-0.34056 0.28931,-0.49244 0.68193,-0.40288 0.19274,0.044 0.23806,-0.005 0.10223,-0.10936 -0.0971,-0.0748 -0.5345,-0.0788 -0.66933,-0.006 -0.16809,0.0906 -0.29864,0.22405 -0.29864,0.30515 0,0.0418 -0.0195,0.0882 -0.0435,0.10325 -0.0937,0.0589 10e-4,0.42513 0.15003,0.57784 0.15469,0.15883 0.67287,0.26441 0.7418,0.15112 z m 0.74473,-0.12148 c 0.0843,-0.16287 0.0905,-0.16589 0.36884,-0.17853 l 0.28312,-0.0129 0.0867,0.16748 c 0.0534,0.10324 0.12338,0.17291 0.18261,0.18162 0.0529,0.008 0.096,0.003 0.096,-0.0102 0,-0.0135 -0.0803,-0.20866 -0.17846,-0.43381 -0.0981,-0.22517 -0.20108,-0.46902 -0.22874,-0.54193 -0.0797,-0.21009 -0.11229,-0.24298 -0.24057,-0.24298 -0.10503,0 -0.13487,0.0329 -0.23105,0.25403 -0.0608,0.13973 -0.1365,0.3286 -0.16834,0.41971 -0.0319,0.0911 -0.0735,0.16567 -0.0925,0.16567 -0.0191,0 -0.0348,0.0359 -0.0348,0.0799 0,0.044 -0.0287,0.11854 -0.0639,0.16567 -0.0894,0.11994 -0.0821,0.15204 0.0344,0.15204 0.0726,0 0.12529,-0.0468 0.18683,-0.16568 z m 0.16629,-0.32451 c -0.0261,-0.043 -0.003,-0.11867 0.11025,-0.34922 0.0626,-0.12814 0.18546,-0.074 0.24788,0.10911 0.0329,0.0965 0.0502,0.2008 0.0384,0.23194 -0.0264,0.0696 -0.35498,0.0764 -0.39646,0.009 z m 1.96025,0.44601 c 0.0148,-0.0242 0.0649,-0.0442 0.1114,-0.0442 0.0742,0 0.0844,-0.0323 0.0844,-0.26508 V 176.274 h -0.19576 c -0.1408,0 -0.19577,0.0178 -0.19577,0.0632 0,0.0348 0.044,0.0696 0.0978,0.0774 0.0649,0.009 0.10273,0.0497 0.11255,0.11956 0.0185,0.13353 -0.0543,0.18018 -0.28323,0.18103 -0.14523,4.3e-4 -0.20834,-0.0265 -0.31541,-0.13525 -0.1806,-0.18341 -0.18567,-0.4223 -0.013,-0.61844 0.10248,-0.11637 0.1537,-0.13813 0.33716,-0.14306 0.11905,-0.003 0.27025,0.009 0.33603,0.0269 0.13883,0.038 0.16379,-0.0356 0.0435,-0.1283 -0.11331,-0.0873 -0.59616,-0.0785 -0.74109,0.0135 -0.2491,0.15835 -0.29213,0.23607 -0.29213,0.52778 0,0.29378 0.0804,0.43356 0.32515,0.56552 0.13027,0.0702 0.54996,0.0877 0.58844,0.0245 z m 1.37038,-0.0442 c 0,-0.0793 -0.0289,-0.0883 -0.28279,-0.0883 h -0.28277 v -0.1988 -0.1988 h 0.23927 c 0.21026,0 0.23927,-0.0102 0.23927,-0.0883 0,-0.0776 -0.0289,-0.0883 -0.23927,-0.0883 h -0.23927 v -0.15602 c 0,-0.17936 0.047,-0.2092 0.33888,-0.21535 0.11586,-0.003 0.20486,-0.027 0.21561,-0.0593 0.0138,-0.0416 -0.0799,-0.0552 -0.37686,-0.0552 h -0.39514 v 0.6185 0.61852 h 0.39153 c 0.36251,0 0.39154,-0.006 0.39154,-0.0883 z m -0.0407,-1.85708 c 0.1049,-0.0571 0.11,-0.21373 0.008,-0.24683 -0.0419,-0.0136 -0.11522,-0.041 -0.16313,-0.0611 -0.0479,-0.02 -0.19469,-0.0705 -0.32629,-0.11191 -0.13159,-0.0416 -0.28424,-0.0929 -0.3392,-0.1142 -0.0549,-0.0212 -1.62707,-0.0386 -3.49357,-0.0386 -3.32369,0 -3.39766,-0.001 -3.58856,-0.0901 -0.12506,-0.0579 -0.40089,-0.29722 -0.7698,-0.66807 -0.693678,-0.69727 -0.850218,-0.81904 -1.102208,-0.85742 -0.31191,-0.0474 -0.5477,0.0459 -0.86185,0.34147 -0.15169,0.14271 -0.33045,0.30315 -0.39726,0.35652 -0.0669,0.0534 -0.21097,0.18832 -0.32038,0.29993 -0.21423,0.21853 -0.6018,0.48519 -0.70518,0.48519 -0.0349,0 -0.0881,0.0249 -0.11795,0.0552 -0.0796,0.0808 -5.79868,0.0808 -5.82518,0 -0.01,-0.0303 -0.0585,-0.0552 -0.10789,-0.0552 -0.10678,0 -0.4802,-0.29851 -0.44527,-0.35591 0.0133,-0.0219 0.005,-0.0756 -0.0177,-0.11943 -0.0587,-0.11127 -0.77954,-0.82517 -0.84938,-0.84108 -0.0316,-0.008 -0.189,0.12185 -0.3498,0.28679 -0.24257,0.24877 -0.28841,0.31874 -0.2691,0.41068 0.0727,0.3463 0.145,0.64925 0.16878,0.70726 0.0149,0.0365 0.0334,0.10604 0.0411,0.15463 0.01,0.0608 0.0477,0.0883 0.12218,0.0883 0.0895,0 0.10851,-0.0217 0.11026,-0.12657 8.7e-4,-0.0697 0.0377,-0.15305 0.0813,-0.18539 0.0666,-0.0495 0.0956,-0.0478 0.18279,0.0102 0.0571,0.038 0.10366,0.0865 0.10366,0.10809 0,0.0215 0.0544,0.0391 0.12107,0.0391 0.10975,0 0.24676,0.0818 0.44401,0.26506 0.0974,0.0905 0.33469,0.20132 0.54427,0.25419 0.24647,0.0622 18.008158,0.0712 18.122228,0.009 z m -14.621908,-3.33072 c 0.0389,-0.0737 0.0503,-0.22594 0.0368,-0.48837 -0.0185,-0.3577 -0.0283,-0.3899 -0.15868,-0.52237 l -0.13897,-0.14119 -1.66755,-0.0139 -1.66755,-0.0139 -0.1561,-0.13067 c -0.26097,-0.21844 -0.29207,-0.32861 -0.29207,-1.03447 0,-0.47782 0.016,-0.65969 0.0674,-0.76429 0.0795,-0.16184 0.29185,-0.35345 0.42536,-0.38381 0.0519,-0.0115 0.80907,-0.0268 1.68242,-0.0331 1.74219,-0.0128 1.72116,-0.0102 1.84893,-0.28298 0.0758,-0.16213 0.0894,-0.77102 0.0201,-0.90231 -0.0814,-0.15447 -0.33078,-0.1091 -0.62928,0.11459 -0.32562,0.24399 -0.55323,0.36514 -0.80482,0.4284 -0.10764,0.027 -0.7537,0.0607 -1.43563,0.0748 -1.27311,0.0264 -1.33771,0.0356 -1.51506,0.21749 -0.22481,0.23055 -0.2251,0.23247 -0.2251,1.53115 0,1.29949 1.5e-4,1.30047 0.22608,1.53215 0.19655,0.20153 0.27608,0.21293 1.48666,0.21293 0.90892,0 1.20821,0.0148 1.42072,0.0701 0.25199,0.0655 0.64049,0.24468 0.69322,0.31963 0.0129,0.0184 0.11983,0.0973 0.23752,0.17524 0.26553,0.17606 0.46436,0.18873 0.54549,0.0348 z m 8.818488,-0.13842 0.14597,-0.11306 1.07625,0.006 c 0.59194,0.004 1.14476,0.0133 1.22851,0.0218 0.18875,0.0192 2.22467,0.0874 2.60961,0.0874 0.27921,0 0.2829,-10e-4 0.35681,-0.15464 0.0846,-0.17517 0.10681,-0.75906 0.0361,-0.94811 -0.0463,-0.12363 -0.142,-0.18176 -0.22904,-0.13927 -0.0858,0.0418 -0.21926,0.13244 -0.28405,0.19276 -0.0326,0.0305 -0.0971,0.0552 -0.14324,0.0552 -0.0461,0 -0.0839,0.0167 -0.0839,0.037 0,0.0614 -0.58151,0.18395 -0.87368,0.18395 -0.15067,0 -0.38279,0.0196 -0.51584,0.0437 -0.13303,0.024 -0.74109,0.065 -1.35124,0.0909 -0.61013,0.0259 -1.42258,0.0609 -1.80541,0.0778 l -0.69606,0.0307 0.009,0.12888 c 0.005,0.0709 0.0247,0.14045 0.0439,0.15462 0.0191,0.0142 0.0835,0.10019 0.14307,0.19113 0.0597,0.0909 0.12606,0.16551 0.14778,0.16567 0.0217,1.7e-4 0.10503,-0.0506 0.18535,-0.11267 z m -2.97192,-2.86677 c 0.12901,-0.0839 0.29089,-0.16607 0.35975,-0.18281 0.0689,-0.0168 0.14478,-0.0459 0.16871,-0.0645 0.0519,-0.0407 0.87938,-0.12173 1.78366,-0.1746 0.90871,-0.0531 1.21244,-0.11204 1.48194,-0.2871 0.24529,-0.15937 0.45398,-0.3547 0.45398,-0.42496 0,-0.0706 -0.11637,-0.17155 -0.19769,-0.17155 -0.0404,0 -0.16481,0.0682 -0.2765,0.1514 -0.11179,0.0834 -0.26116,0.16552 -0.3321,0.18279 -0.071,0.0173 -0.15233,0.05 -0.1808,0.0727 -0.0284,0.0227 -0.22422,0.0319 -0.43503,0.0203 -1.26466,-0.0695 -3.05967,-0.12721 -3.15937,-0.10184 l -0.11696,0.0298 v 0.49839 c 0,0.66875 0.0459,0.7148 0.45038,0.45204 z m -1.049808,-2.84194 c 0.089,-0.0419 0.40032,-0.30477 0.691748,-0.58422 0.70883,-0.67965 0.8113,-0.74982 1.34641,-0.92196 0.21806,-0.0702 5.60459,-0.0704 5.82334,-1.7e-4 0.20081,0.0644 0.39461,0.16822 0.50071,0.26828 0.0464,0.0437 0.10261,0.0795 0.12491,0.0795 0.0223,0 0.0153,0.0311 -0.0157,0.069 -0.0484,0.0593 0.0102,0.13636 0.41866,0.55282 l 0.475,0.48388 0.31443,-0.32089 c 0.3439,-0.35091 0.35697,-0.39003 0.25391,-0.75877 -0.0345,-0.12351 -0.0945,-0.33694 -0.13307,-0.47401 l -0.0702,-0.24921 -0.12695,0.0487 c -0.11727,0.045 -0.12492,0.0614 -0.10083,0.21535 0.0371,0.23532 -0.0728,0.2713 -0.26147,0.0855 -0.0774,-0.0761 -0.18102,-0.13838 -0.23042,-0.13838 -0.0757,0 -0.37673,-0.20274 -0.44951,-0.3028 -0.038,-0.0523 -0.27497,-0.15024 -0.47887,-0.19797 -0.13071,-0.0306 -3.16295,-0.0505 -9.125998,-0.0599 -8.17817,-0.013 -8.9393,-0.008 -9.03793,0.0575 -0.21712,0.14447 -0.15306,0.20624 0.43093,0.41556 l 0.36798,0.13191 h 3.27882 c 3.08174,0 3.2926,0.005 3.50793,0.082 0.126,0.0451 0.25152,0.10464 0.27892,0.13254 0.0275,0.0279 0.0664,0.0506 0.0866,0.0506 0.0203,0 0.31489,0.28121 0.65474,0.62491 0.36293,0.36705 0.68973,0.65834 0.79194,0.7059 0.21806,0.10145 0.47416,0.10311 0.68393,0.005 z m -5.33744,-2.94555 c 0.16075,-0.0682 0.18493,-0.11739 0.0951,-0.19312 -0.0354,-0.0298 -0.0792,-0.0321 -0.1197,-0.006 -0.0886,0.057 -0.29024,0.0524 -0.40382,-0.009 -0.14827,-0.0802 -0.2009,-0.17668 -0.20239,-0.3711 -8.7e-4,-0.14205 0.0254,-0.20548 0.12666,-0.30407 0.11423,-0.11114 0.1516,-0.12236 0.34592,-0.10337 0.23949,0.0233 0.3401,-0.0285 0.24417,-0.12593 -0.0382,-0.0388 -0.16178,-0.0602 -0.34525,-0.0602 -0.27552,0 -0.29219,0.006 -0.4599,0.17671 -0.15425,0.15665 -0.17399,0.20055 -0.17385,0.38658 2.2e-4,0.27673 0.12367,0.47817 0.35965,0.58696 0.22193,0.10235 0.33458,0.10719 0.53342,0.0227 z m 1.23286,0.005 c 0.0377,-0.046 0.0144,-0.091 -0.10341,-0.1999 l -0.152,-0.14045 -0.15499,0.14323 c -0.14283,0.132 -0.14901,0.14766 -0.0787,0.19988 0.10043,0.0746 0.4274,0.0727 0.48911,-0.003 z m 2.83839,-0.15244 c 0.32734,-0.34455 0.32145,-0.44063 -0.0501,-0.81531 -0.13999,-0.14121 -0.24467,-0.20986 -0.31996,-0.20986 -0.16027,0 -0.19423,0.17173 -0.0747,0.37754 0.11311,0.19474 0.11311,0.21204 2.2e-4,0.44891 -0.0855,0.17947 -0.0869,0.19865 -0.0208,0.30111 0.10702,0.16595 0.23756,0.13722 0.4652,-0.10235 z m 1.09958,-0.0359 c 0.14948,-0.15179 0.244,-0.28569 0.244,-0.34565 0,-0.0598 -0.10218,-0.20487 -0.26308,-0.37346 -0.21345,-0.22361 -0.28523,-0.27298 -0.38066,-0.26181 -0.0925,0.0115 -0.12056,0.0403 -0.13161,0.13813 -0.007,0.0685 0.0168,0.17208 0.0543,0.23039 0.0851,0.13191 0.0859,0.32496 0.001,0.43789 -0.084,0.11268 -0.0809,0.24161 0.009,0.34151 0.11535,0.1295 0.20756,0.0966 0.46708,-0.167 z m 1.098948,0.0115 c 0.31385,-0.31874 0.31191,-0.4088 -0.0162,-0.74544 -0.24726,-0.25374 -0.37757,-0.30842 -0.482078,-0.20231 -0.0716,0.0727 -0.0655,0.20486 0.0129,0.28458 0.120698,0.12262 0.128748,0.28415 0.0241,0.48447 -0.0962,0.18407 -0.0965,0.18991 -0.0175,0.29996 0.119448,0.16646 0.220578,0.14085 0.478668,-0.12135 z m -10.145678,0.10503 c 0.14575,-0.0718 0.19057,-0.12555 0.25329,-0.30494 0.0737,-0.21078 0.0735,-0.22448 -0.01,-0.42059 -0.12355,-0.29262 -0.28627,-0.37989 -0.70894,-0.38008 l -0.33715,-1.8e-4 v 0.59642 0.59641 h 0.31254 c 0.22208,0 0.36382,-0.0251 0.48963,-0.0871 z m -0.53028,-0.13906 c -0.0713,-0.0742 -0.0731,-0.66504 -0.002,-0.73701 0.0931,-0.0946 0.31844,-0.0622 0.44216,0.0635 0.13933,0.14148 0.15628,0.42248 0.0352,0.58241 -0.0925,0.12211 -0.39048,0.17926 -0.47511,0.0911 z m 2.01206,0.13775 c 0,-0.0503 -0.0645,-0.0695 -0.268,-0.0793 -0.28926,-0.0142 -0.34126,-0.0594 -0.29279,-0.25554 0.0239,-0.0966 0.0491,-0.10694 0.26098,-0.10694 0.20555,0 0.23455,-0.0115 0.23455,-0.0883 0,-0.0774 -0.029,-0.0883 -0.23461,-0.0883 -0.249,0 -0.31655,-0.0582 -0.26373,-0.22712 0.0213,-0.0679 0.0704,-0.0822 0.28375,-0.0822 0.2291,0 0.25809,-0.0102 0.25809,-0.0883 0,-0.0818 -0.029,-0.0883 -0.39153,-0.0883 h -0.39153 v 0.56698 c 0,0.31182 0.0138,0.58093 0.0306,0.59801 0.0168,0.0171 0.1979,0.0254 0.40242,0.0185 0.29598,-0.0102 0.37184,-0.0261 0.37184,-0.0789 z m 0.63931,-0.12147 0.0133,-0.20986 0.22839,-0.0134 c 0.19046,-0.0115 0.2284,-0.0273 0.2284,-0.097 0,-0.0682 -0.0375,-0.086 -0.20218,-0.0971 -0.2298,-0.0153 -0.30432,-0.0932 -0.26018,-0.27171 0.0271,-0.11 0.0447,-0.11727 0.27871,-0.11727 0.20261,0 0.25998,-0.0167 0.30407,-0.0883 0.0529,-0.0862 0.0435,-0.0883 -0.38107,-0.0883 h -0.43542 v 0.59642 0.59642 h 0.1064 c 0.0961,0 0.10764,-0.0204 0.11957,-0.20986 z m 3.90684,-0.12147 c 0,-0.18224 0.0164,-0.33134 0.0363,-0.33134 0.0364,0 0.26821,0.24622 0.26821,0.28486 0,0.0115 0.0758,0.10401 0.16864,0.20602 0.27183,0.29896 0.30991,0.24424 0.30991,-0.44531 v -0.57572 h -0.11262 c -0.11224,0 -0.11261,0.001 -0.0981,0.3203 0.0125,0.2712 0.004,0.3203 -0.0556,0.3203 -0.0385,0 -0.18316,-0.14412 -0.32138,-0.3203 -0.18428,-0.23489 -0.27864,-0.3203 -0.35386,-0.3203 -0.10241,0 -0.10254,8.8e-4 -0.10254,0.56697 0,0.31183 0.013,0.58022 0.029,0.59642 0.0159,0.0162 0.0747,0.0294 0.13051,0.0294 0.0973,0 0.10155,-0.0136 0.10155,-0.33133 z m -1.52263,0.2209 c 0,-0.0128 -0.01,-0.0221 -0.0218,-0.0221 -0.0125,0 -0.0218,0.0102 -0.0218,0.0221 0,0.0127 0.01,0.022 0.0218,0.022 0.0125,0 0.0218,-0.0102 0.0218,-0.022 z m 0.97103,-0.35733 c 0.0129,-0.0809 0.005,-0.21556 -0.0179,-0.29916 -0.0477,-0.1755 -0.2805,-0.4259 -0.39592,-0.4259 -0.0434,0 -0.0787,-0.0198 -0.0787,-0.0442 0,-0.14069 -0.42476,0.0488 -0.61993,0.27672 -0.097,0.11306 -0.11945,0.1819 -0.11871,0.36221 4.4e-4,0.14623 0.0281,0.25842 0.0802,0.3271 l 0.0792,0.10452 -0.004,-0.10452 c -0.002,-0.0825 0.0213,-0.10758 0.1156,-0.11854 0.0658,-0.008 0.11957,-0.0321 0.11957,-0.0544 0,-0.0222 -0.0538,-0.0524 -0.11957,-0.067 -0.20834,-0.0463 -0.2284,-0.0588 -0.2284,-0.14195 0,-0.10159 0.11274,-0.2635 0.15422,-0.22138 0.0169,0.0172 0.0732,-0.0326 0.12492,-0.11063 0.0847,-0.12764 0.11559,-0.14182 0.3093,-0.14182 0.19187,0 0.22142,0.0131 0.27255,0.12147 0.0316,0.0668 0.086,0.1216 0.12119,0.1216 0.0818,0 0.16907,0.19233 0.1319,0.29068 -0.0157,0.0416 -0.0395,0.0642 -0.053,0.0506 -0.0345,-0.0351 -0.27805,0.0567 -0.27805,0.1049 0,0.0219 0.0496,0.0399 0.11013,0.0399 0.13281,0 0.17507,0.089 0.10838,0.22848 -0.0404,0.0848 -0.0303,0.0804 0.0572,-0.0242 0.0584,-0.07 0.11684,-0.19339 0.12979,-0.27433 z m -0.7245,-0.48943 c -0.0159,-0.0163 -0.029,-0.003 -0.029,0.0294 0,0.0325 0.013,0.0456 0.029,0.0296 0.0159,-0.0163 0.0159,-0.0428 0,-0.059 z m 0.21752,0 c -0.016,-0.0163 -0.0291,-0.003 -0.0291,0.0294 0,0.0325 0.0131,0.0456 0.0291,0.0296 0.0159,-0.0163 0.0159,-0.0428 0,-0.059 z"
   id="path24-1"
   inkscape:label="path24-1" /><style
   type="text/css"
   id="style1-9">
	.st0{fill:#F287B7;}
</style><style
   type="text/css"
   id="style1-5">
	.st0{fill:#F287B7;}
</style><style
   type="text/css"
   id="style1-1">
	.st0{fill:#F287B7;}
</style></svg>
