%TF.GenerationSoftware,KiCad,Pcbnew,7.0.8*%
%TF.CreationDate,2024-05-09T09:52:06-04:00*%
%TF.ProjectId,Caddy_SAO,43616464-795f-4534-914f-2e6b69636164,rev?*%
%TF.SameCoordinates,Original*%
%TF.FileFunction,Profile,NP*%
%FSLAX46Y46*%
G04 Gerber Fmt 4.6, Leading zero omitted, Abs format (unit mm)*
G04 Created by KiCad (PCBNEW 7.0.8) date 2024-05-09 09:52:06*
%MOMM*%
%LPD*%
G01*
G04 APERTURE LIST*
%TA.AperFunction,Profile*%
%ADD10C,0.100000*%
%TD*%
G04 APERTURE END LIST*
D10*
X218356385Y-133290963D02*
X219561387Y-133309570D01*
X220714233Y-133339610D01*
X221815817Y-133380289D01*
X222867035Y-133430812D01*
X223868785Y-133490385D01*
X224821963Y-133558214D01*
X225727463Y-133633503D01*
X226586184Y-133715459D01*
X227399021Y-133803286D01*
X228166871Y-133896191D01*
X228890629Y-133993378D01*
X230209457Y-134197422D01*
X231362675Y-134409063D01*
X232357453Y-134621944D01*
X233200961Y-134829709D01*
X233900369Y-135026001D01*
X234462848Y-135204466D01*
X234895567Y-135358746D01*
X235205697Y-135482484D01*
X235486870Y-135612915D01*
X235766860Y-135906651D01*
X236049990Y-136228951D01*
X236334437Y-136574893D01*
X236618381Y-136939554D01*
X236899998Y-137318013D01*
X237177469Y-137705348D01*
X237712682Y-138486954D01*
X239323334Y-140983959D01*
X247684166Y-141618957D01*
X247723530Y-141624848D01*
X247762196Y-141632599D01*
X247800087Y-141642211D01*
X247837126Y-141653682D01*
X247873235Y-141667015D01*
X247908336Y-141682207D01*
X247942352Y-141699261D01*
X247975205Y-141718174D01*
X248006819Y-141738948D01*
X248037114Y-141761582D01*
X248051744Y-141773597D01*
X248066015Y-141786077D01*
X248079917Y-141799022D01*
X248093442Y-141812432D01*
X248106579Y-141826307D01*
X248119319Y-141840647D01*
X248131652Y-141855452D01*
X248143569Y-141870723D01*
X248155059Y-141886458D01*
X248166113Y-141902659D01*
X248176721Y-141919324D01*
X248186874Y-141936455D01*
X248338597Y-142238659D01*
X248483136Y-142580602D01*
X248646590Y-143044398D01*
X248729112Y-143320732D01*
X248808805Y-143626017D01*
X248883150Y-143959750D01*
X248949627Y-144321427D01*
X249005718Y-144710544D01*
X249048903Y-145126598D01*
X249076663Y-145569084D01*
X249086479Y-146037498D01*
X249086066Y-146231801D01*
X249083172Y-146421143D01*
X249080020Y-146515503D01*
X249075317Y-146610484D01*
X249068754Y-146706705D01*
X249060020Y-146804787D01*
X249055421Y-146896925D01*
X249043070Y-147025961D01*
X249025138Y-147179182D01*
X249003796Y-147343874D01*
X248959560Y-147656827D01*
X248927727Y-147863121D01*
X248881011Y-148097461D01*
X248830574Y-148323972D01*
X248777037Y-148542266D01*
X248721019Y-148751956D01*
X248663141Y-148952655D01*
X248604023Y-149143974D01*
X248544285Y-149325527D01*
X248484547Y-149496925D01*
X248425429Y-149657781D01*
X248367551Y-149807707D01*
X248257996Y-150073221D01*
X248160844Y-150290365D01*
X248081055Y-150456039D01*
X248055623Y-150500358D01*
X248028912Y-150543941D01*
X248000884Y-150586671D01*
X247971499Y-150628432D01*
X247940719Y-150669108D01*
X247908505Y-150708583D01*
X247874818Y-150746740D01*
X247839620Y-150783463D01*
X247802871Y-150818635D01*
X247764534Y-150852141D01*
X247724568Y-150883864D01*
X247682937Y-150913688D01*
X247639600Y-150941496D01*
X247594519Y-150967172D01*
X247547655Y-150990601D01*
X247498970Y-151011665D01*
X246944532Y-151237439D01*
X246312890Y-151473445D01*
X245633500Y-151712551D01*
X244935817Y-151947627D01*
X243603391Y-152377162D01*
X242551254Y-152704998D01*
X242539995Y-153135417D01*
X242505831Y-153579827D01*
X242448180Y-154032997D01*
X242366461Y-154489693D01*
X242260092Y-154944685D01*
X242197482Y-155169906D01*
X242128492Y-155392739D01*
X242053049Y-155612529D01*
X241971080Y-155828623D01*
X241882513Y-156040366D01*
X241787274Y-156247105D01*
X241685292Y-156448185D01*
X241576494Y-156642953D01*
X241460806Y-156830754D01*
X241338156Y-157010935D01*
X241208472Y-157182840D01*
X241071681Y-157345817D01*
X240927710Y-157499212D01*
X240776487Y-157642369D01*
X240617939Y-157774636D01*
X240451992Y-157895358D01*
X240278575Y-158003881D01*
X240097615Y-158099551D01*
X239909039Y-158181714D01*
X239712775Y-158249716D01*
X239508750Y-158302904D01*
X239296890Y-158340622D01*
X239178962Y-158349355D01*
X238933910Y-158355918D01*
X238238549Y-158363773D01*
X237259590Y-158367081D01*
X237141387Y-158361816D01*
X237024933Y-158351009D01*
X236910272Y-158334699D01*
X236797447Y-158312924D01*
X236686501Y-158285722D01*
X236577479Y-158253134D01*
X236470424Y-158215197D01*
X236365380Y-158171950D01*
X236262390Y-158123433D01*
X236161497Y-158069683D01*
X236062746Y-158010739D01*
X235966180Y-157946641D01*
X235871842Y-157877427D01*
X235779776Y-157803136D01*
X235602636Y-157639476D01*
X235435108Y-157455973D01*
X235277540Y-157252937D01*
X235130282Y-157030676D01*
X234993681Y-156789502D01*
X234868088Y-156529725D01*
X234753850Y-156251654D01*
X234651317Y-155955600D01*
X234560837Y-155641872D01*
X227701515Y-157120234D01*
X223071307Y-158116142D01*
X220802506Y-158578751D01*
X220008759Y-158552288D01*
X219717712Y-158605206D01*
X219566584Y-159192495D01*
X219391736Y-159752732D01*
X219194255Y-160284289D01*
X219087365Y-160538804D01*
X218975224Y-160785538D01*
X218857967Y-161024288D01*
X218735729Y-161254850D01*
X218608647Y-161477022D01*
X218476856Y-161690599D01*
X218340491Y-161895378D01*
X218199689Y-162091156D01*
X218054585Y-162277729D01*
X217905314Y-162454894D01*
X217752013Y-162622446D01*
X217594817Y-162780184D01*
X217433861Y-162927903D01*
X217269281Y-163065399D01*
X217101213Y-163192470D01*
X216929793Y-163308912D01*
X216755155Y-163414520D01*
X216577437Y-163509093D01*
X216396773Y-163592426D01*
X216213299Y-163664316D01*
X216027150Y-163724560D01*
X215838464Y-163772953D01*
X215647374Y-163809293D01*
X215454017Y-163833375D01*
X215258528Y-163844998D01*
X215061043Y-163843956D01*
X212441673Y-163817497D01*
X212224614Y-163810977D01*
X212014890Y-163791691D01*
X211812394Y-163760052D01*
X211617020Y-163716470D01*
X211428661Y-163661358D01*
X211247210Y-163595127D01*
X211072562Y-163518190D01*
X210904608Y-163430957D01*
X210743244Y-163333842D01*
X210588361Y-163227255D01*
X210439854Y-163111609D01*
X210297616Y-162987315D01*
X210161541Y-162854785D01*
X210031521Y-162714431D01*
X209789223Y-162411898D01*
X209569870Y-162083010D01*
X209372608Y-161731061D01*
X209196585Y-161359346D01*
X209040948Y-160971159D01*
X208904846Y-160569795D01*
X208787424Y-160158547D01*
X208687831Y-159740711D01*
X208605213Y-159319580D01*
X208499382Y-158658123D01*
X208459853Y-158649914D01*
X208420653Y-158640198D01*
X208381801Y-158629018D01*
X208343318Y-158616420D01*
X208267535Y-158587138D01*
X208193456Y-158552702D01*
X208121238Y-158513460D01*
X208051036Y-158469761D01*
X207983004Y-158421954D01*
X207917297Y-158370387D01*
X207854071Y-158315410D01*
X207793481Y-158257371D01*
X207735681Y-158196618D01*
X207680827Y-158133502D01*
X207629073Y-158068371D01*
X207580575Y-158001573D01*
X207535487Y-157933457D01*
X207493965Y-157864372D01*
X204821671Y-157573326D01*
X204239590Y-157573326D01*
X204062960Y-157607432D01*
X203873307Y-157647739D01*
X203472298Y-157732075D01*
X203269622Y-157768662D01*
X203169641Y-157783933D01*
X203071288Y-157796568D01*
X202975105Y-157806102D01*
X202881636Y-157812071D01*
X202791421Y-157814009D01*
X202705006Y-157811451D01*
X197492714Y-157679161D01*
X197240948Y-157677093D01*
X197096925Y-157677765D01*
X196947012Y-157682466D01*
X196871299Y-157687007D01*
X196795858Y-157693370D01*
X196721270Y-157701825D01*
X196648115Y-157712645D01*
X196576976Y-157726100D01*
X196508434Y-157742462D01*
X196443070Y-157762002D01*
X196381466Y-157784992D01*
X196088828Y-157842825D01*
X195813903Y-157887984D01*
X195553318Y-157921438D01*
X195303701Y-157944156D01*
X195061681Y-157957108D01*
X194823885Y-157961262D01*
X194586942Y-157957586D01*
X194347480Y-157947051D01*
X191936462Y-157732075D01*
X191671883Y-158340618D01*
X191501169Y-158640664D01*
X191316968Y-158925285D01*
X191120055Y-159193937D01*
X190911204Y-159446080D01*
X190691191Y-159681168D01*
X190460791Y-159898662D01*
X190220780Y-160098016D01*
X189971931Y-160278690D01*
X189715022Y-160440140D01*
X189450826Y-160581824D01*
X189180119Y-160703199D01*
X188903676Y-160803722D01*
X188622272Y-160882852D01*
X188336682Y-160940045D01*
X188047682Y-160974758D01*
X187756046Y-160986450D01*
X187729588Y-160986450D01*
X185560005Y-160880619D01*
X185328805Y-160873486D01*
X185101635Y-160852391D01*
X184878650Y-160817789D01*
X184660007Y-160770135D01*
X184445860Y-160709885D01*
X184236363Y-160637494D01*
X184031673Y-160553418D01*
X183831943Y-160458113D01*
X183637330Y-160352032D01*
X183447987Y-160235633D01*
X183264070Y-160109369D01*
X183085735Y-159973698D01*
X182913135Y-159829073D01*
X182746427Y-159675951D01*
X182431304Y-159346036D01*
X182141606Y-158987595D01*
X181878573Y-158604273D01*
X181643445Y-158199711D01*
X181437463Y-157777553D01*
X181261867Y-157341443D01*
X181117896Y-156895023D01*
X181006792Y-156441937D01*
X180929794Y-155985828D01*
X180850418Y-155350830D01*
X176828753Y-155615414D01*
X176695398Y-155619192D01*
X176568071Y-155615872D01*
X176446596Y-155605800D01*
X176330799Y-155589317D01*
X176220505Y-155566770D01*
X176115540Y-155538500D01*
X176015731Y-155504853D01*
X175920901Y-155466173D01*
X175830878Y-155422803D01*
X175745486Y-155375087D01*
X175664551Y-155323369D01*
X175587898Y-155267994D01*
X175515354Y-155209305D01*
X175446744Y-155147646D01*
X175381894Y-155083362D01*
X175320628Y-155016795D01*
X175208154Y-154878193D01*
X175107928Y-154734590D01*
X175018554Y-154588740D01*
X174938636Y-154443393D01*
X174801590Y-154165219D01*
X174685629Y-153922081D01*
X174206071Y-152900129D01*
X173952650Y-152363108D01*
X173786045Y-152017082D01*
X173771242Y-152016699D01*
X173756609Y-152015564D01*
X173742160Y-152013703D01*
X173727909Y-152011140D01*
X173713871Y-152007898D01*
X173700062Y-152004002D01*
X173686494Y-151999476D01*
X173673183Y-151994345D01*
X173660144Y-151988632D01*
X173647390Y-151982362D01*
X173634937Y-151975560D01*
X173622799Y-151968248D01*
X173610990Y-151960453D01*
X173599525Y-151952197D01*
X173588419Y-151943504D01*
X173577685Y-151934401D01*
X173567340Y-151924909D01*
X173557396Y-151915054D01*
X173547869Y-151904860D01*
X173538773Y-151894351D01*
X173521933Y-151872486D01*
X173506992Y-151849651D01*
X173500270Y-151837931D01*
X173494067Y-151826041D01*
X173488396Y-151814006D01*
X173483273Y-151801850D01*
X173478712Y-151789597D01*
X173474727Y-151777271D01*
X173471334Y-151764897D01*
X173468546Y-151752499D01*
X173468546Y-151461456D01*
X173469081Y-151446727D01*
X173470658Y-151432304D01*
X173473233Y-151418181D01*
X173476762Y-151404353D01*
X173481203Y-151390816D01*
X173486510Y-151377565D01*
X173492641Y-151364595D01*
X173499552Y-151351901D01*
X173507199Y-151339479D01*
X173515539Y-151327323D01*
X173534123Y-151303790D01*
X173554955Y-151281266D01*
X173577686Y-151259710D01*
X173601967Y-151239085D01*
X173627450Y-151219351D01*
X173653786Y-151200470D01*
X173680625Y-151182402D01*
X173734420Y-151148554D01*
X173786045Y-151117497D01*
X173299872Y-147720908D01*
X173053066Y-145941998D01*
X172912920Y-144820412D01*
X172902752Y-144675201D01*
X172902274Y-144536811D01*
X172905790Y-144469981D01*
X172911873Y-144404623D01*
X172920572Y-144340660D01*
X172931936Y-144278015D01*
X172946013Y-144216611D01*
X172962852Y-144156369D01*
X172982500Y-144097213D01*
X173005007Y-144039064D01*
X173030420Y-143981845D01*
X173058789Y-143925479D01*
X173090161Y-143869888D01*
X173124586Y-143814995D01*
X173162111Y-143760722D01*
X173202785Y-143706991D01*
X173246657Y-143653726D01*
X173293774Y-143600848D01*
X173397941Y-143495945D01*
X173515673Y-143391662D01*
X173647357Y-143287380D01*
X173793381Y-143182477D01*
X173954134Y-143076334D01*
X174130001Y-142968330D01*
X174236048Y-142915595D01*
X174345854Y-142866425D01*
X174459458Y-142820666D01*
X174576899Y-142778163D01*
X174698216Y-142738759D01*
X174823448Y-142702302D01*
X174952632Y-142668635D01*
X175085809Y-142637603D01*
X175364293Y-142582825D01*
X175659210Y-142536730D01*
X175970870Y-142498075D01*
X176299583Y-142465622D01*
X178811472Y-142318446D01*
X182484220Y-142141506D01*
X188946667Y-141857079D01*
X190215996Y-141623708D01*
X191451528Y-141418863D01*
X192634350Y-141241303D01*
X193745548Y-141089787D01*
X194766210Y-140963077D01*
X195677420Y-140859931D01*
X197095837Y-140719372D01*
X197889998Y-139863610D01*
X199162891Y-138516715D01*
X199961034Y-137691649D01*
X200857465Y-136782867D01*
X201845054Y-135803392D01*
X202916668Y-134766247D01*
X202962524Y-134721340D01*
X203010667Y-134676123D01*
X203060903Y-134630906D01*
X203113038Y-134586000D01*
X203166878Y-134541713D01*
X203222230Y-134498356D01*
X203278899Y-134456240D01*
X203336693Y-134415674D01*
X203395416Y-134376969D01*
X203454877Y-134340434D01*
X203514879Y-134306379D01*
X203575231Y-134275115D01*
X203635737Y-134246952D01*
X203696205Y-134222199D01*
X203756441Y-134201167D01*
X203816250Y-134184166D01*
X204578166Y-134021282D01*
X205509633Y-133876278D01*
X206855649Y-133714531D01*
X208651869Y-133555265D01*
X210933951Y-133417702D01*
X213737552Y-133321068D01*
X217098328Y-133284584D01*
X218356385Y-133290963D01*
M02*
